<?xml version="1.0" encoding="UTF-8"?><svg id="Layer_2" xmlns="http://www.w3.org/2000/svg" viewBox="0 0 177.22 177.22"><defs><style>.cls-1{fill:#057f47;}</style></defs><g id="Layer_1-2"><g><path class="cls-1" d="M88.61,90.31h-22.54c-.62,0-1.19-.34-1.49-.89-.3-.55-.27-1.21,.06-1.74,1.53-2.37,2.34-5.09,2.34-7.86,0-4.43-1.98-8.58-5.44-11.36-3.46-2.78-7.99-3.82-12.44-2.85-5.09,1.11-9.29,5.08-10.69,10.12-1.15,4.14-.53,8.39,1.77,11.95,.34,.52,.36,1.19,.06,1.74-.3,.55-.87,.89-1.49,.89H16.19c-.94,0-1.7-.76-1.7-1.7v-28.4c0-25.21,20.51-45.72,45.72-45.72h28.4c.94,0,1.7,.76,1.7,1.7v19.71c3.77-1.64,7.96-1.93,12.07-.78h0c6.24,1.73,11.16,6.92,12.54,13.23,1.2,5.46-.08,11.04-3.52,15.31-3.43,4.27-8.54,6.72-14.02,6.72-2.44,0-4.84-.51-7.08-1.48v19.71c0,.94-.76,1.7-1.7,1.7Zm-19.71-3.4h18.01v-20.84c0-.62,.34-1.2,.89-1.49,.54-.3,1.21-.27,1.73,.06,2.37,1.53,5.09,2.34,7.86,2.34,4.44,0,8.58-1.99,11.36-5.45s3.82-8,2.84-12.45c-1.12-5.09-5.09-9.28-10.13-10.68h0c-4.14-1.15-8.38-.52-11.94,1.77-.52,.34-1.19,.36-1.73,.06-.55-.3-.89-.87-.89-1.49V17.89h-26.7c-23.34,0-42.32,18.99-42.32,42.32v26.7h18.01c-1.64-3.78-1.93-7.97-.78-12.08,1.74-6.24,6.94-11.16,13.25-12.53,5.46-1.19,11.04,.09,15.3,3.53,4.26,3.43,6.71,8.54,6.71,14.01,0,2.44-.51,4.84-1.48,7.08Z"/><path class="cls-1" d="M124.85,115.36c-4.1,0-8.06-1.37-11.28-3.96-4.27-3.43-6.72-8.54-6.72-14.01,0-2.44,.51-4.84,1.48-7.08h-19.71c-.94,0-1.7-.76-1.7-1.7v-22.54c0-.62,.34-1.2,.89-1.49,.54-.3,1.21-.28,1.73,.06,2.38,1.53,5.09,2.34,7.86,2.34,4.43,0,8.58-1.98,11.36-5.44s3.82-7.99,2.85-12.44c-1.11-5.09-5.09-9.29-10.12-10.7-4.14-1.15-8.39-.53-11.95,1.77-.52,.34-1.19,.36-1.73,.06-.55-.3-.89-.87-.89-1.49V16.19c0-.94,.76-1.7,1.7-1.7h28.4c25.21,0,45.72,20.51,45.72,45.72v28.4c0,.94-.76,1.7-1.7,1.7h-19.71c1.64,3.77,1.92,7.96,.78,12.07h0c-1.73,6.23-6.92,11.16-13.23,12.54-1.34,.29-2.69,.44-4.03,.44Zm-34.54-28.45h20.84c.62,0,1.2,.34,1.49,.89,.3,.55,.27,1.21-.06,1.74-1.53,2.37-2.34,5.09-2.34,7.86,0,4.44,1.99,8.58,5.45,11.36,3.46,2.79,8,3.82,12.45,2.84,5.09-1.12,9.28-5.09,10.68-10.13h0c1.15-4.14,.52-8.38-1.77-11.94-.34-.52-.36-1.19-.06-1.74,.3-.55,.87-.89,1.49-.89h20.84v-26.7c0-23.34-18.98-42.32-42.32-42.32h-26.7v18.01c3.78-1.64,7.97-1.92,12.08-.78,6.24,1.74,11.15,6.94,12.53,13.25,1.19,5.46-.09,11.03-3.53,15.3s-8.54,6.71-14.01,6.71c-2.44,0-4.84-.51-7.08-1.48v18.01Z"/><path class="cls-1" d="M117.01,162.73h-28.4c-.94,0-1.7-.76-1.7-1.7v-19.71c-3.77,1.64-7.96,1.93-12.07,.78-6.23-1.73-11.16-6.92-12.54-13.23-1.2-5.46,.08-11.04,3.52-15.31,3.43-4.27,8.54-6.72,14.01-6.72,2.44,0,4.84,.51,7.08,1.48v-19.71c0-.94,.76-1.7,1.7-1.7h22.54c.62,0,1.2,.34,1.49,.89,.3,.55,.27,1.21-.06,1.74-1.53,2.37-2.34,5.09-2.34,7.86,0,4.43,1.98,8.57,5.44,11.36,3.46,2.78,7.99,3.83,12.44,2.85,5.09-1.11,9.29-5.08,10.7-10.12,1.15-4.14,.53-8.39-1.77-11.95-.34-.52-.36-1.19-.06-1.74,.3-.55,.87-.89,1.49-.89h22.54c.94,0,1.7,.76,1.7,1.7v28.4c0,25.21-20.51,45.72-45.72,45.72Zm-26.7-3.4h26.7c23.34,0,42.32-18.99,42.32-42.32v-26.7h-18.01c1.64,3.78,1.92,7.97,.78,12.08-1.74,6.24-6.94,11.15-13.25,12.53-5.46,1.19-11.03-.09-15.3-3.53-4.26-3.43-6.71-8.54-6.71-14.01,0-2.44,.51-4.84,1.48-7.08h-18.01v20.84c0,.62-.34,1.2-.89,1.49-.55,.3-1.21,.27-1.73-.06-2.37-1.53-5.09-2.34-7.86-2.34-4.44,0-8.58,1.99-11.36,5.45-2.78,3.46-3.82,8-2.84,12.45,1.12,5.09,5.09,9.28,10.13,10.68h0c4.14,1.15,8.38,.52,11.94-1.77,.52-.34,1.19-.36,1.73-.06,.55,.3,.89,.87,.89,1.49v20.84Z"/><path class="cls-1" d="M88.61,162.73h-28.4c-25.21,0-45.72-20.51-45.72-45.72v-28.4c0-.94,.76-1.7,1.7-1.7h19.71c-1.64-3.77-1.92-7.96-.78-12.07h0c1.73-6.24,6.93-11.16,13.23-12.54,5.46-1.2,11.04,.08,15.31,3.51,4.27,3.43,6.72,8.54,6.72,14.02,0,2.44-.51,4.84-1.48,7.08h19.71c.94,0,1.7,.76,1.7,1.7v22.54c0,.62-.34,1.2-.89,1.49-.55,.3-1.21,.27-1.73-.06-2.37-1.53-5.09-2.34-7.86-2.34-4.43,0-8.58,1.98-11.36,5.44-2.78,3.46-3.82,7.99-2.85,12.44,1.11,5.09,5.09,9.29,10.12,10.7,4.14,1.16,8.39,.53,11.95-1.77,.52-.34,1.19-.36,1.73-.06,.55,.3,.89,.87,.89,1.49v22.54c0,.94-.76,1.7-1.7,1.7ZM17.89,90.31v26.7c0,23.34,18.99,42.32,42.32,42.32h26.7v-18.01c-3.78,1.64-7.97,1.93-12.08,.78-6.24-1.74-11.15-6.94-12.53-13.25-1.19-5.46,.09-11.03,3.53-15.3s8.54-6.71,14.01-6.71c2.44,0,4.84,.51,7.08,1.48v-18.01h-20.84c-.62,0-1.2-.34-1.49-.89s-.27-1.21,.06-1.74c1.53-2.37,2.34-5.09,2.34-7.86,0-4.44-1.99-8.58-5.45-11.36s-8-3.82-12.45-2.84c-5.09,1.12-9.28,5.09-10.68,10.13-1.15,4.14-.52,8.38,1.77,11.94,.34,.52,.36,1.19,.06,1.74s-.87,.89-1.49,.89H17.89Z"/><path class="cls-1" d="M119.55,177.22H57.67c-31.8,0-57.67-25.87-57.67-57.67V57.67c0-15.4,6-29.89,16.89-40.78C27.78,6,42.26,0,57.67,0h61.88c31.8,0,57.67,25.87,57.67,57.67v61.88c0,31.8-25.87,57.67-57.67,57.67ZM57.67,3.4c-14.5,0-28.12,5.64-38.37,15.89C9.05,29.55,3.4,43.17,3.4,57.67v61.88c0,29.92,24.34,54.27,54.27,54.27h61.88c29.92,0,54.27-24.34,54.27-54.27V57.67c0-29.92-24.35-54.27-54.27-54.27H57.67Z"/></g></g></svg>