<svg xmlns="http://www.w3.org/2000/svg" viewBox="26.896 114.802 568.677 562.396">
  <path fill="#D9E021" d="M308.1 114.8h6.27c155.3 0 281.2 125.9 281.2 281.2 0 155.3-125.9 281.2-281.2 281.2h-6.28C152.8 677.2 26.9 551.3 26.9 396c0-155.3 125.9-281.2 281.2-281.2z"/>
  <path fill="#FFF" d="M308.1 130.26h6.27c146.77 0 265.74 118.98 265.74 265.74S461.15 661.74 314.4 661.74h-6.3C161.34 661.74 42.37 542.76 42.37 396S161.33 130.26 308.1 130.26z"/>
  <path fill="#006C88" d="M421.96 327.55c11.76-7.57 20.94-19.32 25.12-33.5-11.27 6.93-23.2 12.08-36.23 14.5-10.3-11.6-25.13-18.84-41.4-18.84-31.56 0-57 27.06-57 60.4 0 4.83.3 9.34 1.28 13.7-47.35-2.43-89.38-26.58-117.57-62.82-4.83 8.7-7.73 19-7.73 30.12 0 20.93 10.15 39.45 25.45 50.24-9.34-.48-18.2-3.22-25.77-7.73v.82c0 29.3 19.33 53.63 45.6 59.1-4.52 1.62-9.68 2.26-14.83 2.26-3.7 0-7.25-.48-10.63-1.13 7.25 24.16 28.18 41.55 53.15 41.88-19.34 16.42-44.14 26.1-70.88 26.1-4.5 0-9-.33-13.52-.82 25.28 17.08 55.24 27.07 87.45 27.07 105 0 162.34-91.8 162.34-171.84v-7.73c10.94-8.54 20.6-19.33 28.17-31.25-10.14 4.83-20.93 8.06-32.7 9.67l-.3-.17z"/>
</svg>
