<?xml version="1.0" encoding="UTF-8"?><svg id="Layer_2" xmlns="http://www.w3.org/2000/svg" viewBox="0 0 718.3 190.28"><defs><style>.cls-1{fill:#a0cd46;}.cls-2{fill:#d7e02b;}.cls-3{fill:#058047;}.cls-4{fill:#2c4452;}.cls-5{fill:none;stroke:#4b4b4b;stroke-miterlimit:10;stroke-width:2px;}</style></defs><g id="Content"><g><polygon class="cls-1" points="166.08 63.52 0 63.52 20 44.6 0 23.68 166.08 23.68 186.08 44.6 166.08 63.52"/><polygon class="cls-4" points="339.48 63.52 173.4 63.52 193.4 44.6 173.4 23.68 339.48 23.68 359.48 44.6 339.48 63.52"/><polygon class="cls-2" points="513.24 63.52 347.16 63.52 367.16 44.6 347.16 23.68 513.24 23.68 533.24 44.6 513.24 63.52"/><polygon class="cls-3" points="686.56 63.52 520.48 63.52 540.48 44.6 520.48 23.68 686.56 23.68 706.56 44.6 686.56 63.52"/><path class="cls-5" d="M718.3,1.27h-37.69c-4.42,0-8.01,3.59-8.01,8.01V181.27c0,4.42-3.59,8.01-8.01,8.01h-102.69c-4.42,0-8.01-3.59-8.01-8.01l-.14-171.99c0-4.42-3.59-8.01-8.01-8.01h-38.69c-4.42,0-8.01,3.59-8.01,8.01l-.08,171.99c0,4.42-3.59,8.01-8.01,8.01h-102.69c-4.42,0-8.01-3.59-8.01-8.01l.02-171.99c0-4.42-3.59-8.01-8.01-8.01h-38.69c-4.42,0-8.01,3.59-8.01,8.01V181.27c0,4.42-3.59,8.01-8.01,8.01h-102.69c-4.42,0-8.01-3.59-8.01-8.01l.02-172.26c0-4.42-3.59-8.01-8.01-8.01h-38.69c-4.42,0-8.01,3.59-8.01,8.01V181.27c0,4.42-3.59,8.01-8.01,8.01H41.46c-4.42,0-8.01-3.59-8.01-8.01l.06-172.26c0-4.42-3.59-8.01-8.01-8.01H4.81"/></g></g></svg>