<?xml version="1.0" encoding="UTF-8"?><svg id="Layer_2" xmlns="http://www.w3.org/2000/svg" viewBox="0 0 172.04 182.57"><defs><style>.cls-1{fill:#e47832;}</style></defs><g id="Layer_1-2"><g><g><path class="cls-1" d="M126.74,182.57H9.16c-5.05,0-9.16-4.11-9.16-9.16V9.15C0,4.11,4.11,0,9.16,0H103.59c.98,0,1.95,.4,2.64,1.09l28.21,28.21c.93,.93,1.45,2.17,1.45,3.49v13.82h-3.4v-13.82c0-.41-.16-.8-.45-1.09L103.83,3.5c-.06-.06-.15-.1-.23-.1H9.16c-3.17,0-5.75,2.58-5.75,5.75V173.41c0,3.17,2.58,5.75,5.75,5.75H126.74c3.17,0,5.75-2.58,5.75-5.75v-16.18h3.4v16.18c0,5.05-4.11,9.16-9.15,9.16Z"/><path class="cls-1" d="M134.19,33.16h-27.18c-2.36,0-4.28-1.92-4.28-4.28V1.7h3.4V28.88c0,.48,.39,.88,.88,.88h27.18v3.4Z"/></g><g><g><g><path class="cls-1" d="M114.53,132.24c-2.97,0-5.96-.32-8.94-.96-10.93-2.37-20.28-8.85-26.34-18.25-6.06-9.4-8.09-20.6-5.72-31.52,2.37-10.93,8.85-20.28,18.25-26.34,19.4-12.5,45.36-6.88,57.86,12.52,12.5,19.41,6.88,45.36-12.52,57.86-6.84,4.41-14.64,6.68-22.59,6.68Zm-.16-80.35c-7.31,0-14.47,2.09-20.75,6.14-8.64,5.56-14.59,14.16-16.76,24.2-2.17,10.04-.31,20.33,5.26,28.96h0c5.56,8.64,14.16,14.59,24.2,16.76,10.04,2.17,20.33,.31,28.96-5.26,17.83-11.48,22.99-35.33,11.51-53.16-5.56-8.63-14.16-14.59-24.2-16.76-2.73-.59-5.48-.88-8.21-.88Z"/><rect class="cls-1" x="133.6" y="125.86" width="3.4" height="11.51" transform="translate(-49.72 94.23) rotate(-32.78)"/><path class="cls-1" d="M161.82,174.11c-3.37,0-6.66-1.65-8.62-4.69l-19.35-30.04c-.51-.79-.28-1.84,.51-2.35l14.34-9.24c.38-.24,.84-.33,1.28-.23,.44,.1,.83,.36,1.07,.74l19.35,30.04c1.48,2.3,1.98,5.04,1.4,7.71s-2.16,4.96-4.46,6.44c-1.71,1.1-3.63,1.63-5.53,1.63Zm-24.19-35.14l18.43,28.61c2.04,3.17,6.27,4.08,9.44,2.04,1.53-.99,2.59-2.51,2.98-4.3,.39-1.78,.05-3.61-.93-5.14l-18.43-28.62-11.48,7.4Z"/></g><rect class="cls-1" x="141.69" y="120.65" width="3.4" height="11.51" transform="translate(-45.61 97.82) rotate(-32.8)"/></g><g><g><rect class="cls-1" x="44.02" y="72.08" width="22.27" height="3.4"/><path class="cls-1" d="M25.6,80.41c-.44,0-.87-.17-1.2-.5l-5.91-5.91,2.41-2.41,4.71,4.71,8.65-8.65,2.41,2.41-9.86,9.86c-.33,.33-.77,.5-1.2,.5Z"/><path class="cls-1" d="M25.6,105.94h0c-.45,0-.88-.18-1.2-.5l-5.91-5.92,2.41-2.41,4.71,4.71,8.65-8.65,2.41,2.41-9.86,9.86c-.32,.32-.75,.5-1.2,.5Z"/><path class="cls-1" d="M25.6,131.46h0c-.45,0-.88-.18-1.2-.5l-5.91-5.92,2.41-2.41,4.71,4.71,8.65-8.65,2.41,2.41-9.86,9.86c-.32,.32-.75,.5-1.2,.5Z"/><rect class="cls-1" x="44.02" y="97.61" width="20.91" height="3.4"/><rect class="cls-1" x="44.02" y="46.56" width="40.61" height="3.4"/><path class="cls-1" d="M25.3,54.89c-.44,0-.87-.17-1.2-.5l-5.92-5.91,2.41-2.41,4.71,4.71,8.65-8.65,2.41,2.41-9.86,9.86c-.33,.33-.77,.5-1.2,.5Z"/></g><rect class="cls-1" x="44.02" y="123.13" width="31.93" height="3.4"/></g><path class="cls-1" d="M114.49,118.2c-9.16,0-18.14-4.51-23.46-12.76h0c-4.03-6.25-5.38-13.7-3.81-20.97s5.88-13.49,12.14-17.52c6.25-4.03,13.7-5.38,20.97-3.81,7.27,1.57,13.49,5.89,17.52,12.14,4.03,6.25,5.38,13.7,3.81,20.97-1.57,7.27-5.89,13.49-12.14,17.52-4.65,3-9.87,4.43-15.04,4.43Zm-20.6-14.6c7.3,11.33,22.46,14.61,33.79,7.31,5.49-3.54,9.27-9,10.65-15.38,1.38-6.38,.19-12.92-3.34-18.41-3.54-5.49-9-9.28-15.38-10.66-6.38-1.38-12.92-.19-18.41,3.34-5.49,3.54-9.27,9-10.65,15.38-1.38,6.38-.2,12.92,3.34,18.41h0Z"/></g><path class="cls-1" d="M25.6,156.99h0c-.45,0-.88-.18-1.2-.5l-5.91-5.92,2.41-2.41,4.71,4.71,8.65-8.65,2.41,2.41-9.86,9.86c-.32,.32-.75,.5-1.2,.5Z"/><rect class="cls-1" x="44.02" y="148.66" width="53.62" height="3.4"/></g></g></svg>