<?xml version="1.0" encoding="UTF-8"?><svg id="Layer_2" xmlns="http://www.w3.org/2000/svg" viewBox="0 0 401.45 296.08"><defs><style>.cls-1{fill:#00793a;}.cls-2{fill:#94c954;}</style></defs><g id="Content"><g><rect class="cls-1" x="124.68" width="151.68" height="80.99"/><rect class="cls-1" x="249.77" y="214.62" width="151.68" height="80.99"/><rect class="cls-1" y="215.08" width="151.68" height="80.99"/><polygon class="cls-2" points="234.1 248.21 226.8 241.41 226.8 246.96 175.79 246.96 175.79 241.41 168.48 248.21 161.18 255.02 168.48 261.83 175.79 268.63 175.79 262.87 226.8 262.87 226.8 268.63 234.1 261.83 241.41 255.02 234.1 248.21"/><polygon class="cls-2" points="148.67 115.54 139.04 118.18 143.77 121.1 116.98 164.51 112.25 161.6 114.21 171.39 116.17 181.17 125.8 178.53 135.42 175.89 130.52 172.87 157.31 129.45 162.22 132.48 160.26 122.69 158.3 112.9 148.67 115.54"/><polygon class="cls-2" points="252 115.54 261.62 118.18 256.9 121.1 283.69 164.51 288.42 161.6 286.46 171.39 284.5 181.17 274.87 178.53 265.24 175.89 270.15 172.87 243.35 129.45 238.45 132.48 240.41 122.69 242.37 112.9 252 115.54"/></g></g></svg>