<svg width="338" height="130" viewBox="0 0 338 130" fill="none" xmlns="http://www.w3.org/2000/svg">
<g filter="url(#filter0_d_33_33)">
<rect x="17" y="22" width="304" height="86" rx="8" fill="#1FDC49"/>
</g>
<path d="M59.1681 69.84H64.6881C68.3681 69.84 70.9281 69 72.5681 67.4C74.2081 65.8 75.0081 63.4 75.0081 60.56C75.0081 57.64 74.1681 55.52 72.7281 54.08C70.7681 52.12 67.6081 51.48 63.6081 51.48H52.9281V78H59.1681V69.84ZM59.1681 64.76V56.72H63.8481C65.8481 56.72 67.0481 57 67.8081 57.76C68.3681 58.32 68.6481 59.28 68.6481 60.6C68.6481 61.92 68.3281 63.28 67.7681 64.12C67.4481 64.6 66.9681 64.76 66.2881 64.76H59.1681ZM78.475 78H97.755V72.8H84.715V51.48H78.475V78ZM120.828 77.48C120.988 77.88 121.148 78 121.668 78H127.588L116.948 52.04C116.748 51.56 116.628 51.48 116.108 51.48H109.988L99.9078 78H105.668C106.148 78 106.268 77.92 106.428 77.48L107.948 73.08H119.108L120.828 77.48ZM109.748 68.12L110.548 65.88C111.708 62.68 112.948 58.88 113.348 57.24C113.828 59.08 115.028 62.52 116.308 65.88L117.148 68.12H109.748ZM137.842 64.36C137.002 62.52 135.802 60.16 134.282 57.48L131.202 52C130.962 51.56 130.802 51.48 130.322 51.48H123.762L134.642 69.72V78H140.882V69.72L151.602 51.48H145.322C144.842 51.48 144.642 51.64 144.402 52.08L141.482 57.36C139.882 60.24 138.682 62.52 137.842 64.36ZM181.804 77.48C181.964 77.88 182.124 78 182.644 78H188.564L177.924 52.04C177.724 51.56 177.604 51.48 177.084 51.48H170.964L160.884 78H166.644C167.124 78 167.244 77.92 167.404 77.48L168.924 73.08H180.084L181.804 77.48ZM170.724 68.12L171.524 65.88C172.684 62.68 173.924 58.88 174.324 57.24C174.804 59.08 176.004 62.52 177.284 65.88L178.124 68.12H170.724ZM214.27 58.2C212.43 53.88 208.11 51.08 202.59 51.08C195.47 51.08 189.11 56.24 189.11 64.76C189.11 72.52 193.95 78.4 201.83 78.4C204.03 78.4 205.83 77.84 207.79 76.76L209.75 75.68L210.71 78H215.15V64.64C215.15 64 214.95 63.84 214.27 63.84H205.03V68.28H209.07V70.72C209.07 71.24 209.07 71.36 208.43 71.6C207.03 72.12 204.71 72.48 202.95 72.48C198.19 72.48 195.63 69.76 195.63 64.68C195.63 59.52 198.51 56.88 202.23 56.88C204.15 56.88 205.51 57.48 207.31 58.72L210.43 60.84L214.27 58.2ZM239.109 77.48C239.269 77.88 239.429 78 239.949 78H245.869L235.229 52.04C235.029 51.56 234.909 51.48 234.389 51.48H228.269L218.189 78H223.949C224.429 78 224.549 77.92 224.709 77.48L226.229 73.08H237.389L239.109 77.48ZM228.029 68.12L228.829 65.88C229.989 62.68 231.229 58.88 231.629 57.24C232.109 59.08 233.309 62.52 234.589 65.88L235.429 68.12H228.029ZM255.186 51.48H248.946V78H255.186V51.48ZM285.067 78V51.48H279.187V68.4C278.507 67.4 276.827 65.2 275.067 63L266.267 52C265.907 51.56 265.747 51.48 265.147 51.48H260.467V78H266.347V61.12H266.387C267.067 62.12 268.747 64.28 270.507 66.48L279.307 77.48C279.627 77.88 279.827 78 280.427 78H285.067Z" fill="white"/>
<defs>
<filter id="filter0_d_33_33" x="7" y="17" width="324" height="106" filterUnits="userSpaceOnUse" color-interpolation-filters="sRGB">
<feFlood flood-opacity="0" result="BackgroundImageFix"/>
<feColorMatrix in="SourceAlpha" type="matrix" values="0 0 0 0 0 0 0 0 0 0 0 0 0 0 0 0 0 0 127 0" result="hardAlpha"/>
<feOffset dy="5"/>
<feGaussianBlur stdDeviation="5"/>
<feComposite in2="hardAlpha" operator="out"/>
<feColorMatrix type="matrix" values="0 0 0 0 0 0 0 0 0 0 0 0 0 0 0 0 0 0 0.5 0"/>
<feBlend mode="normal" in2="BackgroundImageFix" result="effect1_dropShadow_33_33"/>
<feBlend mode="normal" in="SourceGraphic" in2="effect1_dropShadow_33_33" result="shape"/>
</filter>
</defs>
</svg>
