<svg width="379" height="130" viewBox="0 0 379 130" fill="none" xmlns="http://www.w3.org/2000/svg">
<g filter="url(#filter0_d_70_4)">
<rect x="17" y="22" width="341" height="86" rx="8" fill="#47B7F7"/>
</g>
<path d="M72.5211 78H78.7611V51.48H72.5211V61.68H60.9611V51.48H54.7211V78H60.9611V67.08H72.5211V78ZM109.699 64.76C109.699 56.4 103.419 51.08 96.2189 51.08C89.0189 51.08 82.7389 56.4 82.7389 64.76C82.7389 73.12 89.0189 78.4 96.2189 78.4C103.419 78.4 109.699 73.12 109.699 64.76ZM103.179 64.76C103.179 69.76 100.579 72.28 96.2189 72.28C91.8589 72.28 89.2589 69.88 89.2589 64.76C89.2589 59.76 91.8589 57.2 96.2189 57.2C100.579 57.2 103.179 59.72 103.179 64.76ZM127.81 51.48L125.09 60.68C123.93 64.64 122.85 68.72 122.33 71.56C121.77 68.8 120.49 64.2 119.49 60.92L116.81 52.04C116.65 51.56 116.49 51.48 116.01 51.48H110.17L118.33 77.4C118.45 77.8 118.73 78 119.29 78H125.73L127.69 71.12C128.77 67.32 130.05 62.28 130.45 60.04C130.89 62.24 132.01 66.6 133.21 70.84L135.09 77.4C135.21 77.8 135.49 78 136.05 78H142.45L150.85 51.48H145.29C144.85 51.48 144.65 51.64 144.53 52.04L141.73 61.2C140.41 65.48 139.37 69.4 138.89 71.56C138.45 69.4 137.41 65.4 136.13 61.04L133.45 52.04C133.29 51.56 133.13 51.48 132.65 51.48H127.81ZM169.453 78H175.693V56.72H184.533V51.48H160.613V56.72H169.453V78ZM212.355 64.76C212.355 56.4 206.075 51.08 198.875 51.08C191.675 51.08 185.395 56.4 185.395 64.76C185.395 73.12 191.675 78.4 198.875 78.4C206.075 78.4 212.355 73.12 212.355 64.76ZM205.835 64.76C205.835 69.76 203.235 72.28 198.875 72.28C194.515 72.28 191.915 69.88 191.915 64.76C191.915 59.76 194.515 57.2 198.875 57.2C203.235 57.2 205.835 59.72 205.835 64.76ZM231.586 69.84H237.106C240.786 69.84 243.346 69 244.986 67.4C246.626 65.8 247.426 63.4 247.426 60.56C247.426 57.64 246.586 55.52 245.146 54.08C243.186 52.12 240.026 51.48 236.026 51.48H225.346V78H231.586V69.84ZM231.586 64.76V56.72H236.266C238.266 56.72 239.466 57 240.226 57.76C240.786 58.32 241.066 59.28 241.066 60.6C241.066 61.92 240.746 63.28 240.186 64.12C239.866 64.6 239.386 64.76 238.706 64.76H231.586ZM250.893 78H270.173V72.8H257.133V51.48H250.893V78ZM293.246 77.48C293.406 77.88 293.566 78 294.086 78H300.006L289.366 52.04C289.166 51.56 289.046 51.48 288.526 51.48H282.406L272.326 78H278.086C278.566 78 278.686 77.92 278.846 77.48L280.366 73.08H291.526L293.246 77.48ZM282.166 68.12L282.966 65.88C284.126 62.68 285.366 58.88 285.766 57.24C286.246 59.08 287.446 62.52 288.726 65.88L289.566 68.12H282.166ZM310.26 64.36C309.42 62.52 308.22 60.16 306.7 57.48L303.62 52C303.38 51.56 303.22 51.48 302.74 51.48H296.18L307.06 69.72V78H313.3V69.72L324.02 51.48H317.74C317.26 51.48 317.06 51.64 316.82 52.08L313.9 57.36C312.3 60.24 311.1 62.52 310.26 64.36Z" fill="white"/>
<defs>
<filter id="filter0_d_70_4" x="7" y="17" width="361" height="106" filterUnits="userSpaceOnUse" color-interpolation-filters="sRGB">
<feFlood flood-opacity="0" result="BackgroundImageFix"/>
<feColorMatrix in="SourceAlpha" type="matrix" values="0 0 0 0 0 0 0 0 0 0 0 0 0 0 0 0 0 0 127 0" result="hardAlpha"/>
<feOffset dy="5"/>
<feGaussianBlur stdDeviation="5"/>
<feComposite in2="hardAlpha" operator="out"/>
<feColorMatrix type="matrix" values="0 0 0 0 0 0 0 0 0 0 0 0 0 0 0 0 0 0 0.5 0"/>
<feBlend mode="normal" in2="BackgroundImageFix" result="effect1_dropShadow_70_4"/>
<feBlend mode="normal" in="SourceGraphic" in2="effect1_dropShadow_70_4" result="shape"/>
</filter>
</defs>
</svg>
