<?xml version="1.0" encoding="UTF-8"?><svg width="15" height="15" xmlns="http://www.w3.org/2000/svg" viewBox="0 0 15.07 15.76"><defs><style>.cls-1{fill:#4d5157;}</style></defs><g id="Layer_1-2"><path class="cls-1" d="M14.71,5.15c.46,1.39,.34,2.83,.34,4.25-.4,.52-.61,1.11-.54,1.78-2.66,4.23-6.3,5.6-10.08,3.8C1.12,13.41-.74,9.28,.28,5.66,1.13,2.66,3.08,.64,6,.14c3.48-.59,6.38,.73,8.3,3.96,.14,.35,.27,.7,.41,1.05Zm-7.38,6.91c.84-.89,.99-1.87,.23-2.79-.78-.96-1.8-.84-2.67-.14-.93,.75-1.04,1.77-.23,2.69,.78,.89,1.73,.88,2.67,.24Z"/></g></svg>