<?xml version="1.0" encoding="UTF-8"?><svg id="Layer_2" xmlns="http://www.w3.org/2000/svg" viewBox="0 0 179.29 155.57"><defs><style>.cls-1{fill:#2d5271;}</style></defs><g id="Layer_1-2"><g><g><g><path class="cls-1" d="M150.55,145.55h-3.4v-8.73c0-1.85,.71-3.58,1.99-4.91l23.85-30.29c.52-.94,2.24-8.09,2.31-9.19,2.15-39.56-2.13-61.27-2.17-61.49-.12-.6-.48-1.09-1.01-1.36-.53-.27-1.14-.28-1.69-.03-4.51,2.02-5.45,11.37-5.95,16.39l-.07,.72c-.03,.7-.91,19.66-5.19,30.29l-3.16-1.27c4.06-10.09,4.95-29.08,4.96-29.27l.08-.81c.61-6.11,1.64-16.34,7.93-19.15,1.48-.68,3.18-.65,4.65,.1,1.47,.75,2.49,2.11,2.8,3.73,.04,.2,4.4,22.34,2.23,62.33-.05,.94-1.9,9.74-3.06,11.14l-23.88,30.33c-.04,.05-.09,.1-.13,.15-.68,.68-1.07,1.62-1.07,2.58v8.73Z"/><path class="cls-1" d="M109.66,145.57l-3.4-.06,.28-16.43c.15-8.74,3.78-16.8,9.98-22.1,.47-.4,.93-.77,1.36-1.08l1.34-.99c1.64-1.21,3.33-2.47,5.27-3.65l.7-.58c7.87-6.96,14.74-14.62,20.36-22.73,1.52-2.19,3.8-3.66,6.43-4.14,2.11-.38,4.3-.07,6.2,.87,.11,.04,.23,.09,.33,.16,.07,.04,.14,.09,.2,.14l.66,.4c4.62,3.2,3.97,9.04,1.45,13.14l-12.2,17.59c0,2.31-.66,10.17-9.04,16.32l-2.01-2.74c8.21-6.02,7.65-13.87,7.64-13.94-.03-.39,.07-.79,.3-1.11l12.46-17.97c1.18-1.91,2.67-6.25-.46-8.42l-.73-.44c-1.28-.67-2.77-.89-4.2-.63-1.73,.31-3.24,1.28-4.24,2.73-5.78,8.33-12.83,16.2-20.95,23.38l-.83,.69c-.06,.05-.13,.1-.2,.14-1.85,1.12-3.51,2.35-5.12,3.54l-1.36,1c-.37,.27-.76,.58-1.16,.92-5.45,4.66-8.66,11.8-8.79,19.57l-.28,16.43Z"/><path class="cls-1" d="M155.49,155.57h-3.4v-8.36c-1.41,.04-3.41,.04-6.23,.04h-41.15v8.32h-3.4v-10.02c0-.45,.18-.88,.5-1.2s.75-.5,1.2-.5h0c.5,0,50.12,0,50.77,0,.91,0,1.72,.76,1.72,1.7v10.02Z"/></g><g><path class="cls-1" d="M32.15,145.55h-3.4v-8.73c0-.97-.38-1.89-1.07-2.58-.05-.05-.09-.1-.13-.15L3.64,103.73c-1.13-1.37-2.99-10.17-3.04-11.11C-1.56,52.63,2.79,30.49,2.84,30.27c.31-1.6,1.33-2.97,2.8-3.72,1.47-.75,3.17-.79,4.67-.09,6.27,2.8,7.3,13.03,7.91,19.14l.07,.72c.02,.15,2.91,20.8,7.01,30.97l-3.16,1.27c-4.25-10.56-7.11-30.97-7.23-31.84l-.08-.78c-.5-5.02-1.44-14.37-5.93-16.38-.56-.26-1.18-.25-1.71,.02-.53,.27-.9,.76-1.01,1.35-.05,.23-4.32,22-2.18,61.5,.07,1.1,1.79,8.25,2.36,9.26l23.8,30.22c1.28,1.32,1.99,3.06,1.99,4.91v8.73Z"/><path class="cls-1" d="M69.63,145.57l-.28-16.43c-.13-7.77-3.33-14.9-8.79-19.57-.4-.34-.79-.65-1.16-.92l-1.37-1.01c-1.6-1.19-3.26-2.42-5.11-3.54-.07-.04-.14-.09-.2-.14l-.79-.65c-8.16-7.21-15.21-15.08-20.99-23.42-1-1.45-2.51-2.41-4.24-2.73-1.39-.25-2.97,0-4.23,.65l-.78,.48c-2.8,1.94-1.7,6.22-.32,8.44l12.41,17.89c.23,.32,.33,.72,.3,1.11-.02,.31-.49,7.97,7.64,13.94l-2.01,2.74c-8.39-6.15-9.04-14.01-9.04-16.32l-12.15-17.51c-2.59-4.2-2.98-10.19,1.32-13.16l.75-.46c.06-.05,.13-.1,.2-.14,.11-.07,.22-.12,.34-.16,1.9-.92,4.14-1.24,6.19-.87,2.63,.48,4.91,1.94,6.43,4.14,5.63,8.11,12.49,15.77,20.41,22.77l.65,.54c1.94,1.18,3.63,2.44,5.26,3.65l1.35,.99c.43,.32,.89,.68,1.36,1.08,6.2,5.3,9.83,13.36,9.98,22.1l.28,16.43-3.4,.06Z"/><path class="cls-1" d="M77.98,155.57h-3.4v-8.32H33.44c-2.83,0-4.82,0-6.23-.04v8.36h-3.4v-10.02c0-.94,.72-1.69,1.72-1.7,.65,0,50.27,0,50.77,0,.45,0,.88,.18,1.2,.5s.5,.75,.5,1.2v10.02Z"/></g></g><path class="cls-1" d="M89.95,95.39c-.32,0-.64-.09-.92-.27-24.26-15.52-38.18-38.67-38.18-63.5V11.76c0-.61,.33-1.17,.85-1.47l.32-.18c23.53-13.54,52.71-13.46,76.17,.19,.52,.3,.85,.86,.85,1.47V31.62c0,24.83-13.92,47.97-38.18,63.5-.28,.18-.6,.27-.92,.27ZM54.26,12.75V31.62c0,23.33,12.99,45.16,35.7,60.04,22.7-14.88,35.69-36.7,35.69-60.04V12.75c-22.08-12.46-49.29-12.47-71.39,0Z"/><path class="cls-1" d="M85.53,53.55h0c-.45,0-.88-.18-1.2-.5l-11.24-11.24,2.41-2.41,10.03,10.03,19.38-19.38,2.41,2.41-20.58,20.58c-.32,.32-.75,.5-1.2,.5Z"/></g></g></svg>