<svg width="722" height="717" viewBox="0 0 722 717" fill="none" xmlns="http://www.w3.org/2000/svg">
  <path opacity="0.05" d="M717.852 379.359L721.904 348.267L417.756 308.634L457.566 4.52145L426.482 0.448524L382.599 335.674L717.852 379.359ZM167.193 513.773L234.17 2.18093L253.594 4.71944L189.17 496.873L681.358 561.007L678.827 580.439L167.193 513.773ZM298.7 405.076L351.076 5.01643L378.271 8.58026L329.467 381.424L702.345 430.009L698.803 457.211L298.708 405.069L298.7 405.076ZM67.1159 587.262L138.689 40.5698L150.342 42.0971L80.3034 577.129L615.378 646.857L613.858 658.517L67.1159 587.276V587.262ZM113.205 552.77L180.112 41.7577L195.654 43.7942L130.791 539.257L626.296 603.823L624.274 619.365L113.219 552.77H113.205ZM225.861 462.967L283.823 20.2404L307.136 23.2881L252.236 442.687L671.671 497.34L668.637 520.653L225.876 462.953L225.861 462.967ZM0.661994 643.689L74.0738 82.9537L77.9629 83.4628L5.06728 640.317L561.963 712.887L561.454 716.776L0.669072 643.697L0.661994 643.689ZM34.9779 617.915L106.29 73.224L114.061 74.2351L43.7743 611.155L580.737 681.131L579.726 688.902L34.992 617.915H34.9779Z" fill="url(#paint0_linear_101_290)"/>
  <defs>
  <linearGradient id="paint0_linear_101_290" x1="499.399" y1="21.0151" x2="218.843" y2="729.981" gradientUnits="userSpaceOnUse">
  <stop stop-color="#E0E8EB"/>
  <stop offset="0.13" stop-color="#D4E1E5"/>
  <stop offset="0.37" stop-color="#B6D0D7"/>
  <stop offset="0.69" stop-color="#85B4C0"/>
  <stop offset="0.75" stop-color="#7BAFBC"/>
  </linearGradient>
  </defs>
</svg>