<svg width="592" height="603" viewBox="0 0 592 603" fill="none" xmlns="http://www.w3.org/2000/svg">
<path opacity="0.4" d="M578.98 423.118L592 403.135L396.447 275.766L523.942 80.3111L503.96 67.2781L363.429 282.72L578.975 423.109L578.98 423.118ZM157.025 333.917L371.49 5.13249L383.976 13.2744L177.655 329.568L494.101 535.679L485.964 548.173L157.017 333.915L157.025 333.917ZM283.032 302.689L450.744 45.577L468.224 56.979L311.919 296.597L551.655 452.746L540.265 470.236L283.032 302.689ZM64.1764 351.345L293.36 0L300.851 4.88183L76.5494 348.737L420.575 572.808L415.69 580.305L64.1671 351.351L64.1764 351.345ZM107.148 342.876L321.373 14.46L331.364 20.9728L123.653 339.398L442.232 546.9L435.726 556.893L107.148 342.876ZM213.999 318.401L399.598 33.8744L414.584 43.6474L238.762 313.181L508.43 488.825L498.663 503.812L213.992 318.399L213.999 318.401ZM0.00735674 368.164L235.078 7.78572L237.572 9.41478L4.13234 367.292L362.18 600.499L360.549 603L0 368.162L0.00735674 368.164ZM32.0336 361.795L260.378 11.7288L265.373 14.9889L40.2835 360.051L385.523 584.912L382.27 589.908L32.0355 361.787L32.0336 361.795Z" fill="url(#paint0_radial_132_29)"/>
<defs>
<radialGradient id="paint0_radial_132_29" cx="0" cy="0" r="1" gradientUnits="userSpaceOnUse" gradientTransform="translate(-2.82742e-05 397) rotate(-15.91) scale(445.048 445.045)">
<stop stop-color="#7BAFBC"/>
<stop offset="0.502533" stop-color="#85B4C0"/>
<stop offset="0.63" stop-color="#B6D0D7"/>
<stop offset="0.87" stop-color="#D4E1E5"/>
<stop offset="1" stop-color="#E0E8EB" stop-opacity="0"/>
</radialGradient>
</defs>
</svg>
