<?xml version="1.0" encoding="UTF-8"?>
<svg width="100px" height="94px" viewBox="0 0 100 94" version="1.1" xmlns="http://www.w3.org/2000/svg" xmlns:xlink="http://www.w3.org/1999/xlink">
    <title>icon-basis-points</title>
    <g id="Design---2020" stroke="none" stroke-width="1" fill="none" fill-rule="evenodd">
        <g id="Investments" transform="translate(-75.000000, -2681.000000)" fill-rule="nonzero">
            <g id="Investment-section-icons_basis_points" transform="translate(78.000000, 2681.000000)">
                <path d="M36.8012203,73 C37.1336759,71.0004648 37.1336759,68.9595352 36.8012203,66.96 L30.4831807,65.96 C30.2933069,65.4022315 30.06675,64.8577033 29.8050012,64.33 L33.5599213,59.14 C32.3836317,57.4923089 30.9468604,56.0483029 29.3063398,54.865 L24.1252482,58.635 C23.6088015,58.3612869 23.0739346,58.124044 22.5245452,57.925 L21.5272224,51.585 C20.5381732,51.4215655 19.5376402,51.3379639 18.5352542,51.335 L18.5352542,51.335 C17.5328682,51.3379639 16.5323352,51.4215655 15.543286,51.585 L14.5459632,57.925 C13.9897875,58.1136897 13.4467152,58.3391853 12.9203272,58.6 L7.7392355,54.835 C6.09832265,56.0195148 4.66008982,57.4632971 3.48066739,59.11 L7.24057413,64.3 C6.97626217,64.8258832 6.75124633,65.3707134 6.56738128,65.93 L0.249341697,66.93 C-0.083113899,68.9295352 -0.083113899,70.9704648 0.249341697,72.97 L6.56738128,73.97 C6.75036903,74.5279954 6.97541562,75.0712287 7.24057413,75.595 L3.48066739,80.79 C4.66008982,82.4367029 6.09832265,83.8804852 7.7392355,85.065 L12.9203272,81.295 C13.416586,81.5664188 13.9315126,81.802016 14.4611908,82 L15.4585135,88.335 C16.4473984,88.4992014 17.4481296,88.5811472 18.4504818,88.5800119 L18.4504818,88.5800119 C19.452834,88.5811472 20.4535651,88.4992014 21.44245,88.335 L22.5245452,82 C23.0816314,81.8117698 23.6248463,81.5845442 24.1501813,81.32 L29.3312729,85.09 C30.9717934,83.9066971 32.4085647,82.4626911 33.5848544,80.815 L29.8050012,75.615 C30.0739981,75.0931788 30.3072462,74.5535974 30.5031271,74 L36.8012203,73 Z" id="Path" fill="#153359"></path>
                <ellipse id="Oval" fill="#FFFFFF" cx="18.4804015" cy="69.955" rx="4.89685467" ry="4.91"></ellipse>
                <path d="M15.4036608,79.42 C15.3271982,79.4189035 15.2514176,79.4053952 15.1792632,79.38 C9.99413754,77.5451396 7.26832196,71.8485034 9.08562121,66.645 C9.15307447,66.400075 9.35108652,66.2132908 9.59901445,66.1607175 C9.84694238,66.1081443 10.1034192,66.198554 10.2639915,66.3951261 C10.4245638,66.5916982 10.4624399,66.8616345 10.3621943,67.095 C8.79412347,71.5901972 11.1493334,76.5100563 15.6280584,78.095 C15.9375181,78.20638 16.1227212,78.5242899 16.0674738,78.8492776 C16.0122265,79.1742653 15.7324453,79.4127036 15.4036608,79.415 L15.4036608,79.42 Z" id="Path" fill="#40BEEE"></path>
                <path d="M27.2418818,73.725 C27.1654192,73.7239035 27.0896386,73.7103952 27.0174841,73.685 C26.8476382,73.6260925 26.7083349,73.5015346 26.6305951,73.3390636 C26.5528552,73.1765925 26.5431336,72.9896985 26.6035952,72.82 C28.1776009,68.3244737 25.8204244,63.4005065 21.3377311,61.82 C20.9865922,61.6957359 20.8024041,61.3095815 20.9263355,60.9575 C21.0502669,60.6054185 21.4353874,60.4207359 21.7865264,60.545 C26.969013,62.3798916 29.6942026,68.0729835 27.8801683,73.275 C27.7833875,73.5449933 27.5280165,73.725 27.2418818,73.725 Z" id="Path" fill="#40BEEE"></path>
                <path d="M18.4804015,64.03 C15.2168751,64.03 12.5712642,66.6827129 12.5712642,69.955 C12.5712642,73.2272871 15.2168751,75.88 18.4804015,75.88 C21.7439278,75.88 24.3895387,73.2272871 24.3895387,69.955 C24.3895387,66.6827129 21.7439278,64.03 18.4804015,64.03 Z M18.4804015,73.85 C16.3350115,73.85 14.5958294,72.1061491 14.5958294,69.955 C14.5958294,67.8038509 16.3350115,66.06 18.4804015,66.06 C20.6257914,66.06 22.3649735,67.8038509 22.3649735,69.955 C22.3649735,72.1061491 20.6257914,73.85 18.4804015,73.85 Z" id="Shape" fill="#40BEEE"></path>
                <path d="M94.7506583,48.5 C95.0831139,46.5004648 95.0831139,44.4595352 94.7506583,42.46 L88.4326187,41.46 C88.242745,40.9022315 88.016188,40.3577033 87.7544393,39.83 L91.5093594,34.64 C90.3345829,32.9910245 88.8975829,31.5467887 87.2557779,30.365 L82.0746862,34.1 C81.5493513,33.8354558 81.0061364,33.6082302 80.4490502,33.42 L79.4517274,27.08 C78.4626782,26.9165655 77.4621452,26.8329639 76.4597592,26.83 L76.4597592,26.83 C75.4573732,26.8329639 74.4568402,26.9165655 73.4677909,27.08 L72.4704682,33.42 C71.9142924,33.6086897 71.3712202,33.8341853 70.8448321,34.095 L65.6637405,30.33 C64.0228276,31.5145148 62.5845948,32.9582971 61.4051724,34.605 L65.1650791,39.795 C64.8734866,40.318535 64.6217768,40.8634204 64.4121004,41.425 L58.0940608,42.425 C57.7616053,44.4245352 57.7616053,46.4654648 58.0940608,48.465 L64.4121004,49.5 C64.5950882,50.0579954 64.8201348,50.6012287 65.0852933,51.125 L61.3253865,56.32 C62.5061509,57.9655602 63.9441829,59.409141 65.5839547,60.595 L70.7650463,56.825 C71.2895598,57.089938 71.8329251,57.3155553 72.3906824,57.5 L73.3880051,63.835 C74.37689,63.9992014 75.3776211,64.0811472 76.3799734,64.0800119 L76.3799734,64.0800119 C77.3823256,64.0811472 78.3830567,63.9992014 79.3719416,63.835 L80.3692643,57.5 C80.9263505,57.3117698 81.4695655,57.0845442 81.9949004,56.82 L87.1759921,60.59 C88.8165706,59.4067655 90.2533523,57.9627491 91.4295736,56.315 L87.6746534,51.12 C87.9372637,50.5944083 88.1638484,50.051484 88.3528329,49.495 L94.7506583,48.5 Z" id="Path" fill="#153359"></path>
                <ellipse id="Oval" fill="#FFFFFF" cx="76.4348261" cy="45.45" rx="4.89685467" ry="4.91"></ellipse>
                <path d="M73.3530988,54.915 C73.2766362,54.9139035 73.2008556,54.9003952 73.1287012,54.875 C67.9435756,53.0401396 65.21776,47.3435034 67.0350592,42.14 C67.1760835,41.8117042 67.5465288,41.6489325 67.8828467,41.7674866 C68.2191646,41.8860408 68.4065248,42.2454424 68.3116324,42.59 C66.7435615,47.0851972 69.0987714,52.0050563 73.5774964,53.59 C73.7473424,53.6489075 73.8866457,53.7734654 73.9643855,53.9359364 C74.0421254,54.0984075 74.051847,54.2853015 73.9913854,54.455 C73.8967174,54.7279995 73.641341,54.9120441 73.3530988,54.915 L73.3530988,54.915 Z" id="Path" fill="#40BEEE"></path>
                <path d="M85.1913198,49.22 C85.1148572,49.2189035 85.0390766,49.2053952 84.9669222,49.18 C84.7970762,49.1210925 84.657773,48.9965346 84.5800331,48.8340636 C84.5022932,48.6715925 84.4925717,48.4846985 84.5530332,48.315 C86.127039,43.8194737 83.7698624,38.8955065 79.2871692,37.315 C79.0428999,37.2473657 78.8566157,37.0488221 78.8041833,36.8002286 C78.7517508,36.5516351 78.8419184,36.2944698 79.0379642,36.1334665 C79.2340101,35.9724631 79.5032237,35.9344853 79.7359644,36.035 C84.9283791,37.8595977 87.666231,43.5558349 85.8545394,48.765 C85.7565358,49.0458082 85.4878567,49.2301348 85.1913198,49.22 Z" id="Path" fill="#40BEEE"></path>
                <path d="M76.4348261,39.5249662 C73.1739189,39.5360369 70.5383182,42.1936171 70.545635,45.4632883 C70.5529823,48.7329596 73.2004752,51.3786291 76.461399,51.3749663 C79.7223227,51.371296 82.3639098,48.7196796 82.3639098,45.45 C82.3639098,43.8751209 81.7386134,42.3650351 80.6261174,41.2533054 C79.5136214,40.1415756 78.0054799,39.519684 76.4348261,39.5249662 L76.4348261,39.5249662 Z M76.4348261,49.3450032 C74.8632111,49.3470229 73.4452255,48.3993202 72.842396,46.9440198 C72.2395666,45.4887193 72.5706821,43.8125909 73.6812686,42.6975918 C74.7918552,41.5825926 76.4630694,41.2484355 77.9152468,41.8510133 C79.3674242,42.4535912 80.3144116,43.8741648 80.3144116,45.45 C80.3144116,47.599198 78.5782684,49.3422411 76.4348261,49.3450032 L76.4348261,49.3450032 Z" id="Shape" fill="#40BEEE"></path>
                <path d="M54.1097565,28.285 C54.5485829,25.6717251 54.5485829,23.0032749 54.1097565,20.39 L45.8519242,19.075 C45.6056903,18.3452131 45.3091014,17.6334937 44.9643069,16.945 L49.8711348,10.165 C48.3361765,8.01153534 46.4596106,6.12486478 44.3160471,4.58 L37.5492123,9.5 C36.8629839,9.15476597 36.1530859,8.85901655 35.4249149,8.615 L34.1084489,0.335 C32.808174,0.116741652 31.4923712,0.00470686768 30.1740106,-3.55271368e-15 L30.1740106,-3.55271368e-15 C28.8559209,0.0014016594 27.54012,0.110091971 26.2395724,0.325 L24.9231064,8.62 C24.1971149,8.86354733 23.4889579,9.15759486 22.8037956,9.5 L16.0419473,4.58 C13.8926705,6.12482538 12.0095254,8.01133677 10.4669132,10.165 L15.3837143,16.945 C15.0348206,17.6315985 14.7381055,18.3436206 14.4960971,19.075 L6.24325139,20.39 C5.81106057,23.0038269 5.81106057,25.6711731 6.24325139,28.285 L14.4960971,29.6 C14.7372019,30.3317181 15.0339453,31.0438081 15.3837143,31.73 L10.4669132,38.5 C12.0109822,40.6566986 13.8937859,42.5479338 16.0419473,44.1 L22.8137688,39.175 C23.4977833,39.5227252 24.2060837,39.8201744 24.9330796,40.065 L26.2495456,48.34 C27.5499259,48.5557157 28.86593,48.6627504 30.1839839,48.6600517 L30.1839839,48.6600517 C31.5020377,48.6627504 32.8180418,48.5557157 34.1184221,48.34 L35.4348881,40.065 C36.1623521,39.8171262 36.8720998,39.5197688 37.5591855,39.175 L44.3160471,44.1 C46.4603163,42.5483696 48.3382546,40.6569462 49.8761214,38.5 L44.9643069,31.73 C45.3082653,31.0417681 45.6032124,30.3299898 45.8469376,29.6 L54.1097565,28.285 Z" id="Path" fill="#153359"></path>
                <ellipse id="Oval" fill="#FFFFFF" cx="30.1789972" cy="24.335" rx="6.3978254" ry="6.415"></ellipse>
                <path d="M26.1548,36.695 C26.0546185,36.6951004 25.955143,36.6781949 25.8605898,36.645 C19.0837505,34.2466819 15.5230047,26.7995995 17.9019543,20 C18.0711264,19.5503674 18.5672442,19.3182685 19.0195727,19.4771442 C19.4719012,19.63602 19.7151221,20.1278041 19.5674832,20.585 C18.5693081,23.4113642 18.7339285,26.5198371 20.0250093,29.2243138 C21.31609,31.9287905 23.6274811,34.0069143 26.4490102,35 C26.8552376,35.1430501 27.0992529,35.5591106 27.026471,35.9846051 C26.9536891,36.4100995 26.5853507,36.7208524 26.1548,36.7200017 L26.1548,36.695 Z" id="Path" fill="#40BEEE"></path>
                <path d="M41.6182891,29.255 C41.5197067,29.2553312 41.4218146,29.2385005 41.3290655,29.205 C40.8695672,29.0443588 40.6264287,28.5411202 40.7855246,28.08 C41.7758947,25.2587782 41.6077485,22.1585979 40.3180893,19.4617042 C39.0284302,16.7648104 36.7229417,14.6922055 33.9089843,13.7 C33.4605555,13.5303737 33.2290779,13.0329241 33.3875284,12.5793814 C33.5459788,12.1258386 34.0364462,11.8819648 34.4924181,12.03 C37.7516685,13.1734476 40.4238838,15.5691397 41.9204138,18.6893404 C43.4169438,21.809541 43.6150167,25.3982762 42.4710001,28.665 C42.3451976,29.0268483 42.0003249,29.2654695 41.6182891,29.255 L41.6182891,29.255 Z" id="Path" fill="#40BEEE"></path>
                <path d="M30.1789972,16.595 C25.9157577,16.595 22.4597192,20.060316 22.4597192,24.335 C22.4597192,28.609684 25.9157577,32.075 30.1789972,32.075 C34.4422368,32.075 37.8982753,28.609684 37.8982753,24.335 C37.8982753,22.2822244 37.0849965,20.3135251 35.6373511,18.8619935 C34.1897056,17.4104619 32.2262771,16.595 30.1789972,16.595 L30.1789972,16.595 Z M30.1789972,29.4250025 C28.1253435,29.4270228 26.2727839,28.1881674 25.4854865,26.2863257 C24.698189,24.3844841 25.1312702,22.1943647 26.5827096,20.737598 C28.034149,19.2808313 30.2179781,18.8444353 32.1155009,19.6319767 C34.0130236,20.4195181 35.2503834,22.2758324 35.2503834,24.335 C35.2449065,27.1419011 32.9783768,29.4167498 30.1789972,29.4250025 Z" id="Shape" fill="#40BEEE"></path>
                <path d="M41.5983427,72 L62.5421203,72 L62.5421203,74.75 C62.5421203,74.8880712 62.4304911,75 62.2927896,75 L41.8476733,75 C41.7099718,75 41.5983427,74.8880712 41.5983427,74.75 L41.5983427,72 Z" id="Path" fill="#DD7526"></path>
                <path d="M41.8476733,69 L62.2927896,69 C62.4304911,69 62.5421203,69.1119288 62.5421203,69.25 L62.5421203,72 L41.5983427,72 L41.5983427,69.25 C41.5983427,69.1119288 41.7099718,69 41.8476733,69 Z" id="Path" fill="#F2A11F"></path>
                <rect id="Rectangle" fill="#DB4C26" x="53.5662156" y="70" width="1.99464549" height="3.5"></rect>
                <rect id="Rectangle" fill="#DB4C26" x="58.0541679" y="70" width="1.99464549" height="3.5"></rect>
                <rect id="Rectangle" fill="#DB4C26" x="48.5796019" y="70" width="1.99464549" height="3.5"></rect>
                <rect id="Rectangle" fill="#DB4C26" x="44.0916495" y="70" width="1.99464549" height="3.5"></rect>
                <path d="M40.6010199,78 L61.5447975,78 L61.5447975,80.75 C61.5447975,80.8880712 61.4331684,81 61.2954669,81 L40.8503506,81 C40.7126491,81 40.6010199,80.8880712 40.6010199,80.75 L40.6010199,78 Z" id="Path" fill="#DD7526"></path>
                <path d="M40.8503506,75.5 L61.2954669,75.5 C61.4331684,75.5 61.5447975,75.6119288 61.5447975,75.75 L61.5447975,78.5 L40.6010199,78.5 L40.6010199,75.75 C40.6010199,75.6119288 40.7126491,75.5 40.8503506,75.5 Z" id="Path" fill="#F2A11F"></path>
                <rect id="Rectangle" fill="#DB4C26" x="52.0702315" y="76.5" width="1.99464549" height="3.5"></rect>
                <rect id="Rectangle" fill="#DB4C26" x="57.0568452" y="76.5" width="1.99464549" height="3.5"></rect>
                <rect id="Rectangle" fill="#DB4C26" x="47.5822791" y="76.5" width="1.99464549" height="3.5"></rect>
                <rect id="Rectangle" fill="#DB4C26" x="43.0943268" y="76.5" width="1.99464549" height="3.5"></rect>
                <path d="M41.5983427,84.5 L62.5421203,84.5 L62.5421203,87.25 C62.5421203,87.3880712 62.4304911,87.5 62.2927896,87.5 L41.8476733,87.5 C41.7099718,87.5 41.5983427,87.3880712 41.5983427,87.25 L41.5983427,84.5 Z" id="Path" fill="#DD7526"></path>
                <path d="M41.8476733,81.5 L62.2927896,81.5 C62.4304911,81.5 62.5421203,81.6119288 62.5421203,81.75 L62.5421203,84.5 L41.5983427,84.5 L41.5983427,81.75 C41.5983427,81.6119288 41.7099718,81.5 41.8476733,81.5 Z" id="Path" fill="#F2A11F"></path>
                <rect id="Rectangle" fill="#DB4C26" x="53.5662156" y="83" width="1.99464549" height="3.5"></rect>
                <rect id="Rectangle" fill="#DB4C26" x="58.0541679" y="83" width="1.99464549" height="3.5"></rect>
                <rect id="Rectangle" fill="#DB4C26" x="48.5796019" y="83" width="1.99464549" height="3.5"></rect>
                <rect id="Rectangle" fill="#DB4C26" x="44.0916495" y="83" width="1.99464549" height="3.5"></rect>
                <path d="M40.6010199,65.5 L61.5447975,65.5 L61.5447975,68.25 C61.5447975,68.3880712 61.4331684,68.5 61.2954669,68.5 L40.8503506,68.5 C40.7126491,68.5 40.6010199,68.3880712 40.6010199,68.25 L40.6010199,65.5 Z" id="Path" fill="#DD7526"></path>
                <path d="M40.8503506,62.5 L61.2954669,62.5 C61.4331684,62.5 61.5447975,62.6119288 61.5447975,62.75 L61.5447975,65.5 L40.6010199,65.5 L40.6010199,62.75 C40.6010199,62.6119288 40.7126491,62.5 40.8503506,62.5 Z" id="Path" fill="#F2A11F"></path>
                <rect id="Rectangle" fill="#DB4C26" x="52.0702315" y="63.5" width="1.99464549" height="3.5"></rect>
                <rect id="Rectangle" fill="#DB4C26" x="57.0568452" y="63.5" width="1.99464549" height="3.5"></rect>
                <rect id="Rectangle" fill="#DB4C26" x="47.5822791" y="63.5" width="1.99464549" height="3.5"></rect>
                <rect id="Rectangle" fill="#DB4C26" x="43.0943268" y="63.5" width="1.99464549" height="3.5"></rect>
                <path d="M40.6010199,91 L61.5447975,91 L61.5447975,93.75 C61.5447975,93.8880712 61.4331684,94 61.2954669,94 L40.8503506,94 C40.7126491,94 40.6010199,93.8880712 40.6010199,93.75 L40.6010199,91 Z" id="Path" fill="#1C7065"></path>
                <path d="M40.8503506,88 L61.2954669,88 C61.4331684,88 61.5447975,88.1119288 61.5447975,88.25 L61.5447975,91 L40.6010199,91 L40.6010199,88.25 C40.6010199,88.1119288 40.7126491,88 40.8503506,88 Z" id="Path" fill="#52BF9B"></path>
                <rect id="Rectangle" fill="#2D5271" x="52.0702315" y="89.5" width="1.99464549" height="3.5"></rect>
                <rect id="Rectangle" fill="#2D5271" x="57.0568452" y="89.5" width="1.99464549" height="3.5"></rect>
                <rect id="Rectangle" fill="#2D5271" x="47.5822791" y="89.5" width="1.99464549" height="3.5"></rect>
                <rect id="Rectangle" fill="#2D5271" x="43.0943268" y="89.5" width="1.99464549" height="3.5"></rect>
            </g>
        </g>
    </g>
</svg>