<?xml version="1.0" encoding="UTF-8"?>
<svg width="95px" height="95px" viewBox="0 0 95 95" version="1.1" xmlns="http://www.w3.org/2000/svg" xmlns:xlink="http://www.w3.org/1999/xlink">
    <title>icons_funding</title>
    <g id="Design---2020" stroke="none" stroke-width="1" fill="none" fill-rule="evenodd">
        <g id="Welcome---D" transform="translate(-478.000000, -1207.000000)" fill-rule="nonzero">
            <g id="icons_funding" transform="translate(478.000000, 1207.000000)">
                <path d="M1.50534503,58.6350006 L29.693733,58.6350006 L29.693733,62.0950006 C29.693733,62.2330718 29.5818106,62.3450006 29.4437473,62.3450006 L1.74033159,62.3450006 C1.6022683,62.3450006 1.49034589,62.2330718 1.49034589,62.0950006 L1.49034589,58.6350006 L1.50534503,58.6350006 Z" id="Path" fill="#1C7065"></path>
                <path d="M1.74033159,54.9200007 L29.4437473,54.9200007 C29.5818106,54.9200007 29.693733,55.0319295 29.693733,55.1700007 L29.693733,58.6300006 L1.50534461,58.6300006 L1.50534461,55.1700007 C1.50534461,55.0375814 1.60815818,54.9279457 1.74033159,54.9200007 Z" id="Path" fill="#52BF9B"></path>
                <rect id="Rectangle" fill="#2D5271" x="18.1893909" y="56.4050007" width="2.22487277" height="4.45499992"></rect>
                <rect id="Rectangle" fill="#2D5271" x="24.1290512" y="56.4050007" width="2.22487277" height="4.45499992"></rect>
                <rect id="Rectangle" fill="#2D5271" x="10.7698152" y="56.4050007" width="2.22487277" height="4.45499992"></rect>
                <rect id="Rectangle" fill="#2D5271" x="4.83015489" y="56.4050007" width="2.22487277" height="4.45499992"></rect>
                <path d="M63.8317807,58.6350006 L92.0351679,58.6350006 L92.0351679,62.0950006 C92.0351679,62.2330718 91.9232455,62.3450006 91.7851822,62.3450006 L64.0817664,62.3450006 C63.9437032,62.3450006 63.8317807,62.2330718 63.8317807,62.0950006 L63.8317807,58.6350006 Z" id="Path" fill="#DB7526"></path>
                <path d="M64.0817664,54.9200007 L91.7851822,54.9200007 C91.9232455,54.9200007 92.0351679,55.0319295 92.0351679,55.1700007 L92.0351679,58.6300006 L63.8317807,58.6300006 L63.8317807,55.1700007 C63.8317807,55.0319295 63.9437032,54.9200007 64.0817664,54.9200007 Z" id="Path" fill="#F2A11F"></path>
                <rect id="Rectangle" fill="#D94C26" x="80.5308258" y="56.4050007" width="2.22487277" height="4.45499992"></rect>
                <rect id="Rectangle" fill="#D94C26" x="86.4654864" y="56.4050007" width="2.22487277" height="4.45499992"></rect>
                <rect id="Rectangle" fill="#D94C26" x="73.1062504" y="56.4050007" width="2.22487277" height="4.45499992"></rect>
                <rect id="Rectangle" fill="#D94C26" x="67.16659" y="56.4050007" width="2.22487277" height="4.45499992"></rect>
                <path d="M65.3166958,66.7950005 L93.5000841,66.7950005 L93.5000841,70.2550004 C93.5000841,70.3930716 93.3881617,70.5050004 93.2500984,70.5050004 L65.5666815,70.5050004 C65.4286182,70.5050004 65.3166958,70.3930716 65.3166958,70.2550004 L65.3166958,66.7950005 Z" id="Path" fill="#DB7526"></path>
                <path d="M65.5666815,63.0850006 L93.2700972,63.0850006 C93.4081605,63.0850006 93.5200829,63.1969294 93.5200829,63.3350006 L93.5200829,66.7950005 L65.3166958,66.7950005 L65.3166958,63.3350006 C65.3166958,63.1969294 65.4286182,63.0850006 65.5666815,63.0850006 Z" id="Path" fill="#F2A11F"></path>
                <rect id="Rectangle" fill="#D94C26" x="82.0107411" y="64.5700005" width="2.22487277" height="4.45499992"></rect>
                <rect id="Rectangle" fill="#D94C26" x="87.9504015" y="64.5700005" width="2.22487277" height="4.45499992"></rect>
                <rect id="Rectangle" fill="#D94C26" x="74.5911654" y="64.5700005" width="2.22487277" height="4.45499992"></rect>
                <rect id="Rectangle" fill="#D94C26" x="68.6515051" y="64.5700005" width="2.22487277" height="4.45499992"></rect>
                <path d="M62.3468657,74.9600004 L90.5502528,74.9600004 L90.5502528,78.4200003 C90.5502528,78.5580715 90.4383304,78.6700003 90.3002671,78.6700003 L62.5968514,78.6700003 C62.4587881,78.6700003 62.3468657,78.5580715 62.3468657,78.4200003 L62.3468657,74.9600004 Z" id="Path" fill="#DB7526"></path>
                <path d="M62.5968514,71.2500004 L90.3002671,71.2500004 C90.4383304,71.2500004 90.5502528,71.3619292 90.5502528,71.5000004 L90.5502528,74.9600004 L62.3468657,74.9600004 L62.3468657,71.5000004 C62.3468657,71.3619292 62.4587881,71.2500004 62.5968514,71.2500004 Z" id="Path" fill="#F2A11F"></path>
                <rect id="Rectangle" fill="#D94C26" x="79.0459107" y="72.7350004" width="2.22487277" height="4.45499992"></rect>
                <rect id="Rectangle" fill="#D94C26" x="84.9805713" y="72.7350004" width="2.22487277" height="4.45499992"></rect>
                <rect id="Rectangle" fill="#D94C26" x="71.6213353" y="72.7350004" width="2.22487277" height="4.45499992"></rect>
                <rect id="Rectangle" fill="#D94C26" x="65.6866747" y="72.7350004" width="2.22487277" height="4.45499992"></rect>
                <path d="M63.8317807,42.3050009 L92.0351679,42.3050009 L92.0351679,45.7650009 C92.0351679,45.9030721 91.9232455,46.0150009 91.7851822,46.0150009 L64.0817664,46.0150009 C63.9437032,46.0150009 63.8317807,45.9030721 63.8317807,45.7650009 L63.8317807,42.3050009 Z" id="Path" fill="#DB7526"></path>
                <path d="M64.0817664,38.595001 L91.7851822,38.595001 C91.9232455,38.595001 92.0351679,38.7069298 92.0351679,38.845001 L92.0351679,42.3050009 L63.8317807,42.3050009 L63.8317807,38.845001 C63.8317807,38.7069298 63.9437032,38.595001 64.0817664,38.595001 Z" id="Path" fill="#F2A11F"></path>
                <rect id="Rectangle" fill="#D94C26" x="80.5308258" y="40.080001" width="2.22487277" height="4.45499992"></rect>
                <rect id="Rectangle" fill="#D94C26" x="86.4654864" y="40.080001" width="2.22487277" height="4.45499992"></rect>
                <rect id="Rectangle" fill="#D94C26" x="73.1062504" y="40.080001" width="2.22487277" height="4.45499992"></rect>
                <rect id="Rectangle" fill="#D94C26" x="67.16659" y="40.080001" width="2.22487277" height="4.45499992"></rect>
                <path d="M65.3166958,50.4700008 L93.5000841,50.4700008 L93.5000841,53.9300007 C93.5000841,54.0680719 93.3881617,54.1800007 93.2500984,54.1800007 L65.5666815,54.1800007 C65.4286182,54.1800007 65.3166958,54.0680719 65.3166958,53.9300007 L65.3166958,50.4700008 Z" id="Path" fill="#DB7526"></path>
                <path d="M65.5666815,46.7600008 L93.2700972,46.7600008 C93.4081605,46.7600008 93.5200829,46.8719297 93.5200829,47.0100009 L93.5200829,50.4700008 L65.3166958,50.4700008 L65.3166958,47.0000009 C65.3220658,46.8658499 65.4324308,46.7598934 65.5666815,46.7600008 L65.5666815,46.7600008 Z" id="Path" fill="#F2A11F"></path>
                <rect id="Rectangle" fill="#D94C26" x="82.0107411" y="48.2400008" width="2.22487277" height="4.45499992"></rect>
                <rect id="Rectangle" fill="#D94C26" x="87.9504015" y="48.2400008" width="2.22487277" height="4.45499992"></rect>
                <rect id="Rectangle" fill="#D94C26" x="74.5911654" y="48.2400008" width="2.22487277" height="4.45499992"></rect>
                <rect id="Rectangle" fill="#D94C26" x="68.6515051" y="48.2400008" width="2.22487277" height="4.45499992"></rect>
                <path d="M66.7966112,34.1400011 L94.9999983,34.1400011 L94.9999983,37.600001 C94.9999983,37.7380722 94.8880759,37.850001 94.7500126,37.850001 L67.0465969,37.850001 C66.9085336,37.850001 66.7966112,37.7380722 66.7966112,37.600001 L66.7966112,34.1400011 Z" id="Path" fill="#DB7526"></path>
                <path d="M67.0465969,30.4300011 L94.7500126,30.4300011 C94.8880759,30.4300011 94.9999983,30.54193 94.9999983,30.6800011 L94.9999983,34.1400011 L66.7966112,34.1400011 L66.7966112,30.6800011 C66.7966112,30.54193 66.9085336,30.4300011 67.0465969,30.4300011 Z" id="Path" fill="#F2A11F"></path>
                <rect id="Rectangle" fill="#D94C26" x="83.4956562" y="31.9150011" width="2.22487277" height="4.45499992"></rect>
                <rect id="Rectangle" fill="#D94C26" x="89.4353165" y="31.9150011" width="2.22487277" height="4.45499992"></rect>
                <rect id="Rectangle" fill="#D94C26" x="76.0760805" y="31.9150011" width="2.22487277" height="4.45499992"></rect>
                <rect id="Rectangle" fill="#D94C26" x="70.1364202" y="31.9150011" width="2.22487277" height="4.45499992"></rect>
                <path d="M63.8317807,83.1250002 L92.0351679,83.1250002 L92.0351679,86.5850001 C92.0351679,86.7230713 91.9232455,86.8350001 91.7851822,86.8350001 L64.0817664,86.8350001 C63.9437032,86.8350001 63.8317807,86.7230713 63.8317807,86.5850001 L63.8317807,83.1250002 Z" id="Path" fill="#DB7526"></path>
                <path d="M64.0817664,79.4150003 L91.7851822,79.4150003 C91.9232455,79.4150003 92.0351679,79.5269291 92.0351679,79.6650003 L92.0351679,83.1250002 L63.8317807,83.1250002 L63.8317807,79.6650003 C63.8317807,79.5269291 63.9437032,79.4150003 64.0817664,79.4150003 Z" id="Path" fill="#F2A11F"></path>
                <rect id="Rectangle" fill="#D94C26" x="80.5308258" y="80.9000003" width="2.22487277" height="4.45499992"></rect>
                <rect id="Rectangle" fill="#D94C26" x="86.4654864" y="80.9000003" width="2.22487277" height="4.45499992"></rect>
                <rect id="Rectangle" fill="#D94C26" x="73.1062504" y="80.9000003" width="2.22487277" height="4.45499992"></rect>
                <rect id="Rectangle" fill="#D94C26" x="67.16659" y="80.9000003" width="2.22487277" height="4.45499992"></rect>
                <path d="M63.8317807,91.2900001 L92.0351679,91.2900001 L92.0351679,94.75 C92.0351679,94.8880712 91.9232455,95 91.7851822,95 L64.0817664,95 C63.9437032,95 63.8317807,94.8880712 63.8317807,94.75 L63.8317807,91.2900001 Z" id="Path" fill="#DB7526"></path>
                <path d="M64.0817664,87.5750001 L91.7851822,87.5750001 C91.9232455,87.5750001 92.0351679,87.6869289 92.0351679,87.8250001 L92.0351679,91.2850001 L63.8317807,91.2850001 L63.8317807,87.8250001 C63.8317807,87.6869289 63.9437032,87.5750001 64.0817664,87.5750001 Z" id="Path" fill="#F2A11F"></path>
                <rect id="Rectangle" fill="#D94C26" x="80.5308258" y="89.0600001" width="2.22487277" height="4.45499992"></rect>
                <rect id="Rectangle" fill="#D94C26" x="86.4654864" y="89.0600001" width="2.22487277" height="4.45499992"></rect>
                <rect id="Rectangle" fill="#D94C26" x="73.1062504" y="89.0600001" width="2.22487277" height="4.45499992"></rect>
                <rect id="Rectangle" fill="#D94C26" x="67.16659" y="89.0600001" width="2.22487277" height="4.45499992"></rect>
                <path d="M2.97526097,66.7950005 L31.1736484,66.7950005 L31.1736484,70.2550004 C31.1736484,70.3930716 31.061726,70.5050004 30.9236627,70.5050004 L3.22524667,70.5050004 C3.08718338,70.5050004 2.97526097,70.3930716 2.97526097,70.2550004 L2.97526097,66.7950005 Z" id="Path" fill="#1C7065"></path>
                <path d="M3.22524667,63.0850006 L30.9236627,63.0850006 C31.061726,63.0850006 31.1736484,63.1969294 31.1736484,63.3350006 L31.1736484,66.7950005 L2.97526097,66.7950005 L2.97526097,63.3350006 C2.97526097,63.1969294 3.08718338,63.0850006 3.22524667,63.0850006 Z" id="Path" fill="#52BF9B"></path>
                <rect id="Rectangle" fill="#2D5271" x="19.674306" y="64.5700005" width="2.22487277" height="4.45499992"></rect>
                <rect id="Rectangle" fill="#2D5271" x="25.6089666" y="64.5700005" width="2.22487277" height="4.45499992"></rect>
                <rect id="Rectangle" fill="#2D5271" x="12.2497306" y="64.5700005" width="2.22487277" height="4.45499992"></rect>
                <rect id="Rectangle" fill="#2D5271" x="6.31007026" y="64.5700005" width="2.22487277" height="4.45499992"></rect>
                <path d="M0.00543080352,74.9600004 L28.2088179,74.9600004 L28.2088179,78.4200003 C28.2088179,78.5580715 28.0968955,78.6700003 27.9588322,78.6700003 L0.255416507,78.6700003 C0.117353216,78.6700003 0.00543080352,78.5580715 0.00543080352,78.4200003 L0.00543080352,74.9600004 Z" id="Path" fill="#1C7065"></path>
                <path d="M0.255416507,71.2500004 L27.9588322,71.2500004 C28.0968955,71.2500004 28.2088179,71.3619292 28.2088179,71.5000004 L28.2088179,74.9600004 L0.00543080352,74.9600004 L0.00543080352,71.5000004 C0.00543080352,71.3619292 0.117353216,71.2500004 0.255416507,71.2500004 Z" id="Path" fill="#52BF9B"></path>
                <rect id="Rectangle" fill="#2D5271" x="16.7044758" y="72.7350004" width="2.22487277" height="4.45499992"></rect>
                <rect id="Rectangle" fill="#2D5271" x="22.6441362" y="72.7350004" width="2.22487277" height="4.45499992"></rect>
                <rect id="Rectangle" fill="#2D5271" x="9.27990042" y="72.7350004" width="2.22487277" height="4.45499992"></rect>
                <rect id="Rectangle" fill="#2D5271" x="3.34523981" y="72.7350004" width="2.22487277" height="4.45499992"></rect>
                <path d="M2.97526097,83.1250002 L31.1736484,83.1250002 L31.1736484,86.5850001 C31.1736484,86.7230713 31.061726,86.8350001 30.9236627,86.8350001 L3.22524667,86.8350001 C3.08718338,86.8350001 2.97526097,86.7230713 2.97526097,86.5850001 L2.97526097,83.1250002 Z" id="Path" fill="#1C7065"></path>
                <path d="M3.22524667,79.4150003 L30.9236627,79.4150003 C31.061726,79.4150003 31.1736484,79.5269291 31.1736484,79.6650003 L31.1736484,83.1250002 L2.97526097,83.1250002 L2.97526097,79.6650003 C2.97526097,79.5269291 3.08718338,79.4150003 3.22524667,79.4150003 Z" id="Path" fill="#52BF9B"></path>
                <rect id="Rectangle" fill="#2D5271" x="19.674306" y="80.9000003" width="2.22487277" height="4.45499992"></rect>
                <rect id="Rectangle" fill="#2D5271" x="25.6089666" y="80.9000003" width="2.22487277" height="4.45499992"></rect>
                <rect id="Rectangle" fill="#2D5271" x="12.2497306" y="80.9000003" width="2.22487277" height="4.45499992"></rect>
                <rect id="Rectangle" fill="#2D5271" x="6.31007026" y="80.9000003" width="2.22487277" height="4.45499992"></rect>
                <path d="M1.50534503,91.2900001 L29.6887333,91.2900001 L29.6887333,94.75 C29.6887333,94.8880712 29.5768109,95 29.4387476,95 L1.74033159,95 C1.6022683,95 1.49034589,94.8880712 1.49034589,94.75 L1.49034589,91.2900001 L1.50534503,91.2900001 Z" id="Path" fill="#1C7065"></path>
                <path d="M1.74033159,87.5750001 L29.4387476,87.5750001 C29.5050479,87.5750001 29.5686328,87.6013393 29.6155142,87.6482234 C29.6623956,87.6951075 29.6887333,87.758696 29.6887333,87.8250001 L29.6887333,91.2850001 L1.50534461,91.2850001 L1.50534461,87.8250001 C1.50534461,87.6925808 1.60815818,87.5829451 1.74033159,87.5750001 Z" id="Path" fill="#52BF9B"></path>
                <rect id="Rectangle" fill="#2D5271" x="18.1893909" y="89.0600001" width="2.22487277" height="4.45499992"></rect>
                <rect id="Rectangle" fill="#2D5271" x="24.1240515" y="89.0600001" width="2.22487277" height="4.45499992"></rect>
                <rect id="Rectangle" fill="#2D5271" x="10.7648155" y="89.0600001" width="2.22487277" height="4.45499992"></rect>
                <rect id="Rectangle" fill="#2D5271" x="4.83015489" y="89.0600001" width="2.22487277" height="4.45499992"></rect>
                <ellipse id="Oval" fill="#40BEEE" cx="14.8495819" cy="39.335001" rx="13.359236" ry="13.3599998"></ellipse>
                <path d="M14.8495819,24.5000004 C8.84431898,24.4979798 3.42943673,28.1146482 1.13085567,33.662912 C-1.16772539,39.2111758 0.102876566,45.5978791 4.34995436,49.8437686 C8.59703216,54.0896582 14.9837981,55.3581805 20.5309699,53.0575985 C26.0781416,50.7570165 29.6927783,45.3406062 29.6887367,39.335001 C29.6859727,31.1410481 23.0430668,24.5000004 14.8495819,24.5000004 Z M14.8495819,51.2150008 C8.2922265,51.2150008 2.97618208,45.8993972 2.97526214,39.341667 C2.97434219,32.7839367 8.28889502,27.4668422 14.8462502,27.4650012 C21.4036053,27.4631611 26.7211419,32.7772713 26.7239028,39.335001 C26.7183892,45.891097 21.4053031,51.2044868 14.8495819,51.2100008 L14.8495819,51.2150008 Z" id="Shape" fill="#153359"></path>
                <path d="M14.864581,47.4350008 C12.8739159,47.4771996 11.0525317,46.3200419 10.2448452,44.5000009 C10.0816901,44.1312981 10.1302836,43.7032309 10.3719307,43.3804859 C10.6135779,43.0577408 11.0106294,42.8906025 11.4103311,42.9433726 C11.8100328,42.9961428 12.15011,43.2605996 12.2997277,43.6350009 C12.7689436,44.6189447 13.7750304,45.23283 14.864581,45.2000009 C16.3644953,45.2000009 17.5944249,44.1300009 17.5944249,42.8200009 C17.5944249,41.240001 16.6694778,40.440001 14.8495819,40.440001 C11.1947909,40.440001 9.89486525,38.060001 9.89486525,35.8350011 C9.89486525,33.2950011 12.119738,31.2300011 14.8495819,31.2300011 C16.8378696,31.186077 18.6585928,32.3388735 19.4693177,34.1550011 C19.6948915,34.7194736 19.4267822,35.3606209 18.8665445,35.5964522 C18.3063069,35.8322835 17.6604188,35.575882 17.4144352,35.0200011 C16.9452193,34.0360573 15.9391325,33.422172 14.8495819,33.4550011 C13.3496677,33.4550011 12.119738,34.5200011 12.119738,35.8350011 C12.119738,37.415001 13.0396854,38.215001 14.8495819,38.215001 C18.5143723,38.215001 19.8192977,40.595001 19.8192977,42.8200009 C19.8192977,45.3700009 17.5944249,47.4350008 14.864581,47.4350008 Z" id="Path" fill="#FFFFFF"></path>
                <path d="M14.8495819,33.4650011 C14.2338196,33.4650011 13.7346457,32.9657986 13.7346457,32.3500011 L13.7346457,30.4300011 C13.7346457,29.8142037 14.2338196,29.3150012 14.8495819,29.3150012 C15.4653442,29.3150012 15.9645181,29.8142037 15.9645181,30.4300011 L15.9645181,32.3500011 C15.9645181,32.6457175 15.847052,32.9293221 15.6379609,33.1384252 C15.4288698,33.3475282 15.1452814,33.4650011 14.8495819,33.4650011 Z" id="Path" fill="#FFFFFF"></path>
                <path d="M14.8495819,49.3550008 C14.2338196,49.3550008 13.7346457,48.8557983 13.7346457,48.2400008 L13.7346457,46.3200009 C13.7346457,45.7042034 14.2338196,45.2050009 14.8495819,45.2050009 C15.4653442,45.2050009 15.9645181,45.7042034 15.9645181,46.3200009 L15.9645181,48.2400008 C15.9645181,48.5357172 15.847052,48.8193218 15.6379609,49.0284249 C15.4288698,49.2375279 15.1452814,49.3550008 14.8495819,49.3550008 L14.8495819,49.3550008 Z" id="Path" fill="#FFFFFF"></path>
                <ellipse id="Oval" fill="#FFFFFF" cx="23.0241144" cy="39.335001" rx="1.11493624" ry="1.11499998"></ellipse>
                <ellipse id="Oval" fill="#FFFFFF" cx="6.69004853" cy="39.335001" rx="1.11493624" ry="1.11499998"></ellipse>
                <ellipse id="Oval" fill="#F2A11F" cx="80.1558472" cy="14.8450014" rx="13.359236" ry="13.3599998"></ellipse>
                <path d="M80.1558472,8.42750874e-07 C71.9576489,8.42750874e-07 65.3116961,6.64633446 65.3116961,14.8450014 C65.3116961,23.0436684 71.9576489,29.6900012 80.1558472,29.6900012 C88.3540455,29.6900012 94.9999992,23.0436684 94.9999992,14.8450014 C95.0013251,10.9074561 93.4378183,7.13080131 90.6537123,4.34653613 C87.8696063,1.56227096 84.0931675,-0.00132520329 80.1558472,8.42750874e-07 L80.1558472,8.42750874e-07 Z M80.1558472,26.7200012 C73.5978408,26.7200012 68.2815263,21.4033827 68.2815263,14.8450014 C68.2815263,8.28662014 73.5978408,2.97000163 80.1558472,2.97000163 C86.7138536,2.97000163 92.0301682,8.28662014 92.0301682,14.8450014 C92.0246545,21.4010974 86.7115684,26.7144873 80.1558472,26.7200012 Z" id="Shape" fill="#DB7526"></path>
                <path d="M80.1708464,22.9450013 C78.1788404,22.9861512 76.3579115,21.8240835 75.5561103,20.0000013 C75.364577,19.445242 75.6358535,18.8369697 76.1765529,18.6088079 C76.7172523,18.3806461 77.3422472,18.610714 77.605993,19.1350013 C78.0737389,20.1208954 79.080139,20.7369338 80.1708464,20.7050013 C81.6707606,20.7050013 82.9006902,19.6350013 82.9006902,18.3250014 C82.9006902,16.7450014 81.9807429,15.9450014 80.1608469,15.9450014 C76.5010562,15.9450014 75.2011306,13.5650014 75.2011306,11.3400015 C75.2011306,8.80000153 77.4260033,6.73000157 80.1608469,6.73000157 C82.1492743,6.68627716 83.9692044,7.84179182 84.775583,9.66000152 C84.962598,10.0317594 84.9270326,10.476731 84.6833424,10.8140599 C84.4396522,11.1513888 84.0283983,11.3249278 83.6167331,11.2641427 C83.2050678,11.2033577 82.8615112,10.9183662 82.7257002,10.5250015 C82.2438837,9.55753856 81.2409018,8.96118965 80.1608469,9.00000153 C78.6609327,9.00000153 77.4260033,10.0650015 77.4260033,11.3800015 C77.4260033,12.9550015 78.3459507,13.7550014 80.1608469,13.7550014 C83.8206376,13.7550014 85.1305627,16.1350014 85.1305627,18.3650014 C85.1305627,20.8750013 82.90569,22.9450013 80.1708464,22.9450013 Z" id="Path" fill="#FFFFFF"></path>
                <path d="M80.1608469,9.00000153 C79.5450846,9.00000153 79.0459107,8.50079903 79.0459107,7.88500155 L79.0459107,5.94000158 C79.0180576,5.52474248 79.2237853,5.12853604 79.5794627,4.91244547 C79.9351401,4.6963549 80.3815541,4.6963549 80.7372315,4.91244547 C81.0929088,5.12853604 81.2986365,5.52474248 81.2707835,5.94000158 L81.2707835,7.86000155 C81.277495,8.15916016 81.163686,8.44846166 80.9549474,8.66285412 C80.7462088,8.87724659 80.460061,8.99873496 80.1608469,9.00000153 Z" id="Path" fill="#FFFFFF"></path>
                <path d="M80.1608469,24.8650012 C79.5450846,24.8650012 79.0459107,24.3657988 79.0459107,23.7500013 L79.0459107,21.8300013 C79.0851835,21.2444857 79.5715492,20.7896254 80.1583471,20.7896254 C80.7451449,20.7896254 81.2315106,21.2444857 81.2707835,21.8300013 L81.2707835,23.7500013 C81.2707835,24.3638514 80.7746558,24.8622486 80.1608469,24.8650012 Z" id="Path" fill="#FFFFFF"></path>
                <ellipse id="Oval" fill="#FFFFFF" cx="88.3303797" cy="14.8450014" rx="1.11493624" ry="1.11499998"></ellipse>
                <ellipse id="Oval" fill="#FFFFFF" cx="72.7412712" cy="14.8450014" rx="1.11493624" ry="1.11499998"></ellipse>
                <polygon id="Path" fill="#A6228B" points="26.7239028 28.2050012 37.1133087 28.2050012 37.1133087 68.2800005 47.5027146 68.2800005 47.5027146 1.68657421e-06"></polygon>
                <polygon id="Path" fill="#762266" points="47.5027146 1.68657421e-06 47.5027146 68.2800005 57.8921204 68.2800005 57.8921204 28.2050012 68.2815263 28.2050012"></polygon>
                <rect id="Rectangle" fill="#762266" x="47.5027146" y="71.2500004" width="10.3894059" height="5.93499989"></rect>
                <rect id="Rectangle" fill="#A6228B" x="37.1133087" y="71.2500004" width="10.3894059" height="5.93499989"></rect>
                <rect id="Rectangle" fill="#762266" x="47.5027146" y="80.1550003" width="10.3894059" height="5.93499989"></rect>
                <rect id="Rectangle" fill="#A6228B" x="37.1133087" y="80.1550003" width="10.3894059" height="5.93499989"></rect>
                <rect id="Rectangle" fill="#762266" x="47.5027146" y="89.0600001" width="10.3894059" height="5.93499989"></rect>
                <rect id="Rectangle" fill="#A6228B" x="37.1133087" y="89.0600001" width="10.3894059" height="5.93499989"></rect>
                <polygon id="Path" fill="#A6228B" points="29.6887333 1.68657421e-06 31.1086521 2.97000163 29.6887333 5.94000158 32.6585635 4.52000161 35.6283936 5.94000158 34.2084748 2.97000163 35.6283936 1.68657421e-06 32.6585635 1.42000166"></polygon>
                <polygon id="Path" fill="#A6228B" points="17.8194121 12.9900015 19.2343312 15.9550014 17.8194121 18.9250014 20.7842425 17.5100014 23.7540727 18.9250014 22.3391536 15.9550014 23.7540727 12.9900015 20.7842425 14.4050014"></polygon>
                <polygon id="Path" fill="#A6228B" points="0.00543080352 8.29000154 1.42034989 11.2600015 0.00543080352 14.2250014 2.97526097 12.8100015 5.94509113 14.2250014 4.52517233 11.2600015 5.94509113 8.29000154 2.97526097 9.70500151"></polygon>
            </g>
        </g>
    </g>
</svg>