<?xml version="1.0" encoding="UTF-8"?>
<svg width="80px" height="80px" viewBox="0 0 80 80" version="1.1" xmlns="http://www.w3.org/2000/svg" xmlns:xlink="http://www.w3.org/1999/xlink">
    <title>icon-assets</title>
    <g id="Design---2020" stroke="none" stroke-width="1" fill="none" fill-rule="evenodd">
        <g id="Review" transform="translate(-106.000000, -1146.000000)" fill-rule="nonzero">
            <g id="icon-assets" transform="translate(106.000000, 1146.000000)">
                <path d="M79.9908112,40.0082618 C79.9908112,17.9214641 62.0842582,0.0165769103 39.9954056,0.0165769103 C17.906553,0.0165769103 0,17.9214641 0,40.0082618 C0,62.0950595 17.906553,79.9999467 39.9954056,79.9999467 C50.6028467,79.9999467 60.7758346,75.7865491 68.2764281,68.2866534 C75.7770217,60.7867576 79.9908112,50.6147161 79.9908112,40.0082618" id="Path" fill="#153359"></path>
                <path d="M37.4956928,8.76475798 C59.5845453,8.76475798 77.4910984,26.6696452 77.4910984,48.7564429 C77.4922726,50.9591889 77.308313,53.1581376 76.9411615,55.3300761 C82.8412772,41.1230101 80.0686454,24.7913812 69.8102777,13.3270416 C59.5519099,1.86270205 43.6264635,-2.70188998 28.8518969,1.58744616 C14.0773302,5.87678231 3.07295604,18.2596106 0.549936827,33.4346286 C6.74524107,18.4994285 21.3252412,8.76389304 37.4956928,8.76475798" id="Path" fill="#40BEEE"></path>
                <rect id="Rectangle" fill="#FFFFFF" x="48.7444006" y="41.2580019" width="2.49971285" height="32.493244"></rect>
                <rect id="Rectangle" fill="#FFFFFF" x="28.7466978" y="25.01138" width="2.49971285" height="48.7398659"></rect>
                <path d="M14.9982771,15.0134587 C14.9982771,6.73090961 21.7132345,0.0165769103 29.9965542,0.0165769103 C38.2798739,0.0165769103 44.9948313,6.73090961 44.9948313,15.0134587 C44.9948313,23.2960079 38.2798739,30.0103406 29.9965542,30.0103406 C26.0187638,30.0103406 22.2038933,28.4303165 19.3911708,25.6178556 C16.5784482,22.8053947 14.9982771,18.9908791 14.9982771,15.0134587" id="Path" fill="#F2A11F"></path>
                <path d="M37.4956928,15.0134587 C37.4956928,14.3232463 38.0552725,13.7637186 38.7455492,13.7637186 C39.4358258,13.7637186 39.9954056,14.3232463 39.9954056,15.0134587 C39.9954056,15.7036712 39.4358258,16.2631989 38.7455492,16.2631989 C38.0552725,16.2631989 37.4956928,15.7036712 37.4956928,15.0134587" id="Path" fill="#FFFFFF"></path>
                <path d="M19.9977028,15.0134587 C19.9977028,14.3232463 20.5572826,13.7637186 21.2475592,13.7637186 C21.9378359,13.7637186 22.4974157,14.3232463 22.4974157,15.0134587 C22.4974157,15.7036712 21.9378359,16.2631989 21.2475592,16.2631989 C20.5572826,16.2631989 19.9977028,15.7036712 19.9977028,15.0134587" id="Path" fill="#FFFFFF"></path>
                <path d="M29.9965542,0.0165769103 C21.7132345,0.0165769103 14.9982771,6.73090961 14.9982771,15.0134587 C14.9982771,23.2960079 21.7132345,30.0103406 29.9965542,30.0103406 C38.2798739,30.0103406 44.9948313,23.2960079 44.9948313,15.0134587 C44.9948313,11.0360384 43.4146602,7.22152281 40.6019377,4.4090619 C37.7892151,1.596601 33.9743446,0.0165769103 29.9965542,0.0165769103 M29.9965542,28.1357303 C22.7486495,28.1357303 16.8730617,22.2606892 16.8730617,15.0134587 C16.8730617,7.76622825 22.7486495,1.89118714 29.9965542,1.89118714 C37.244459,1.89118714 43.1200467,7.76622825 43.1200467,15.0134587 C43.1131565,22.2578336 37.241603,28.1288408 29.9965542,28.1357303" id="Shape" fill="#DE7526"></path>
                <path d="M29.9965542,23.299236 C28.0035864,23.3320833 26.181527,22.178056 25.3595869,20.3623466 C25.2039662,20.0497403 25.2350399,19.6765504 25.4402179,19.3939804 C25.6453959,19.1114104 25.9906572,18.9663141 26.3361139,19.0174794 C26.6815705,19.0686448 26.9699414,19.3075879 27.0843887,19.6374973 C27.6145495,20.7581574 28.7572096,21.4593815 29.9965542,21.4246257 C31.6081617,21.517542 32.9950903,20.2978268 33.1086967,18.6876948 C33.1086967,17.4379546 32.5712584,15.9507639 29.9840556,15.9507639 C26.3094778,15.9507639 24.9846299,13.5637602 24.9846299,11.3392227 C25.0928947,8.68594394 27.3304258,6.62201353 29.9840556,6.72768153 C31.9815268,6.68980416 33.8097757,7.84463892 34.6335215,9.66457089 C34.7370621,9.89612562 34.7423284,10.1597539 34.6481179,10.3952582 C34.5539074,10.6307625 34.3682644,10.8180341 34.133579,10.914311 C33.9016004,11.0142921 33.639348,11.017762 33.4048049,10.9239535 C33.1702618,10.830145 32.9827482,10.6467854 32.8837225,10.414415 C32.3671602,9.29020247 31.2336359,8.57874907 29.9965542,8.60229176 C28.3802145,8.50224645 26.9854734,9.72392598 26.8719131,11.3392227 C26.8719131,12.5889628 27.42185,14.0761536 29.9840556,14.0761536 C33.7336249,14.0761536 34.9834813,16.4631573 34.9834813,18.6876948 C34.8752166,21.3409735 32.6376855,23.4049039 29.9840556,23.299236" id="Path" fill="#FFFFFF"></path>
                <path d="M29.9965542,8.60229176 C29.4816608,8.59556089 29.0658934,8.17983218 29.0591619,7.66498664 L29.0591619,5.6404076 C29.0591619,5.1227483 29.4788467,4.70310254 29.9965542,4.70310254 C30.5142617,4.70310254 30.9339465,5.1227483 30.9339465,5.6404076 L30.9339465,7.66498664 C30.9339465,8.18264596 30.5142617,8.60229176 29.9965542,8.60229176" id="Path" fill="#FFFFFF"></path>
                <path d="M29.9965542,25.323815 C29.4788467,25.323815 29.0591619,24.9041692 29.0591619,24.3865099 L29.0591619,22.3619308 C29.0591619,21.8442715 29.4788467,21.4246257 29.9965542,21.4246257 C30.5142617,21.4246257 30.9339465,21.8442715 30.9339465,22.3619308 L30.9339465,24.3865099 C30.9373434,24.6361244 30.8396739,24.8765102 30.663137,25.0530307 C30.4866001,25.2295512 30.246192,25.3272116 29.9965542,25.323815" id="Path" fill="#FFFFFF"></path>
                <path d="M34.9959799,31.2600807 C34.9959799,22.9775316 41.7109373,16.2631989 49.994257,16.2631989 C58.2775767,16.2631989 64.9925341,22.9775316 64.9925341,31.2600807 C64.9925341,39.5426299 58.2775767,46.2569626 49.994257,46.2569626 C41.7109373,46.2569626 34.9959799,39.5426299 34.9959799,31.2600807" id="Path" fill="#F2A11F"></path>
                <path d="M57.4933956,31.2600807 C57.4933956,30.5698683 58.0529753,30.0103406 58.743252,30.0103406 C59.4335286,30.0103406 59.9931084,30.5698683 59.9931084,31.2600807 C59.9931084,31.9502932 59.4335286,32.5098209 58.743252,32.5098209 C58.0529753,32.5098209 57.4933956,31.9502932 57.4933956,31.2600807" id="Path" fill="#FFFFFF"></path>
                <path d="M39.9954056,31.2600807 C39.9954056,30.5698683 40.5549854,30.0103406 41.245262,30.0103406 C41.9355387,30.0103406 42.4951185,30.5698683 42.4951185,31.2600807 C42.4951185,31.9502932 41.9355387,32.5098209 41.245262,32.5098209 C40.5549854,32.5098209 39.9954056,31.9502932 39.9954056,31.2600807" id="Path" fill="#FFFFFF"></path>
                <path d="M49.994257,16.2631989 C41.7109373,16.2631989 34.9959799,22.9775316 34.9959799,31.2600807 C34.9959799,39.5426299 41.7109373,46.2569626 49.994257,46.2569626 C58.2775767,46.2569626 64.9925341,39.5426299 64.9925341,31.2600807 C64.9925341,22.9775316 58.2775767,16.2631989 49.994257,16.2631989 M49.994257,44.3823583 C44.6851653,44.3874081 39.8960292,41.1934768 37.8608233,36.2904223 C35.8256173,31.3873678 36.9453205,25.7411962 40.697628,21.9856611 C44.4499355,18.230126 50.0955629,17.1051476 55.0010105,19.1354915 C59.9064582,21.1658354 63.1052509,25.9514805 63.1052509,31.2600807 C63.0983752,38.4995844 57.2344244,44.3685792 49.994257,44.3823583" id="Shape" fill="#DE7526"></path>
                <path d="M49.994257,39.5458579 C47.9967859,39.5837353 46.1685369,38.4289005 45.3447911,36.6089686 C45.2412505,36.3774138 45.2359842,36.1137856 45.3301947,35.8782813 C45.4244052,35.6427769 45.6100482,35.4555053 45.8447337,35.3592284 C46.0767123,35.2592474 46.3389646,35.2557775 46.5735077,35.349586 C46.8080508,35.4433945 46.9955645,35.6267541 47.0945901,35.8591245 C47.6129688,36.9875638 48.7526804,37.6998173 49.994257,37.6712477 C51.6058645,37.764164 52.9927931,36.5444487 53.1063995,34.9343168 C53.1063995,33.6845766 52.5564627,32.1973858 49.9817584,32.1973858 C46.3071806,32.1973858 44.9823327,29.8103821 44.9823327,27.5858447 C45.0973331,24.9356864 47.330697,22.8755998 49.9817584,22.9743035 C51.9747263,22.9414562 53.7967856,24.0954834 54.6187258,25.9111929 C54.7259832,26.1422947 54.7331417,26.4074037 54.638512,26.6439559 C54.5438823,26.8805081 54.3558477,27.0675472 54.1187832,27.160933 C53.8872069,27.264464 53.6235542,27.2697298 53.3880279,27.1755281 C53.1525017,27.0813263 52.9652127,26.8957006 52.8689268,26.661037 C52.3516789,25.5432363 51.2259313,24.8335918 49.994257,24.8489137 C48.3826495,24.7559974 46.9957209,25.9757127 46.8821145,27.5858447 C46.8821145,28.8355848 47.4195528,30.3227756 49.994257,30.3227756 C53.6813335,30.3227756 54.9936827,32.7097793 54.9936827,34.9343168 C54.885418,37.5875955 52.6478869,39.6515259 49.994257,39.5458579" id="Path" fill="#FFFFFF"></path>
                <path d="M49.994257,24.8489137 C49.4765495,24.8489137 49.0568647,24.4292679 49.0568647,23.9116086 L49.0568647,21.8870296 C49.0568647,21.3693703 49.4765495,20.9497245 49.994257,20.9497245 C50.5119645,20.9497245 50.9316493,21.3693703 50.9316493,21.8870296 L50.9316493,23.9116086 C50.9249178,24.4264542 50.5091504,24.8421829 49.994257,24.8489137" id="Path" fill="#FFFFFF"></path>
                <path d="M49.994257,41.570437 C49.7446192,41.5738336 49.5042111,41.4761732 49.3276742,41.2996527 C49.1511373,41.1231322 49.0534678,40.8827464 49.0568647,40.6331319 L49.0568647,38.6085528 C49.0568647,38.0908935 49.4765495,37.6712477 49.994257,37.6712477 C50.5119645,37.6712477 50.9316493,38.0908935 50.9316493,38.6085528 L50.9316493,40.6331319 C50.9316493,41.1507912 50.5119645,41.570437 49.994257,41.570437" id="Path" fill="#FFFFFF"></path>
                <path d="M51.2441134,63.7533247 L61.2429648,63.7533247 C68.1457313,63.7533247 73.7415291,58.1580474 73.7415291,51.2559232 L63.7426777,51.2559232 C56.8399113,51.2559232 51.2441134,56.8512004 51.2441134,63.7533247" id="Path" fill="#1B7065"></path>
                <path d="M51.2441134,63.7533247 L61.2429648,63.7533247 C68.1457313,63.7533247 73.7415291,58.1580474 73.7415291,51.2559232 C65.4500618,53.8008711 57.7855172,58.0585553 51.2441134,63.7533247" id="Path" fill="#8DC63F"></path>
                <path d="M48.7444006,58.7543641 L38.7455492,58.7543641 C31.8427828,58.7543641 26.2469849,53.1590868 26.2469849,46.2569626 L36.2458363,46.2569626 C43.1486028,46.2569626 48.7444006,51.8522398 48.7444006,58.7543641" id="Path" fill="#1B7065"></path>
                <path d="M48.7444006,58.7543641 L38.7455492,58.7543641 C31.8427828,58.7543641 26.2469849,53.1590868 26.2469849,46.2569626 C34.537283,48.8046564 42.201283,53.0620381 48.7444006,58.7543641" id="Path" fill="#8DC63F"></path>
                <path d="M28.7466978,42.5077421 L18.7478464,42.5077421 C11.8450799,42.5077421 6.24928213,36.9124648 6.24928213,30.0103406 L16.2481335,30.0103406 C19.5629589,30.0103406 22.7420176,31.3270273 25.0859531,33.6707447 C27.4298885,36.0144622 28.7466978,39.1932251 28.7466978,42.5077421" id="Path" fill="#1B7065"></path>
                <path d="M28.7466978,42.5077421 L18.7478464,42.5077421 C11.8450799,42.5077421 6.24928213,36.9124648 6.24928213,30.0103406 C14.5395802,32.5580344 22.2035802,36.8154161 28.7466978,42.5077421" id="Path" fill="#8DC63F"></path>
                <path d="M28.7466978,63.7533247 L18.7478464,63.7533247 C11.8450799,63.7533247 6.24928213,58.1580474 6.24928213,51.2559232 L16.2481335,51.2559232 C19.5629589,51.2559232 22.7420176,52.5726099 25.0859531,54.9163273 C27.4298885,57.2600447 28.7466978,60.4388077 28.7466978,63.7533247" id="Path" fill="#1B7065"></path>
                <path d="M28.7466978,63.7533247 L18.7478464,63.7533247 C11.8450799,63.7533247 6.24928213,58.1580474 6.24928213,51.2559232 C14.5395802,53.803617 22.2035802,58.0609987 28.7466978,63.7533247" id="Path" fill="#8DC63F"></path>
                <path d="M39.9954056,80 C49.7339019,80.0158857 59.1397723,76.4584406 66.429869,70.0020255 L13.5484436,70.0020255 C20.8442047,76.4572557 30.2534512,80.0142959 39.9954056,80" id="Path" fill="#40BEEE"></path>
            </g>
        </g>
    </g>
</svg>