<?xml version="1.0" encoding="UTF-8"?>
<svg width="95px" height="95px" viewBox="0 0 95 95" version="1.1" xmlns="http://www.w3.org/2000/svg" xmlns:xlink="http://www.w3.org/1999/xlink">
    <title>icons_economic impact</title>
    <g id="Design---2020" stroke="none" stroke-width="1" fill="none" fill-rule="evenodd">
        <g id="Welcome---D" transform="translate(-478.000000, -1441.000000)" fill-rule="nonzero">
            <g id="icons_economic-impact" transform="translate(478.000000, 1441.000000)">
                <path d="M22.57,43.79 L11.875,43.79 L11.875,38.595 L0,47.5 L11.875,56.405 L11.875,51.21 L22.57,51.21 C22.1633043,48.7533851 22.1633043,46.2466149 22.57,43.79 L22.57,43.79 Z" id="Path" fill="#7E0306"></path>
                <path d="M95,47.5 L83.125,38.595 L83.125,43.79 L72.43,43.79 C72.8366957,46.2466149 72.8366957,48.7533851 72.43,51.21 L83.125,51.21 L83.125,56.405 L95,47.5 Z" id="Path" fill="#7E0306"></path>
                <path d="M51.21,22.57 L51.21,11.875 L56.405,11.875 L47.5,0 L38.595,11.875 L43.79,11.875 L43.79,22.57 C46.2466149,22.1633043 48.7533851,22.1633043 51.21,22.57 L51.21,22.57 Z" id="Path" fill="#7E0306"></path>
                <path d="M43.79,72.43 L43.79,83.125 L38.595,83.125 L47.5,95 L56.405,83.125 L51.21,83.125 L51.21,72.43 C48.7533851,72.8366957 46.2466149,72.8366957 43.79,72.43 L43.79,72.43 Z" id="Path" fill="#7E0306"></path>
                <path d="M27.245,62.5 L19.685,70.065 L16,66.395 L13.9,81.09 L28.605,79 L24.935,75.325 L32.5,67.755 C30.4998314,66.2708358 28.7291642,64.5001686 27.245,62.5 Z" id="Path" fill="#7E0306"></path>
                <path d="M67.755,32.5 L75.315,24.94 L79,28.61 L81.095,13.915 L66.39,16 L70.065,19.675 L62.5,27.245 C64.5001686,28.7291642 66.2708358,30.4998314 67.755,32.5 Z" id="Path" fill="#7E0306"></path>
                <path d="M32.5,27.245 L24.935,19.685 L28.605,16 L13.91,13.915 L16,28.61 L19.675,24.935 L27.245,32.5 C28.7291642,30.4998314 30.4998314,28.7291642 32.5,27.245 Z" id="Path" fill="#7E0306"></path>
                <path d="M62.5,67.755 L70.06,75.315 L66.39,79 L81.085,81.1 L79,66.395 L75.325,70.065 L67.755,62.5 C66.2708358,64.5001686 64.5001686,66.2708358 62.5,67.755 Z" id="Path" fill="#7E0306"></path>
                <path d="M11.875,43.79 L11.875,38.595 L0,47.5 L22.265,47.5 C22.2750815,46.257506 22.3770261,45.0174583 22.57,43.79 L11.875,43.79 Z" id="Path" fill="#EF4651"></path>
                <path d="M95,47.5 L72.735,47.5 C72.7251197,48.742503 72.6231738,49.9825656 72.43,51.21 L83.125,51.21 L83.125,56.405 L95,47.5 Z" id="Path" fill="#EF4651"></path>
                <path d="M51.21,11.875 L56.405,11.875 L47.5,0 L47.5,22.265 C48.742494,22.2750815 49.9825417,22.3770261 51.21,22.57 L51.21,11.875 Z" id="Path" fill="#EF4651"></path>
                <path d="M43.79,83.125 L38.595,83.125 L47.5,95 L47.5,72.735 C46.257506,72.7249185 45.0174583,72.6229739 43.79,72.43 L43.79,83.125 Z" id="Path" fill="#EF4651"></path>
                <path d="M19.685,70.065 L16,66.395 L13.9,81.09 L29.645,65.345 C28.7771449,64.4560509 27.9750328,63.5052139 27.245,62.5 L19.685,70.065 Z" id="Path" fill="#EF4651"></path>
                <path d="M75.315,24.935 L79,28.61 L81.095,13.915 L65.345,29.655 C66.2148913,30.5448843 67.0202643,31.4956254 67.755,32.5 L75.315,24.935 Z" id="Path" fill="#EF4651"></path>
                <path d="M24.935,19.685 L28.605,16 L13.91,13.915 L29.655,29.655 C30.543601,28.7836999 31.4944468,27.9782382 32.5,27.245 L24.935,19.685 Z" id="Path" fill="#EF4651"></path>
                <path d="M62.5,67.755 L70.06,75.315 L66.39,79 L81.085,81.1 L65.345,65.355 C64.4560509,66.2228551 63.5052139,67.0249672 62.5,67.755 Z" id="Path" fill="#EF4651"></path>
                <circle id="Oval" fill="#F2A11F" cx="47.5" cy="47.5" r="22.265"></circle>
                <path d="M47.5,66.795 C36.8436658,66.795 28.205,58.1563342 28.205,47.5 C28.205,36.8436658 36.8436658,28.205 47.5,28.205 C58.1563342,28.205 66.795,36.8436658 66.795,47.5 C66.7839762,58.1517647 58.1517647,66.7839762 47.5,66.795 Z M47.5,31.17 C38.48119,31.17 31.17,38.48119 31.17,47.5 C31.17,56.51881 38.48119,63.83 47.5,63.83 C56.51881,63.83 63.83,56.51881 63.83,47.5 C63.8189801,38.4857586 56.5142414,31.1810199 47.5,31.17 Z" id="Shape" fill="#DD751B"></path>
                <path d="M47.5,58.91 C44.7354022,58.9715707 42.2033712,57.3695931 41.075,54.845 C40.8378704,54.1761765 41.1632696,53.4384495 41.8170772,53.1626037 C42.4708848,52.8867578 43.2263826,53.1684472 43.54,53.805 C44.261249,55.3286855 45.8148877,56.2820547 47.5,56.235 C49.825,56.235 51.72,54.57 51.72,52.525 C51.72,50.83 50.985,48.81 47.48,48.81 C42.4,48.81 40.59,45.51 40.59,42.425 C40.59,38.925 43.68,36.04 47.48,36.04 C50.2453461,35.9757324 52.7787453,37.5785757 53.905,40.105 C54.0898849,40.5453298 54.0258125,41.0508463 53.7369181,41.4311263 C53.4480238,41.8114063 52.9781974,42.0086762 52.5044181,41.9486263 C52.0306388,41.8885764 51.6248849,41.5803298 51.44,41.14 C50.7182587,39.6268014 49.1760918,38.6776251 47.5,38.715 C45.17,38.715 43.28,40.38 43.28,42.425 C43.28,44.12 44.01,46.135 47.5,46.135 C52.595,46.135 54.41,49.435 54.41,52.525 C54.4,56.045 51.31,58.91 47.5,58.91 Z" id="Path" fill="#FFFFFF"></path>
                <path d="M47.5,38.715 C47.145068,38.715 46.8047456,38.573665 46.5542403,38.3222214 C46.303735,38.0707779 46.1636707,37.7299295 46.1649906,37.375 L46.1649906,34.6 C46.1649906,33.8626999 46.7626999,33.265 47.5,33.265 C48.2373001,33.265 48.8350094,33.8626999 48.8350094,34.6 L48.8350094,37.375 C48.8363293,37.7299295 48.696265,38.0707779 48.4457597,38.3222214 C48.1952544,38.573665 47.854932,38.715 47.5,38.715 Z" id="Path" fill="#FFFFFF"></path>
                <path d="M47.5,61.685 C46.7626999,61.685 46.165,61.0873001 46.165,60.35 L46.165,57.57 C46.165,56.8326999 46.7626999,56.235 47.5,56.235 C48.2373001,56.235 48.835,56.8326999 48.835,57.57 L48.835,60.35 C48.835,61.0873001 48.2373001,61.685 47.5,61.685 Z" id="Path" fill="#FFFFFF"></path>
                <circle id="Oval" fill="#DD751B" cx="59.08" cy="47.475" r="1.855"></circle>
                <circle id="Oval" fill="#DD751B" cx="35.915" cy="47.475" r="1.855"></circle>
            </g>
        </g>
    </g>
</svg>