<?xml version="1.0" encoding="UTF-8"?>
<svg width="100px" height="90px" viewBox="0 0 100 90" version="1.1" xmlns="http://www.w3.org/2000/svg" xmlns:xlink="http://www.w3.org/1999/xlink">
    <title>icon-savings</title>
    <g id="Design---2020" stroke="none" stroke-width="1" fill="none" fill-rule="evenodd">
        <g id="Investments" transform="translate(-75.000000, -2532.000000)" fill-rule="nonzero">
            <g id="icon-savings" transform="translate(81.000000, 2532.000000)">
                <path d="M88.2031923,57.8790371 C86.3711028,55.7146369 85.3497418,52.9795896 85.314578,50.1437731 C85.6154753,27.0684073 65.5807283,16.5992142 65.5807283,16.5992142 C61.568764,20.3514693 50.9220136,20.3514693 46.9050343,16.5992142 C46.9050343,16.5992142 26.8452125,27.0433254 27.1711846,50.1437731 C27.1362919,52.9805273 26.1129258,55.7161944 24.2775554,57.8790371 C23.0905468,59.3743508 22.4626574,61.237265 22.5022611,63.1462401 C22.5022611,65.0875807 26.1029991,64.8919417 29.3426604,64.3250903 C32.7135154,63.7589508 36.1711184,64.013613 39.4227208,65.0675151 C44.8595981,66.7878366 50.5417193,67.6046411 56.2428813,67.4854122 C61.9490307,67.6055649 67.6362507,66.788758 73.0780867,65.0675151 C76.3296128,64.0132231 79.7873105,63.758554 83.1581471,64.3250903 C86.3978083,64.8919417 89.9985463,65.0875807 89.9985463,63.1462401 C90.0345924,61.23447 89.3992787,59.370589 88.2031923,57.8790371 Z" id="Path" fill="#40BEEE"></path>
                <path d="M30.7267881,51.9446549 C30.4258907,28.8692892 49.2821232,18.2395717 49.2821232,18.2395717 C49.2821232,18.2395717 49.3322727,18.1542932 49.3523325,18.1141621 C48.4661898,17.7521006 47.6473313,17.243348 46.9301091,16.609247 C46.9301091,16.609247 26.8702873,27.0533582 27.1962594,50.1538059 C27.1613666,52.9905601 26.1380006,55.7262272 24.3026301,57.8890698 C23.1156216,59.3843836 22.4877322,61.2472978 22.5273359,63.1562729 C22.5273359,64.8267287 25.2053221,64.9170236 28.0187121,64.5407948 C31.5341959,59.760181 30.7618927,54.7538299 30.7267881,51.9446549 Z" id="Path" fill="#153359"></path>
                <path d="M88.2031923,57.8790371 C86.3711028,55.7146369 85.3497418,52.9795896 85.314578,50.1437731 C85.6154753,27.0684073 65.5807283,16.5992142 65.5807283,16.5992142 C64.9389539,17.1711845 64.2134078,17.6414859 63.4293124,17.9937689 L63.4293124,17.9937689 C63.4293124,17.9937689 70.3499509,26.7473588 69.6478572,48.5585958 C69.3720346,57.1215631 72.8574287,63.5174525 75.6256841,64.4053525 C78.1122612,63.9737191 80.6519014,63.9432347 83.1481172,64.3150576 C86.3877784,64.8919417 89.9885164,65.0775479 89.9885164,63.1362074 C90.0250447,61.2290983 89.3934583,59.3692919 88.2031923,57.8790371 Z" id="Path" fill="#153359"></path>
                <path d="M72.1603499,1.76576712 L72.1603499,1.76576712 C53.8607775,-2.85432242 41.8499592,3.08005969 41.8499592,3.08005969 C45.1514058,6.8141833 46.9523817,11.6396 46.9050343,16.6242961 C48.845822,18.4402271 52.341246,19.3782909 55.8818045,19.4334711 L55.8818045,19.4334711 C59.6680959,19.4986841 63.5095517,18.5606203 65.5807283,16.6242961 C65.5807283,16.5992142 65.3751151,9.97758751 72.1603499,1.76576712 Z" id="Path" fill="#F2A11F"></path>
                <path d="M41.8499592,3.08005969 C45.1514058,6.8141833 46.9523817,11.6396 46.9050343,16.6242961 C48.845822,18.4402271 52.341246,19.3782909 55.8818045,19.4334711 L55.8818045,19.4334711 C59.6680959,19.4986841 63.5095517,18.5606203 65.5807283,16.6242961 C65.5807283,16.6242961 65.3751151,10.0026694 72.1603499,1.79084904 C70.9216559,2.54330662 67.305873,2.62356876 63.4644171,3.65694384 C62.4062615,3.94287772 66.8144074,4.74549914 66.1624632,5.5029731 C60.3531484,7.09658773 54.2495429,7.29425512 48.3493414,6.07985725 C47.0755428,5.41769458 51.5137783,4.43448334 50.0393814,4.0733037 C47.7375169,3.46130487 44.1417938,3.81746812 41.8499592,3.08005969 Z" id="Path" fill="#153359"></path>
                <path d="M48.3493414,6.05477533 C48.9260613,6.19021769 49.5529308,6.31061091 50.2199198,6.41595497 L50.3452937,4.25389352 C50.2650544,4.71038445 47.276141,5.49795672 48.3493414,6.05477533 Z" id="Path" fill="#2D5271"></path>
                <path d="M63.2989236,3.72717321 L63.6299107,6.0949064 C64.4824531,5.92434935 65.3299806,5.71867761 66.1624632,5.47789118 C66.7542279,4.79064659 63.1885946,4.06327093 63.2989236,3.72717321 Z" id="Path" fill="#2D5271"></path>
                <path d="M48.3493414,6.05477533 C50.4620062,9.904111 51.337556,14.3111328 50.8568192,18.6759971 C54.5909658,19.6900713 58.5356474,19.6274671 62.235753,18.4954073 C62.0513722,13.8350876 63.4436636,9.24876112 66.1875379,5.47789118 C60.3702878,7.07550761 54.2576097,7.27319055 48.3493414,6.05477533 L48.3493414,6.05477533 Z" id="Path" fill="#40BEEE"></path>
                <path d="M56.2428813,20.7979275 C52.0503786,20.7979275 47.8628908,19.7495033 45.5008468,17.6476384 C44.9205981,17.1309454 44.8689569,16.2415644 45.3855028,15.6611505 C45.9020488,15.0807365 46.7911765,15.0290806 47.3714251,15.5457736 C51.0172977,18.791374 61.4634499,18.791374 65.1143375,15.5457736 C65.6945861,15.0304658 66.5825912,15.0832447 67.0977523,15.6636587 C67.6129134,16.2440726 67.5601495,17.1323306 66.9799009,17.6476384 C64.6228718,19.7495033 60.4303691,20.7979275 56.2428813,20.7979275 Z" id="Path" fill="#F2A11F"></path>
                <path d="M65.7111172,80.3825351 C63.8764824,78.2192604 62.8532192,75.4838681 62.8174879,72.6472712 C63.1234002,49.5468235 43.0836382,39.0976959 43.0836382,39.0976959 C39.0716739,42.8549674 28.4249235,42.8549674 24.4079442,39.0976959 C24.4079442,39.0976959 4.37319724,49.5468235 4.67409457,72.6472712 C4.63809557,75.4829313 3.61683664,78.2177053 1.78548024,80.3825351 C0.599247273,81.872753 -0.0303347587,83.7301055 0.00517105605,85.634689 C0.00517105605,87.5710132 3.60590906,87.3803906 6.84557027,86.8135392 C10.2124403,86.2552591 13.6640832,86.5133029 16.9105858,87.5659968 C22.3471802,89.2880178 28.0293078,90.1065179 33.7307464,89.9889102 C39.4321849,90.1065179 45.1143126,89.2880178 50.5509069,87.5659968 C53.8034107,86.5162974 57.2603935,86.2634012 60.6309673,86.8285884 C63.8706285,87.3954397 67.4713665,87.5860623 67.4713665,85.6497381 C67.5160825,83.7424781 66.8934866,81.8794812 65.7111172,80.3825351 Z" id="Path" fill="#40BEEE"></path>
                <path d="M8.22969797,74.448153 C7.92880064,51.3426889 26.7850331,40.7430698 26.7850331,40.7430698 C26.8054086,40.6996413 26.828872,40.6577305 26.8552425,40.6176602 C25.9678491,40.2550767 25.1474234,39.7464036 24.428004,39.112745 C24.428004,39.112745 4.37319724,49.5468235 4.67409457,72.6472712 C4.63809557,75.4829313 3.61683664,78.2177053 1.78548024,80.3825351 C0.599247273,81.872753 -0.0303347587,83.7301055 0.00517105605,85.634689 C0.00517105605,87.3051448 2.68315726,87.3904234 5.52162203,87.0192109 C9.03710579,82.263679 8.26981761,77.2573279 8.22969797,74.448153 Z" id="Path" fill="#153359"></path>
                <path d="M65.7111172,80.3825351 C63.8764824,78.2192604 62.8532192,75.4838681 62.8174879,72.6472712 C63.1234002,49.5468235 43.0836382,39.0976959 43.0836382,39.0976959 C42.444916,39.6723446 41.7186554,40.1414157 40.9322224,40.4872342 C40.9322224,40.4872342 40.9322224,40.4872342 40.9322224,40.4872342 C40.9322224,40.4872342 52.1356328,50.2390844 52.336231,71.4834701 C52.4164703,80.0564701 53.8106279,84.9675099 56.3481954,86.5326217 L56.3481954,86.5326217 C57.7782085,86.4714629 59.2106543,86.5639594 60.6209374,86.8085228 C63.8605986,87.3753742 67.4613366,87.5659968 67.4613366,85.6296726 C67.5042079,83.7304795 66.8854619,81.875486 65.7111172,80.3825351 Z" id="Path" fill="#153359"></path>
                <path d="M49.6632598,24.3495273 L49.6632598,24.3495273 C31.3687023,19.7244214 19.3528691,25.6638199 19.3528691,25.6638199 C22.6597503,29.3844992 24.4698223,34.1996256 24.433019,39.177958 C26.348732,40.9888726 29.8441559,41.9319527 33.3847144,41.9921494 L33.3847144,41.9921494 C37.1659908,42.0573623 41.0074467,41.1192986 43.0786233,39.177958 C43.0836382,39.177958 42.8780251,32.5563313 49.6632598,24.3495273 Z" id="Path" fill="#F2A11F"></path>
                <path d="M19.3528691,25.6638199 C22.6597503,29.3844992 24.4698223,34.1996256 24.433019,39.177958 C26.348732,40.9888726 29.8441559,41.9319527 33.3847144,41.9921494 L33.3847144,41.9921494 C37.1659908,42.0573623 41.0074467,41.1192986 43.0786233,39.177958 C43.0786233,39.177958 42.8730101,32.5563313 49.6582448,24.3495273 C48.4245658,25.1019849 44.803768,25.1772306 40.9623121,26.2156221 C39.9091715,26.4965396 44.3173173,27.299161 43.6653731,28.0616514 C37.8535918,29.6502374 31.7495521,29.8478632 25.8472364,28.6385355 C24.5784527,27.9763728 29.0116733,26.9931616 27.5422913,26.631982 C25.2404268,26.045065 21.6447038,26.3962119 19.3528691,25.6638199 Z" id="Path" fill="#153359"></path>
                <path d="M25.8522514,28.5582734 C26.4339862,28.6937157 27.0558407,28.8141089 27.7228297,28.919453 L27.8482036,26.7573915 C27.7679643,27.2088661 24.7790509,28.0014547 25.8522514,28.5582734 Z" id="Path" fill="#2D5271"></path>
                <path d="M40.8068485,26.2256549 L41.1378355,28.5984044 C41.990378,28.4278474 42.8262039,28.2221756 43.6453133,27.9813892 C44.2571378,27.2941446 40.6965195,26.566769 40.8068485,26.2256549 Z" id="Path" fill="#2D5271"></path>
                <path d="M25.8522514,28.5582734 C27.9673079,32.4049172 28.8430418,36.8111134 28.3597291,41.1744788 C32.0877677,42.1852462 36.0255583,42.1209019 39.7186031,40.9888726 C39.5349671,36.3302005 40.9272408,31.7456994 43.670388,27.9763728 C37.3114245,29.8073529 30.2202776,29.5816157 25.8522514,28.5582734 Z" id="Path" fill="#40BEEE"></path>
                <path d="M33.7457912,43.3014255 C29.5583034,43.3014255 25.3658007,42.2479849 23.0087716,40.1511365 C22.428523,39.6358286 22.3757591,38.7475706 22.8909202,38.1671567 C23.4060813,37.5867427 24.2940864,37.5339638 24.8743351,38.0492716 C28.5252226,41.294872 38.9713748,41.294872 42.6172474,38.0492716 C42.9926025,37.7141337 43.5181879,37.6047601 43.9960207,37.7623508 C44.4738536,37.9199414 44.8313396,38.3205546 44.9338174,38.8132832 C45.0362952,39.3060118 44.8681958,39.8159986 44.4928407,40.1511365 C42.1257818,42.2479849 37.938294,43.3014255 33.7457912,43.3014255 Z" id="Path" fill="#F2A11F"></path>
                <ellipse id="Oval" fill="#DD7526" cx="33.7056716" cy="66.0707919" rx="15.5463618" ry="15.55079"></ellipse>
                <ellipse id="Oval" fill="#F2A11F" cx="33.7056716" cy="66.0707919" rx="12.5373886" ry="12.5409597"></ellipse>
                <ellipse id="Oval" fill="#FFFFFF" cx="25.1802473" cy="66.0707919" rx="1.50448663" ry="1.50491516"></ellipse>
                <ellipse id="Oval" fill="#FFFFFF" cx="42.2310958" cy="66.0707919" rx="1.50448663" ry="1.50491516"></ellipse>
                <path d="M33.7608361,74.8745456 C31.6342885,74.921498 29.6871693,73.6876417 28.821105,71.7443221 C28.6750838,71.3966389 28.7255886,70.9974428 28.9535947,70.6971071 C29.1816009,70.3967715 29.5524688,70.2409244 29.9264961,70.2882719 C30.3005234,70.3356194 30.6208865,70.5789683 30.7669077,70.9266515 C31.3151952,72.0831441 32.4969735,72.8042342 33.775881,72.762648 C35.5361303,72.762648 36.9704076,71.508552 36.9704076,69.9584894 C36.9704076,68.1224929 35.8621024,67.1543308 33.7608361,67.1543308 C29.8541858,67.1543308 28.4600282,64.6160406 28.4600282,62.2382746 C28.4600282,59.5294274 30.8371171,57.3222185 33.7608361,57.3222185 C35.88776,57.2739122 37.8355659,58.5082037 38.7005672,60.452442 C38.8549971,60.8007942 38.8093132,61.2054133 38.5811017,61.5105384 C38.3528903,61.8156634 37.9777334,61.9737203 37.6000503,61.9238638 C37.2223673,61.8740073 36.9010453,61.6240109 36.7597794,61.2701126 C36.2094716,60.1154411 35.0290194,59.3951602 33.7508062,59.4341161 C31.9905568,59.4341161 30.5612945,60.6932284 30.5612945,62.2382746 C30.5612945,64.0742711 31.6645847,65.0424332 33.7508062,65.0424332 C37.6725013,65.0424332 39.0666589,67.5857398 39.0666589,69.9584894 C39.061644,72.6673367 36.6845551,74.8745456 33.7608361,74.8745456 Z" id="Path" fill="#FFFFFF"></path>
                <path d="M32.7026805,58.2502495 L32.7026805,56.3841547 C32.6884096,55.8659954 33.0513886,55.4137348 33.5602379,55.3156649 C33.8503902,55.2731146 34.1446257,55.3597157 34.365501,55.5526748 C34.5863763,55.745634 34.7117643,56.0256206 34.7086627,56.3189417 L34.7086627,58.3254952 C34.7117643,58.6188163 34.5863763,58.8988029 34.365501,59.0917621 C34.1446257,59.2847212 33.8503902,59.3713223 33.5602379,59.328772 C33.0475282,59.2301227 32.6833838,58.7721499 32.7026805,58.2502495 L32.7026805,58.2502495 Z" id="Path" fill="#FFFFFF"></path>
                <path d="M32.7026805,75.8126094 L32.7026805,73.9465146 C32.6884096,73.4283553 33.0513886,72.9760947 33.5602379,72.8780248 C33.8503902,72.8354745 34.1446257,72.9220757 34.365501,73.1150348 C34.5863763,73.3079939 34.7117643,73.5879805 34.7086627,73.8813016 L34.7086627,75.8878551 C34.7117643,76.1811763 34.5863763,76.4611629 34.365501,76.654122 C34.1446257,76.8470811 33.8503902,76.9336823 33.5602379,76.8911319 C33.0486932,76.7905624 32.6855164,76.3338065 32.7026805,75.8126094 Z" id="Path" fill="#FFFFFF"></path>
                <ellipse id="Oval" fill="#E39C26" cx="11.1383721" cy="26.9429978" rx="5.01495543" ry="5.01638387"></ellipse>
                <ellipse id="Oval" fill="#E39C26" cx="5.62192114" cy="43.4970645" rx="5.01495543" ry="5.01638387"></ellipse>
                <ellipse id="Oval" fill="#E39C26" cx="7.12640777" cy="5.87418551" rx="5.01495543" ry="5.01638387"></ellipse>
                <ellipse id="Oval" fill="#E39C26" cx="33.7056716" cy="12.8971229" rx="5.01495543" ry="5.01638387"></ellipse>
                <ellipse id="Oval" fill="#E39C26" cx="81.3477482" cy="16.91023" rx="5.01495543" ry="5.01638387"></ellipse>
                <ellipse id="Oval" fill="#E39C26" cx="74.3268106" cy="74.5986445" rx="5.01495543" ry="5.01638387"></ellipse>
                <path d="M11.9507949,21.8714337 C13.3380995,23.2859579 13.7419003,25.3948097 12.9753148,27.2219937 C12.2087294,29.0491776 10.4213241,30.2381966 8.4403261,30.238762 C8.20804555,30.2315393 7.97666958,30.2063826 7.74826225,30.1635162 C9.24572519,31.6988049 11.566054,32.0843728 13.4793377,31.1158462 C15.3926215,30.1473195 16.456185,28.0487858 16.106277,25.9325914 C15.7563691,23.8163969 14.0739475,22.1721643 11.9507949,21.8714337 L11.9507949,21.8714337 Z" id="Path" fill="#FFFFFF"></path>
                <path d="M6.32902986,38.746549 C7.71633442,40.1610733 8.12013527,42.269925 7.35354979,44.097109 C6.58696432,45.924293 4.79955908,47.1133119 2.81856106,47.1138773 C2.58463383,47.1064595 2.35160593,47.0813055 2.12148225,47.0386315 C3.618702,48.5729473 5.93794302,48.9583422 7.8506885,47.9906701 C9.76343399,47.022998 10.8275083,44.9259588 10.4792646,42.8103676 C10.1310208,40.6947763 8.45096352,39.0497012 6.32902986,38.746549 Z" id="Path" fill="#FFFFFF"></path>
                <path d="M4.22776353,9.13985141 C3.99394691,9.13436336 3.76089922,9.11088424 3.53068473,9.06962203 C5.02949591,10.6012023 7.34813596,10.9836609 9.25920203,10.0145383 C11.1702681,9.04541564 12.2323376,6.94856205 11.88319,4.83397474 C11.5340423,2.71938742 9.8543245,1.07549881 7.73321738,0.772523116 C9.12560431,2.18532677 9.53257951,4.29682977 8.76508961,6.12616948 C7.9975997,7.95550919 6.2060793,9.14411934 4.22274858,9.13985141 L4.22776353,9.13985141 Z" id="Path" fill="#FFFFFF"></path>
                <path d="M34.4629298,7.8054933 C35.8553168,9.21829696 36.262292,11.3298 35.4948021,13.1591397 C34.7273122,14.9884794 32.9357918,16.1770895 30.952461,16.1728216 C30.7188054,16.1648433 30.4859354,16.1413821 30.2553822,16.1025922 C31.753409,17.6418549 34.0771079,18.0299297 35.9937913,17.0609487 C37.9104747,16.0919677 38.9762258,13.9903534 38.6256795,11.870981 C38.2751332,9.75160851 36.5894783,8.10533873 34.4629298,7.8054933 L34.4629298,7.8054933 Z" id="Path" fill="#FFFFFF"></path>
                <path d="M82.2504402,12.0242721 C83.6377448,13.4387964 84.0415456,15.5476481 83.2749601,17.3748321 C82.5083746,19.2020161 80.7209694,20.391035 78.7399714,20.3916004 C78.5063158,20.3836222 78.2734457,20.360161 78.0428926,20.321371 C79.5409193,21.8606337 81.8646183,22.2487085 83.7813016,21.2797276 C85.697985,20.3107466 86.7637361,18.2091323 86.4131898,16.0897598 C86.0626435,13.9703873 84.3769887,12.3241176 82.2504402,12.0242721 L82.2504402,12.0242721 Z" id="Path" fill="#FFFFFF"></path>
                <path d="M75.2194727,69.6825883 C76.6118596,71.095392 77.0188348,73.206895 76.2513449,75.0362347 C75.483855,76.8655744 73.6923346,78.0541845 71.7090039,78.0499166 C71.475203,78.0441746 71.2421747,78.0206975 71.0119251,77.9796872 C72.5099518,79.5189499 74.8336508,79.9070247 76.7503341,78.9380437 C78.6670175,77.9690627 79.7327686,75.8674484 79.3822223,73.748076 C79.031676,71.6287035 77.3460212,69.9824337 75.2194727,69.6825883 L75.2194727,69.6825883 Z" id="Path" fill="#FFFFFF"></path>
                <path d="M11.2537161,21.0989105 C8.148901,21.0989105 5.63195105,23.6165774 5.63195105,26.7222769 C5.63195105,29.8279763 8.148901,32.3456432 11.2537161,32.3456432 C14.3585312,32.3456432 16.8754811,29.8279763 16.8754811,26.7222769 C16.8754811,23.6165774 14.3585312,21.0989105 11.2537161,21.0989105 L11.2537161,21.0989105 Z M11.2537161,30.6601382 C9.07951462,30.6601382 7.31697608,28.8970976 7.31697608,26.7222769 C7.31697608,24.5474561 9.07951462,22.7844155 11.2537161,22.7844155 C13.4279176,22.7844155 15.1904561,24.5474561 15.1904561,26.7222769 C15.1876932,28.8959518 13.4267721,30.6573745 11.2537161,30.6601382 L11.2537161,30.6601382 Z" id="Shape" fill="#DF751B"></path>
                <path d="M5.63195105,37.97904 C3.35476373,37.9770157 1.30086438,39.3481275 0.428955721,41.452381 C-0.44295294,43.5566345 0.0390529607,45.9791108 1.64998657,47.5890658 C3.26092017,49.1990208 5.68313588,49.6790019 7.78601122,48.8049673 C9.88888657,47.9309326 11.2577744,45.8752254 11.2537251,43.5973922 C11.2481884,40.4947983 8.7336652,37.9818026 5.63195105,37.97904 Z M5.63195105,47.5452863 C3.45774958,47.5452863 1.69521104,45.7822457 1.69521104,43.607425 C1.69521104,41.4326042 3.45774958,39.6695636 5.63195105,39.6695636 C7.80615253,39.6695636 9.56869107,41.4326042 9.56869107,43.607425 C9.56041359,45.7771809 7.80110316,47.5325088 5.63195105,47.5352535 L5.63195105,47.5452863 Z" id="Shape" fill="#DF751B"></path>
                <path d="M7.03613858,11.2467326 C10.1409537,11.2467326 12.6579036,8.72906577 12.6579036,5.62336632 C12.6579036,2.51766686 10.1409537,-2.67326634e-15 7.03613858,-2.67326634e-15 C3.93132348,-2.67326634e-15 1.41437353,2.51766686 1.41437353,5.62336632 C1.41437353,8.72906577 3.93132348,11.2467326 7.03613858,11.2467326 Z M7.03613858,1.68550498 C9.21034005,1.68550498 10.9728786,3.44854555 10.9728786,5.62336632 C10.9728786,7.79818708 9.21034005,9.56122765 7.03613858,9.56122765 C4.8619371,9.56122765 3.09939856,7.79818708 3.09939856,5.62336632 C3.10216151,3.44969136 4.86308258,1.68826871 7.03613858,1.68550498 L7.03613858,1.68550498 Z" id="Shape" fill="#DF751B"></path>
                <path d="M33.7508062,7.03297018 C30.6459911,7.03297018 28.1290411,9.55063704 28.1290411,12.6563365 C28.1290411,15.762036 30.6459911,18.2797028 33.7508062,18.2797028 C36.8556213,18.2797028 39.3725712,15.762036 39.3725712,12.6563365 C39.3725712,11.164927 38.7802798,9.7346018 37.7259944,8.68001604 C36.6717089,7.62543029 35.241791,7.03297018 33.7508062,7.03297018 Z M33.7508062,16.5941978 C31.5766047,16.5941978 29.8140662,14.8311573 29.8140662,12.6563365 C29.8140662,10.4815157 31.5766047,8.71847516 33.7508062,8.71847516 C35.9250077,8.71847516 37.6875462,10.4815157 37.6875462,12.6563365 C37.6847832,14.8300115 35.9238622,16.5914341 33.7508062,16.5941978 L33.7508062,16.5941978 Z" id="Shape" fill="#DF751B"></path>
                <path d="M81.5533614,11.251749 C78.4485463,11.251749 75.9315963,13.7694159 75.9315963,16.8751153 C75.9315963,19.9808148 78.4485463,22.4984816 81.5533614,22.4984816 C84.6581765,22.4984816 87.1751264,19.9808148 87.1751264,16.8751153 C87.1723615,13.7705622 84.6570305,11.2545148 81.5533614,11.251749 Z M81.5533614,20.8129767 C79.3791599,20.8129767 77.6166214,19.0499361 77.6166214,16.8751153 C77.6166214,14.7002946 79.3791599,12.937254 81.5533614,12.937254 C83.7275629,12.937254 85.4901014,14.7002946 85.4901014,16.8751153 C85.4873385,19.0487903 83.7264174,20.8102129 81.5533614,20.8129767 L81.5533614,20.8129767 Z" id="Shape" fill="#DF751B"></path>
                <path d="M74.5223939,68.9100629 C72.2456623,68.9080363 70.1920786,70.2786036 69.3198739,72.3822408 C68.4476693,74.485878 68.9287539,76.9079617 70.5386468,78.5183132 C72.1485398,80.1286647 74.5699338,80.6098864 76.672972,79.7374333 C78.7760102,78.8649802 80.1461872,76.8108115 80.1441612,74.5334315 C80.1441612,71.427732 77.627209,68.9100629 74.5223939,68.9100629 Z M74.5223939,78.4712928 C72.3481924,78.4712928 70.5856538,76.7082523 70.5856538,74.5334315 C70.5856538,72.3586107 72.3481924,70.5955702 74.5223939,70.5955702 C76.6965953,70.5955702 78.4591339,72.3586107 78.4591339,74.5334315 C78.4563709,76.7071065 76.6954499,78.4685291 74.5223939,78.4712928 Z" id="Shape" fill="#DF751B"></path>
            </g>
        </g>
    </g>
</svg>