<?xml version="1.0" encoding="UTF-8"?>
<svg width="80px" height="80px" viewBox="0 0 80 80" version="1.1" xmlns="http://www.w3.org/2000/svg" xmlns:xlink="http://www.w3.org/1999/xlink">
    <title>icon-contributing</title>
    <g id="Design---2020" stroke="none" stroke-width="1" fill="none" fill-rule="evenodd">
        <g id="Review" transform="translate(-106.000000, -1287.000000)" fill-rule="nonzero">
            <g id="icon-contributing" transform="translate(106.000000, 1287.000000)">
                <path d="M27.3125054,26.6125 C27.438501,25.8733533 27.5012283,25.1248075 27.5000234,24.375 C27.5012485,23.6293361 27.4385185,22.8849401 27.3125054,22.15 L22.6375075,21.4 C22.5003096,20.9703229 22.3289288,20.5523206 22.1250077,20.15 L24.9125064,16.3125 C24.0407091,15.0982582 22.9767491,14.0342977 21.7625078,13.1625 L17.9250096,15.9375 C17.5199123,15.7432519 17.1023206,15.5762151 16.6750101,15.4375 L15.9250104,10.7625 C15.2050641,10.6565652 14.4775667,10.610574 13.7500114,10.625 C13.0043249,10.6231989 12.2598813,10.685933 11.5250124,10.8125 L10.7750127,15.4875 C10.3487384,15.6290635 9.9313247,15.7960291 9.5250133,15.9875 L5.72501499,13.2125 C4.51305934,14.0869859 3.44950194,15.1505438 2.57501639,16.3625 L5.36251515,20.2 C5.16826711,20.6050975 5.00123045,21.0226893 4.86251537,21.45 L0.187517459,22.2 C0.0643217919,22.9184832 0.0016020027,23.6460331 0,24.375 C-0.00120545387,25.1248075 0.0615218228,25.8733533 0.187517459,26.6125 L4.86251537,27.35 C4.99880589,27.7781841 5.16590903,28.1959422 5.36251515,28.6 L2.57501639,32.3875 C3.44912747,33.6033457 4.51264117,34.6710802 5.72501499,35.55 L9.56251328,32.7625 C9.96637315,32.9595528 10.3841641,33.1266692 10.8125127,33.2625 L11.5625124,37.95 C12.2861314,38.0641813 13.017443,38.1226862 13.7500114,38.125 C14.4950605,38.1236216 15.2389071,38.0651168 15.9750104,37.95 L16.7250101,33.2625 C17.154401,33.1295965 17.5724137,32.9623914 17.9750095,32.7625 L21.8125078,35.55 C23.0277464,34.6744362 24.0917627,33.6061972 24.9625064,32.3875 L22.1250077,28.55 C22.3313318,28.1487832 22.5027959,27.730578 22.6375075,27.3 L27.3125054,26.6125 Z" id="Path" fill="#153359"></path>
                <path d="M13.7500114,28 C11.7479801,28 10.125013,26.3770322 10.125013,24.375 C10.125013,22.3729678 11.7479801,20.75 13.7500114,20.75 C15.7520427,20.75 17.3750098,22.3729678 17.3750098,24.375 C17.3750098,26.3770322 15.7520427,28 13.7500114,28" id="Path" fill="#FFFFFF"></path>
                <path d="M13.7500114,31.75 C9.67976691,31.7431188 6.38189594,28.4452463 6.3750147,24.375 C6.3750147,24.0988576 6.59887223,23.875 6.8750147,23.875 C7.15115673,23.875 7.3750147,24.0988576 7.3750147,24.375 C7.38189201,27.8929625 10.2320505,30.7431222 13.7500114,30.75 C14.0261537,30.75 14.2500112,30.9738576 14.2500112,31.25 C14.2500112,31.5261424 14.0261537,31.75 13.7500114,31.75" id="Path" fill="#40BEEE"></path>
                <path d="M20.6250083,24.875 C20.3488661,24.875 20.1250086,24.6511424 20.1250086,24.375 C20.1181308,20.8570375 17.2679723,18.0068778 13.7500116,18 C13.4738692,18 13.2500116,17.7761424 13.2500116,17.5 C13.2500116,17.2238576 13.4738692,17 13.7500116,17 C17.8202559,17.0068812 21.1181269,20.3047537 21.1250081,24.375 C21.1250081,24.6511424 20.9011506,24.875 20.6250083,24.875" id="Path" fill="#40BEEE"></path>
                <path d="M79.812482,33.4875 C79.9384776,32.7483533 80.0012049,31.9998075 80,31.25 C80.0012251,30.5043361 79.9384951,29.7599401 79.812482,29.025 L75.137484,28.275 C74.998769,27.8476893 74.8317323,27.4300975 74.6374843,27.025 L77.412483,23.1875 C76.5417393,21.9688028 75.477723,20.9005638 74.2624844,20.025 L70.4249861,22.8125 C70.0198888,22.6182519 69.6022972,22.4512151 69.1749867,22.3125 L68.437487,17.6375 C67.7133994,17.5310458 66.9817065,17.4850537 66.249988,17.5 C65.5043244,17.4987568 64.7599287,17.5614868 64.024989,17.6875 L63.2749893,22.3625 C62.8476788,22.5012151 62.4300872,22.6682519 62.0249899,22.8625 L58.1874916,20.075 C56.971368,20.9537093 55.9037019,22.0213758 55.024993,23.2375 L57.8124918,27.075 C57.6182437,27.4800975 57.4512071,27.8976893 57.312492,28.325 L52.6374941,29.075 C52.5310396,29.794892 52.4850456,30.5224331 52.4999941,31.25 C52.4987711,31.9998075 52.5614984,32.7483533 52.6874941,33.4875 L57.362492,34.225 C57.501207,34.6523107 57.6682437,35.0699025 57.8624917,35.475 L55.074993,39.3125 C55.949502,40.5321951 57.017797,41.6004906 58.2374916,42.475 L62.0749899,39.6875 C62.4775857,39.8873914 62.8955984,40.0545965 63.3249893,40.1875 L64.074989,44.875 C64.7958103,44.9713384 65.5228758,45.0131237 66.249988,45 C66.9992045,44.9991139 67.7472432,44.940608 68.487487,44.825 L69.2249867,40.1375 C69.6543776,40.0045965 70.0723903,39.8373914 70.4749861,39.6375 L74.3124844,42.425 C75.5305403,41.5527463 76.5950605,40.4840013 77.462483,39.2625 L74.6874842,35.425 C74.8817323,35.0199025 75.048769,34.6023107 75.187484,34.175 L79.812482,33.4875 Z" id="Path" fill="#153359"></path>
                <path d="M66.249988,34.875 C64.2479567,34.875 62.6249896,33.2520322 62.6249896,31.25 C62.6249896,29.2479678 64.2479567,27.625 66.249988,27.625 C68.2520193,27.625 69.8749864,29.2479678 69.8749864,31.25 C69.8749864,33.2520322 68.2520193,34.875 66.249988,34.875" id="Path" fill="#FFFFFF"></path>
                <path d="M63.974989,38.2375 L63.8124891,38.2375 C61.9490863,37.5870801 60.4234237,36.2180716 59.5757034,34.4357448 C58.7279832,32.653418 58.6286994,30.6059866 59.2999911,28.75 C59.3505209,28.6160876 59.4573462,28.5111463 59.5921363,28.463007 C59.7269264,28.4148676 59.8760617,28.4283944 59.9999908,28.5 C60.2581539,28.5939882 60.3921208,28.8786679 60.2999907,29.1375 C59.1420164,32.4576281 60.8852144,36.0892922 64.1999889,37.2625 C64.3262984,37.3051388 64.4303502,37.3964531 64.4890286,37.516157 C64.5477069,37.6358608 64.5561524,37.7740411 64.5124888,37.9 C64.4368466,38.0981058 64.2494527,38.2312542 64.037489,38.2375" id="Path" fill="#40BEEE"></path>
                <path d="M72.7374851,34.025 C72.6839696,34.0368772 72.6285008,34.0368772 72.5749852,34.025 C72.4486757,33.9823612 72.3446239,33.8910469 72.2859456,33.771343 C72.2272672,33.6516392 72.2188217,33.5134589 72.2624853,33.3875 C72.8256228,31.7930032 72.7308478,30.0399212 71.9990918,28.5154289 C71.2673358,26.9909367 69.9588027,25.8204588 68.3624871,25.2625 C68.1043239,25.1685118 67.9703571,24.8838321 68.0624872,24.625 C68.1051259,24.4986905 68.1964403,24.3946386 68.3161441,24.3359602 C68.4358479,24.2772819 68.5740281,24.2688364 68.6999869,24.3125 C72.5509443,25.6738663 74.5706526,29.8979119 73.2124849,33.75 C73.1386253,33.9477362 72.9485468,34.07779 72.7374851,34.075044" id="Path" fill="#40BEEE"></path>
                <path d="M57.287492,18.1625 C57.5707145,16.4826878 57.5707145,14.7673122 57.287492,13.0875 L51.9749944,12.25 C51.8092033,11.7812701 51.6172349,11.3222148 51.3999946,10.875 L54.5624932,6.525 C53.5750039,5.13754497 52.3624492,3.9249898 50.9749948,2.9375 L46.6249968,6.1 C46.1811868,5.87530165 45.7216451,5.68312958 45.2499974,5.525 L44.4124977,0.2125 C42.7326863,-0.0707225917 41.0173115,-0.0707225917 39.3375,0.2125 L38.4875004,5.525 C38.0207852,5.68545599 37.5655616,5.87756878 37.125001,6.1 L32.7625029,2.9375 C31.3808007,3.93177376 30.1692779,5.14329712 29.1750045,6.525 L32.3500031,10.875 C32.1222466,11.3173925 31.9299759,11.7771706 31.7750034,12.25 L26.4625057,13.0875 C26.1792833,14.7673122 26.1792833,16.4826878 26.4625057,18.1625 L31.7750034,19.0125 C31.9300493,19.4812661 32.1223286,19.9368846 32.3500031,20.375 L29.1750045,24.7375 C30.175632,26.1137876 31.386216,27.3243721 32.7625029,28.325 L37.125001,25.1625 C37.5657947,25.3808821 38.0210261,25.5688218 38.4875004,25.725 L39.3375,31.05 C41.0187258,31.3157905 42.7312719,31.3157905 44.4124977,31.05 L45.2499974,25.725 C45.7213633,25.5710881 46.180909,25.383092 46.6249968,25.1625 L50.9749948,28.325 C52.3566971,27.3307262 53.5682199,26.1192029 54.5624932,24.7375 L51.3999946,20.375 C51.6172128,19.9320451 51.8091863,19.477151 51.9749944,19.0125 L57.287492,18.1625 Z" id="Path" fill="#153359"></path>
                <path d="M41.8749989,19.875 C39.5277897,19.875 37.6250008,17.9722102 37.6250008,15.625 C37.6250008,13.2777898 39.5277897,11.375 41.8749989,11.375 C44.222208,11.375 46.1250008,13.2777898 46.1250008,15.625 C46.1250008,17.9722102 44.222208,19.875 41.8749989,19.875" id="Path" fill="#FFFFFF"></path>
                <path d="M13.7500114,20 C11.3337667,20 9.37501336,21.9587542 9.37501336,24.375 C9.37501336,26.7912458 11.3337667,28.75 13.7500114,28.75 C16.1662561,28.75 18.1250095,26.7912458 18.1250095,24.375 C18.1250095,21.9587542 16.1662561,20 13.7500114,20 M13.7500114,27.25 C12.1621935,27.25 10.8750127,25.9628187 10.8750127,24.375 C10.8750127,22.7871813 12.1621935,21.5 13.7500114,21.5 C15.3378294,21.5 16.6250101,22.7871813 16.6250101,24.375 C16.6250101,25.9628187 15.3378294,27.25 13.7500114,27.25" id="Shape" fill="#40BEEE"></path>
                <path d="M66.249988,26.875 C63.8337433,26.875 61.87499,28.8337542 61.87499,31.25 C61.87499,33.6662458 63.8337433,35.625 66.249988,35.625 C68.6662327,35.625 70.6249861,33.6662458 70.6249861,31.25 C70.6249861,28.8337542 68.6662327,26.875 66.249988,26.875 M66.249988,34.125 C64.6621701,34.125 63.3749893,32.8378187 63.3749893,31.25 C63.3749893,29.6621813 64.6621701,28.375 66.249988,28.375 C67.837806,28.375 69.1249867,29.6621813 69.1249867,31.25 C69.1249867,32.8378187 67.837806,34.125 66.249988,34.125" id="Shape" fill="#40BEEE"></path>
                <path d="M41.8750011,10.625 C39.1135764,10.625 36.8750011,12.8635763 36.8750011,15.625 C36.8750011,18.3864237 39.1135764,20.625 41.8750011,20.625 C44.6364214,20.625 46.8750011,18.3864237 46.8750011,15.625 C46.8750011,12.8635763 44.6364214,10.625 41.8750011,10.625 M41.8750004,19.125 C39.9420031,19.125 38.3750004,17.5579966 38.3750004,15.625 C38.3750004,13.6920034 39.9420031,12.125 41.8750004,12.125 C43.8079946,12.125 45.3750004,13.6920034 45.3750004,15.625 C45.3681406,17.5551493 43.8051474,19.1181433 41.8750004,19.125" id="Shape" fill="#40BEEE"></path>
                <path d="M41.8624989,23.625 C38.2125407,23.6240958 35.0274958,21.1491244 34.1250023,17.6125 C34.0612506,17.344039 34.2214878,17.0732933 34.4875022,17 C34.7549175,16.9428835 35.0213952,17.1005948 35.1000019,17.3625 C36.0731493,21.0914567 39.8816798,23.32848 43.6124981,22.3625 C43.8799135,22.3053835 44.1463911,22.4630948 44.2249978,22.725 C44.2887495,22.993461 44.1285123,23.2642067 43.862498,23.3375 C43.2093966,23.5067039 42.537155,23.5907342 41.8624989,23.5875" id="Path" fill="#40BEEE"></path>
                <path d="M49.1374956,14.2625 C48.9097136,14.2597349 48.7110958,14.1069519 48.6499959,13.8875 C47.6768484,10.1585433 43.8683179,7.92151996 40.1374997,8.8875 C39.8690387,8.95125172 39.5982932,8.79101447 39.5249999,8.525 C39.4909313,8.39566619 39.5100986,8.25807446 39.5782181,8.14297606 C39.6463375,8.02787765 39.75773,7.94486819 39.8874998,7.9125 C44.1667165,6.8217448 48.5217477,9.39898518 49.6249954,13.675 C49.6821119,13.9424155 49.5244006,14.2088933 49.2624956,14.2875 L49.1374956,14.2875" id="Path" fill="#40BEEE"></path>
                <path d="M49.9999953,49.375 L27.5000053,49.375 L27.5000053,51.875 C27.5000053,52.220178 27.7798272,52.5 28.125005,52.5 L49.3749955,52.5 C49.7201733,52.5 49.9999953,52.220178 49.9999953,51.875 L49.9999953,49.375 Z" id="Path" fill="#DE7526"></path>
                <path d="M49.3749955,46.25 L28.125005,46.25 C27.7798272,46.25 27.5000053,46.529822 27.5000053,46.875 L27.5000053,49.375 L49.9999953,49.375 L49.9999953,46.875 C49.9999953,46.529822 49.7201733,46.25 49.3749955,46.25" id="Path" fill="#F2A11F"></path>
                <rect id="Rectangle" fill="#DC4D26" x="40.3124996" y="47.5" width="1.87499916" height="3.75"></rect>
                <rect id="Rectangle" fill="#DC4D26" x="45.3124973" y="47.5" width="1.87499916" height="3.75"></rect>
                <rect id="Rectangle" fill="#DC4D26" x="35.3125018" y="47.5" width="1.87499916" height="3.75"></rect>
                <rect id="Rectangle" fill="#DC4D26" x="30.312504" y="47.5" width="1.87499916" height="3.75"></rect>
                <path d="M22.5000075,49.375 L1.7542187e-05,49.375 L1.7542187e-05,51.875 C1.7542187e-05,52.220178 0.279839449,52.5 0.625017264,52.5 L21.8750078,52.5 C22.2201856,52.5 22.5000075,52.220178 22.5000075,51.875 L22.5000075,49.375 Z" id="Path" fill="#DE7526"></path>
                <path d="M21.8750078,46.25 L0.625017264,46.25 C0.279839449,46.25 1.7542187e-05,46.529822 1.7542187e-05,46.875 L1.7542187e-05,49.375 L22.5000075,49.375 L22.5000075,46.875 C22.5000075,46.529822 22.2201856,46.25 21.8750078,46.25" id="Path" fill="#F2A11F"></path>
                <rect id="Rectangle" fill="#DC4D26" x="12.8125118" y="47.5" width="1.87499916" height="3.75"></rect>
                <rect id="Rectangle" fill="#DC4D26" x="17.8125096" y="47.5" width="1.87499916" height="3.75"></rect>
                <rect id="Rectangle" fill="#DC4D26" x="7.81251406" y="47.5" width="1.87499916" height="3.75"></rect>
                <rect id="Rectangle" fill="#DC4D26" x="2.81251629" y="47.5" width="1.87499916" height="3.75"></rect>
                <path d="M53.7499936,56.25 L31.2500036,56.25 L31.2500036,58.75 C31.2500036,59.095178 31.5298255,59.375 31.8750033,59.375 L53.1249939,59.375 C53.4701717,59.375 53.7499936,59.095178 53.7499936,58.75 L53.7499936,56.25 Z" id="Path" fill="#DE7526"></path>
                <path d="M53.1249939,53.125 L31.8750033,53.125 C31.5298255,53.125 31.2500036,53.404822 31.2500036,53.75 L31.2500036,56.25 L53.7499936,56.25 L53.7499936,53.75 C53.7499936,53.404822 53.4701717,53.125 53.1249939,53.125" id="Path" fill="#F2A11F"></path>
                <rect id="Rectangle" fill="#DC4D26" x="44.0624979" y="54.375" width="1.87499916" height="3.75"></rect>
                <rect id="Rectangle" fill="#DC4D26" x="49.0624957" y="54.375" width="1.87499916" height="3.75"></rect>
                <rect id="Rectangle" fill="#DC4D26" x="39.0625001" y="54.375" width="1.87499916" height="3.75"></rect>
                <rect id="Rectangle" fill="#DC4D26" x="34.0625024" y="54.375" width="1.87499916" height="3.75"></rect>
                <path d="M51.2499947,63.125 L28.7500047,63.125 L28.7500047,65.625 C28.7500047,65.970178 29.0298266,66.25 29.3750044,66.25 L50.624995,66.25 C50.9701728,66.25 51.2499947,65.970178 51.2499947,65.625 L51.2499947,63.125 Z" id="Path" fill="#1B7065"></path>
                <path d="M50.624995,60 L29.3750044,60 C29.0298266,60 28.7500047,60.279822 28.7500047,60.625 L28.7500047,63.125 L51.2499947,63.125 L51.2499947,60.625 C51.2499947,60.279822 50.9701728,60 50.624995,60" id="Path" fill="#52BF9B"></path>
                <rect id="Rectangle" fill="#2D5271" x="41.562499" y="61.25" width="1.87499916" height="3.75"></rect>
                <rect id="Rectangle" fill="#2D5271" x="46.5624968" y="61.25" width="1.87499916" height="3.75"></rect>
                <rect id="Rectangle" fill="#2D5271" x="36.5625012" y="61.25" width="1.87499916" height="3.75"></rect>
                <rect id="Rectangle" fill="#2D5271" x="31.5625035" y="61.25" width="1.87499916" height="3.75"></rect>
                <path d="M52.4999941,42.5 L30.0000042,42.5 L30.0000042,45 C30.0000042,45.345178 30.2798261,45.625 30.6250039,45.625 L51.8749944,45.625 C52.2201722,45.625 52.4999941,45.345178 52.4999941,45 L52.4999941,42.5 Z" id="Path" fill="#DE7526"></path>
                <path d="M51.8749944,39.375 L30.6250039,39.375 C30.2798261,39.375 30.0000042,39.654822 30.0000042,40 L30.0000042,42.5 L52.4999941,42.5 L52.4999941,40 C52.4999941,39.654822 52.2201722,39.375 51.8749944,39.375" id="Path" fill="#F2A11F"></path>
                <rect id="Rectangle" fill="#DC4D26" x="42.8124985" y="40.625" width="1.87499916" height="3.75"></rect>
                <rect id="Rectangle" fill="#DC4D26" x="47.8124962" y="40.625" width="1.87499916" height="3.75"></rect>
                <rect id="Rectangle" fill="#DC4D26" x="37.8125007" y="40.625" width="1.87499916" height="3.75"></rect>
                <rect id="Rectangle" fill="#DC4D26" x="32.8125029" y="40.625" width="1.87499916" height="3.75"></rect>
                <path d="M53.7499936,70 L31.2500036,70 L31.2500036,72.5 C31.2500036,72.845178 31.5298255,73.125 31.8750033,73.125 L53.1249939,73.125 C53.4701717,73.125 53.7499936,72.845178 53.7499936,72.5 L53.7499936,70 Z" id="Path" fill="#1B7065"></path>
                <path d="M53.1249939,66.875 L31.8750033,66.875 C31.5298255,66.875 31.2500036,67.154822 31.2500036,67.5 L31.2500036,70 L53.7499936,70 L53.7499936,67.5 C53.7499936,67.154822 53.4701717,66.875 53.1249939,66.875" id="Path" fill="#52BF9B"></path>
                <rect id="Rectangle" fill="#2D5271" x="44.0624979" y="68.125" width="1.87499916" height="3.75"></rect>
                <rect id="Rectangle" fill="#2D5271" x="49.0624957" y="68.125" width="1.87499916" height="3.75"></rect>
                <rect id="Rectangle" fill="#2D5271" x="39.0625001" y="68.125" width="1.87499916" height="3.75"></rect>
                <rect id="Rectangle" fill="#2D5271" x="34.0625024" y="68.125" width="1.87499916" height="3.75"></rect>
                <path d="M52.4999941,76.875 L30.0000042,76.875 L30.0000042,79.375 C30.0000042,79.720178 30.2798261,80 30.6250039,80 L51.8749944,80 C52.2201722,80 52.4999941,79.720178 52.4999941,79.375 L52.4999941,76.875 Z" id="Path" fill="#1B7065"></path>
                <path d="M51.8749944,73.75 L30.6250039,73.75 C30.2798261,73.75 30.0000042,74.029822 30.0000042,74.375 L30.0000042,76.875 L52.4999941,76.875 L52.4999941,74.375 C52.4999941,74.029822 52.2201722,73.75 51.8749944,73.75" id="Path" fill="#52BF9B"></path>
                <rect id="Rectangle" fill="#2D5271" x="42.8124985" y="75" width="1.87499916" height="3.75"></rect>
                <rect id="Rectangle" fill="#2D5271" x="47.8124962" y="75" width="1.87499916" height="3.75"></rect>
                <rect id="Rectangle" fill="#2D5271" x="37.8125007" y="75" width="1.87499916" height="3.75"></rect>
                <rect id="Rectangle" fill="#2D5271" x="32.8125029" y="75" width="1.87499916" height="3.75"></rect>
                <path d="M79.9999819,56.25 L57.4999919,56.25 L57.4999919,58.75 C57.4999919,59.095178 57.7798138,59.375 58.1249916,59.375 L79.3749822,59.375 C79.72016,59.375 79.9999819,59.095178 79.9999819,58.75 L79.9999819,56.25 Z" id="Path" fill="#DE7526"></path>
                <path d="M79.3749822,53.125 L58.1249916,53.125 C57.7798138,53.125 57.4999919,53.404822 57.4999919,53.75 L57.4999919,56.25 L79.9999819,56.25 L79.9999819,53.75 C79.9999819,53.404822 79.72016,53.125 79.3749822,53.125" id="Path" fill="#F2A11F"></path>
                <rect id="Rectangle" fill="#DC4D26" x="70.3124862" y="54.375" width="1.87499916" height="3.75"></rect>
                <rect id="Rectangle" fill="#DC4D26" x="75.312484" y="54.375" width="1.87499916" height="3.75"></rect>
                <rect id="Rectangle" fill="#DC4D26" x="65.3124884" y="54.375" width="1.87499916" height="3.75"></rect>
                <rect id="Rectangle" fill="#DC4D26" x="60.3124907" y="54.375" width="1.87499916" height="3.75"></rect>
                <path d="M78.7499824,63.125 L56.2499925,63.125 L56.2499925,65.625 C56.2499925,65.970178 56.5298144,66.25 56.8749922,66.25 L78.1249827,66.25 C78.4701605,66.25 78.7499824,65.970178 78.7499824,65.625 L78.7499824,63.125 Z" id="Path" fill="#DE7526"></path>
                <path d="M78.1249827,60 L56.8749922,60 C56.5298144,60 56.2499925,60.279822 56.2499925,60.625 L56.2499925,63.125 L78.7499824,63.125 L78.7499824,60.625 C78.7499824,60.279822 78.4701605,60 78.1249827,60" id="Path" fill="#F2A11F"></path>
                <rect id="Rectangle" fill="#DC4D26" x="69.0624868" y="61.25" width="1.87499916" height="3.75"></rect>
                <rect id="Rectangle" fill="#DC4D26" x="74.0624845" y="61.25" width="1.87499916" height="3.75"></rect>
                <rect id="Rectangle" fill="#DC4D26" x="64.062489" y="61.25" width="1.87499916" height="3.75"></rect>
                <rect id="Rectangle" fill="#DC4D26" x="59.0624912" y="61.25" width="1.87499916" height="3.75"></rect>
                <path d="M79.9999819,70 L57.4999919,70 L57.4999919,72.5 C57.4999919,72.845178 57.7798138,73.125 58.1249916,73.125 L79.3749822,73.125 C79.72016,73.125 79.9999819,72.845178 79.9999819,72.5 L79.9999819,70 Z" id="Path" fill="#DE7526"></path>
                <path d="M79.3749822,66.875 L58.1249916,66.875 C57.7798138,66.875 57.4999919,67.154822 57.4999919,67.5 L57.4999919,70 L79.9999819,70 L79.9999819,67.5 C79.9999819,67.154822 79.72016,66.875 79.3749822,66.875" id="Path" fill="#F2A11F"></path>
                <rect id="Rectangle" fill="#DC4D26" x="70.3124862" y="68.125" width="1.87499916" height="3.75"></rect>
                <rect id="Rectangle" fill="#DC4D26" x="75.312484" y="68.125" width="1.87499916" height="3.75"></rect>
                <rect id="Rectangle" fill="#DC4D26" x="65.3124884" y="68.125" width="1.87499916" height="3.75"></rect>
                <rect id="Rectangle" fill="#DC4D26" x="60.3124907" y="68.125" width="1.87499916" height="3.75"></rect>
                <path d="M78.7499824,49.375 L56.2499925,49.375 L56.2499925,51.875 C56.2499925,52.220178 56.5298144,52.5 56.8749922,52.5 L78.1249827,52.5 C78.4701605,52.5 78.7499824,52.220178 78.7499824,51.875 L78.7499824,49.375 Z" id="Path" fill="#DE7526"></path>
                <path d="M78.1249827,46.25 L56.8749922,46.25 C56.5298144,46.25 56.2499925,46.529822 56.2499925,46.875 L56.2499925,49.375 L78.7499824,49.375 L78.7499824,46.875 C78.7499824,46.529822 78.4701605,46.25 78.1249827,46.25" id="Path" fill="#F2A11F"></path>
                <rect id="Rectangle" fill="#DC4D26" x="69.0624868" y="47.5" width="1.87499916" height="3.75"></rect>
                <rect id="Rectangle" fill="#DC4D26" x="74.0624845" y="47.5" width="1.87499916" height="3.75"></rect>
                <rect id="Rectangle" fill="#DC4D26" x="64.062489" y="47.5" width="1.87499916" height="3.75"></rect>
                <rect id="Rectangle" fill="#DC4D26" x="59.0624912" y="47.5" width="1.87499916" height="3.75"></rect>
                <path d="M78.7499824,76.875 L56.2499925,76.875 L56.2499925,79.375 C56.2499925,79.720178 56.5298144,80 56.8749922,80 L78.1249827,80 C78.4701605,80 78.7499824,79.720178 78.7499824,79.375 L78.7499824,76.875 Z" id="Path" fill="#1B7065"></path>
                <path d="M78.1249827,73.75 L56.8749922,73.75 C56.5298144,73.75 56.2499925,74.029822 56.2499925,74.375 L56.2499925,76.875 L78.7499824,76.875 L78.7499824,74.375 C78.7499824,74.029822 78.4701605,73.75 78.1249827,73.75" id="Path" fill="#52BF9B"></path>
                <rect id="Rectangle" fill="#2D5271" x="69.0624868" y="75" width="1.87499916" height="3.75"></rect>
                <rect id="Rectangle" fill="#2D5271" x="74.0624845" y="75" width="1.87499916" height="3.75"></rect>
                <rect id="Rectangle" fill="#2D5271" x="64.062489" y="75" width="1.87499916" height="3.75"></rect>
                <rect id="Rectangle" fill="#2D5271" x="59.0624912" y="75" width="1.87499916" height="3.75"></rect>
                <path d="M25.0000064,56.25 L2.50001643,56.25 L2.50001643,58.75 C2.50001643,59.095178 2.77983833,59.375 3.12501615,59.375 L24.3750067,59.375 C24.7201845,59.375 25.0000064,59.095178 25.0000064,58.75 L25.0000064,56.25 Z" id="Path" fill="#DE7526"></path>
                <path d="M24.3750067,53.125 L3.12501615,53.125 C2.77983833,53.125 2.50001643,53.404822 2.50001643,53.75 L2.50001643,56.25 L25.0000064,56.25 L25.0000064,53.75 C25.0000064,53.404822 24.7201845,53.125 24.3750067,53.125" id="Path" fill="#F2A11F"></path>
                <rect id="Rectangle" fill="#DC4D26" x="15.3125107" y="54.375" width="1.87499916" height="3.75"></rect>
                <rect id="Rectangle" fill="#DC4D26" x="20.3125085" y="54.375" width="1.87499916" height="3.75"></rect>
                <rect id="Rectangle" fill="#DC4D26" x="10.3125129" y="54.375" width="1.87499916" height="3.75"></rect>
                <rect id="Rectangle" fill="#DC4D26" x="5.31251517" y="54.375" width="1.87499916" height="3.75"></rect>
                <path d="M22.5000075,63.125 L1.7542187e-05,63.125 L1.7542187e-05,65.625 C1.7542187e-05,65.970178 0.279839449,66.25 0.625017264,66.25 L21.8750078,66.25 C22.2201856,66.25 22.5000075,65.970178 22.5000075,65.625 L22.5000075,63.125 Z" id="Path" fill="#DE7526"></path>
                <path d="M21.8750078,60 L0.625017264,60 C0.279839449,60 1.7542187e-05,60.279822 1.7542187e-05,60.625 L1.7542187e-05,63.125 L22.5000075,63.125 L22.5000075,60.625 C22.5000075,60.279822 22.2201856,60 21.8750078,60" id="Path" fill="#F2A11F"></path>
                <rect id="Rectangle" fill="#DC4D26" x="12.8125118" y="61.25" width="1.87499916" height="3.75"></rect>
                <rect id="Rectangle" fill="#DC4D26" x="17.8125096" y="61.25" width="1.87499916" height="3.75"></rect>
                <rect id="Rectangle" fill="#DC4D26" x="7.81251406" y="61.25" width="1.87499916" height="3.75"></rect>
                <rect id="Rectangle" fill="#DC4D26" x="2.81251629" y="61.25" width="1.87499916" height="3.75"></rect>
                <path d="M49.9999953,35.625 L27.5000053,35.625 L27.5000053,38.125 C27.5000053,38.470178 27.7798272,38.75 28.125005,38.75 L49.3749955,38.75 C49.7201733,38.75 49.9999953,38.470178 49.9999953,38.125 L49.9999953,35.625 Z" id="Path" fill="#DE7526"></path>
                <path d="M49.3749955,32.5 L28.125005,32.5 C27.7798272,32.5 27.5000053,32.779822 27.5000053,33.125 L27.5000053,35.625 L49.9999953,35.625 L49.9999953,33.125 C49.9999953,32.779822 49.7201733,32.5 49.3749955,32.5" id="Path" fill="#F2A11F"></path>
                <rect id="Rectangle" fill="#DC4D26" x="40.3124996" y="33.75" width="1.87499916" height="3.75"></rect>
                <rect id="Rectangle" fill="#DC4D26" x="45.3124973" y="33.75" width="1.87499916" height="3.75"></rect>
                <rect id="Rectangle" fill="#DC4D26" x="35.3125018" y="33.75" width="1.87499916" height="3.75"></rect>
                <rect id="Rectangle" fill="#DC4D26" x="30.312504" y="33.75" width="1.87499916" height="3.75"></rect>
                <path d="M23.750007,42.5 L1.25001698,42.5 L1.25001698,45 C1.25001698,45.345178 1.52983889,45.625 1.87501671,45.625 L23.1250072,45.625 C23.470185,45.625 23.750007,45.345178 23.750007,45 L23.750007,42.5 Z" id="Path" fill="#DE7526"></path>
                <path d="M23.1250072,39.375 L1.87501671,39.375 C1.52983889,39.375 1.25001698,39.654822 1.25001698,40 L1.25001698,42.5 L23.750007,42.5 L23.750007,40 C23.750007,39.654822 23.470185,39.375 23.1250072,39.375" id="Path" fill="#F2A11F"></path>
                <rect id="Rectangle" fill="#DC4D26" x="14.0625113" y="40.625" width="1.87499916" height="3.75"></rect>
                <rect id="Rectangle" fill="#DC4D26" x="19.062509" y="40.625" width="1.87499916" height="3.75"></rect>
                <rect id="Rectangle" fill="#DC4D26" x="9.0625135" y="40.625" width="1.87499916" height="3.75"></rect>
                <rect id="Rectangle" fill="#DC4D26" x="4.06251573" y="40.625" width="1.87499916" height="3.75"></rect>
                <path d="M25.0000064,70 L2.50001643,70 L2.50001643,72.5 C2.50001643,72.845178 2.77983833,73.125 3.12501615,73.125 L24.3750067,73.125 C24.7201845,73.125 25.0000064,72.845178 25.0000064,72.5 L25.0000064,70 Z" id="Path" fill="#1B7065"></path>
                <path d="M24.3750067,66.875 L3.12501615,66.875 C2.77983833,66.875 2.50001643,67.154822 2.50001643,67.5 L2.50001643,70 L25.0000064,70 L25.0000064,67.5 C25.0000064,67.154822 24.7201845,66.875 24.3750067,66.875" id="Path" fill="#52BF9B"></path>
                <rect id="Rectangle" fill="#2D5271" x="15.3125107" y="68.125" width="1.87499916" height="3.75"></rect>
                <rect id="Rectangle" fill="#2D5271" x="20.3125085" y="68.125" width="1.87499916" height="3.75"></rect>
                <rect id="Rectangle" fill="#2D5271" x="10.3125129" y="68.125" width="1.87499916" height="3.75"></rect>
                <rect id="Rectangle" fill="#2D5271" x="5.31251517" y="68.125" width="1.87499916" height="3.75"></rect>
                <path d="M23.750007,76.875 L1.25001698,76.875 L1.25001698,79.375 C1.25001698,79.720178 1.52983889,80 1.87501671,80 L23.1250072,80 C23.470185,80 23.750007,79.720178 23.750007,79.375 L23.750007,76.875 Z" id="Path" fill="#1B7065"></path>
                <path d="M23.1250072,73.75 L1.87501671,73.75 C1.52983889,73.75 1.25001698,74.029822 1.25001698,74.375 L1.25001698,76.875 L23.750007,76.875 L23.750007,74.375 C23.750007,74.029822 23.470185,73.75 23.1250072,73.75" id="Path" fill="#52BF9B"></path>
                <rect id="Rectangle" fill="#2D5271" x="14.0625113" y="75" width="1.87499916" height="3.75"></rect>
                <rect id="Rectangle" fill="#2D5271" x="19.062509" y="75" width="1.87499916" height="3.75"></rect>
                <rect id="Rectangle" fill="#2D5271" x="9.0625135" y="75" width="1.87499916" height="3.75"></rect>
                <rect id="Rectangle" fill="#2D5271" x="4.06251573" y="75" width="1.87499916" height="3.75"></rect>
                <polygon id="Path" fill="#A6228B" points="3.75001587 5 4.95001534 7.5 3.75001587 10 6.25001476 8.8 8.75001364 10 7.55001418 7.5 8.75001364 5 6.25001476 6.2"></polygon>
                <polygon id="Path" fill="#A6228B" points="18.7500092 0 19.9500086 2.5 18.7500092 5 21.2500081 3.8 23.750007 5 22.5500075 2.5 23.750007 0 21.2500081 1.1875"></polygon>
                <polygon id="Path" fill="#A6228B" points="72.4999852 11.25 73.6999847 13.75 72.4999852 16.25 74.9999841 15.05 77.499983 16.25 76.3124835 13.75 77.499983 11.25 74.9999841 12.45"></polygon>
                <polygon id="Path" fill="#A6228B" points="57.4999919 3.75 58.6999914 6.25 57.4999919 8.75 59.9999908 7.55 62.4999897 8.75 61.3124902 6.25 62.4999897 3.75 59.9999908 4.95"></polygon>
            </g>
        </g>
    </g>
</svg>