<?xml version="1.0" encoding="UTF-8"?>
<svg width="95px" height="95px" viewBox="0 0 95 95" version="1.1" xmlns="http://www.w3.org/2000/svg" xmlns:xlink="http://www.w3.org/1999/xlink">
    <title>icons_membership</title>
    <g id="Design---2020" stroke="none" stroke-width="1" fill="none" fill-rule="evenodd">
        <g id="Welcome---D" transform="translate(-776.000000, -1207.000000)" fill-rule="nonzero">
            <g id="icons_membership" transform="translate(776.000000, 1207.000000)">
                <ellipse id="Oval" fill="#1C7065" cx="47.4871916" cy="47.5711724" rx="47.4871916" ry="47.428818"></ellipse>
                <path d="M45.9875961,7.55622755 C72.2140478,7.55622755 93.4747877,28.7908327 93.4747877,54.9850455 C93.4704764,56.857251 93.3569814,58.7276163 93.1348794,60.5866386 C98.1020646,43.4043488 92.969833,24.8923246 79.8613831,12.7089703 C66.7529333,0.52561606 47.897345,-3.25730018 31.0951546,2.92520994 C14.2929643,9.10772006 2.40136881,24.2043264 0.339908319,41.9695794 C6.15804321,21.60708 24.7861039,7.56356467 45.9875961,7.55622755 Z" id="Path" fill="#8DC63F"></path>
                <path d="M50.581357,81.824764 C50.574641,78.3049487 48.1963285,75.2306748 44.7879197,74.3360033 L35.7903465,71.9795399 L14.9109782,71.9795399 L7.91286572,73.81179 C16.6115071,86.9118034 31.2495807,94.8493265 46.9873264,94.9999904 C48.1870029,94.976692 49.3783482,94.9101252 50.5613624,94.8002901 L50.581357,81.824764 Z" id="Path" fill="#762266"></path>
                <path d="M25.3531617,78.4198741 C25.3531617,78.4198741 35.7303627,76.1882234 35.8003438,71.9695549 C33.5690204,70.8518246 31.9790093,68.7681912 31.491506,66.3230293 C31.4215249,65.9635688 31.3715384,63.6670155 31.3315492,63.327525 L19.3747742,63.327525 C19.3297863,63.7269256 19.2648038,66.0783964 19.1798268,66.507752 C18.6936383,68.8964387 17.1130763,70.9186978 14.9109782,71.9695549 C14.9959552,76.1682534 25.3531617,78.4198741 25.3531617,78.4198741 Z" id="Path" fill="#E4BFBB"></path>
                <path d="M25.3531617,42.1193546 C19.4747472,42.1193546 14.7060334,48.1103632 14.7060334,55.4493487 C14.7060334,62.7883342 19.4747472,68.7793428 25.3531617,68.7793428 C31.2315761,68.7793428 36.0002899,62.7883342 36.0002899,55.4493487 C36.0002899,48.1103632 31.2315761,42.1193546 25.3531617,42.1193546 Z" id="Path" fill="#F1D1CD"></path>
                <path d="M14.870989,53.562181 C14.870989,53.562181 12.2666914,50.2321787 13.9112478,43.9166572 C15.6157881,37.3664878 20.6094412,38.5846595 20.6094412,38.5846595 C20.6094412,38.5846595 22.2290043,36.8722296 26.0279797,36.8722296 C30.7267123,36.8722296 34.7906162,37.9905512 36.6501146,42.5137627 C38.5096131,47.0369741 36.0152858,53.562181 36.0152858,53.562181 C36.0152858,53.562181 34.4207159,47.8457603 29.2121208,46.1533004 C29.2121208,46.1533004 27.2126601,48.3899436 21.0843131,48.3899436 C14.955966,48.3899436 14.870989,53.562181 14.870989,53.562181 Z" id="Path" fill="#000000"></path>
                <path d="M36.6001281,52.1493015 C35.4654342,51.9096611 33.96084,53.3974283 33.6009371,55.1448058 C33.2410341,56.8921833 33.8208777,58.4997706 34.9555717,58.7394109 C36.0902656,58.9790513 37.4798908,57.8008196 37.8597883,56.0584346 C38.2396859,54.3160496 37.7348221,52.3889418 36.6001281,52.1493015 Z" id="Path" fill="#F1D1CD"></path>
                <path d="M14.1061952,52.1493015 C15.2408892,51.9096611 16.7454834,53.3974283 17.1303795,55.1448058 C17.5152757,56.8921833 16.9104389,58.4997706 15.7707463,58.7394109 C14.6310537,58.9790513 13.2714204,57.8008196 12.8665296,56.0584346 C12.4616388,54.3160496 12.9964945,52.3889418 14.1061952,52.1493015 Z" id="Path" fill="#F1D1CD"></path>
                <path d="M87.0665162,73.77185 L80.2433565,71.9845324 L59.3539909,71.9845324 L50.3564177,74.3409958 C46.9459697,75.2325905 44.5662009,78.3087469 44.5629803,81.8297565 L44.5629803,94.9001402 C45.5277201,94.9600503 46.5024572,95 47.482193,95 C63.408461,95.0101116 78.2767752,87.0365848 87.0665162,73.77185 Z" id="Path" fill="#F2A11F"></path>
                <path d="M54.6602569,85.0698936 C54.4375351,85.0698936 54.2239354,85.1582608 54.0664473,85.3155553 C53.9089593,85.4728497 53.8204834,85.6861868 53.8204834,85.9086348 L53.8204834,94.5756273 C54.385331,94.5007397 54.94518,94.4008895 55.5000304,94.3060319 L55.5000304,85.9086348 C55.5000304,85.4454109 55.124051,85.0698936 54.6602569,85.0698936 Z" id="Path" fill="#DD751B"></path>
                <path d="M69.7961744,78.4348516 C69.7961744,78.4348516 80.178374,76.1982084 80.2433565,71.9845324 C78.0098847,70.8657565 76.4181145,68.7803928 75.9295201,66.3330143 C75.8595389,65.9735538 75.8095524,63.681993 75.7695632,63.33751 L63.8127882,63.33751 C63.7678004,63.7319181 63.7028179,66.0883814 63.6228395,66.5177371 C63.1315755,68.9040851 61.5525856,70.9243328 59.3539909,71.9795399 C59.4439666,76.1832309 69.7961744,78.4348516 69.7961744,78.4348516 Z" id="Path" fill="#E4BFBB"></path>
                <path d="M69.7961744,42.1293396 C63.9177599,42.1293396 59.1490461,48.1203482 59.1490461,55.4593337 C59.1490461,62.7983192 63.9177599,68.7893278 69.7961744,68.7893278 C75.6745888,68.7893278 80.4433026,62.8232818 80.4433026,55.4593337 C80.4433026,48.0953857 75.6745888,42.1293396 69.7961744,42.1293396 Z" id="Path" fill="#F1D1CD"></path>
                <path d="M59.3140017,53.562181 C59.3140017,53.562181 56.4847648,50.1672761 58.3542605,43.9166572 C60.298736,37.4263979 66.3521033,38.5197569 66.3521033,38.5197569 C68.2393056,37.3289834 70.4516923,36.7564946 72.6803964,36.8822146 C77.3691318,37.1018849 79.4685655,38.8792174 81.1131219,42.5237477 C83.107584,46.977064 80.4782932,53.562181 80.4782932,53.562181 C80.4782932,53.562181 79.0836693,45.7588923 69.816169,45.7588923 C60.5486686,45.7588923 59.3140017,53.562181 59.3140017,53.562181 Z" id="Path" fill="#40BEEE"></path>
                <path d="M81.0431408,52.164279 C79.9084469,51.9246386 78.4038527,53.4124058 78.0439498,55.1597833 C77.6840468,56.9071608 78.2688891,58.5147481 79.403583,58.7543884 C80.538277,58.9940288 81.9029089,57.8207896 82.3077997,56.0734121 C82.7126905,54.3260346 82.1778347,52.4039193 81.0431408,52.164279 Z" id="Path" fill="#F1D1CD"></path>
                <path d="M58.5542066,52.164279 C59.6889005,51.9246386 61.1884961,53.4124058 61.5533976,55.1597833 C61.9182992,56.9071608 61.333457,58.5147481 60.198763,58.7543884 C59.0640691,58.9940288 57.6994371,57.8207896 57.2945463,56.0734121 C56.8896556,54.3260346 57.4195126,52.4039193 58.5542066,52.164279 Z" id="Path" fill="#F1D1CD"></path>
                <path d="M77.1691857,29.7878619 L54.9101895,29.7878619 L47.4871916,43.127841 L40.0691924,29.7878619 L17.8101962,29.7878619 C16.9819924,29.7878619 16.3106007,29.1172954 16.3106007,28.2901098 L16.3106007,1.64010657 C16.3106007,0.812920903 16.9819924,0.142354426 17.8101962,0.142354426 L77.1691857,0.142354426 C77.9973894,0.142354426 78.6687812,0.812920903 78.6687812,1.64010657 L78.6687812,28.3050873 C78.6605574,29.1264179 77.9915683,29.787903 77.1691857,29.7878619 Z" id="Path" fill="#52BF9B"></path>
                <path d="M69.7461878,15.9286621 L53.4255899,15.9286621 C52.8927788,15.9286621 52.4608501,15.4972643 52.4608501,14.9651082 C52.4608501,14.4329521 52.8927788,14.0015543 53.4255899,14.0015543 L69.7461878,14.0015543 C70.2789989,14.0015543 70.7109276,14.4329521 70.7109276,14.9651082 C70.7109276,15.4972643 70.2789989,15.9286621 69.7461878,15.9286621 Z" id="Path" fill="#1C7065"></path>
                <path d="M47.4871916,15.9286621 L25.2281954,15.9286621 C24.6953843,15.9286621 24.2634556,15.4972643 24.2634556,14.9651082 C24.2634556,14.4329521 24.6953843,14.0015543 25.2281954,14.0015543 L47.4871916,14.0015543 C48.0200027,14.0015543 48.4519314,14.4329521 48.4519314,14.9651082 C48.4519314,15.4972643 48.0200027,15.9286621 47.4871916,15.9286621 L47.4871916,15.9286621 Z" id="Path" fill="#1C7065"></path>
                <path d="M69.7461878,9.25867249 L62.3281887,9.25867249 C61.7953776,9.25867249 61.3634489,8.82727472 61.3634489,8.29511861 C61.3634489,7.7629625 61.7953776,7.33156473 62.3281887,7.33156473 L69.7461878,7.33156473 C70.2789989,7.33156473 70.7109276,7.7629625 70.7109276,8.29511861 C70.7109276,8.82727472 70.2789989,9.25867249 69.7461878,9.25867249 Z" id="Path" fill="#1C7065"></path>
                <path d="M56.394789,9.25867249 L44.5179925,9.25867249 C43.9851814,9.25867249 43.5532527,8.82727472 43.5532527,8.29511861 C43.5532527,7.7629625 43.9851814,7.33156473 44.5179925,7.33156473 L56.394789,7.33156473 C56.9276001,7.33156473 57.3595288,7.7629625 57.3595288,8.29511861 C57.3595288,8.82727472 56.9276001,9.25867249 56.394789,9.25867249 L56.394789,9.25867249 Z" id="Path" fill="#1C7065"></path>
                <path d="M38.5845928,9.25867249 L25.2281954,9.25867249 C24.6953843,9.25867249 24.2634556,8.82727472 24.2634556,8.29511861 C24.2634556,7.7629625 24.6953843,7.33156473 25.2281954,7.33156473 L38.5845928,7.33156473 C39.1174039,7.33156473 39.5493326,7.7629625 39.5493326,8.29511861 C39.5493326,8.82727472 39.1174039,9.25867249 38.5845928,9.25867249 L38.5845928,9.25867249 Z" id="Path" fill="#1C7065"></path>
                <path d="M57.8743899,22.6086366 L41.553792,22.6086366 C41.0209809,22.6086366 40.5890522,22.1772389 40.5890522,21.6450827 C40.5890522,21.1129266 41.0209809,20.6815289 41.553792,20.6815289 L57.8743899,20.6815289 C58.407201,20.6815289 58.8391297,21.1129266 58.8391297,21.6450827 C58.8391297,22.1772389 58.407201,22.6086366 57.8743899,22.6086366 L57.8743899,22.6086366 Z" id="Path" fill="#1C7065"></path>
                <path d="M35.6153937,22.6086366 L25.2281954,22.6086366 C24.6953843,22.6086366 24.2634556,22.1772389 24.2634556,21.6450827 C24.2634556,21.1129266 24.6953843,20.6815289 25.2281954,20.6815289 L35.6153937,20.6815289 C36.1482048,20.6815289 36.5801335,21.1129266 36.5801335,21.6450827 C36.5801335,22.1772389 36.1482048,22.6086366 35.6153937,22.6086366 L35.6153937,22.6086366 Z" id="Path" fill="#1C7065"></path>
            </g>
        </g>
    </g>
</svg>