<?xml version="1.0" encoding="UTF-8"?>
<svg width="100px" height="98px" viewBox="0 0 100 98" version="1.1" xmlns="http://www.w3.org/2000/svg" xmlns:xlink="http://www.w3.org/1999/xlink">
    <title>icon-expenses</title>
    <g id="Design---2020" stroke="none" stroke-width="1" fill="none" fill-rule="evenodd">
        <g id="Investments" transform="translate(-69.000000, -2280.000000)" fill-rule="nonzero">
            <g id="icon-expenses" transform="translate(86.000000, 2280.000000)">
                <path d="M1.51020983,60.4559438 L30.7076,60.4559438 L30.7076,64.2103494 C30.7076,64.3485828 30.5949093,64.4606432 30.4558983,64.4606432 L1.76191147,64.4606432 C1.6229005,64.4606432 1.51020983,64.3485828 1.51020983,64.2103494 L1.51020983,60.4559438 Z" id="Path" fill="#1C7065"></path>
                <path d="M1.76191147,56.4512445 L30.4558983,56.4512445 C30.5949093,56.4512445 30.7076,56.5633048 30.7076,56.7015382 L30.7076,60.4559438 L1.51020983,60.4559438 L1.51020983,56.7015382 C1.51020983,56.5633048 1.6229005,56.4512445 1.76191147,56.4512445 Z" id="Path" fill="#52BF9B"></path>
                <rect id="Rectangle" fill="#2D5271" x="18.6259213" y="57.9530068" width="2.51701639" height="4.50528674"></rect>
                <rect id="Rectangle" fill="#2D5271" x="25.1701639" y="57.9530068" width="2.51701639" height="4.50528674"></rect>
                <rect id="Rectangle" fill="#2D5271" x="11.0748721" y="57.9530068" width="2.51701639" height="4.50528674"></rect>
                <rect id="Rectangle" fill="#2D5271" x="5.03403278" y="57.9530068" width="2.51701639" height="4.50528674"></rect>
                <path d="M3.02041967,68.9659299 L32.2178098,68.9659299 L32.2178098,72.7203355 C32.2178098,72.8585689 32.1051191,72.9706292 31.9661082,72.9706292 L3.27212131,72.9706292 C3.13311033,72.9706292 3.02041967,72.8585689 3.02041967,72.7203355 L3.02041967,68.9659299 Z" id="Path" fill="#1C7065"></path>
                <path d="M3.27212131,64.9612306 L31.9661082,64.9612306 C32.1051191,64.9612306 32.2178098,65.0732909 32.2178098,65.2115243 L32.2178098,68.9659299 L3.02041967,68.9659299 L3.02041967,65.2115243 C3.02041967,65.0732909 3.13311033,64.9612306 3.27212131,64.9612306 Z" id="Path" fill="#52BF9B"></path>
                <rect id="Rectangle" fill="#2D5271" x="20.1361311" y="66.4629928" width="2.51701639" height="4.50528674"></rect>
                <rect id="Rectangle" fill="#2D5271" x="26.6803737" y="66.4629928" width="2.51701639" height="4.50528674"></rect>
                <rect id="Rectangle" fill="#2D5271" x="12.585082" y="66.4629928" width="2.51701639" height="4.50528674"></rect>
                <rect id="Rectangle" fill="#2D5271" x="6.54424262" y="66.4629928" width="2.51701639" height="4.50528674"></rect>
                <path d="M-3.57689542e-15,76.9753285 L29.1973901,76.9753285 L29.1973901,80.7297342 C29.1973901,80.8679676 29.0846995,80.9800279 28.9456885,80.9800279 L0.251701639,80.9800279 C0.112690662,80.9800279 -3.57689542e-15,80.8679676 -3.57689542e-15,80.7297342 L-3.57689542e-15,76.9753285 Z" id="Path" fill="#1C7065"></path>
                <path d="M0.251701639,73.4712166 L28.9456885,73.4712166 C29.0846995,73.4712166 29.1973901,73.5832769 29.1973901,73.7215103 L29.1973901,77.475916 L0,77.475916 L0,73.7215103 C0,73.5832769 0.112690662,73.4712166 0.251701639,73.4712166 Z" id="Path" fill="#52BF9B"></path>
                <rect id="Rectangle" fill="#2D5271" x="17.1157115" y="74.9729789" width="2.51701639" height="4.50528674"></rect>
                <rect id="Rectangle" fill="#2D5271" x="23.1565508" y="74.9729789" width="2.51701639" height="4.50528674"></rect>
                <rect id="Rectangle" fill="#2D5271" x="9.56466228" y="74.9729789" width="2.51701639" height="4.50528674"></rect>
                <rect id="Rectangle" fill="#2D5271" x="3.52382295" y="74.9729789" width="2.51701639" height="4.50528674"></rect>
                <path d="M3.02041967,85.4853146 L32.2178098,85.4853146 L32.2178098,89.2397202 C32.2178098,89.3779536 32.1051191,89.4900139 31.9661082,89.4900139 L3.27212131,89.4900139 C3.13311033,89.4900139 3.02041967,89.3779536 3.02041967,89.2397202 L3.02041967,85.4853146 Z" id="Path" fill="#1C7065"></path>
                <path d="M3.27212131,81.9812027 L31.9661082,81.9812027 C32.1051191,81.9812027 32.2178098,82.093263 32.2178098,82.2314964 L32.2178098,85.985902 L3.02041967,85.985902 L3.02041967,82.2314964 C3.02041967,82.093263 3.13311033,81.9812027 3.27212131,81.9812027 Z" id="Path" fill="#52BF9B"></path>
                <rect id="Rectangle" fill="#2D5271" x="20.1361311" y="83.4829649" width="2.51701639" height="4.50528674"></rect>
                <rect id="Rectangle" fill="#2D5271" x="26.6803737" y="83.4829649" width="2.51701639" height="4.50528674"></rect>
                <rect id="Rectangle" fill="#2D5271" x="12.585082" y="83.4829649" width="2.51701639" height="4.50528674"></rect>
                <rect id="Rectangle" fill="#2D5271" x="6.54424262" y="83.4829649" width="2.51701639" height="4.50528674"></rect>
                <path d="M1.51020983,93.9953007 L30.7076,93.9953007 L30.7076,97.7497063 C30.7076,97.8879397 30.5949093,98 30.4558983,98 L1.76191147,98 C1.6229005,98 1.51020983,97.8879397 1.51020983,97.7497063 L1.51020983,93.9953007 Z" id="Path" fill="#1C7065"></path>
                <path d="M1.76191147,89.9906014 L30.4558983,89.9906014 C30.5949093,89.9906014 30.7076,90.1026617 30.7076,90.2408951 L30.7076,93.9953007 L1.51020983,93.9953007 L1.51020983,90.2408951 C1.51020983,90.1026617 1.6229005,89.9906014 1.76191147,89.9906014 Z" id="Path" fill="#52BF9B"></path>
                <rect id="Rectangle" fill="#2D5271" x="18.6259213" y="91.992951" width="2.51701639" height="4.50528674"></rect>
                <rect id="Rectangle" fill="#2D5271" x="25.1701639" y="91.992951" width="2.51701639" height="4.50528674"></rect>
                <rect id="Rectangle" fill="#2D5271" x="11.0748721" y="91.992951" width="2.51701639" height="4.50528674"></rect>
                <rect id="Rectangle" fill="#2D5271" x="5.03403278" y="91.992951" width="2.51701639" height="4.50528674"></rect>
                <ellipse id="Oval" fill="#40BEEE" cx="15.3538" cy="40.6827409" rx="13.8435901" ry="13.7661539"></ellipse>
                <path d="M15.4293105,25.2346133 C6.93295957,25.2346133 0.045306295,32.0837394 0.045306295,40.5325647 C0.045306295,48.98139 6.93295957,55.8305161 15.4293105,55.8305161 C23.9256614,55.8305161 30.8133147,48.98139 30.8133147,40.5325647 C30.8133147,36.4752957 29.1925046,32.5842019 26.3074441,29.7152795 C23.4223837,26.8463571 19.5094021,25.2346133 15.4293105,25.2346133 Z M15.4293105,52.7669211 C10.4506462,52.7669211 5.96230796,49.7843539 4.05752622,45.2102031 C2.15274448,40.6360522 3.20670568,35.3712917 6.72787299,31.8712527 C10.2490403,28.3712137 15.5438464,27.3253018 20.1429478,29.2212999 C24.7420491,31.117298 27.7395569,35.5817497 27.7375217,40.5325647 C27.7264273,47.2867924 22.2215355,52.7586529 15.4293105,52.7669211 L15.4293105,52.7669211 Z" id="Shape" fill="#153359"></path>
                <path d="M15.4494466,48.8773569 C13.3911877,48.9256038 11.5044954,47.74192 10.6620814,45.8738324 C10.4146419,45.2891051 10.690734,44.6156227 11.2787505,44.3695673 C11.8667669,44.1235118 12.5440377,44.3980596 12.7914773,44.9827868 C13.2768593,45.9973745 14.3201409,46.6300592 15.4494466,46.5946783 C17.0049627,46.5946783 18.278573,45.4983919 18.278573,44.1468058 C18.278573,42.5198967 17.3170728,41.6939275 15.4343445,41.6939275 C11.6487519,41.6939275 10.2996311,39.2410492 10.2996311,36.9483588 C10.2996311,34.3302866 12.6001841,32.2027901 15.4343445,32.2027901 C17.4907918,32.1565794 19.3749758,33.3399338 20.2166756,35.2063146 C20.3961522,35.5873283 20.3513078,36.0354933 20.0998478,36.3738677 C19.8483877,36.7122421 19.4307267,36.8864423 19.011763,36.8276917 C18.5927994,36.768941 18.239869,36.486682 18.0923138,36.0923543 C17.6049155,35.0795761 16.5629555,34.4476928 15.4343445,34.4804628 C13.8737943,34.4804628 12.6052181,35.5817551 12.6052181,36.9333412 C12.6052181,38.5602503 13.5566503,39.3812136 15.4343445,39.3812136 C19.2300052,39.3812136 20.58416,41.834092 20.58416,44.1317882 C20.58416,46.7448545 18.278573,48.8773569 15.4494466,48.8773569 Z" id="Path" fill="#FFFFFF"></path>
                <path d="M14.0952918,33.4592645 L14.0952918,31.2266446 C14.0839473,30.8047505 14.3036612,30.4099445 14.6691715,30.1954346 C15.0603422,29.9550308 15.5514576,29.9429806 15.9540753,30.1639078 C16.356693,30.3848349 16.6082825,30.8044272 16.6123082,31.2616858 L16.6123082,33.4242234 C16.6115402,33.8828926 16.3604751,34.3050049 15.9566302,34.5266054 C15.5527853,34.7482059 15.0598055,34.7343711 14.6691715,34.4904746 C14.3028568,34.2767436 14.0828564,33.8814226 14.0952918,33.4592645 L14.0952918,33.4592645 Z" id="Path" fill="#FFFFFF"></path>
                <path d="M14.0952918,49.8334789 L14.0952918,47.600859 C14.0839473,47.1789649 14.3036612,46.7841589 14.6691715,46.5696489 C15.0603422,46.3292452 15.5514576,46.317195 15.9540753,46.5381221 C16.356693,46.7590493 16.6082825,47.1786416 16.6123082,47.6359001 L16.6123082,49.7984378 C16.6082825,50.2556963 16.356693,50.6752886 15.9540753,50.8962157 C15.5514576,51.1171429 15.0603422,51.1050927 14.6691715,50.8646889 C14.3028568,50.650958 14.0828564,50.255637 14.0952918,49.8334789 L14.0952918,49.8334789 Z" id="Path" fill="#FFFFFF"></path>
                <ellipse id="Oval" fill="#FFFFFF" cx="23.9116557" cy="40.6827409" rx="1.2585082" ry="1.25146854"></ellipse>
                <ellipse id="Oval" fill="#FFFFFF" cx="6.79594425" cy="40.6827409" rx="1.2585082" ry="1.25146854"></ellipse>
                <path d="M38.7620524,60.4559438 L67.9594425,60.4559438 L67.9594425,64.2103494 C67.9594425,64.3485828 67.8467519,64.4606432 67.7077409,64.4606432 L39.0137541,64.4606432 C38.8747431,64.4606432 38.7620524,64.3485828 38.7620524,64.2103494 L38.7620524,60.4559438 Z" id="Path" fill="#DD7526"></path>
                <path d="M39.0137541,56.4512445 L67.7077409,56.4512445 C67.8467519,56.4512445 67.9594425,56.5633048 67.9594425,56.7015382 L67.9594425,60.4559438 L38.7620524,60.4559438 L38.7620524,56.7015382 C38.7620524,56.5633048 38.8747431,56.4512445 39.0137541,56.4512445 Z" id="Path" fill="#F2A11F"></path>
                <rect id="Rectangle" fill="#DB4C26" x="55.8777639" y="57.9530068" width="2.51701639" height="4.50528674"></rect>
                <rect id="Rectangle" fill="#DB4C26" x="61.9186032" y="57.9530068" width="2.51701639" height="4.50528674"></rect>
                <rect id="Rectangle" fill="#DB4C26" x="48.3267147" y="57.9530068" width="2.51701639" height="4.50528674"></rect>
                <path d="M40.2722622,68.9659299 L69.4696524,68.9659299 L69.4696524,72.7203355 C69.4696524,72.8585689 69.3569617,72.9706292 69.2179507,72.9706292 L40.5239639,72.9706292 C40.3849529,72.9706292 40.2722622,72.8585689 40.2722622,72.7203355 L40.2722622,68.9659299 Z" id="Path" fill="#DD7526"></path>
                <path d="M40.5239639,64.9612306 L69.2179507,64.9612306 C69.3569617,64.9612306 69.4696524,65.0732909 69.4696524,65.2115243 L69.4696524,68.9659299 L40.2722622,68.9659299 L40.2722622,65.2115243 C40.2722622,65.0732909 40.3849529,64.9612306 40.5239639,64.9612306 Z" id="Path" fill="#F2A11F"></path>
                <rect id="Rectangle" fill="#DB4C26" x="57.3879737" y="66.4629928" width="2.51701639" height="4.50528674"></rect>
                <rect id="Rectangle" fill="#DB4C26" x="63.428813" y="66.4629928" width="2.51701639" height="4.50528674"></rect>
                <rect id="Rectangle" fill="#DB4C26" x="49.8369245" y="66.4629928" width="2.51701639" height="4.50528674"></rect>
                <path d="M37.2518426,76.9753285 L66.4492327,76.9753285 L66.4492327,80.7297342 C66.4492327,80.8679676 66.336542,80.9800279 66.1975311,80.9800279 L37.5035442,80.9800279 C37.3645332,80.9800279 37.2518426,80.8679676 37.2518426,80.7297342 L37.2518426,76.9753285 Z" id="Path" fill="#DD7526"></path>
                <path d="M37.5035442,73.4712166 L66.1975311,73.4712166 C66.336542,73.4712166 66.4492327,73.5832769 66.4492327,73.7215103 L66.4492327,77.475916 L37.2518426,77.475916 L37.2518426,73.7215103 C37.2518426,73.5832769 37.3645332,73.4712166 37.5035442,73.4712166 Z" id="Path" fill="#F2A11F"></path>
                <rect id="Rectangle" fill="#DB4C26" x="54.367554" y="74.9729789" width="2.51701639" height="4.50528674"></rect>
                <rect id="Rectangle" fill="#DB4C26" x="60.4083934" y="74.9729789" width="2.51701639" height="4.50528674"></rect>
                <rect id="Rectangle" fill="#DB4C26" x="46.8165049" y="74.9729789" width="2.51701639" height="4.50528674"></rect>
                <path d="M38.7620524,43.4359717 L67.9594425,43.4359717 L67.9594425,47.1903773 C67.9594425,47.3286107 67.8467519,47.440671 67.7077409,47.440671 L39.0137541,47.440671 C38.8747431,47.440671 38.7620524,47.3286107 38.7620524,47.1903773 L38.7620524,43.4359717 Z" id="Path" fill="#DD7526"></path>
                <path d="M39.0137541,39.4312724 L67.7077409,39.4312724 C67.8467519,39.4312724 67.9594425,39.5433327 67.9594425,39.6815661 L67.9594425,43.4359717 L38.7620524,43.4359717 L38.7620524,39.6815661 C38.7620524,39.5433327 38.8747431,39.4312724 39.0137541,39.4312724 Z" id="Path" fill="#F2A11F"></path>
                <rect id="Rectangle" fill="#DB4C26" x="55.8777639" y="41.433622" width="2.51701639" height="4.50528674"></rect>
                <rect id="Rectangle" fill="#DB4C26" x="61.9186032" y="41.433622" width="2.51701639" height="4.50528674"></rect>
                <rect id="Rectangle" fill="#DB4C26" x="48.3267147" y="41.433622" width="2.51701639" height="4.50528674"></rect>
                <path d="M40.2722622,51.9459578 L69.4696524,51.9459578 L69.4696524,55.7003634 C69.4696524,55.8385968 69.3569617,55.9506571 69.2179507,55.9506571 L40.5239639,55.9506571 C40.3849529,55.9506571 40.2722622,55.8385968 40.2722622,55.7003634 L40.2722622,51.9459578 Z" id="Path" fill="#DD7526"></path>
                <path d="M40.5239639,47.9412584 L69.2179507,47.9412584 C69.3569617,47.9412584 69.4696524,48.0533188 69.4696524,48.1915521 L69.4696524,51.9459578 L40.2722622,51.9459578 L40.2722622,48.1915521 C40.2722622,48.0533188 40.3849529,47.9412584 40.5239639,47.9412584 Z" id="Path" fill="#F2A11F"></path>
                <rect id="Rectangle" fill="#DB4C26" x="57.3879737" y="49.9436081" width="2.51701639" height="4.50528674"></rect>
                <rect id="Rectangle" fill="#DB4C26" x="63.428813" y="49.9436081" width="2.51701639" height="4.50528674"></rect>
                <rect id="Rectangle" fill="#DB4C26" x="49.8369245" y="49.9436081" width="2.51701639" height="4.50528674"></rect>
                <path d="M41.7824721,34.9259856 L70.9798622,34.9259856 L70.9798622,38.6803913 C70.9798622,38.8186246 70.8671715,38.930685 70.7281606,38.930685 L42.0341737,38.930685 C41.8951627,38.930685 41.7824721,38.8186246 41.7824721,38.6803913 L41.7824721,34.9259856 Z" id="Path" fill="#DD7526"></path>
                <path d="M42.0341737,31.4218737 L70.7281606,31.4218737 C70.8671715,31.4218737 70.9798622,31.533934 70.9798622,31.6721674 L70.9798622,35.4265731 L41.7824721,35.4265731 L41.7824721,31.6721674 C41.7824721,31.533934 41.8951627,31.4218737 42.0341737,31.4218737 Z" id="Path" fill="#F2A11F"></path>
                <rect id="Rectangle" fill="#DB4C26" x="58.8981835" y="32.923636" width="2.51701639" height="4.50528674"></rect>
                <rect id="Rectangle" fill="#DB4C26" x="64.9390229" y="32.923636" width="2.51701639" height="4.50528674"></rect>
                <rect id="Rectangle" fill="#DB4C26" x="51.3471344" y="32.923636" width="2.51701639" height="4.50528674"></rect>
                <path d="M38.7620524,85.4853146 L67.9594425,85.4853146 L67.9594425,89.2397202 C67.9594425,89.3779536 67.8467519,89.4900139 67.7077409,89.4900139 L39.0137541,89.4900139 C38.8747431,89.4900139 38.7620524,89.3779536 38.7620524,89.2397202 L38.7620524,85.4853146 Z" id="Path" fill="#DD7526"></path>
                <path d="M39.0137541,81.9812027 L67.7077409,81.9812027 C67.8467519,81.9812027 67.9594425,82.093263 67.9594425,82.2314964 L67.9594425,85.985902 L38.7620524,85.985902 L38.7620524,82.2314964 C38.7620524,82.093263 38.8747431,81.9812027 39.0137541,81.9812027 Z" id="Path" fill="#F2A11F"></path>
                <rect id="Rectangle" fill="#DB4C26" x="55.8777639" y="83.4829649" width="2.51701639" height="4.50528674"></rect>
                <rect id="Rectangle" fill="#DB4C26" x="61.9186032" y="83.4829649" width="2.51701639" height="4.50528674"></rect>
                <rect id="Rectangle" fill="#DB4C26" x="48.3267147" y="83.4829649" width="2.51701639" height="4.50528674"></rect>
                <path d="M38.7620524,93.9953007 L67.9594425,93.9953007 L67.9594425,97.7497063 C67.9594425,97.8879397 67.8467519,98 67.7077409,98 L39.0137541,98 C38.8747431,98 38.7620524,97.8879397 38.7620524,97.7497063 L38.7620524,93.9953007 Z" id="Path" fill="#DD7526"></path>
                <path d="M39.0137541,89.9906014 L67.7077409,89.9906014 C67.8467519,89.9906014 67.9594425,90.1026617 67.9594425,90.2408951 L67.9594425,93.9953007 L38.7620524,93.9953007 L38.7620524,90.2408951 C38.7620524,90.1026617 38.8747431,89.9906014 39.0137541,89.9906014 Z" id="Path" fill="#F2A11F"></path>
                <rect id="Rectangle" fill="#DB4C26" x="55.8777639" y="91.992951" width="2.51701639" height="4.50528674"></rect>
                <rect id="Rectangle" fill="#DB4C26" x="61.9186032" y="91.992951" width="2.51701639" height="4.50528674"></rect>
                <rect id="Rectangle" fill="#DB4C26" x="48.3267147" y="91.992951" width="2.51701639" height="4.50528674"></rect>
                <ellipse id="Oval" fill="#F2A11F" cx="55.6260622" cy="15.1527827" rx="13.8435901" ry="13.7661539"></ellipse>
                <path d="M55.6210282,8.23933794e-07 C49.3978636,-0.00202300544 43.7864343,3.72446095 41.4039917,9.44136774 C39.021549,15.1582745 40.3374192,21.7394099 44.7378613,26.1152374 C49.1383034,30.491065 55.7564584,31.7995747 61.5055235,29.4304586 C67.2545885,27.0613425 71.0020344,21.4813016 70.9999992,15.2929472 C70.9972199,6.8480313 64.1134477,0.00276458542 55.6210282,8.23933794e-07 Z M55.6210282,27.5323105 C50.6423643,27.5343344 46.1527995,24.5535936 44.2461362,19.980218 C42.3394729,15.4068424 43.3912682,10.1416536 46.9109953,6.64018252 C50.4307225,3.1387114 55.7250978,2.09064569 60.3249788,3.98477274 C64.9248598,5.87889979 67.9242043,10.3421318 67.9242043,15.2929472 C67.9158896,22.0471789 62.4132493,27.5212782 55.6210282,27.5323105 Z" id="Shape" fill="#DD7526"></path>
                <path d="M55.6613005,23.6427453 C53.6030416,23.6909922 51.7163493,22.5073084 50.8739353,20.6392208 C50.6264957,20.0544935 50.9025879,19.3810111 51.4906043,19.1349556 C52.0786207,18.8889002 52.7558916,19.1634479 53.0033312,19.7481752 C53.4941427,20.7560019 54.535822,21.3818294 55.6613005,21.345049 C57.2218506,21.345049 58.4904269,20.2487626 58.4904269,18.8921707 C58.4904269,17.2702675 57.5339607,16.4442983 55.6461984,16.4442983 C51.8555717,16.4442983 50.5064509,13.9914199 50.5064509,11.6987296 C50.5064509,9.08065737 52.8120379,6.95316085 55.6461984,6.95316085 C57.7033964,6.90425289 59.5889563,8.08847144 60.4285295,9.95668534 C60.5885948,10.3340434 60.5340508,10.7676527 60.2854435,11.094177 C60.0368362,11.4207012 59.6319351,11.5905336 59.2232626,11.5396998 C58.81459,11.488866 58.464233,11.225089 58.3041677,10.8477309 C57.8167694,9.83495271 56.7748094,9.2030694 55.6461984,9.23583947 C54.0856482,9.23583947 52.8170719,10.3371318 52.8170719,11.6887178 C52.8170719,13.3156269 53.7685041,14.1365903 55.6461984,14.1365903 C59.4418591,14.1365903 60.7960139,16.5894686 60.7960139,18.882159 C60.7708437,21.5102429 58.4652567,23.6427453 55.6613005,23.6427453 Z" id="Path" fill="#FFFFFF"></path>
                <path d="M54.367554,8.22465289 L54.367554,5.99203301 C54.3551186,5.56987489 54.5751191,5.17455392 54.9414338,4.96082294 C55.3326044,4.72041918 55.8237199,4.70836903 56.2263376,4.92929615 C56.6289553,5.15022328 56.8805448,5.56981559 56.8845704,6.02707413 L56.8845704,8.18961177 C56.8805448,8.64687031 56.6289553,9.06646262 56.2263376,9.28738975 C55.8237199,9.50831687 55.3326044,9.49626672 54.9414338,9.25586296 C54.5751191,9.04213198 54.3551186,8.64681101 54.367554,8.22465289 L54.367554,8.22465289 Z" id="Path" fill="#FFFFFF"></path>
                <path d="M54.367554,24.5988673 L54.367554,22.3662474 C54.3562096,21.9443533 54.5759235,21.5495473 54.9414338,21.3350373 C55.3341345,21.0937172 55.8274094,21.0825976 56.2307038,21.3059739 C56.6339982,21.5293503 56.8841676,21.9522483 56.8845704,22.4113002 L56.8845704,24.5638261 C56.8805448,25.0210847 56.6289553,25.440677 56.2263376,25.6616041 C55.8237199,25.8825312 55.3326044,25.8704811 54.9414338,25.6300773 C54.5759235,25.4155674 54.3562096,25.0207614 54.367554,24.5988673 Z" id="Path" fill="#FFFFFF"></path>
                <ellipse id="Oval" fill="#FFFFFF" cx="64.183918" cy="15.1527827" rx="1.2585082" ry="1.25146854"></ellipse>
                <ellipse id="Oval" fill="#FFFFFF" cx="48.0750131" cy="15.1527827" rx="1.2585082" ry="1.25146854"></ellipse>
            </g>
        </g>
    </g>
</svg>