<?xml version="1.0" encoding="UTF-8"?>
<svg width="80px" height="80px" viewBox="0 0 80 80" version="1.1" xmlns="http://www.w3.org/2000/svg" xmlns:xlink="http://www.w3.org/1999/xlink">
    <title>icon-recipients</title>
    <g id="Design---2020" stroke="none" stroke-width="1" fill="none" fill-rule="evenodd">
        <g id="Review" transform="translate(-106.000000, -1571.000000)" fill-rule="nonzero">
            <g id="icon-recipients" transform="translate(106.000000, 1571.000000)">
                <polygon id="Path" fill="#1B7065" points="46.25 20.0071179 33.75 20.0071179 0 80 80 80"></polygon>
                <polygon id="Path" fill="#52BF9B" points="44.3 20.0071179 35.7 20.0071179 12.5 80 67.5 80"></polygon>
                <path d="M65.8125,7.57109338 L68.375,4.89641072 C68.6274379,4.66009908 68.7706911,4.32978329 68.7706911,3.98401897 C68.7706911,3.63825465 68.6274379,3.30793886 68.375,3.07162722 L68.1,2.79665984 C67.6453722,2.33419772 66.9125258,2.29620278 66.4125,2.70917022 L63.4,5.00889737 L65.8125,7.57109338 Z" id="Path" fill="#E5C1BD"></path>
                <path d="M14.1875,7.57109338 L11.6125,4.89641072 C11.3600621,4.66009908 11.2168089,4.32978329 11.2168089,3.98401897 C11.2168089,3.63825465 11.3600621,3.30793886 11.6125,3.07162722 L11.8875,2.79665984 C12.3436984,2.32660483 13.0854465,2.28843114 13.5875,2.70917022 L16.5875,5.00889737 L14.1875,7.57109338 Z" id="Path" fill="#E5C1BD"></path>
                <path d="M63.2625,4.90890923 L63.05,4.90890923 L49.1875,15.6076399 C48.0559677,16.4812514 46.6670947,16.9558732 45.2375,16.9574797 L34.7625,16.9574797 C33.3325912,16.9577603 31.9431255,16.482936 30.8125,15.6076399 L16.9375,4.89641072 L16.725,4.89641072 L14.05,7.72107558 L14.05,7.93355037 L28.75,23.1817412 C30.1712348,24.6880047 30.9550368,26.685343 30.9375,28.7560799 L30.9375,40.8296474 L49.05,40.8296474 L49.05,28.7560799 C49.0410039,26.6845789 49.8286435,24.6888651 51.25,23.1817412 L65.95,7.93355037 L65.95,7.70857707 L63.2625,4.90890923 Z" id="Path" fill="#7897CE"></path>
                <path d="M40,20.0946075 C40,20.0946075 45,18.994738 45,16.9574797 C43.9219493,16.4279323 43.1540532,15.4242354 42.925,14.2453015 C42.925,14.0828208 42.925,12.9954498 42.8375,12.7954735 L37.1125,12.7954735 C37.1125,12.9829513 37.05,14.1203163 37.0125,14.3327911 C36.7846491,15.4722238 36.0413373,16.441646 35,16.9574797 C35,18.994738 40,20.0946075 40,20.0946075" id="Path" fill="#E5C1BD"></path>
                <path d="M40,2.50919395 C37.1625,2.50919395 34.8625,5.3963514 34.8625,8.95842878 C34.8625,12.5205062 37.1625,15.3951651 40,15.3951651 C42.8375,15.3951651 45.1375,12.5205062 45.1375,8.95842878 C45.1375,5.3963514 42.8375,2.50919395 40,2.50919395" id="Path" fill="#F3D3CF"></path>
                <path d="M35,8.07103406 C34.158451,6.66370338 33.9888656,4.95430173 34.5375,3.40908718 C35.3,0.259460871 37.7,0.834392658 37.7,0.834392658 C38.4388541,0.236782238 39.3770731,-0.0580516062 40.325,0.00949052906 C42.5875,0.00949052906 44.55,0.546926765 45.45,2.73416726 C46.35,4.92140775 45.1375,8.07103406 45.1375,8.07103406 C44.6499195,6.44147079 43.4433906,5.12457641 41.8625,4.49645817 C41.8625,4.49645817 40.8875,5.57133064 37.9375,5.57133064 C37.2032059,5.48020635 36.4639621,5.69726567 35.8955336,6.17089985 C35.3271052,6.64453403 34.9802726,7.33243098 34.9375,8.07103406" id="Path" fill="#3592AF"></path>
                <path d="M45.425,7.39611414 C44.875,7.28362748 44.175,8.00854148 43.9625,8.84594212 C43.75,9.68334277 44.075,10.4707493 44.625,10.583236 C45.175,10.6957227 45.875,10.1332894 46.025,9.33338429 C46.175,8.53347919 46.025,7.57109338 45.425,7.44610821" id="Path" fill="#F3D3CF"></path>
                <path d="M34.5625,7.39611414 C35.1125,7.28362748 35.8125,8.00854148 36.025,8.84594212 C36.2375,9.68334277 35.925,10.4707493 35.375,10.583236 C34.825,10.6957227 34.125,10.1332894 33.9625,9.33338429 C33.8,8.53347919 33.9625,7.57109338 34.5625,7.44610821" id="Path" fill="#F3D3CF"></path>
                <polygon id="Path" fill="#B4CBE9" points="49.425 71.5135069 49.05 40.8421459 30.9375 40.8421459 30.575 71.5135069 36.2 71.5135069 40 46.5664667 43.8 71.5135069"></polygon>
                <path d="M36.25,71.5135069 L29.725,71.5135069 C28.1647956,71.5135069 26.9,72.7781524 26.9,74.3381718 L26.9,74.7756199 C26.9,74.8998692 27.0007359,75.0005932 27.125,75.0005932 L35.975,75.0005932 C36.0992641,75.0005932 36.2,74.8998692 36.2,74.7756199 L36.25,71.5135069 Z" id="Path" fill="#8CABD9"></path>
                <path d="M50.275,71.5135069 L43.75,71.5135069 L43.75,74.7756199 C43.75,74.8998692 43.8507359,75.0005932 43.975,75.0005932 L52.8125,75.0005932 C52.9367641,75.0005932 53.0375,74.8998692 53.0375,74.7756199 L53.0375,74.3381718 C53.0375,72.7830204 51.7803206,71.5203881 50.225,71.5135069" id="Path" fill="#8CABD9"></path>
                <rect id="Rectangle" fill="#153359" x="7.5" y="42.2919739" width="2.5" height="37.4955513"></rect>
                <rect id="Rectangle" fill="#153359" x="70" y="42.2919739" width="2.5" height="37.4955513"></rect>
                <path d="M40,55.8653635 C50.825,52.7907283 62.6125,51.165921 71.25,55.8653635 L71.25,45.4416002 C62.6125,40.7546563 50.825,42.366965 40,45.4416002 C29.7375,48.3537547 17.3875,50.1410426 8.75,45.4416002 L8.75,55.8653635 C17.3875,60.5523074 29.7375,58.7650194 40,55.8653635" id="Path" fill="#DE7526"></path>
                <path d="M40,55.8653635 C50.825,52.7907283 62.6125,51.165921 71.25,55.8653635 L71.25,50.6909774 C62.6125,46.0040335 50.825,47.6288407 40,50.6909774 C29.7375,53.6031319 17.3875,55.3904198 8.75,50.6909774 L8.75,55.8653635 C17.3875,60.5523074 29.7375,58.7650194 40,55.8653635" id="Path" fill="#F2A11F"></path>
                <polygon id="Path" fill="#A6228B" points="62.325 31.9307032 63.5125 34.4304066 62.325 36.9301101 64.825 35.7302524 67.325 36.9301101 66.125 34.4304066 67.325 31.9307032 64.825 33.1180623"></polygon>
                <polygon id="Path" fill="#A6228B" points="71.25 15.4326606 72.4375 17.9323641 71.25 20.4320675 73.75 19.2447084 76.25 20.4320675 75.0625 17.9323641 76.25 15.4326606 73.75 16.6325183"></polygon>
                <polygon id="Path" fill="#A6228B" points="75 48.7537072 76.1875 51.2534107 75 53.7531141 77.5 52.5532564 80 53.7531141 78.8125 51.2534107 80 48.7537072 77.5 49.9410664"></polygon>
                <polygon id="Path" fill="#A6228B" points="15.2875 26.0688987 16.4875 28.5686021 15.2875 31.0683055 17.7875 29.8809464 20.2875 31.0683055 19.1 28.5686021 20.2875 26.0688987 17.7875 27.2687563"></polygon>
                <polygon id="Path" fill="#A6228B" points="3.75 9.18340208 4.95 11.6831055 3.75 14.1828089 6.25 12.9954498 8.75 14.1828089 7.55 11.6831055 8.75 9.18340208 6.25 10.3832597"></polygon>
                <polygon id="Path" fill="#A6228B" points="0 61.0647466 1.2 63.56445 0 66.0641534 2.5 64.8767943 5 66.0641534 3.8 63.56445 5 61.0647466 2.5 62.2646042"></polygon>
            </g>
        </g>
    </g>
</svg>