<?xml version="1.0" encoding="UTF-8"?>
<svg width="77px" height="80px" viewBox="0 0 77 80" version="1.1" xmlns="http://www.w3.org/2000/svg" xmlns:xlink="http://www.w3.org/1999/xlink">
    <title>icon-colorad</title>
    <g id="Design---2020" stroke="none" stroke-width="1" fill="none" fill-rule="evenodd">
        <g id="Review" transform="translate(-107.000000, -1703.000000)">
            <g id="icon-colorad" transform="translate(109.000000, 1705.000000)">
                <path d="M73,52.1526717 C66.2825267,68.9492282 48.6918726,78.6594526 30.9591593,75.359654 C13.2264459,72.0598554 0.274367405,56.6660752 0.00429719563,38.5692391 C-0.265773014,20.472403 12.221138,4.69628738 29.8474306,0.865060488 C47.4737233,-2.9661664 65.3462465,6.21106405 72.5619254,22.7982122 L51.8222201,32.2564527 L51.8222201,43.68673 L73,52.1526717 Z" id="Path" fill="#2D5271" fill-rule="nonzero"></path>
                <path d="M73,52.1526717 C66.2825267,68.9492282 48.6918726,78.6594526 30.9591593,75.359654 C13.2264459,72.0598554 0.274367405,56.6660752 0.00429719563,38.5692391 C-0.265773014,20.472403 12.221138,4.69628738 29.8474306,0.865060488 C47.4737233,-2.9661664 65.3462465,6.21106405 72.5619254,22.7982122 L51.8222201,32.2564527 L51.8222201,43.68673 L73,52.1526717 Z" id="Path" stroke="#FFFFFF" stroke-width="2.075"></path>
                <path d="M59.7451129,38.3107314 C59.7451129,50.5894118 49.8264022,60.5432489 37.5910524,60.5432489 C25.3557026,60.5432489 15.4369919,50.5894118 15.4369919,38.3107314 C15.4369919,26.0320511 25.3557026,16.0782139 37.5910524,16.0782139 C49.8264022,16.0782139 59.7451129,26.0320511 59.7451129,38.3107314" id="Path" fill="#F2A11F" fill-rule="nonzero"></path>
                <path d="M37.5910524,15.3622481 C28.334675,15.3571713 19.9871601,20.9495865 16.4425589,29.5306785 C12.8979578,38.1117705 14.854679,47.9907686 21.3999272,54.5591963 C27.9451754,61.127624 37.7893112,63.0912748 46.3401212,59.5341208 C54.8909311,55.9769667 60.4636111,47.5998896 60.4585522,38.3107314 C60.4516434,25.6395075 50.2175605,15.3691814 37.5910524,15.3622481 M37.5910524,59.8398473 C25.7428097,59.8398473 16.1379113,50.2009338 16.1379113,38.3107314 C16.1379113,26.4205291 25.7428097,16.7816156 37.5910524,16.7816156 C49.4392951,16.7816156 59.0441935,26.4205291 59.0441935,38.3107314 C59.0372886,50.1980624 49.4364338,59.8329179 37.5910524,59.8398473" id="Shape" fill="#FFFFFF" fill-rule="nonzero"></path>
                <polygon id="Path" fill="#DE7526" fill-rule="nonzero" points="37.578536 30.8747708 43.1233093 36.4266198 23.7854429 55.8329698 27.6530162 58.0311001 59.2444562 26.3403421"></polygon>
                <polygon id="Path" fill="#BE1E2D" fill-rule="nonzero" points="27.6530162 58.0311001 31.5205895 60.2417911 49.1812558 42.5185808 54.7260292 48.0704298 59.2444562 26.3403421"></polygon>
                <polygon id="Path" fill="#40BEEE" fill-rule="nonzero" points="18.102989 48.5854203 31.0324492 35.6227322 34.7623419 39.3532732 37.5910524 23.9663614 16.6510845 44.9804867"></polygon>
                <polygon id="Path" fill="#153359" fill-rule="nonzero" points="25.9883326 30.5481914 15.1991799 41.3629923 16.6510845 44.9804867 37.5910524 23.9663614 22.2584399 26.8050896"></polygon>
                <path d="M37.5910524,16.7941764 L37.5910524,15.3622515 C29.2914868,15.1674054 21.5379146,19.4994431 17.3310693,26.6818095 C13.124224,33.8641759 13.124224,42.7698478 17.3310693,49.9522142 C21.5379146,57.1345806 29.2914868,61.4666182 37.5910524,61.2717721 L37.5910524,59.8398473 C25.9480737,59.5575615 16.6560593,50.0046327 16.6560593,38.3170118 C16.6560593,26.6293909 25.9480737,17.0764622 37.5910524,16.7941764" id="Path" fill="#FFFFFF" fill-rule="nonzero"></path>
                <path d="M22.9343265,18.5903628 C22.3398406,18.5903628 21.8579145,18.10673 21.8579145,17.5101388 C21.8579145,16.9135475 22.3398406,16.4299148 22.9343265,16.4299148 C23.5288124,16.4299148 24.0107385,16.9135475 24.0107385,17.5101388 C24.0141295,17.7976617 23.9018113,18.0744026 23.6992052,18.2777263 C23.496599,18.4810499 23.2208348,18.5937658 22.9343265,18.5903628" id="Path" fill="#FFFFFF" fill-rule="nonzero"></path>
                <path d="M18.6537114,55.531512 C18.2596917,55.531512 17.9402756,55.2109647 17.9402756,54.8155495 C17.9402756,54.4201344 18.2596917,54.0995871 18.6537114,54.0995871 C19.0477311,54.0995871 19.3671473,54.4201344 19.3671473,54.8155495 C19.3671473,55.2109647 19.0477311,55.531512 18.6537114,55.531512" id="Path" fill="#FFFFFF" fill-rule="nonzero"></path>
                <path d="M54.3880859,58.7596233 C53.9515852,58.7595936 53.5583177,58.4950257 53.3924696,58.0898294 C53.2266216,57.6846332 53.3210322,57.2190408 53.6314845,56.9111118 C53.9419367,56.6031828 54.4069585,56.5138896 54.8087576,56.6850526 C55.2105566,56.8562156 55.4695734,57.2539431 55.4644979,57.69196 C55.4576417,58.2836402 54.9777179,58.7596633 54.3880859,58.7596233" id="Path" fill="#FFFFFF" fill-rule="nonzero"></path>
                <path d="M17.2143233,24.330623 C16.48928,24.3357113 15.8328049,23.9013254 15.5518225,23.2305554 C15.27084,22.5597854 15.4208669,21.7851625 15.9317604,21.2688491 C16.4426539,20.7525357 17.2134714,20.5965454 17.8838297,20.8738088 C18.5541879,21.1510723 18.991637,21.8068077 18.9916547,22.5344365 C18.9950168,23.0118411 18.8075239,23.4706712 18.4711308,23.8082557 C18.1347376,24.1458401 17.6775268,24.333997 17.2018069,24.330623" id="Path" fill="#FFFFFF" fill-rule="nonzero"></path>
                <path d="M22.9343265,60.9075105 C22.3467532,60.9075105 21.8704309,60.4295014 21.8704309,59.8398473 C21.8653714,59.4006928 22.1257579,59.0021792 22.5291041,58.8317682 C22.9324503,58.6613571 23.3984552,58.7529751 23.7079092,59.063525 C24.0173631,59.3740749 24.1086579,59.8417301 23.9388482,60.2465047 C23.7690385,60.6512793 23.3719312,60.912588 22.9343265,60.9075105" id="Path" fill="#FFFFFF" fill-rule="nonzero"></path>
                <path d="M57.9677815,56.611736 C57.2427382,56.6168243 56.5862631,56.1824384 56.3052807,55.5116684 C56.0242983,54.8408984 56.1743251,54.0662755 56.6852186,53.5499621 C57.1961122,53.0336487 57.9669297,52.8776584 58.6372879,53.1549218 C59.3076461,53.4321853 59.7451129,54.0879207 59.7451129,54.8155495 C59.7451129,55.8026713 58.9513957,56.604833 57.9677815,56.611736" id="Path" fill="#FFFFFF" fill-rule="nonzero"></path>
                <path d="M51.5343425,17.8744004 C51.0978713,17.8794939 50.7015474,17.6195599 50.5309884,17.2163379 C50.3604294,16.8131159 50.4494075,16.3464472 50.7562498,16.0348955 C51.0630922,15.7233438 51.5270416,15.6285988 51.9308079,15.7950342 C52.3345742,15.9614696 52.5982085,16.3561299 52.598238,16.7941764 C52.5982779,17.3858966 52.1239347,17.8675199 51.5343425,17.8744004" id="Path" fill="#FFFFFF" fill-rule="nonzero"></path>
                <path d="M57.9677815,24.330623 C57.5313104,24.3357165 57.1349864,24.0757824 56.9644274,23.6725605 C56.7938685,23.2693385 56.8828465,22.8026698 57.1896889,22.4911181 C57.4965312,22.1795664 57.9604806,22.0848214 58.3642469,22.2512568 C58.7680133,22.4176922 59.0316476,22.8123525 59.0316771,23.250399 C59.0350223,23.5357309 58.9244122,23.8105333 58.7245293,24.0134839 C58.5246465,24.2164345 58.2521262,24.3306427 57.9677815,24.330623" id="Path" fill="#FFFFFF" fill-rule="nonzero"></path>
                <path d="M55.8149576,20.7382501 C55.0910317,20.7382501 54.4383882,20.3006233 54.1613538,19.6294344 C53.8843194,18.9582456 54.0374511,18.1856738 54.549344,17.671968 C55.0612369,17.1582623 55.8310824,17.0045882 56.4999027,17.2826038 C57.168723,17.5606193 57.6048054,18.2155741 57.6048054,18.9420637 C57.6081675,19.4194683 57.4206746,19.8782983 57.0842815,20.2158828 C56.7478883,20.5534672 56.2906775,20.7416241 55.8149576,20.7382501" id="Path" fill="#FFFFFF" fill-rule="nonzero"></path>
                <polygon id="Path" fill="#FFFFFF" fill-rule="nonzero" points="39.0429569 57.5035488 38.5423002 57.001119 49.6443633 45.8471781 50.1575365 46.3621686"></polygon>
                <polygon id="Rectangle" fill="#FFFFFF" fill-rule="nonzero" transform="translate(31.300734, 43.960729) rotate(-45.000000) translate(-31.300734, -43.960729) " points="26.7185141 43.6114797 35.8842171 43.5952786 35.8829538 44.3099777 26.7172508 44.3261788"></polygon>
                <polygon id="Rectangle" fill="#FFFFFF" fill-rule="nonzero" transform="translate(37.888795, 37.350890) rotate(-45.000000) translate(-37.888795, -37.350890) " points="35.6199436 36.9975515 40.1589101 36.9895285 40.1576468 37.7042277 35.6186803 37.7122507"></polygon>
                <polygon id="Rectangle" fill="#FFFFFF" fill-rule="nonzero" transform="translate(49.770789, 25.425511) rotate(-45.070000) translate(-49.770789, -25.425511) " points="48.1915523 25.0709553 51.3512884 25.0653702 51.3500251 25.7800663 48.190289 25.7856513"></polygon>
                <polygon id="Rectangle" fill="#FFFFFF" fill-rule="nonzero" transform="translate(25.603460, 45.379970) rotate(-45.000000) translate(-25.603460, -45.379970) " points="20.3128099 45.031973 30.8953726 45.0132674 30.8941093 45.7279666 20.3115467 45.7466721"></polygon>
                <polygon id="Rectangle" fill="#FFFFFF" fill-rule="nonzero" transform="translate(44.779372, 26.142602) rotate(-45.070000) translate(-44.779372, -26.142602) " points="42.554396 25.7891882 47.0056116 25.7813203 47.0043483 26.4960164 42.5531327 26.5038842"></polygon>
                <polygon id="Path" fill="#FFFFFF" fill-rule="nonzero" points="39.881557 27.2572764 39.3683838 26.7422859 45.6140766 20.4870352 46.1147333 21.0020257"></polygon>
                <polygon id="Path" fill="#FFFFFF" fill-rule="nonzero" points="18.6161621 34.2410503 18.102989 33.7386205 21.8704309 29.9578364 22.3836041 30.472827"></polygon>
                <polygon id="Rectangle" fill="#FFFFFF" fill-rule="nonzero" transform="translate(30.856019, 21.460341) rotate(-45.000000) translate(-30.856019, -21.460341) " points="27.308232 21.1092639 34.405069 21.0967196 34.4038058 21.8114188 27.3069687 21.823963"></polygon>
                <polygon id="Rectangle" fill="#FFFFFF" fill-rule="nonzero" transform="translate(35.735301, 20.878797) rotate(-45.000000) translate(-35.735301, -20.878797) " points="33.0275988 20.5262346 38.444266 20.5166602 38.4430027 21.2313594 33.0263355 21.2409338"></polygon>
                <polygon id="Rectangle" fill="#FFFFFF" fill-rule="nonzero" transform="translate(40.381349, 21.228186) rotate(-45.000000) translate(-40.381349, -21.228186) " points="38.4823851 20.8741939 42.2815752 20.8674785 42.2803119 21.5821776 38.4811218 21.588893"></polygon>
                <polygon id="Rectangle" fill="#FFFFFF" fill-rule="nonzero" transform="translate(48.654829, 51.665570) rotate(-45.000000) translate(-48.654829, -51.665570) " points="43.8594531 51.3166982 53.4514678 51.2997435 53.4502045 52.0144426 43.8581898 52.0313973"></polygon>
            </g>
        </g>
    </g>
</svg>