<?xml version="1.0" encoding="UTF-8"?>
<svg width="133px" height="34px" viewBox="0 0 133 34" version="1.1" xmlns="http://www.w3.org/2000/svg" xmlns:xlink="http://www.w3.org/1999/xlink">
    <defs>
        <polygon id="path-1" points="0 0.0544 107.733979 0.0544 107.733979 33.966 0 33.966"></polygon>
    </defs>
    <g id="Wireframes-(v2)" stroke="none" stroke-width="1" fill="none" fill-rule="evenodd">
        <g id="Welcome" transform="translate(-20.000000, -19.000000)">
            <g id="COPERA_CMYK_hrz_c" transform="translate(20.000000, 19.000000)">
                <path d="M66.0542717,20.6869168 C65.1779223,21.6598743 64.1751975,21.6598743 63.0140896,21.6598743 L60.1968579,21.6598743 L60.1968579,15.7609979 L62.9837375,15.7609979 C63.8943021,15.7609979 64.9268272,15.7609979 65.7082572,16.3774519 C66.3572414,16.8962102 66.7440934,17.7680442 66.7440934,18.7107218 C66.7440934,19.4631499 66.4990687,20.1647305 66.0542717,20.6869168 Z M68.830666,13.2123405 C67.1215638,12 65.244697,12 63.2574587,12 L55.5,12 L55.5,33 L60.1968579,33 L60.1968579,25.4214435 L63.6674887,25.4214435 C65.6630049,25.4214435 67.5481496,25.4214435 69.2820853,23.9297277 C70.6920808,22.6996763 71.5,20.7286231 71.5,18.5221863 C71.5,16.3260331 70.5772945,14.4898115 68.830666,13.2123405 L68.830666,13.2123405 Z" id="Fill-1" fill="#1A1919"></path>
                <polyline id="Fill-2" fill="#1A1919" points="78.2845312 24.4456294 86.3314472 24.4456294 86.3314472 20.5583698 78.2845312 20.5583698 78.2845312 16.0140926 88.5 16.0140926 88.5 12 73.5 12 73.5 33 88.5 33 88.5 28.9881927 78.2845312 28.9881927 78.2845312 24.4456294"></polyline>
                <path d="M112.82016,24.3693681 L112.862543,24.2541096 L115.457617,17.132161 L118.095647,24.3693681 L112.82016,24.3693681 Z M118.229095,12 L112.920389,12 L106.5,28.7010267 L109.676403,33 L109.738832,33 L111.528637,27.844902 L119.328179,27.844902 L119.606529,28.6310688 L121.181558,32.9982797 L126.5,32.9982797 L118.229095,12 L118.229095,12 Z" id="Fill-3" fill="#1A1919"></path>
                <g id="Group-7" transform="translate(0.500000, 0.000000)">
                    <mask id="mask-2" fill="white">
                        <use xlink:href="#path-1"></use>
                    </mask>
                    <g id="Clip-5"></g>
                    <path d="M99.8016632,21.8863667 L95.0081684,21.8869333 L94.9229053,21.8869333 L94.9229053,16.0910667 L98.4681474,16.0910667 C99.4054737,16.0910667 100.468989,16.0910667 101.273874,16.7025 C101.942337,17.2170333 102.3408,18.0823333 102.3408,19.0167667 C102.3408,19.7630667 102.088989,20.4589333 101.629705,20.9768667 C101.135179,21.505 100.571305,21.7849333 99.8016632,21.8863667 Z M102.003158,25.5215333 L102.114568,25.4966 C103.225832,25.2937333 104.128484,24.8789333 104.955537,24.1932667 C106.407284,22.9726667 107.240589,21.0176667 107.240589,18.8297667 C107.240589,16.6515 106.290189,14.8302333 104.491137,13.5631667 C102.7296,12.3607 100.7964,12.3607 98.7483789,12.3607 L90.0856421,12.3607 L90.0856421,33.1896667 L94.9229053,33.1896667 L94.9229053,25.5855667 L96.8873684,25.5855667 L96.8902105,25.6224 L102.157768,33.1834333 L107.733979,33.1834333 L102.003158,25.5215333 L102.003158,25.5215333 Z" id="Fill-4" fill="#1A1919" mask="url(#mask-2)"></path>
                    <path d="M33.4277053,21.8308333 C34.6412842,20.7677667 37.2742105,18.7906667 36.8490316,16.0684 C36.1208842,11.4257 27.9810947,10.0447333 17.9586947,11.5498 C12.0425684,12.4400333 11.4519789,12.6576333 5.36646316,13.7195667 C7.57250526,12.2791 12.2261684,10.4924 20.3381053,9.2735 C30.3593684,7.76786667 39.0630316,10.3133333 39.7542316,14.9588667 C40.3476632,18.9476333 36.6955579,20.9961333 33.4277053,21.8308333 Z M30.2979789,17.2068333 L30.2979789,17.4471 C30.2979789,22.7057667 28.2823579,29.9585333 28.2641684,30.0350333 L28.2454105,30.0996333 L28.1806105,30.1007667 L28.0464632,30.1036 L27.9651789,30.1058667 L27.9572211,30.0271 C27.9458526,29.9483333 27.0170526,22.6661 27.0869684,17.4624 L27.0869684,17.4272667 C27.1153895,15.3600667 27.1546105,12.2349 28.7439158,12.2490667 C30.3053684,12.2598333 30.2996842,15.1169667 30.2979789,17.2068333 Z M25.0758947,17.3128 L25.0758947,17.5848 C25.0758947,23.4390333 22.8584842,32.1934667 22.8363158,32.2869667 L22.8226737,32.3498667 L22.7533263,32.3527 L22.6044,32.3544 L22.5248211,32.3578 L22.5162947,32.2790333 C22.5049263,32.1866667 21.4601684,23.3625333 21.5363368,17.6006667 L21.5363368,17.5751667 C21.5658947,15.2665667 21.6102316,12.1000333 23.3621053,12.1130667 C25.0838526,12.1255333 25.0781684,15.1249 25.0758947,17.3128 Z M17.5403368,4.37976667 C17.8609263,4.3826 18.1656,4.5169 18.4196842,4.77133333 C18.8255368,5.17366667 19.0597263,5.82646667 19.0500632,6.5195 C19.0335789,7.69476667 18.3338526,8.64223333 17.4840632,8.63656667 C17.1646105,8.6343 16.8610737,8.49716667 16.6058526,8.24273333 C16.2011368,7.84323333 15.9652421,7.1876 15.9771789,6.49513333 C15.9930947,5.32383333 16.6933895,4.37523333 17.5403368,4.37976667 Z M23.3314105,4.05393333 C23.6377895,4.0562 23.9293895,4.1871 24.1726737,4.42963333 C24.5603368,4.81156667 24.7837263,5.4349 24.7746316,6.09846667 C24.7592842,7.21706667 24.0896842,8.1226 23.2796842,8.11636667 C22.9744421,8.11523333 22.6822737,7.98376667 22.4372842,7.7418 C22.0530316,7.35873333 21.8290737,6.7354 21.8381684,6.0741 C21.8523789,4.9538 22.5225474,4.0477 23.3314105,4.05393333 Z M28.7166316,4.24716667 C28.9945895,4.24886667 29.2594737,4.36786667 29.4822947,4.58886667 C29.8296,4.9351 30.0342316,5.5012 30.0257053,6.10016667 C30.0132,7.1162 29.4044211,7.93786667 28.6671789,7.93333333 C28.3875158,7.92993333 28.1237684,7.81263333 27.9009474,7.59163333 C27.5530737,7.24256667 27.3490105,6.67873333 27.3575368,6.07863333 C27.3717474,5.06373333 27.9810947,4.24206667 28.7166316,4.24716667 Z M23.3700632,0.0544 C10.4629263,0.0544 0,7.6517 0,17.0266333 C0,24.6721 6.96088421,31.1360667 16.5291158,33.2605 C16.1664632,29.6491333 15.5076632,22.8667 15.5707579,18.2058667 L15.5707579,17.7060667 C15.6025895,15.2473 15.6480632,12.3578667 17.5733053,12.3726 C19.4638737,12.3862 19.4598947,15.4445 19.4553474,17.8998667 L19.4553474,18.1911333 C19.4553474,23.0548333 18.1684421,29.9466333 17.4931579,33.4582667 C19.3717895,33.8118667 21.3408,34 23.3700632,34 C36.2772,34 46.7389895,26.3993 46.7389895,17.0266333 C46.7389895,7.6517 36.2772,0.0544 23.3700632,0.0544 L23.3700632,0.0544 Z" id="Fill-6" fill="#006E39" mask="url(#mask-2)"></path>
                </g>
                <path d="M61.4906606,6.64922245 C60.8719818,7.23664638 60.3080486,7.60013523 59.4092635,7.60013523 C58.0555049,7.60013523 57.0344723,6.48262339 57.0344723,5 L57.0344723,4.97836376 C57.0344723,3.50223124 58.0555049,2.38904665 59.4092635,2.38904665 C60.1395596,2.38904665 60.7651481,2.6719405 61.438041,3.30804598 L61.4996963,3.36592292 L62.4452544,2.25706558 L62.3894457,2.20243408 C61.778208,1.60797836 60.9469248,1 59.4198937,1 C57.1854214,1 55.5,2.71954023 55.5,5 L55.5,5.02163624 C55.5,7.28965517 57.1625664,9 59.3667426,9 C60.9416097,9 61.8069096,8.30872211 62.4452544,7.63258959 L62.5,7.57417174 L61.5485953,6.59405003 L61.4906606,6.64922245" id="Fill-8" fill="#1A1919"></path>
                <path d="M65.0448829,4.97836376 C65.0448829,3.50223124 66.0958528,2.38904665 67.4887625,2.38904665 C68.8945151,2.38904665 69.9545819,3.51142664 69.9545819,5 L69.9545819,5.02163624 C69.9545819,6.4918188 68.9041472,7.60013523 67.5107023,7.60013523 C66.1049498,7.60013523 65.0448829,6.48262339 65.0448829,5 L65.0448829,4.97836376 Z M67.5107023,1 C65.2616054,1 63.5,2.75686275 63.5,5 L63.5,5.02163624 C63.5,7.28965517 65.2150502,9 67.4887625,9 C69.7378595,9 71.5,7.24313725 71.5,5 L71.5,4.97836376 C71.5,2.71034483 69.7849498,1 67.5107023,1 L67.5107023,1 Z" id="Fill-9" fill="#1A1919"></path>
                <polyline id="Fill-10" fill="#1A1919" points="75.1387874 1 73.5 1 73.5 9 79.5 9 79.5 7.57554158 75.1387874 7.57554158 75.1387874 1"></polyline>
                <path d="M81.0448829,4.97836376 C81.0448829,3.50223124 82.0953177,2.38904665 83.4887625,2.38904665 C84.8950502,2.38904665 85.9545819,3.51142664 85.9545819,5 L85.9545819,5.02163624 C85.9545819,6.4918188 84.903612,7.60013523 83.5107023,7.60013523 C82.1044147,7.60013523 81.0448829,6.48262339 81.0448829,5 L81.0448829,4.97836376 Z M83.5107023,1 C81.2616054,1 79.5,2.75686275 79.5,5 L79.5,5.02163624 C79.5,7.28965517 81.2155853,9 83.4887625,9 C85.7378595,9 87.5,7.24313725 87.5,5 L87.5,4.97836376 C87.5,2.71034483 85.7849498,1 83.5107023,1 L83.5107023,1 Z" id="Fill-11" fill="#1A1919"></path>
                <path d="M91.0676463,2.42389937 L93.010485,2.42389937 C94.0147761,2.42389937 94.567363,2.85436758 94.567363,3.63591894 L94.567363,3.65772187 C94.567363,4.40069881 93.9603676,4.88092243 93.0212533,4.88092243 L91.0676463,4.88092243 L91.0676463,2.42389937 Z M96.1588131,3.58001398 L96.1588131,3.55765199 C96.1588131,2.86610762 95.9230427,2.26177498 95.4747389,1.80782669 C94.9266861,1.27896576 94.1139584,1 93.1232694,1 L89.5,1 L89.5,9 L91.0676463,9 L91.0676463,6.27127883 L92.6817667,6.27127883 L94.6314064,9 L96.5,9 L94.3293256,5.99734451 C95.5098777,5.62054507 96.1588131,4.76631726 96.1588131,3.58001398 L96.1588131,3.58001398 Z" id="Fill-12" fill="#1A1919"></path>
                <path d="M102.281449,5.74226232 L99.6809315,5.74226232 L100.976712,2.93254684 L102.281449,5.74226232 Z M100.258957,1 L96.5,9 L98.205414,9 L99.0646895,7.12297016 L102.897691,7.12297016 L103.745621,9 L105.5,9 L101.740446,1 L100.258957,1 L100.258957,1 Z" id="Fill-13" fill="#1A1919"></path>
                <path d="M107.99252,2.42389937 L109.400293,2.42389937 C110.896592,2.42389937 111.941626,3.48329839 111.941626,5 L111.941626,5.02236198 C111.941626,6.54968553 110.920342,7.57554158 109.400293,7.57554158 L107.99252,7.57554158 L107.99252,2.42389937 Z M109.400293,1 L106.5,1 L106.5,9 L109.400293,9 C111.77537,9 113.5,7.31726066 113.5,5 L113.5,4.97763802 C113.5,2.6732355 111.77537,1 109.400293,1 L109.400293,1 Z" id="Fill-14" fill="#1A1919"></path>
                <path d="M116.044883,4.97836376 C116.044883,3.50223124 117.095853,2.38904665 118.488763,2.38904665 C119.894515,2.38904665 120.955117,3.51142664 120.955117,5 L120.955117,5.02163624 C120.955117,6.4918188 119.904682,7.60013523 118.510167,7.60013523 C117.104415,7.60013523 116.044883,6.48262339 116.044883,5 L116.044883,4.97836376 Z M118.510167,1 C116.261605,1 114.5,2.75686275 114.5,5 L114.5,5.02163624 C114.5,7.28965517 116.21505,9 118.488763,9 C120.738395,9 122.5,7.24313725 122.5,5 L122.5,4.97836376 C122.5,2.71034483 120.784415,1 118.510167,1 L118.510167,1 Z" id="Fill-15" fill="#1A1919"></path>
                <path d="M130.45986,30.4586319 C130.714161,30.4586319 130.854276,30.2925081 130.854276,30.0442997 C130.854276,29.7785016 130.700199,29.6299674 130.45986,29.6299674 L130.05647,29.6299674 L130.05647,30.4586319 L130.45986,30.4586319 Z M129.5,29 L130.498255,29 C131.03079,29 131.42371,29.3153094 131.42371,29.9941368 C131.42371,30.4749186 131.220269,30.7889251 130.917103,30.9218241 L131.5,32 L130.828846,32 L130.333707,31.0560261 L130.05647,31.0560261 L130.05647,32 L129.5,32 L129.5,29 L129.5,29 Z" id="Fill-16" fill="#1A1919"></path>
                <path d="M129.99913,32.6096183 C128.825252,32.6096183 127.905405,31.6887326 127.905405,30.5014416 C127.905405,29.3383693 128.844972,28.391535 129.99913,28.391535 C131.173008,28.391535 132.092275,29.3118441 132.092275,30.5014416 C132.092275,31.6639373 131.153288,32.6096183 129.99913,32.6096183 Z M129.99913,28 C128.62052,28 127.5,29.1221312 127.5,30.5141276 C127.5,31.885365 128.62052,33 129.99913,33 C131.37832,33 132.5,31.8795987 132.5,30.4864491 C132.5,29.1152116 131.37832,28 129.99913,28 L129.99913,28 Z" id="Fill-17" fill="#1A1919"></path>
            </g>
        </g>
    </g>
</svg>