<?xml version="1.0" encoding="utf-8"?>
<!-- Generator: Adobe Illustrator 25.0.1, SVG Export Plug-In . SVG Version: 6.00 Build 0)  -->
<svg version="1.1" id="Layer_1" xmlns="http://www.w3.org/2000/svg" xmlns:xlink="http://www.w3.org/1999/xlink" x="0px" y="0px"
	 viewBox="0 0 216 108" style="enable-background:new 0 0 216 108;" xml:space="preserve">
<style type="text/css">
	.st0{fill-rule:evenodd;clip-rule:evenodd;fill:#EEA747;}
	.st1{filter:url(#Adobe_OpacityMaskFilter);}
	.st2{fill-rule:evenodd;clip-rule:evenodd;fill:#FFFFFF;}
	.st3{mask:url(#mask-2_1_);fill-rule:evenodd;clip-rule:evenodd;fill:#5ACAA1;}
	.st4{filter:url(#Adobe_OpacityMaskFilter_1_);}
	.st5{mask:url(#mask-2_2_);fill-rule:evenodd;clip-rule:evenodd;fill:#1A8CB3;stroke:#FFFFFF;stroke-width:2;stroke-miterlimit:10;}
</style>
<desc>Created with Sketch.</desc>
<g id="Wireframes-_x28_v2_x29_">
	<g id="Funding" transform="translate(-329.000000, -2300.000000)">
		<g id="pie-copy" transform="translate(329.000000, 2300.000000)">
			<g id="pie">
				<path id="path-1_1_" class="st0" d="M216,108C216,48.4,167.6,0,108,0S0,48.4,0,108C72.1,108,144.5,108,216,108z"/>
			</g>
			<defs>
				<filter id="Adobe_OpacityMaskFilter" filterUnits="userSpaceOnUse" x="109" y="-22" width="176" height="137">
					<feColorMatrix  type="matrix" values="1 0 0 0 0  0 1 0 0 0  0 0 1 0 0  0 0 0 1 0"/>
				</filter>
			</defs>
			<mask maskUnits="userSpaceOnUse" x="109" y="-22" width="176" height="137" id="mask-2_1_">
				<g class="st1">
					<path id="path-1_2_" class="st2" d="M216,108C216,48.4,167.6,0,108,0S0,48.4,0,108C72.1,108,144.5,108,216,108z"/>
				</g>
			</mask>
			<polygon id="Path-3" class="st3" points="109,-22 109,115 285,115 216,-17 145.1,-22 			"/>
			<defs>
				<filter id="Adobe_OpacityMaskFilter_1_" filterUnits="userSpaceOnUse" x="20" y="-43" width="168.6" height="160.2">
					<feColorMatrix  type="matrix" values="1 0 0 0 0  0 1 0 0 0  0 0 1 0 0  0 0 0 1 0"/>
				</filter>
			</defs>
			<mask maskUnits="userSpaceOnUse" x="20" y="-43" width="168.6" height="160.2" id="mask-2_2_">
				<g class="st4">
					<path id="path-1_3_" class="st2" d="M216,108C216,48.4,167.6,0,108,0S0,48.4,0,108C72.1,108,144.5,108,216,108z"/>
				</g>
			</mask>
			<polygon id="Path-3_1_" class="st5" points="21.7,-42 109,115 187,-37.5 			"/>
		</g>
	</g>
</g>
</svg>
