<svg class="card-play" xmlns="http://www.w3.org/2000/svg" viewBox="-0.01 -9.495 132 132">
  <path fill="#FFF" d="M50.58 29.38c1.06 0 2-.75 2.22-1.8.68-3.12 1.48-6.05 2.38-8.7C58.2 9.9 62.26 4.54 65.98 4.54c3.74 0 7.8 5.36 10.82 14.34.66 1.95 1.27 4.05 1.82 6.27l-3.26-2c-.47-.3-1.04-.4-1.58-.27-.55.13-1 .46-1.3.94-.3.48-.4 1.04-.27 1.6.14.54.48 1 .95 1.3l7.7 4.75c.32.2.7.3 1.1.3.73 0 1.4-.36 1.78-1l4.5-7.27c.62-1 .3-2.3-.67-2.9-.48-.3-1.05-.38-1.6-.25-.54.13-1 .46-1.3.94L83 23.96c-.57-2.3-1.2-4.5-1.9-6.54-1.76-5.23-3.85-9.38-6.2-12.32C72.2 1.73 69.2 0 66 0s-6.2 1.72-8.92 5.12c-2.35 2.93-4.44 7.08-6.2 12.3-.95 2.8-1.8 5.9-2.52 9.2-.15.67.02 1.37.45 1.9.45.55 1.1.86 1.78.86M81.4 83.63c-1.06 0-2 .75-2.22 1.8-.68 3.12-1.48 6.05-2.38 8.7-3.03 8.98-7.08 14.34-10.8 14.34-3.75 0-7.8-5.36-10.82-14.34-.9-2.65-1.7-5.58-2.4-8.7-.2-1.05-1.14-1.8-2.2-1.8-.7 0-1.34.3-1.77.85-.42.54-.6 1.24-.44 1.9.72 3.3 1.57 6.4 2.5 9.2 1.78 5.23 3.87 9.38 6.22 12.3 2.7 3.4 5.7 5.13 8.9 5.13s6.2-1.7 8.92-5.1c2.35-2.95 4.43-7.1 6.2-12.32.95-2.8 1.8-5.9 2.52-9.2.14-.66-.02-1.36-.45-1.9-.44-.54-1.08-.85-1.77-.85M126 47.6c-2.13-1.47-4.83-2.83-8.03-4.08l3.33-1.4c.6-.25 1.03-.68 1.25-1.2.2-.54.16-1.1-.12-1.62-.6-1.04-2.08-1.47-3.3-.96l-7.34 3.1-.2-.06v.13l-1.44.62c-.6.25-1.03.68-1.24 1.2-.2.54-.17 1.1.12 1.6l4.66 8.13c.4.72 1.26 1.17 2.2 1.17.38 0 .74-.07 1.08-.22 1.22-.5 1.72-1.77 1.12-2.8l-1.95-3.4c6.74 2.68 10.53 5.77 10.53 8.7 0 3.74-6.27 7.78-16.75 10.82-11.7 3.38-27.3 5.25-43.94 5.25-16.65 0-32.25-1.87-43.95-5.25-10.5-3.04-16.75-7.08-16.75-10.8 0-2.9 3.65-5.93 10.16-8.57l-2.24 2.98c-.35.47-.47 1.04-.33 1.6.13.53.5 1 1.07 1.3.4.22.85.34 1.32.34.83 0 1.6-.36 2.06-.97l5.7-7.6c.35-.48.47-1.04.33-1.6-.15-.54-.53-1-1.1-1.3l-1.93-1.08v-.24l-.28.08-6.2-3.4c-1.15-.62-2.67-.34-3.4.64-.35.47-.47 1.03-.33 1.58.14.55.52 1.02 1.07 1.32l3.2 1.75c-3.4 1.3-6.23 2.72-8.47 4.24C2 50.3 0 53.3 0 56.5s2 6.2 5.97 8.9c3.44 2.36 8.27 4.45 14.38 6.22 12.23 3.54 28.44 5.5 45.64 5.5s33.4-1.96 45.63-5.5c6.1-1.77 10.95-3.86 14.38-6.2 3.97-2.72 5.98-5.72 5.98-8.92s-2-6.2-5.97-8.9"/>
  <path fill="#FFF" d="M42.4 48.58c.62 2.03 1.1 3.96 1.4 5.55h.02c.33-1.48.83-3.5 1.5-5.7l.94-3.13c.06-.18.1-.22.3-.22h3L45.9 57.35h-3.63c-.32 0-.4-.04-.47-.3l-.4-1.57c-.52-1.98-1.15-4.46-1.45-6-.27 1.4-.87 3.98-1.38 5.8L38 57.36h-3.65c-.3 0-.4-.04-.48-.3l-3.53-11.97h3.18c.2 0 .24.02.3.24l.92 3.1c.53 1.84 1.16 4.36 1.42 5.7h.02c.3-1.36.68-3.2 1.4-5.54l1.02-3.5h2.52c.22 0 .28.06.33.26l.96 3.24zM55.62 48.2c-.13.68-.5 1.8-1.1 3.5l-.32 1.04h3l-.38-1.03c-.68-1.8-1.03-2.8-1.18-3.5h-.02zm-1.76-3.12h3.28c.22 0 .3.02.4.28l4.87 12h-3.13c-.23 0-.32-.05-.4-.3l-.68-1.75h-4.9l-.6 1.77c-.08.24-.17.28-.4.28H49.3l4.58-12.27zM66.03 47.8h-4.1v-2.72h11.5v2.72h-4.1v9.55h-3.3M86.53 54.63c-1.2 1.62-3.6 2.9-5.92 2.9-3.74 0-6.04-2.77-6.04-6.3 0-3.93 2.72-6.33 6.2-6.33 2.57 0 4.57 1.42 5.5 3.77l-2.04 1.3-1.76-1.28c-.76-.57-1.22-.77-1.9-.77-1.52 0-2.56 1.33-2.56 3.22 0 2.03 1.2 3.2 2.96 3.2.78 0 1.48-.2 2.37-.6l2-.9 1.2 1.78zM97.04 52.48h-4.9v4.87h-3.3V45.08h3.3v4.57h4.9v-4.57h3.3v12.27h-3.3"/>
</svg>
