<svg class="card-target" xmlns="http://www.w3.org/2000/svg" viewBox="0.215 -0.017 86.059 86.059">
  <path fill="#FFF" d="M43.24 75.27C25.46 75.27 11 60.8 11 43c0-17.78 14.46-32.25 32.24-32.25 17.8 0 32.26 14.47 32.26 32.26 0 17.8-14.47 32.27-32.26 32.27m42.3 6.55l-14.3-14.3c5.95-6.78 9.2-15.45 9.2-24.5 0-9.06-3.25-17.74-9.2-24.5l14.3-14.3c.98-.98.98-2.55 0-3.5-.96-.98-2.52-.98-3.5 0L67.75 15C60.98 9.06 52.3 5.8 43.25 5.8c-9.05 0-17.72 3.27-24.5 9.2L4.44.7C3.47-.25 1.9-.25.94.7c-.97.97-.97 2.54 0 3.5l14.3 14.3C9.3 25.3 6.04 33.97 6.04 43c0 9.07 3.26 17.74 9.2 24.52L.94 81.81c-.97.96-.97 2.53 0 3.5.97.96 2.53.96 3.5 0l14.3-14.3c6.77 5.94 15.45 9.2 24.5 9.2 9.06 0 17.73-3.26 24.5-9.2l14.3 14.3c.98.96 2.54.96 3.5 0 .97-.97.97-2.54 0-3.5"/>
  <path fill="#FFF" d="M55.1 51.36L46.73 43l8.35-8.33c.96-.97.96-2.54 0-3.5-.98-.97-2.55-.97-3.5 0l-8.36 8.34-8.34-8.33c-.97-.97-2.53-.97-3.5 0-.97.96-.97 2.53 0 3.5L39.74 43l-8.34 8.36c-.97.96-.97 2.53 0 3.5.97.96 2.53.96 3.5 0l8.34-8.35 8.35 8.36c.95.96 2.52.96 3.5 0 .95-.97.95-2.54 0-3.5"/>
</svg>
