<svg xmlns="http://www.w3.org/2000/svg" viewBox="0 0 290.858 254.668">
  <path fill="#FFF" d="M220.93 127.33c0-20.77-8.4-39.55-22.03-53.17-13.6-13.62-32.4-22.03-53.18-22.03-20.77 0-39.55 8.4-53.17 22.03-13.6 13.62-22.03 32.4-22.03 53.17 0 7.22 1.04 14.2 2.94 20.8H20.1c-.2-1.13-.36-2.26-.52-3.4-.88.4-1.78.8-2.67 1.26-1.16.6-2.1 1.23-2.74 1.9-2.28 2.26-1.13 4.54 4.97 4.9l.68.03h7.84l47.35.05h5.26l130.96.12h5.23l47.66.05h6.86c.33 0 .63-.02.92-.04 5.78-.36 7.77-2.43 6.66-4.6-.38-.73-1.14-1.5-2.25-2.2-1.24-.77-2.75-1.46-4.34-2.06-.18 1.32-.38 2.65-.6 3.96H218c1.9-6.6 2.93-13.57 2.93-20.8z"/>
  <path fill="#6AB345" d="M145.88 248.3c23.52 0 45.47-6.72 64.05-18.34l-128.28-.12c18.6 11.7 40.63 18.46 64.23 18.46zM73.45 148.12c-1.9-6.6-2.93-13.57-2.93-20.78 0-20.78 8.4-39.56 22.03-53.18 13.62-13.62 32.4-22.03 53.17-22.03 20.78 0 39.56 8.42 53.18 22.03 13.62 13.62 22.03 32.4 22.03 53.18 0 7.2-1.04 14.18-2.93 20.78h47.06c.25-1.45.47-2.9.67-4.37l.1-.63c.66-5.17 1-10.43 1-15.78 0-66.8-54.14-120.97-120.95-120.97-66.8 0-120.96 54.16-120.96 120.96 0 7.1.6 14.04 1.78 20.8h46.75z"/>
  <path fill="#035130" d="M151.23 57.25l-.02-.06c-1.73-.15-3.5-.2-5.3-.2h-.4c-38.65.22-70.02 31.6-70.02 70.32 0 7.2 1.1 14.13 3.1 20.67l-.1.1H212.8c2.04-6.56 3.13-13.53 3.13-20.8 0-36.9-28.53-67.14-64.7-70.06z"/>
  <path fill="#035130" d="M277.95 141.16c-.6-.06-1.2-.1-1.83-.14-1.32-.07-2.58-.12-3.78-.16.47-4.44.72-8.96.72-13.53 0-70.3-57-127.33-127.34-127.33C75.4 0 18.4 57 18.4 127.33c0 4.55.24 9.03.7 13.45h-.2c-1.86.1-3.68.3-5.4.58-7 1.14-13.4 3.8-13.4 9.3 0 6.92-.1 35.62-.1 68.9 0 3.84-.46 10.17 17.25 10.18v.05l52.93.02c21.13 15.6 47.26 24.84 75.54 24.84 28.2 0 54.27-9.18 75.37-24.7l48.5.04v-.03c17.18.02 20.86-6.06 20.86-10.15 0-39 .4-60.8.4-68.88 0-6.4-4.56-9.02-12.92-9.78zM145.88 6.36c66.8 0 120.96 54.17 120.96 120.97 0 5.35-.35 10.62-1.02 15.8l-.1.62c-.2 1.46-.4 2.92-.66 4.37h6.3c.22-1.32.4-2.64.6-3.97 1.58.6 3.1 1.3 4.32 2.08 1.1.7 1.87 1.46 2.25 2.2 1.1 2.16-.87 4.23-6.65 4.6l-.92.05h-6.87l-47.68-.06h-5.22l-130.95-.12h-5.27l-47.36-.05H19.8l-.68-.05c-6.1-.35-7.24-2.63-4.96-4.9.65-.66 1.57-1.3 2.75-1.9.9-.47 1.8-.88 2.7-1.27.15 1.14.3 2.27.5 3.4h6.6c-1.16-6.76-1.77-13.7-1.77-20.8 0-66.8 54.15-120.96 120.96-120.96zm0 241.94c-23.6 0-45.6-6.77-64.23-18.46l128.28.12c-18.58 11.62-40.53 18.34-64.05 18.34z"/>
  <path fill="#FFF" d="M212.8 43.14c-1.97-1.73-4.02-3.43-6.12-5.04l-.88-.67-.67.87-10.77 13.98-.63.8.76.7c1.63 1.5 3.4 3 5.27 4.36 2.4 1.73 5 2.98 7.7 2.98h.05c2.37 0 4.73-1.08 6.67-3.42 1.87-2.25 2.84-4.56 2.83-6.83 0-2.94-1.6-5.58-4.24-7.73zm-3.23 10.4c-1.1 1.3-2.3 2.08-3.52 2.07-.88 0-1.92-.34-3.2-1.47l-1.25-1.08c2.02-2.62 3.97-5.1 6.03-7.6.58.46 1.2.93 1.65 1.33 1.47 1.3 1.9 2.33 1.9 3.3.02 1-.53 2.18-1.6 3.48zm-92.07-14.1l-.48-1-1 .45-7.2 3.2-5.7-12.5-.46-1-1 .47c-1.38.63-2.74 1.28-4.1 1.96l-1 .5.5 1L105 48.26l.5 1 .98-.5c3.73-1.88 7.72-3.62 11.58-5.28l1-.44-.4-1c-.37-.9-.74-1.7-1.17-2.64zM74.9 63.26l-.87.97c-1.24 1.43-2.25 2.54-2.86 3.15l-.66.65.58.77c.3.44.44.9.45 1.43 0 .73-.32 1.6-.88 2.3-.92 1.15-1.75 1.56-2.75 1.58-.9 0-2-.36-3.38-1.26-2.1-1.4-2.9-2.77-2.9-3.95 0-.64.22-1.3.74-2.06.92-1.3 1.85-1.7 2.78-1.7.2 0 .44.02.68.08l.85.2.4-.78c.6-1.23 1.25-2.45 1.93-3.66l.63-1.14-1.23-.44c-.85-.3-1.72-.47-2.6-.47-2.8 0-5.4 1.7-7.52 4.93-1.4 2.1-2.13 4.35-2.13 6.52-.02 3.25 1.7 6.17 4.85 8.07 1.93 1.2 3.88 1.67 5.75 1.67 3.28 0 6.15-1.73 8.22-4.74 1.4-2.02 2.4-4.27 2.4-6.6 0-1.6-.5-3.2-1.65-4.56l-.83-.96zm158.25-.1c-2.34-2.85-5.2-4.12-7.95-4.1-2.6 0-5.03 1.08-6.92 2.76-2.4 2.1-3.48 4.74-3.47 7.3 0 2.55 1.04 5 2.68 6.98l.86-.7-.84.73c2.06 2.35 4.93 4 8.1 4h.02c2 0 4.07-.68 6-2.17 2.75-2.15 4.26-4.98 4.24-7.95 0-2.35-.92-4.72-2.7-6.84zm-5.15 9.7c-1.3 1.1-2.57 1.57-3.65 1.57-1.1 0-2.1-.45-2.96-1.38-.64-.67-.95-1.46-.95-2.35 0-1.2.6-2.66 2.24-4.1 1.26-1.1 2.56-1.6 3.7-1.6 1.1.03 2.04.46 2.86 1.38.63.76.92 1.58.92 2.44 0 1.26-.66 2.7-2.2 4.05zM85.84 39.8c-2.32 0-4.7.85-6.8 2.53-2.96 2.33-4.3 5.26-4.28 8.07 0 2.52 1.02 4.9 2.6 6.77 2.12 2.5 4.8 3.63 7.42 3.64h.04c2.46 0 4.85-.94 6.82-2.47l-.7-.87.73.84c2.64-2.24 4.24-4.95 4.24-7.97 0-2-.67-4.04-2.04-6.07-1.93-2.9-4.9-4.47-8-4.46zm2.88 14.5c-.72.55-1.53.84-2.4.84-1.23 0-2.65-.6-4.06-2.28-1.1-1.32-1.6-2.57-1.6-3.63.03-1.06.45-2.02 1.54-2.96.77-.64 1.5-.9 2.25-.9 1.24 0 2.72.8 4.07 2.57 1.1 1.44 1.6 2.75 1.6 3.75-.02.96-.4 1.76-1.4 2.6zm96.16-28.22l-.76-.3-.5.64c-3.95 4.9-8.04 9.53-11.93 14.47l-1 1.22 1.5.5c1.2.4 2.36.8 3.54 1.24l.76.28.5-.64 1.97-2.48c1.5.6 3 1.23 4.48 1.9-.14 1.03-.3 2.06-.46 3.08l-.15.82.75.36c1.14.54 2.27 1.1 3.4 1.68l1.4.73.2-1.6c.72-6.03 1.54-12.4 2.13-18.63l.07-.8-.72-.3c-1.72-.8-3.45-1.5-5.2-2.2zm-.56 13.2l-3.28-1.3 4.52-5.92-1.24 7.22zM159.4 20.5c-3.12-.34-6.1-.5-9.22-.6l-1.1-.05-.04 1.1c-.3 5.86-.65 11.67-1 17.55l-.06 1.13 1.14.04c1.25.04 2.8.12 4.03.2l1.1.08.08-1.1.43-6.06 1.7.13c.98 2.3 1.87 4.6 2.7 6.92l.23.64.65.1c1.37.17 2.74.4 4.1.63l1.86.34-.6-1.8c-.83-2.42-1.74-4.85-2.74-7.26 2.26-.64 3.85-2.33 4.18-4.54.06-.36.1-.73.1-1.1.05-3.14-2.57-5.88-7.55-6.36zm-2.02 8.18c-.8-.07-1.66-.16-2.46-.22.1-1.28.15-2.74.23-4.02 1.02.07 2.18.18 3.2.3 1.84.18 2.75 1 2.57 2.3-.18 1.27-1.04 1.9-3.54 1.64zm-25.57-8.43c-.62 0-1.3.05-1.97.14-5.68.64-9.1 4.2-9.03 9 0 .9.1 1.85.33 2.84 1.1 5.27 4.58 8.43 9.35 8.43h.3c.58 0 .95-.05 1.95-.13 6-.6 8.8-4.47 8.68-10.23 0-.22-.06-.46-.06-.7-.1-5.56-3.8-9.46-9.52-9.36zm.03 15.3c-.27.03-.52.04-.74.04-2-.08-3.05-1.07-3.74-4.58-.13-.7-.18-1.32-.18-1.87.12-2.44.8-3.32 3.3-3.77l-.14-1.1.16 1.1c.26-.05.52-.07.78-.07 2.3.1 3.24 1.18 3.66 4.7.03.4.04.8.04 1.14-.13 3.08-.86 3.98-3.16 4.38z"/>
  <path fill="#D7DF29" d="M55.88 116.46l7.38-7.2-10.2-1.47-4.54-9.25-4.56 9.23-10.18 1.47 7.37 7.2-1.74 10.13 9.13-4.8 9.1 4.8m192.07-10.12l7.37-7.2-10.2-1.47-4.54-9.25-4.56 9.23-10.18 1.47 7.35 7.2-1.74 10.13 9.1-4.8 9.13 4.8"/>
  <path fill="#FFF" d="M98.96 122.2l-8.38.18 8.9-8.73 3.63-2.4-3.52-2.8-19.84 19.25 13.16-.7 6.06-4.8zm32.53-1.63l-2.3-7.37-8.83 3.83-5.16-2.22 4.44-2.65 2 .64-2.75-3.4-6.84 2.93-2.37-1.56-6.9 6.6 6.86-4.16.37 1.85-5.7 6.94 11.83-3.8 1.98.64-16.9 10.43-5.4-.4-3.42 3.32-2.8-.97-6.84 4.47-.7 5.8 46.08-26.18 3.3 5.25zm35.76-18.7l-8.87 6.28-10.65 17.25-7.06-7.13 18.7-23.23-8.66 5.36-7.66-7.46-1.58 10.98-3.6.86-1.28 5.18 4.18.67-2.3 5.77-3.34-2.5-1.98 11.9-7.24 14.2 21.82-2.98 5.74-10-3.2.56 16.95-25.7zm40.78 19.28L171.1 86.97l1.65 9.2 1.6.02-1.05 3 4.82-2.35-6.12 8.76 6.8-2.02-19.16 27.5 21.3-23.2-.43-10.7 7.85 9.3 5.74 2.83 1.9 5.23 3.35 2.5 3.76 1.9-.63 2.73 5.6-.53z"/>
  <path fill="#00BCE4" d="M99.62 105.4l6.55 5.62 2.92-3.48 2.4 2.3s8.9-9 13.56-12.28c4.63-3.3 15.9-10.45 15.9-10.45l11.2 10.58s5.04-2.67 8.47-5.06c3.42-2.38 10.5-9.3 10.5-9.3s1.57 2.17 7.28 7.14c5 4.38 26.43 24.1 31.54 28.82-1.8-14.78-8.54-28-18.54-38.03-11.77-11.76-28-19.04-45.97-19.04s-34.2 7.28-45.98 19.04c-10.93 10.94-17.97 25.72-18.93 42.16 9.78-10.62 19.1-18 19.1-18z"/>
  <path fill="#FFF" d="M274.73 213.12v1h-2v5h-2v-5h-2v-1h6zm2.66 0l1.67 4.3 1.6-4.3h2.05v6h-1v-5.1l-2.3 5.1h-.7l-2-5.1v5.1h-1v-6h1.66zM266.54 163.06l-.3.7-8.27 19.4-8.85-20.1-14.16-.02 16.3 33.55.14 22.7h13.33v-22.7l16.13-33.5m-237.9 55.95l-.05-11.35H26.7l.1-44.9H13.73V219m214.97-24.32c5.77-2.5 8.32-7.8 8.26-14.38 0-5.3-1.67-9.73-5.16-12.74-3.5-3-8.5-4.54-15.24-4.54l-16.83-.03v56.22l13 .02V197.1H216l9.5 22.1 14.2.04-11-24.57zm-4.9-14.53c0 2.42-.66 3.72-1.7 4.67-1.06.98-2.7 1.3-4.94 1.3h-.1l-4.33.4v-12.77h4.46c2.24.02 3.85.54 4.9 1.5 1.05.97 1.7 2.47 1.7 4.9zM65.2 219.83c5.44 0 10.43-1.24 13.9-4.34 3.48-3.14 5.63-8.04 5.63-14.9v-19.3c0-6.83-2.15-11.74-5.63-14.87-3.47-3.1-8.38-4.34-13.82-4.35h-.14c-5.47 0-10.4 1.22-13.87 4.33-3.48 3.1-5.54 8-5.54 14.86v19.3c0 6.85 2.04 11.77 5.52 14.9 3.48 3.1 8.35 4.34 13.82 4.35h.14zm-5.47-17.88v-22.18c0-2.72.35-4.22 1.26-5.06.9-.83 2.14-1.4 4.14-1.4l-.15-.17h.1c2.06 0 3.82.57 4.74 1.44.93.86 1.88 2.57 1.88 5.4v22c0 2.84-.95 4.2-1.87 5.07-.92.87-2.66 1.1-4.7 1.1h-.02s-.04.17-.08.17c-2.03 0-3.16-.3-4.07-1.2-.93-.84-1.27-2.3-1.27-5.13zm130-6.07v-11.35h-14v-10.2h19V163l-32-.05v56.24l32 .02v-11.35l-19-.02v-12m-88.1-21.5l10.1-.13v44.9h12.92l.08-44.88 10 .02v-11.14H87.38l.24 11.22zm37.17 0l9.93-.13v44.9h13v-44.88l10 .02v-11.14h-33l.06 11.22z"/>
  <path fill="none" d="M209.38 121.7l-37.1-34.33 1.65 9.24 1.6.04-1.05 3.05 4.84-2.4-6.14 8.8 6.84-2.02-19.26 27.6 21.4-23.28-.44-10.75 7.87 9.33 5.74 2.85 1.92 5.25 3.36 2.5 3.78 1.9-.64 2.75"/>
</svg>
