<?xml version="1.0" encoding="UTF-8"?><svg id="Layer_2" xmlns="http://www.w3.org/2000/svg" viewBox="0 0 64.52 64.52"><defs><style>.cls-1{fill:#fff;}.cls-2{fill:#f2a11f;}.cls-3{fill:#db7627;}</style></defs><g id="Content"><g><circle class="cls-2" cx="32.26" cy="32.26" r="29.03"/><path class="cls-3" d="M32.26,0C14.44,0,0,14.44,0,32.26s14.44,32.26,32.26,32.26,32.26-14.44,32.26-32.26S50.07,0,32.26,0Zm0,58.07c-14.23,0-25.81-11.57-25.81-25.81S18.03,6.45,32.26,6.45s25.81,11.58,25.81,25.81-11.58,25.81-25.81,25.81Z"/><path class="cls-1" d="M32.29,49.86c-4.47,0-8.41-2.5-10.03-6.36-.52-1.23,.06-2.65,1.29-3.17,1.23-.52,2.65,.06,3.17,1.29,.85,2.04,3.09,3.4,5.57,3.4,3.27,0,5.94-2.32,5.94-5.17,0-3.43-2.01-5.17-5.96-5.17-7.95,0-10.77-5.17-10.77-10.01,0-5.52,4.83-10.01,10.77-10.01,4.47,0,8.41,2.5,10.04,6.36,.52,1.23-.06,2.65-1.29,3.17-1.23,.52-2.65-.06-3.17-1.29-.85-2.03-3.1-3.4-5.58-3.4-3.27,0-5.94,2.32-5.94,5.17,0,3.43,2,5.17,5.94,5.17,7.96,0,10.8,5.17,10.8,10.01,0,5.52-4.83,10.01-10.77,10.01Z"/><path class="cls-1" d="M32.26,19.5c-1.34,0-2.42-1.08-2.42-2.42v-4.18c0-1.34,1.08-2.42,2.42-2.42s2.42,1.08,2.42,2.42v4.18c0,1.34-1.08,2.42-2.42,2.42Z"/><path class="cls-1" d="M32.26,54.03c-1.34,0-2.42-1.08-2.42-2.42v-4.17c0-1.34,1.08-2.42,2.42-2.42s2.42,1.08,2.42,2.42v4.17c0,1.34-1.08,2.42-2.42,2.42Z"/><circle class="cls-1" cx="50.02" cy="32.26" r="2.42"/><circle class="cls-1" cx="16.15" cy="32.26" r="2.42"/></g></g></svg>