<?xml version="1.0" encoding="UTF-8"?><svg id="Layer_2" xmlns="http://www.w3.org/2000/svg" viewBox="0 0 195.91 163.24"><defs><style>.cls-1{fill:#7ec354;}</style></defs><g id="Layer_1-2"><g><polygon class="cls-1" points="12.18 70.84 0 58.66 2.41 56.25 12.18 66.03 66.03 12.18 56.26 2.41 58.66 0 70.84 12.18 12.18 70.84"/><path class="cls-1" d="M143.32,144.15c-3,0-6.03-1.16-8.34-3.48l-27.65-27.65,2.41-2.41,27.65,27.65c3.23,3.22,8.38,3.32,11.49,.21,3.11-3.11,3.01-8.26-.21-11.49l-27.28-27.28,2.41-2.41,27.28,27.28c4.55,4.55,4.65,11.86,.21,16.3-2.18,2.18-5.06,3.27-7.96,3.27Z"/><path class="cls-1" d="M125.62,153.9s-.05,0-.08,0c-3.05-.02-5.93-1.23-8.1-3.4l-23.79-23.79,2.41-2.41,23.79,23.79c1.53,1.53,3.56,2.39,5.72,2.4,.02,0,.04,0,.06,0,2.12,0,4.11-.82,5.6-2.31,1.5-1.5,2.32-3.51,2.31-5.65-.01-2.15-.87-4.18-2.4-5.72l-23.79-23.8,2.41-2.41,23.79,23.8c2.17,2.17,3.38,5.05,3.4,8.1,.02,3.06-1.15,5.93-3.3,8.08-2.13,2.13-4.97,3.3-8,3.31Z"/><path class="cls-1" d="M97.82,36.02c-5.85-5.85-13.17-6.35-18.29-5.74-5.4,.64-11.09-1.42-15.2-5.54l-4.23-4.23,2.41-2.41,4.23,4.23c3.38,3.38,8.02,5.09,12.39,4.56,5.86-.69,14.28-.11,21.1,6.71l-2.41,2.41Z"/><path class="cls-1" d="M44.65,106.37c-6.41-7.51-14.49-18.62-16.57-28.96-.43-2.12-1.38-3.97-2.75-5.34l-8.39-8.39,2.41-2.41,8.39,8.39c1.85,1.85,3.12,4.29,3.68,7.08,2.04,10.13,10.79,21.53,15.82,27.42l-2.59,2.21Z"/><path class="cls-1" d="M106.97,163.07c-2.68,0-5.31-.98-7.28-2.95l-4.56-4.56,2.41-2.41,4.56,4.56c2.81,2.81,7.63,2.57,10.74-.54,3.11-3.11,3.35-7.93,.54-10.74l2.41-2.41c4.14,4.14,3.9,11.12-.54,15.55-2.32,2.32-5.33,3.49-8.27,3.49Z"/><polygon class="cls-1" points="183.73 70.85 125.07 12.18 137.25 0 139.65 2.41 129.88 12.18 183.73 66.03 193.5 56.26 195.91 58.66 183.73 70.85"/><path class="cls-1" d="M153.63,126.53c-.29,0-.58,0-.87-.03-3.19-.22-6.26-1.67-8.66-4.06l-22.68-22.68,2.41-2.41,22.68,22.68c1.81,1.81,4.12,2.91,6.49,3.07,2.28,.17,4.35-.56,5.82-2.04,1.47-1.47,2.2-3.54,2.04-5.82-.17-2.37-1.26-4.68-3.07-6.49l-48.68-48.2c-1.17-1.16-3.07-1.23-4.31-.14l-1.43,1.24c-3.34,2.91-6.37,6.75-9.51,12.09-5.77,9.78-15.7,14.91-23.09,11.95-2.25-.9-3.77-2.59-4.4-4.88-2.75-10.04,12.4-30.17,14.13-32.43,3.69-4.35,9.7-10.42,17.67-15.03l.21-.1c.38-.16,9.39-3.83,19.06-5.69,2.47-.48,4.62-1.57,6.21-3.15l8.02-8.02,2.41,2.41-8.02,8.02c-2.07,2.07-4.82,3.48-7.97,4.09-8.79,1.7-17.28,5.05-18.31,5.46-7.5,4.36-13.18,10.1-16.63,14.16-4.38,5.71-15.45,22.27-13.5,29.4,.35,1.28,1.11,2.11,2.39,2.62,4.97,1.99,13.28-1.01,18.89-10.52,3.34-5.66,6.58-9.77,10.21-12.93l1.42-1.24c2.58-2.25,6.51-2.13,8.94,.29l48.69,48.21c2.4,2.4,3.84,5.48,4.07,8.66,.23,3.28-.84,6.28-3.03,8.47-1.99,1.99-4.66,3.06-7.6,3.06Z"/><path class="cls-1" d="M153.84,104.3l-2.47-2.35c9.38-9.86,11.42-14.66,13.16-25.03,.48-2.84,1.77-5.38,3.74-7.35l8.3-8.3,2.41,2.41-8.3,8.3c-1.47,1.47-2.43,3.37-2.79,5.51-1.84,10.97-4.13,16.38-14.05,26.81Z"/><path class="cls-1" d="M87.21,163.24c-2.55,0-5.09-.97-7.03-2.91-1.88-1.88-2.91-4.38-2.91-7.04s1.03-5.15,2.91-7.03l4.15-4.15c1.88-1.88,4.38-2.91,7.03-2.91s5.16,1.03,7.03,2.91c3.88,3.88,3.88,10.19,0,14.07l-4.15,4.15c-1.94,1.94-4.49,2.91-7.04,2.91Zm4.15-20.64c-1.75,0-3.39,.68-4.63,1.92l-4.15,4.15c-1.24,1.24-1.92,2.88-1.92,4.63s.68,3.39,1.92,4.63c2.55,2.55,6.71,2.55,9.26,0l4.15-4.15c2.55-2.55,2.55-6.71,0-9.26-1.24-1.24-2.88-1.92-4.63-1.92Z"/><path class="cls-1" d="M60.22,140.87c-2.89,0-5.79-1.1-7.99-3.3-4.41-4.41-4.41-11.58,0-15.98l2.41,2.41c-3.08,3.08-3.08,8.09,0,11.17,3.08,3.08,8.09,3.08,11.17,0l4.83-4.83c1.49-1.49,2.31-3.48,2.31-5.58s-.82-4.09-2.31-5.58-3.48-2.31-5.58-2.31-4.09,.82-5.58,2.31l-2.41-2.41c2.13-2.13,4.97-3.31,7.99-3.31s5.86,1.18,7.99,3.31c2.13,2.13,3.31,4.97,3.31,7.99s-1.18,5.86-3.31,7.99l-4.83,4.83c-2.2,2.2-5.1,3.3-7.99,3.3Z"/><path class="cls-1" d="M73.63,153.18c-2.86,0-5.55-1.11-7.57-3.14-2.02-2.02-3.14-4.71-3.14-7.57s1.11-5.55,3.14-7.57l4.53-4.53c4.17-4.17,10.97-4.17,15.14,0,4.17,4.18,4.17,10.97,0,15.14l-4.53,4.53c-2.02,2.02-4.71,3.14-7.57,3.14Zm4.53-22.54c-1.87,0-3.74,.71-5.17,2.14l-4.53,4.53c-1.38,1.38-2.14,3.21-2.14,5.16s.76,3.78,2.14,5.16,3.21,2.14,5.16,2.14,3.79-.76,5.17-2.14l4.53-4.53c2.85-2.85,2.85-7.48,0-10.33-1.42-1.42-3.29-2.14-5.17-2.14Z"/><path class="cls-1" d="M47.75,126.51c-2.82,0-5.46-1.1-7.45-3.09-1.99-1.99-3.09-4.64-3.09-7.45s1.1-5.46,3.09-7.46l4.45-4.45c4.11-4.11,10.8-4.11,14.91,0,4.11,4.11,4.11,10.8,0,14.91l-4.45,4.45c-1.99,1.99-4.64,3.09-7.45,3.09Zm4.45-22.13c-1.83,0-3.66,.7-5.05,2.09l-4.45,4.45c-1.35,1.35-2.09,3.14-2.09,5.05s.74,3.7,2.09,5.05,3.14,2.09,5.05,2.09,3.7-.74,5.05-2.09l4.45-4.45c2.78-2.78,2.78-7.31,0-10.1-1.39-1.39-3.22-2.09-5.05-2.09Z"/><path class="cls-1" d="M124.21,68.96c-2.69,0-5.72-.59-9.03-2.17l1.46-3.07c11.17,5.31,18.25-2.58,18.32-2.66l2.56,2.24c-.07,.07-5.07,5.66-13.31,5.66Z"/></g></g></svg>