<svg xmlns="http://www.w3.org/2000/svg" viewBox="0 0 30 30"><defs><style>.cls-1{fill:#053f55;}</style></defs><title>CL-Funding-Icon_1</title><g id="Layer_2" data-name="Layer 2"><g id="Layer_1-2" data-name="Layer 1"><path class="cls-1" d="M15,1.88A13.12,13.12,0,1,1,1.88,15,13.11,13.11,0,0,1,15,1.88M15,0A15,15,0,1,0,30,15,15,15,0,0,0,15,0Z"/><path class="cls-1" d="M9.94,19.84l1.47.33a22.47,22.47,0,0,0,3.05.51v-4.9l-.54-.16c-2.95-.94-4.57-2.09-4.57-4.36,0-2.48,2-4,5.11-4.12L14.7,4.4h1.21V7.16a14.88,14.88,0,0,1,4.15.92l-.42,1.85-1-.12c-1-.12-2-.21-2.7-.24v4a9.57,9.57,0,0,1,3.87,1.94,3.81,3.81,0,0,1,1,2.79c0,2.48-1.62,4.43-4.88,4.73l-.23,2.53H14.46V23.1a12.8,12.8,0,0,1-5.25-1.55Zm4.52-6.68V9.57c-1.69.12-2.51.61-2.51,1.64S12.84,12.67,14.46,13.16Zm1.45,3.09v4.39c1.46-.21,2.23-1,2.23-2.23C18.14,17.31,17.53,16.79,15.91,16.25Z"/></g></g></svg>