<?xml version="1.0" encoding="UTF-8"?>
<svg viewBox="0 0 21 21" version="1.1" xmlns="http://www.w3.org/2000/svg" xmlns:xlink="http://www.w3.org/1999/xlink">
  <g fill="#053F55">
    <path d="M20.158404,17.546088 L8.398404,17.546088 C7.934724,17.546088 7.558404,17.921568 7.558404,18.386088 C7.558404,18.850608 7.934724,19.226088 8.398404,19.226088 L20.158404,19.226088 C20.622084,19.226088 20.998404,18.850608 20.998404,18.386088 C20.998404,17.921568 20.622084,17.546088 20.158404,17.546088 M20.158404,9.192288 L8.398404,9.192288 C7.934724,9.192288 7.558404,9.568608 7.558404,10.032288 C7.558404,10.495968 7.934724,10.872288 8.398404,10.872288 L20.158404,10.872288 C20.622084,10.872288 20.998404,10.495968 20.998404,10.032288 C20.998404,9.568608 20.622084,9.192288 20.158404,9.192288 M20.158404,0.838488 L8.398404,0.838488 C7.934724,0.838488 7.558404,1.214808 7.558404,1.678488 C7.558404,2.142168 7.934724,2.518488 8.398404,2.518488 L20.158404,2.518488 C20.622084,2.518488 20.998404,2.142168 20.998404,1.678488 C20.998404,1.214808 20.622084,0.838488 20.158404,0.838488 M1.678404,16.707768 C0.751044,16.707768 8.4e-05,17.458728 8.4e-05,18.386088 C8.4e-05,19.313448 0.751044,20.064408 1.678404,20.064408 C2.605764,20.064408 3.356724,19.313448 3.356724,18.386088 C3.356724,17.458728 2.605764,16.707768 1.678404,16.707768 M1.678404,8.353968 C0.751044,8.353968 8.4e-05,9.104928 8.4e-05,10.032288 C8.4e-05,10.958808 0.751044,11.710608 1.678404,11.710608 C2.605764,11.710608 3.356724,10.958808 3.356724,10.032288 C3.356724,9.104928 2.605764,8.353968 1.678404,8.353968 M3.356724,1.678488 C3.356724,2.605848 2.605764,3.356808 1.678404,3.356808 C0.751044,3.356808 8.4e-05,2.605848 8.4e-05,1.678488 C8.4e-05,0.751968 0.751044,-0.000672 1.678404,-0.000672 C2.605764,-0.000672 3.356724,0.751968 3.356724,1.678488"/>
  </g>
</svg>
