<svg id="Layer_1" data-name="Layer 1" xmlns="http://www.w3.org/2000/svg" viewBox="0 0 320 270"><defs><style>.cls-1{fill:#0f4752;}</style></defs><title>submit-photo-1</title><path class="cls-1" d="M72.67,218.34c-8.7.75-16.79,1.36-24.85,2.19-7.56.77-10.18-1.5-10.85-9.19q-5.24-60.72-10.6-121.42c-1.32-15.09-2.65-30.19-3.88-45.29-.4-5,2.36-8.07,7.62-8.54C53.33,34,76.55,32,99.77,30q53.49-4.76,107-9.57c12.11-1.08,24.21-2.22,36.32-3.25,7.22-.61,10.09,1.84,10.73,9.16,1.12,12.77,2.34,25.54,3.08,38.34.23,4,1.67,5,5.38,4.91,10.83-.2,21.66-.12,32.49,0,7.53,0,9.46,2,9.46,9.53q0,83.22,0,166.42c0,6.69-2.64,9.37-9.43,9.37q-106.44.06-212.89,0c-6.46,0-9.13-2.71-9.18-9.09C72.61,236.78,72.67,227.83,72.67,218.34Zm99.5-29c16.7-17,32.67-33.31,48.68-49.56,5.59-5.67,8.55-5.65,14.18,0q25.25,25.31,50.46,50.63c1.21,1.22,2.53,2.33,4.18,3.85v-110H87.54V216.41l1.35.93a25.76,25.76,0,0,1,2.84-4.15q22.8-22.78,45.73-45.46c5.24-5.19,8.35-5.23,13.5,0C157.76,174.52,164.47,181.45,172.17,189.31ZM72.94,203.43V181.54q0-51.49,0-103c0-6.48,2.19-8.75,8.55-9,1.67-.08,3.34,0,5,0H243.09c-1.15-12.93-2.21-25-3.32-37.46L37.59,49.77c4.58,52.35,9.11,104,13.65,155.94Zm155.88-50.3L182.5,199.38c12.4,12.25,25.15,24.69,37.7,37.34a10.47,10.47,0,0,0,8.24,3.5c18.83-.15,37.66-.06,56.5-.08,1.61,0,3.22-.16,4.68-.24,1.82-14.5,2.65-28.29-11.68-37.37-2.2-1.39-3.82-3.69-5.7-5.59C257.7,182.28,243.17,167.61,228.82,153.13Zm-27.54,86.94-56.17-57-56.72,57Z"/><path class="cls-1" d="M129,109a16.19,16.19,0,0,1,16.3,16c.12,9-7.58,16.84-16.39,16.69a16.69,16.69,0,0,1-16.05-16.53A16.2,16.2,0,0,1,129,109Z"/></svg>