<svg id="audio-on" xmlns="http://www.w3.org/2000/svg" viewBox="0 0 64.2 58.4"><path fill="#ffffff" d="M30.9 0h-4.2c-.6 0-1.1.2-1.5.7l-17 18.5H2c-1.1 0-2 .9-2 2v16.1c0 1.1.9 2 2 2h6.2l16.9 18.5c.4.4.9.6 1.5.6h4.2c1.1 0 2-.9 2-2V2c.1-1.1-.8-2-1.9-2zm-5.4 10.8v36.7l-13.6-15c-.4-.4-.9-.7-1.5-.7h-3v-5.3h3.1c.6 0 1.1-.2 1.5-.7l13.5-15zM44.2 16.6c-.4-.4-.9-.7-1.4-.7-.6 0-1.1.2-1.5.6l-2.4 2.4c-.7.7-.8 1.9-.1 2.7 1.7 2.2 2.7 4.9 2.7 7.7s-1 5.5-2.7 7.7c-.7.8-.6 2 .1 2.7l2.4 2.4c.4.4.9.6 1.4.6h.1c.6 0 1.1-.3 1.4-.7 3-3.5 4.6-8 4.6-12.6 0-4.8-1.6-9.3-4.6-12.8z"/><path fill="#ffffff" d="M53.2 7.5c-.4-.4-.9-.7-1.5-.7s-1.1.2-1.5.6l-2.4 2.4c-.7.7-.8 1.9-.1 2.7 4.1 4.6 6.4 10.5 6.4 16.7 0 6.2-2.3 12.1-6.4 16.7-.7.8-.7 2 .1 2.7l2.4 2.4c.4.4.9.6 1.4.6h.1c.6 0 1.1-.3 1.5-.7 5.4-6 8.4-13.7 8.4-21.7-.1-8-3-15.7-8.4-21.7z"/></svg>
