<svg id="audio-off" xmlns="http://www.w3.org/2000/svg" viewBox="0 0 64.2 58.4"><path fill="#ffffff" d="M30.9 0h-4.2c-.6 0-1.1.2-1.5.7l-17 18.5H2c-1.1 0-2 .9-2 2v16.1c0 1.1.9 2 2 2h6.2l16.9 18.5c.4.4.9.6 1.5.6h4.2c1.1 0 2-.9 2-2V2c.1-1.1-.8-2-1.9-2zm-5.4 10.8v36.7l-13.6-15c-.4-.4-.9-.7-1.5-.7h-3v-5.3h3.1c.6 0 1.1-.2 1.5-.7l13.5-15zM63.8 19.6L61 16.8c-.6-.6-1.5-.6-2.1 0l-7.5 7.5-7.5-7.5c-.6-.6-1.5-.6-2.1 0L39 19.6c-.6.6-.6 1.5 0 2.1l7.5 7.5-7.5 7.5c-.6.6-.6 1.5 0 2.1l2.8 2.8c.6.6 1.5.6 2.1 0l7.5-7.5 7.5 7.5c.6.6 1.5.6 2.1 0l2.8-2.8c.6-.6.6-1.5 0-2.1l-7.5-7.5 7.5-7.5c.6-.5.6-1.5 0-2.1z"/></svg>
