<svg xmlns="http://www.w3.org/2000/svg" viewBox="16.749 114.802 568.677 562.396">
  <path fill="#D9E021" d="M297.95 114.8h6.28c155.3 0 281.2 125.9 281.2 281.2 0 155.3-125.9 281.2-281.2 281.2h-6.28c-155.3 0-281.2-125.9-281.2-281.2 0-155.3 125.9-281.2 281.2-281.2z"/>
  <path fill="#FFF" d="M297.95 130.26h6.28C451 130.26 569.97 249.24 569.97 396S451 661.74 304.23 661.74h-6.28C151.2 661.74 32.2 542.76 32.2 396S151.2 130.26 297.96 130.26z"/>
  <path fill="#006C88" d="M324.68 546.58h-63.45V400.35h-31.9V350.1h31.9v-30.28c0-41.07 17.7-65.55 68.77-65.55h42.35v50.4h-26.57c-19.8 0-20.94 7.1-20.94 20.14l-.32 25.3h48.32l-5.8 50.25h-42.52v146.23h.16z"/>
</svg>
