<?xml version="1.0" encoding="UTF-8"?>
<svg width="1132px" height="8px" viewBox="0 0 1132 8" version="1.1" xmlns="http://www.w3.org/2000/svg" xmlns:xlink="http://www.w3.org/1999/xlink">
    <!-- Generator: Sketch 63.1 (92452) - https://sketch.com -->
    <title>stripe</title>
    <desc>Created with Sketch.</desc>
    <g id="Design---2019" stroke="none" stroke-width="1" fill="none" fill-rule="evenodd">
        <g id="Welcome" transform="translate(0.000000, -71.000000)">
            <g id="Group" transform="translate(0.000000, 71.000000)">
                <rect id="Rectangle" fill="#34648F" x="0" y="0" width="1132" height="8"></rect>
                <rect id="Rectangle-Copy-5" fill="#295072" opacity="0.5" x="20" y="0" width="141" height="8"></rect>
                <rect id="Rectangle-Copy-6" fill="#214361" x="160" y="0" width="90" height="8"></rect>
                <rect id="Rectangle-Copy-7" fill="#34648F" opacity="0.5" x="250" y="0" width="110" height="8"></rect>
                <rect id="Rectangle-Copy-8" fill="#295072" opacity="0.5" x="360" y="0" width="40" height="8"></rect>
                <rect id="Rectangle-Copy-9" fill="#214361" opacity="0.5" x="400" y="0" width="60" height="8"></rect>
                <rect id="Rectangle-Copy-10" fill="#34648F" x="570" y="0" width="40" height="8"></rect>
                <rect id="Rectangle-Copy-11" fill="#34648F" opacity="0.5" x="610" y="0" width="20" height="8"></rect>
                <rect id="Rectangle-Copy-12" fill="#214361" opacity="0.5" x="700" y="0" width="80" height="8"></rect>
                <rect id="Rectangle-Copy-13" fill="#34648F" opacity="0.5" x="780" y="0" width="40" height="8"></rect>
                <rect id="Rectangle-Copy-14" fill="#295072" opacity="0.5" x="819" y="0" width="20" height="8"></rect>
                <rect id="Rectangle-Copy-15" fill="#214361" opacity="0.5" x="929" y="0" width="40" height="8"></rect>
                <rect id="Rectangle-Copy-16" fill="#34648F" x="969" y="0" width="40" height="8"></rect>
                <rect id="Rectangle-Copy-17" fill="#295072" opacity="0.5" x="1049" y="0" width="10" height="8"></rect>
                <rect id="Rectangle-Copy-18" fill="#34648F" opacity="0.5" x="1059" y="0" width="50" height="8"></rect>
            </g>
        </g>
    </g>
</svg>