<?xml version="1.0" encoding="UTF-8"?>
<svg width="95px" height="95px" viewBox="0 0 95 95" version="1.1" xmlns="http://www.w3.org/2000/svg" xmlns:xlink="http://www.w3.org/1999/xlink">
    <title>icons_financials</title>
    <g id="Design---2020" stroke="none" stroke-width="1" fill="none" fill-rule="evenodd">
        <g id="Welcome---D" transform="translate(-182.000000, -1441.000000)" fill-rule="nonzero">
            <g id="icons_financials" transform="translate(182.000000, 1441.000000)">
                <rect id="Rectangle" fill="#1C7065" x="5.935" y="0" width="74.215" height="89.06"></rect>
                <polygon id="Path" fill="#F2A11F" points="74.215 95 0 95 0 5.94 69.215 5.94 74.215 10.94"></polygon>
                <polygon id="Path" fill="#8DC63F" points="59.375 5.94 74.215 20.78 59.375 20.78"></polygon>
                <circle id="Oval" fill="#FFFFFF" cx="25.235" cy="31.17" r="20.78"></circle>
                <path d="M44.53,58.86 L34.14,58.86 C33.6070452,58.86 33.175,58.4279548 33.175,57.895 C33.175,57.3620452 33.6070452,56.93 34.14,56.93 L44.53,56.93 C45.0629548,56.93 45.495,57.3620452 45.495,57.895 C45.495,58.4279548 45.0629548,58.86 44.53,58.86 L44.53,58.86 Z" id="Path" fill="#FFFFFF"></path>
                <path d="M29.69,58.86 L16.33,58.86 C15.7970452,58.86 15.365,58.4279548 15.365,57.895 C15.365,57.3620452 15.7970452,56.93 16.33,56.93 L29.69,56.93 C30.2229548,56.93 30.655,57.3620452 30.655,57.895 C30.655,58.4279548 30.2229548,58.86 29.69,58.86 L29.69,58.86 Z" id="Path" fill="#FFFFFF"></path>
                <path d="M11.875,58.86 L8.905,58.86 C8.37204522,58.86 7.94,58.4279548 7.94,57.895 C7.94,57.3620452 8.37204522,56.93 8.905,56.93 L11.875,56.93 C12.4079548,56.93 12.84,57.3620452 12.84,57.895 C12.84,58.4279548 12.4079548,58.86 11.875,58.86 L11.875,58.86 Z" id="Path" fill="#FFFFFF"></path>
                <path d="M34.14,65.54 L16.33,65.54 C15.8225997,65.5035002 15.4295971,65.0812114 15.4295971,64.5725 C15.4295971,64.0637886 15.8225997,63.6414998 16.33,63.605 L34.14,63.605 C34.6474003,63.6414998 35.0404029,64.0637886 35.0404029,64.5725 C35.0404029,65.0812114 34.6474003,65.5035002 34.14,65.54 L34.14,65.54 Z" id="Path" fill="#FFFFFF"></path>
                <path d="M11.875,65.54 L8.905,65.54 C8.3975997,65.5035002 8.00459705,65.0812114 8.00459705,64.5725 C8.00459705,64.0637886 8.3975997,63.6414998 8.905,63.605 L11.875,63.605 C12.3824003,63.6414998 12.7754029,64.0637886 12.7754029,64.5725 C12.7754029,65.0812114 12.3824003,65.5035002 11.875,65.54 L11.875,65.54 Z" id="Path" fill="#FFFFFF"></path>
                <path d="M44.53,72.22 L31.17,72.22 C30.6625997,72.1835002 30.2695971,71.7612114 30.2695971,71.2525 C30.2695971,70.7437886 30.6625997,70.3214998 31.17,70.285 L44.53,70.285 C45.0374003,70.3214998 45.4304029,70.7437886 45.4304029,71.2525 C45.4304029,71.7612114 45.0374003,72.1835002 44.53,72.22 L44.53,72.22 Z" id="Path" fill="#FFFFFF"></path>
                <path d="M26.72,72.22 L16.33,72.22 C15.8225997,72.1835002 15.4295971,71.7612114 15.4295971,71.2525 C15.4295971,70.7437886 15.8225997,70.3214998 16.33,70.285 L26.72,70.285 C27.2274003,70.3214998 27.6204029,70.7437886 27.6204029,71.2525 C27.6204029,71.7612114 27.2274003,72.1835002 26.72,72.22 L26.72,72.22 Z" id="Path" fill="#FFFFFF"></path>
                <path d="M11.875,72.22 L8.905,72.22 C8.3975997,72.1835002 8.00459705,71.7612114 8.00459705,71.2525 C8.00459705,70.7437886 8.3975997,70.3214998 8.905,70.285 L11.875,70.285 C12.3824003,70.3214998 12.7754029,70.7437886 12.7754029,71.2525 C12.7754029,71.7612114 12.3824003,72.1835002 11.875,72.22 L11.875,72.22 Z" id="Path" fill="#FFFFFF"></path>
                <path d="M31.17,78.895 L16.33,78.895 C15.7970452,78.895 15.365,78.4629548 15.365,77.93 C15.365,77.3970452 15.7970452,76.965 16.33,76.965 L31.17,76.965 C31.7029548,76.965 32.135,77.3970452 32.135,77.93 C32.135,78.4629548 31.7029548,78.895 31.17,78.895 L31.17,78.895 Z" id="Path" fill="#FFFFFF"></path>
                <path d="M11.875,78.895 L8.905,78.895 C8.37204522,78.895 7.94,78.4629548 7.94,77.93 C7.94,77.3970452 8.37204522,76.965 8.905,76.965 L11.875,76.965 C12.4079548,76.965 12.84,77.3970452 12.84,77.93 C12.84,78.4629548 12.4079548,78.895 11.875,78.895 L11.875,78.895 Z" id="Path" fill="#FFFFFF"></path>
                <path d="M40.08,85.575 L16.33,85.575 C15.7970452,85.575 15.365,85.1429548 15.365,84.61 C15.365,84.0770452 15.7970452,83.645 16.33,83.645 L40.08,83.645 C40.6129548,83.645 41.045,84.0770452 41.045,84.61 C41.045,85.1429548 40.6129548,85.575 40.08,85.575 L40.08,85.575 Z" id="Path" fill="#FFFFFF"></path>
                <path d="M11.875,85.575 L8.905,85.575 C8.37204522,85.575 7.94,85.1429548 7.94,84.61 C7.94,84.0770452 8.37204522,83.645 8.905,83.645 L11.875,83.645 C12.4079548,83.645 12.84,84.0770452 12.84,84.61 C12.84,85.1429548 12.4079548,85.575 11.875,85.575 L11.875,85.575 Z" id="Path" fill="#FFFFFF"></path>
                <path d="M51.47,34.14 L92.5,34.14 C93.0522847,34.14 93.5,34.5877153 93.5,35.14 L93.5,47.5 L50.47,47.5 L50.47,35.14 C50.47,34.5877153 50.9177153,34.14 51.47,34.14 Z" id="Path" fill="#FFFFFF"></path>
                <path d="M95,49 L49,49 L49,37.11 C49.0027555,34.6507137 50.9957137,32.6577555 53.455,32.655 L90.56,32.655 C93.0134264,32.6660005 94.9972742,34.6565504 95,37.11 L95,49 Z M51.955,46 L92.03,46 L92.03,37.11 C92.03,36.2815729 91.3584271,35.61 90.53,35.61 L53.44,35.61 C52.6115729,35.61 51.94,36.2815729 51.94,37.11 L51.955,46 Z" id="Shape" fill="#762266"></path>
                <path d="M79.165,60.86 L93.5,60.86 L93.5,86.58 C93.5,87.1322847 93.0522847,87.58 92.5,87.58 L79.15,87.58 L79.15,60.86 L79.165,60.86 Z" id="Path" fill="#1C7065"></path>
                <path d="M90.545,89.06 L77.685,89.06 L77.685,59.375 L95,59.375 L95,84.61 C94.9972408,87.0684757 93.0034773,89.06 90.545,89.06 Z M80.65,86.095 L90.545,86.095 C91.3734271,86.095 92.045,85.4234271 92.045,84.595 L92.045,62.345 L80.65,62.345 L80.65,86.095 Z" id="Shape" fill="#762266"></path>
                <path d="M50.47,74.22 L64.82,74.22 L64.82,87.58 L51.47,87.58 C50.9177153,87.58 50.47,87.1322847 50.47,86.58 L50.47,74.22 L50.47,74.22 Z" id="Path" fill="#52BF9B"></path>
                <path d="M66.305,89.06 L53.44,89.06 C50.9826619,89.0572513 48.9905082,87.0673334 48.985,84.61 L48.985,72.735 L66.305,72.735 L66.305,89.06 Z M51.955,75.7 L51.955,84.61 C51.955,85.4384271 52.6265729,86.11 53.455,86.11 L63.35,86.11 L63.35,75.7 L51.955,75.7 Z" id="Shape" fill="#762266"></path>
                <rect id="Rectangle" fill="#52BF9B" x="50.47" y="60.86" width="14.35" height="13.36"></rect>
                <path d="M66.305,75.7 L49,75.7 L49,59.375 L66.32,59.375 L66.305,75.7 Z M51.955,72.735 L63.335,72.735 L63.335,62.345 L51.955,62.345 L51.955,72.735 Z" id="Shape" fill="#762266"></path>
                <rect id="Rectangle" fill="#52BF9B" x="50.47" y="47.5" width="14.35" height="13.36"></rect>
                <path d="M66.305,62.345 L49,62.345 L49,46 L66.32,46 L66.305,62.345 Z M51.955,59.375 L63.335,59.375 L63.335,49 L51.955,49 L51.955,59.375 Z" id="Shape" fill="#762266"></path>
                <rect id="Rectangle" fill="#52BF9B" x="64.82" y="74.22" width="14.35" height="13.36"></rect>
                <path d="M80.65,89.06 L63.335,89.06 L63.335,72.735 L80.65,72.735 L80.65,89.06 Z M66.305,86.095 L77.685,86.095 L77.685,75.7 L66.305,75.7 L66.305,86.095 Z" id="Shape" fill="#762266"></path>
                <rect id="Rectangle" fill="#52BF9B" x="64.82" y="60.86" width="14.35" height="13.36"></rect>
                <path d="M80.65,75.7 L63.335,75.7 L63.335,59.375 L80.65,59.375 L80.65,75.7 Z M66.305,72.735 L77.685,72.735 L77.685,62.345 L66.305,62.345 L66.305,72.735 Z" id="Shape" fill="#762266"></path>
                <rect id="Rectangle" fill="#52BF9B" x="64.82" y="47.5" width="14.35" height="13.36"></rect>
                <path d="M80.65,62.345 L63.335,62.345 L63.335,46 L80.65,46 L80.65,62.345 Z M66.305,59.375 L77.685,59.375 L77.685,49 L66.305,49 L66.305,59.375 Z" id="Shape" fill="#762266"></path>
                <rect id="Rectangle" fill="#52BF9B" x="79.165" y="47.5" width="14.35" height="13.36"></rect>
                <path d="M95,62.345 L77.685,62.345 L77.685,46 L95,46 L95,62.345 Z M80.65,59.375 L92.03,59.375 L92.03,49 L80.65,49 L80.65,59.375 Z" id="Shape" fill="#762266"></path>
                <path d="M87.575,43.79 C87.2797413,43.79 86.9966481,43.6723708 86.7883384,43.4631228 C86.5800287,43.2538747 86.46367,42.9702557 86.465,42.675 L86.465,38.965 C86.4371453,38.5497409 86.6428848,38.1535344 86.9985825,37.9374439 C87.3542802,37.7213533 87.8007198,37.7213533 88.1564175,37.9374439 C88.5121152,38.1535344 88.7178547,38.5497409 88.69,38.965 L88.69,42.675 C88.69,43.2907975 88.1907975,43.79 87.575,43.79 Z" id="Path" fill="#A6228B"></path>
                <path d="M81.64,43.79 C81.0242025,43.79 80.525,43.2907975 80.525,42.675 L80.525,38.965 C80.525,38.3492025 81.0242025,37.85 81.64,37.85 C82.2557975,37.85 82.755,38.3492025 82.755,38.965 L82.755,42.675 C82.755,43.2907975 82.2557975,43.79 81.64,43.79 Z" id="Path" fill="#A6228B"></path>
                <path d="M75.7,43.79 C75.4047413,43.79 75.1216481,43.6723708 74.9133384,43.4631228 C74.7050287,43.2538747 74.58867,42.9702557 74.59,42.675 L74.59,38.965 C74.5621453,38.5497409 74.7678848,38.1535344 75.1235825,37.9374439 C75.4792802,37.7213533 75.9257198,37.7213533 76.2814175,37.9374439 C76.6371152,38.1535344 76.8428547,38.5497409 76.815,38.965 L76.815,42.675 C76.815,43.2907975 76.3157975,43.79 75.7,43.79 Z" id="Path" fill="#A6228B"></path>
                <path d="M8.16498127,31.17 C8.15746791,36.2538565 10.4222829,41.07507 14.34,44.315 L25.235,31.17 L25.235,14.1 C15.8074993,14.1 8.16498127,21.7424993 8.16498127,31.17 Z" id="Path" fill="#1D3283"></path>
                <path d="M25.235,14.1 L25.235,31.17 L32.935,15.95 C30.5503479,14.7341726 27.9117147,14.1002153 25.235,14.1 Z" id="Path" fill="#AFCBFA"></path>
                <path d="M32.935,15.95 L25.235,31.17 L41.605,26.33 C40.2647346,21.8253034 37.128992,18.0710926 32.935,15.95 L32.935,15.95 Z" id="Path" fill="#83A9ED"></path>
                <path d="M14.34,44.315 C21.3374084,50.111534 31.6487088,49.4126863 37.8,42.725 L25.235,31.17 L14.34,44.315 Z" id="Path" fill="#3353B4"></path>
                <path d="M41.605,26.33 L25.235,31.17 L25.235,31.17 L37.8,42.725 C40.7013651,39.5773048 42.3083719,35.4508684 42.3000325,31.17 C42.3002115,29.531787 42.0661764,27.90196 41.605,26.33 Z" id="Path" fill="#7596D7"></path>
                <circle id="Oval" fill="#FFFFFF" cx="25.235" cy="31.17" r="7.42"></circle>
                <circle id="Oval" fill="#52BF9B" cx="92.03" cy="19.3" r="2.97"></circle>
                <circle id="Oval" fill="#52BF9B" cx="86.09" cy="28.205" r="1.485"></circle>
                <circle id="Oval" fill="#52BF9B" cx="86.09" cy="8.905" r="2.225"></circle>
                <circle id="Oval" fill="#52BF9B" cx="92.03" cy="1.485" r="1.485"></circle>
            </g>
        </g>
    </g>
</svg>