<?xml version="1.0" encoding="UTF-8"?>
<svg width="80px" height="80px" viewBox="0 0 80 80" version="1.1" xmlns="http://www.w3.org/2000/svg" xmlns:xlink="http://www.w3.org/1999/xlink">
    <title>icon-covered</title>
    <g id="Design---2020" stroke="none" stroke-width="1" fill="none" fill-rule="evenodd">
        <g id="Review" transform="translate(-106.000000, -1437.000000)" fill-rule="nonzero">
            <g id="icon-covered" transform="translate(106.000000, 1437.000000)">
                <path d="M25.0007612,7.49993083 C24.4830286,7.49993083 24.0633234,7.08020074 24.0633234,6.56243863 L24.0633234,4.99995324 C24.0633234,4.48219113 24.4830286,4.06246201 25.0007612,4.06246201 C25.5184937,4.06246201 25.9381989,4.48219113 25.9381989,4.99995324 L25.9381989,6.61243816 C25.9115956,7.11057709 25.4995811,7.50063982 25.0007612,7.49993083" id="Path" fill="#FFFFFF"></path>
                <path d="M70.8727135,22.9122857 L71.9476421,29.6497227 L73.63503,40.5996203 L67.6729261,58.0994567 L63.7481868,54.1619935 L67.297951,38.4496404 C67.7854186,31.9872009 65.9605398,26.6872504 66.5979975,24.4122717 C66.8243591,23.5401977 67.4689418,22.8374422 68.3182274,22.536793 C69.1675131,22.2361437 70.110647,22.3768436 70.835216,22.9122857" id="Path" fill="#D8BCBA"></path>
                <path d="M69.9977716,36.8621553 C70.1102641,38.0121445 68.1978912,39.3621319 67.7229228,42.3371041 C63.7429811,49.9785103 60.3662582,57.9192773 57.6235937,66.086882 C57.6235937,66.086882 66.5355016,68.5868586 66.5355016,68.5868586 C68.8353488,65.5368871 85.5592377,51.2995203 73.0725673,19.7498153 L73.0725673,19.6498162 C73.0725673,19.4123185 72.3601147,17.3623376 70.7227234,17.7373341 C67.6104302,18.4498275 69.1728264,28.2497358 70.0352691,36.7746561" id="Path" fill="#E5C1BD"></path>
                <path d="M72.5726005,33.7496844 C72.8100848,34.8871738 73.047569,36.0621628 73.272554,37.2746514 L73.272554,37.2746514 C73.7714045,40.1929277 73.5917776,43.1868803 72.7475889,46.0245696 C71.9839802,48.5721817 70.8915125,51.009364 69.4978048,53.2745018 C69.2113261,53.7577464 68.5873645,53.9172435 68.1041474,53.6307485 C67.6209304,53.3442534 67.4614424,52.7202561 67.7479211,52.2370115 C70.9477085,46.8745617 72.0601346,42.237105 71.2601877,37.6246482 L71.2601877,37.6246482 C70.8602143,35.5746673 70.5352359,35.4496685 69.8852791,35.1246715 C69.0876618,34.704471 68.1450151,34.6587089 67.3104502,34.9996727 C66.6787976,35.4062107 66.2304346,36.0429227 66.0605332,36.7746561 C63.5606993,46.2120679 62.0358006,47.6495544 60.3109152,49.2745392 C58.5860298,50.899524 56.2486851,54.7744878 52.8364118,65.7368853 C52.8364118,65.7368853 68.9603405,70.3493421 68.9603405,70.3493421 C71.2476886,67.2993707 87.7965891,53.1245032 75.4974062,21.5122988 C75.4974062,21.5122988 74.747456,19.1248212 73.1100648,19.4998176 C69.9977716,20.212311 70.8852127,25.3622628 72.5726005,33.7121847" id="Path" fill="#F3D3CF"></path>
                <path d="M51.6614899,66.0368825 L48.3492099,78.4242666 C48.2458597,78.8071754 48.3303499,79.2164127 48.5768932,79.527075 C48.8234366,79.8377374 49.2027736,80.0129558 49.5991269,79.9992519 L67.0979643,79.9992519 C67.6274509,79.9971424 68.0981584,79.661619 68.2728862,79.1617597 L71.3101844,70.5118406 C71.4295812,70.1736637 71.3979788,69.8004905 71.2234131,69.4872107 C71.0488473,69.173931 70.7481366,68.9507275 70.397745,68.8743559 L53.1113935,65.124391 C52.4624021,64.9890698 51.8206598,65.3840107 51.6489907,66.0243826" id="Path" fill="#40BEEE"></path>
                <path d="M65.385578,72.499322 C64.658905,72.2772375 63.8700522,72.5157369 63.3881162,73.1032287 C62.9061802,73.6907205 62.8264723,74.5110179 63.1862871,75.1803115 C63.5461018,75.8496052 64.2742796,76.2355306 65.0301129,76.157517 C65.7859463,76.0795034 66.419956,75.5529793 66.635495,74.8243003 C66.9130736,73.839129 66.36041,72.8111159 65.385578,72.499322" id="Path" fill="#FFFFFF"></path>
                <path d="M9.12681581,22.9122857 L8.05188723,29.6497227 L6.3769985,40.5996203 L12.3391024,58.0994567 L16.213845,54.2244929 L12.6640808,38.4496404 C12.1766132,31.9872009 14.0014919,26.6872504 13.3640343,24.4122717 C12.7265766,22.137293 10.7267095,21.9997943 9.12681581,22.9122857" id="Path" fill="#D8BCBA"></path>
                <path d="M10.0017577,36.8621553 C9.88926515,38.0121445 11.8016381,39.3621319 12.2766065,42.3371041 C16.2565482,49.9785103 19.6332711,57.9192773 22.3759356,66.086882 C22.3759356,66.086882 13.4640277,68.5868586 13.4640277,68.5868586 C11.2516746,65.6243863 -5.5347101,51.3870195 6.9519603,19.8373145 L6.9519603,19.7373154 C6.9519603,19.4998176 7.66441297,17.4498368 9.30180418,17.8248333 C12.4140974,18.5373267 10.8517012,28.337235 9.98925851,36.8621553" id="Path" fill="#E5C1BD"></path>
                <path d="M7.42692875,33.7496844 C7.18944453,34.8871738 6.9519603,36.0621628 6.72697525,37.2746514 L6.72697525,37.2746514 C6.22812484,40.1929277 6.40775174,43.1868803 7.25194037,46.0245696 C8.01554914,48.5721817 9.1080168,51.009364 10.5017245,53.2745018 C10.7882032,53.7577464 11.4121648,53.9172434 11.8953818,53.6307484 C12.3785989,53.3442534 12.5380868,52.7202561 12.2516082,52.2370115 C9.05182079,46.8745617 7.92689553,42.2246051 8.75184072,37.6246482 L8.75184072,37.6246482 C9.15181415,35.5746673 9.47679256,35.4496685 10.1267494,35.1246715 C10.9209508,34.7083189 11.8581274,34.6626004 12.6890791,34.9996727 C13.3207316,35.4062107 13.7690947,36.0429227 13.9389961,36.7746561 C16.43883,46.2120679 17.9637287,47.6495544 19.6886141,49.2745392 C21.4134995,50.899524 23.7758425,54.7619879 27.1881158,65.7243854 C27.1881158,65.7243854 11.0641871,70.3368423 11.0641871,70.3368423 C8.75184072,67.2993707 -7.79705979,53.1245032 4.50212307,21.5122988 C4.50212307,21.5122988 5.25207324,19.1248212 6.88946446,19.4998176 C10.0017577,20.212311 9.11431664,25.3622628 7.42692875,33.7496844" id="Path" fill="#F3D3CF"></path>
                <path d="M28.3380394,66.0368825 L31.6503194,78.4242666 C31.7536696,78.8071754 31.6691794,79.2164127 31.4226361,79.527075 C31.1760927,79.8377374 30.7967557,80.0129558 30.4004024,79.9992519 L12.901565,79.9992519 C12.3720784,79.9971424 11.9013708,79.661619 11.7266431,79.1617597 L8.67684571,70.5118406 C8.55744892,70.1736637 8.5890513,69.8004905 8.76361706,69.4872107 C8.93818283,69.173931 9.23889353,68.9507275 9.58928508,68.8743559 L26.8756366,65.124391 C27.5246281,64.9890698 28.1663703,65.3840107 28.3380394,66.0243826" id="Path" fill="#40BEEE"></path>
                <path d="M14.6139513,72.499322 C15.3406242,72.2772375 16.1294771,72.5157369 16.6114131,73.1032287 C17.0933491,73.6907205 17.173057,74.5110179 16.8132422,75.1803115 C16.4534275,75.8496052 15.7252497,76.2355306 14.9694163,76.157517 C14.213583,76.0795034 13.5795733,75.5529793 13.3640343,74.8243003 C13.0864557,73.839129 13.6391193,72.8111159 14.6139513,72.499322" id="Path" fill="#FFFFFF"></path>
                <path d="M19.0636556,32.937192 C21.1345858,32.937192 22.8134065,34.6161085 22.8134065,36.6871569 C22.8134065,34.6161085 24.4922271,32.937192 26.5631574,32.937192 C24.4922271,32.937192 22.8134065,31.2582755 22.8134065,29.1872271 C22.8134065,31.2582755 21.1345858,32.937192 19.0636556,32.937192" id="Path" fill="#A6228B"></path>
                <path d="M52.1989541,41.9746075 C54.2698844,41.9746075 55.948705,43.653524 55.948705,45.7245724 C55.948705,43.653524 57.6275257,41.9746075 59.6984559,41.9746075 C57.6275257,41.9746075 55.948705,40.295691 55.948705,38.2246425 C55.948705,40.295691 54.2698844,41.9746075 52.1989541,41.9746075" id="Path" fill="#A6228B"></path>
                <path d="M40.3122439,66.9743737 C42.3831741,66.9743737 44.0619948,68.6532902 44.0619948,70.7243386 C44.0619948,68.6532902 45.7408154,66.9743737 47.8117456,66.9743737 C45.7408154,66.9743737 44.0619948,65.2954572 44.0619948,63.2244088 C44.0619948,65.2954572 42.3831741,66.9743737 40.3122439,66.9743737" id="Path" fill="#A6228B"></path>
                <path d="M39.6997846,3.74996493 C41.7707148,3.74996493 43.4495354,5.42888142 43.4495354,7.49992987 C43.4495354,5.42888142 45.1283561,3.74996493 47.1992863,3.74996493 C45.1283561,3.74996493 43.4495354,2.07104844 43.4495354,5.55106321e-16 C43.4495354,2.07104844 41.7707148,3.74996493 39.6997846,3.74996493" id="Path" fill="#A6228B"></path>
                <path d="M63.8606794,11.5623919 C65.9316096,11.5623919 67.6104302,13.2413084 67.6104302,15.3123568 C67.6104302,13.2413084 69.2892509,11.5623919 71.3601811,11.5623919 C69.2892509,11.5623919 67.6104302,9.88347539 67.6104302,7.81242694 C67.6104302,9.88347539 65.9316096,11.5623919 63.8606794,11.5623919" id="Path" fill="#A6228B"></path>
                <path d="M0.00242202373,8.74991818 C2.07335225,8.74991818 3.75217289,10.4288347 3.75217289,12.4998831 C3.75217289,10.4288347 5.43099354,8.74991818 7.50192377,8.74991818 C5.43099354,8.74991818 3.75217289,7.07100169 3.75217289,4.99995324 C3.75217289,7.07100169 2.07335225,8.74991818 0.00242202373,8.74991818" id="Path" fill="#A6228B"></path>
                <path d="M37.81241,45.7870718 C37.81241,45.7870718 34.4876309,41.0746159 30.7253808,43.624592 C26.9631308,46.1745682 26.8881358,50.799525 29.5629581,54.4369909 C31.8175855,57.4065363 34.5555999,59.9756842 37.6624199,62.0369199 C37.6624199,62.0369199 45.7618818,57.1494656 47.3492764,51.8370153 C48.9366709,46.5245649 45.4869001,43.7495909 43.7495155,43.0870971 C42.0121309,42.4246033 39.6247896,43.2620954 37.7749125,45.7870718" id="Path" fill="#EF4651"></path>
                <path d="M50.8240455,18.9748226 C50.8240455,18.9748226 47.4992664,14.2623666 43.7495155,16.8123428 C39.9997646,19.3623189 39.9122705,23.9872757 42.5870927,27.6247417 C44.8417202,30.594287 47.5797346,33.1634349 50.6865546,35.2246706 C50.6865546,35.2246706 58.748519,30.3372163 60.3609119,24.9997662 C61.9733047,19.6623161 58.4985356,16.899842 56.7986485,16.249848 C55.0987615,15.5998541 52.6739226,16.4248464 50.8240455,18.9498228" id="Path" fill="#EF4651"></path>
                <path d="M25.2382454,6.89993548 C25.2382454,6.89993548 21.9134663,2.18747954 18.1512162,4.7374557 C14.3889662,7.28743185 14.3139712,11.9123886 16.9887935,15.5498546 C19.2471076,18.5160761 21.9845177,21.0846569 25.0882553,23.1497835 C25.0882553,23.1497835 33.1877172,18.2623292 34.7751118,12.9498789 C36.3625063,7.63742858 32.9127355,4.84995465 31.2128484,4.19996072 C29.5129614,3.5499668 27.0881225,4.37495909 25.2382454,6.89993548" id="Path" fill="#EF4651"></path>
            </g>
        </g>
    </g>
</svg>