<?xml version="1.0" encoding="UTF-8"?>
<svg width="100px" height="100px" viewBox="0 0 100 100" version="1.1" xmlns="http://www.w3.org/2000/svg" xmlns:xlink="http://www.w3.org/1999/xlink">
    <title>icon-assets-in-house</title>
    <g id="Design---2020" stroke="none" stroke-width="1" fill="none" fill-rule="evenodd">
        <g id="Investments" transform="translate(-71.000000, -2405.000000)" fill-rule="nonzero">
            <g id="Investment-section-icons_assets_in_house" transform="translate(71.000000, 2405.000000)">
                <ellipse id="Oval" fill="#52BF9B" cx="49.9937009" cy="50.0067893" rx="49.9937009" ry="49.9931578"></ellipse>
                <path d="M46.8690946,10.9471351 C61.5650841,10.9482679 75.5162214,17.4153298 85.0143337,28.6293942 C94.512446,39.8434585 98.5953721,54.6685376 96.1778818,69.1641674 C103.551102,51.4048815 100.084991,30.9907521 87.2632599,16.6602881 C74.4415283,2.32982412 54.53692,-3.37679634 36.0698375,1.98321296 C17.6027549,7.34322226 3.84662177,22.819761 0.689913072,41.7879142 C8.43321977,23.1179378 26.656861,10.9472741 46.8690946,10.9471351 Z" id="Path" fill="#153359"></path>
                <rect id="Rectangle" fill="#FFFFFF" x="60.9923151" y="51.5065841" width="2.99962205" height="40.4944578"></rect>
                <rect id="Rectangle" fill="#FFFFFF" x="35.9954646" y="31.0093893" width="2.99962205" height="60.9916525"></rect>
                <ellipse id="Oval" fill="#F2A11F" cx="37.4902763" cy="18.7610657" rx="18.7476378" ry="18.7474342"></ellipse>
                <ellipse id="Oval" fill="#FFFFFF" cx="48.4188993" cy="18.7610657" rx="1.56480284" ry="1.56478584"></ellipse>
                <ellipse id="Oval" fill="#FFFFFF" cx="26.5466552" cy="18.7610657" rx="1.56480284" ry="1.56478584"></ellipse>
                <path d="M37.4902763,0.0136314912 C27.1362418,0.0136314912 18.7426385,8.40714368 18.7426385,18.7610657 C18.7426385,29.1149877 27.1362418,37.5084999 37.4902763,37.5084999 C47.8443108,37.5084999 56.2379141,29.1149877 56.2379141,18.7610657 C56.2379141,13.788937 54.2627222,9.02045375 50.7468581,5.50462783 C47.230994,1.98880192 42.462459,0.0136314912 37.4902763,0.0136314912 Z M37.4902763,35.1638208 C28.4311864,35.1638208 21.087343,27.8200572 21.087343,18.7610657 C21.087343,9.70207419 28.4311864,2.35831059 37.4902763,2.35831059 C46.5493662,2.35831059 53.8932096,9.70207419 53.8932096,18.7610657 C53.882191,27.8154892 46.5447982,35.1528023 37.4902763,35.1638208 Z" id="Shape" fill="#DD7526"></path>
                <path d="M37.500275,29.1246473 C35.001704,29.1817807 32.7131824,27.7329908 31.6960064,25.4501502 C31.534364,25.0643562 31.5908213,24.6216335 31.8441112,24.2887517 C32.0974011,23.9558698 32.5090429,23.7834014 32.9239751,23.8363136 C33.3389074,23.8892258 33.6940919,24.15948 33.8557342,24.545274 C34.5206449,25.9463476 35.9500095,26.8227798 37.500275,26.7799682 C39.6400054,26.7799682 41.3847856,25.2451782 41.3847856,23.3554369 C41.3847856,21.7956504 40.7048713,19.9359049 37.4802776,19.9359049 C32.8908558,19.9359049 31.2510624,16.9363154 31.2510624,14.1666945 C31.2510624,11.0121262 34.0607084,8.40248337 37.4802776,8.40248337 C39.9780345,8.34313647 42.2669112,9.79017976 43.2845462,12.0719812 C43.5358041,12.6683671 43.2560173,13.3555159 42.659625,13.6067711 C42.0632326,13.8580262 41.3760763,13.5782425 41.1248184,12.9818566 C40.4623854,11.577931 39.0320505,10.6989419 37.4802776,10.7421632 C35.3405472,10.7421632 33.595767,12.2819524 33.595767,14.1666945 C33.595767,15.7314803 34.270682,17.5912258 37.4802776,17.5912258 C42.0896968,17.5912258 43.7294902,20.5908153 43.7294902,23.3554369 C43.7294902,26.5350017 40.9348423,29.1246473 37.500275,29.1246473 Z" id="Path" fill="#FFFFFF"></path>
                <path d="M35.9954646,9.66231095 L35.9954646,6.9526818 C35.9888219,6.46359052 36.2738113,6.01743951 36.7203733,5.81783711 C37.1093685,5.64362463 37.5600735,5.6779057 37.918244,5.90894835 C38.2764144,6.13999101 38.4934782,6.53646311 38.4951497,6.96268043 L38.4951497,9.65731164 C38.4944019,10.0836926 38.2771894,10.4805195 37.918424,10.7109353 C37.5596586,10.9413512 37.1084361,10.9738244 36.7203733,10.7971556 C36.2729116,10.5985985 35.9874952,10.1517791 35.9954646,9.66231095 Z" id="Path" fill="#FFFFFF"></path>
                <path d="M35.9954646,30.5694496 L35.9954646,27.8598204 C35.9874952,27.3703523 36.2729116,26.9235328 36.7203733,26.7249757 C37.1092439,26.5479387 37.5614749,26.580937 37.9205268,26.8125482 C38.2795786,27.0441594 38.4961028,27.4425507 38.4951528,27.869819 L38.4951528,30.5644502 C38.4944019,30.9908312 38.2771894,31.3876581 37.918424,31.6180739 C37.5596586,31.8484898 37.1084361,31.880963 36.7203733,31.7042942 C36.2720032,31.5067954 35.9861531,31.0592969 35.9954646,30.5694496 L35.9954646,30.5694496 Z" id="Path" fill="#FFFFFF"></path>
                <ellipse id="Oval" fill="#F2A11F" cx="62.4821274" cy="39.0732857" rx="18.7476378" ry="18.7474342"></ellipse>
                <ellipse id="Oval" fill="#FFFFFF" cx="73.405751" cy="39.0732857" rx="1.56480284" ry="1.56478584"></ellipse>
                <ellipse id="Oval" fill="#FFFFFF" cx="51.5335069" cy="39.0732857" rx="1.56480284" ry="1.56478584"></ellipse>
                <path d="M62.4821274,20.3258515 C52.1280929,20.3258515 43.7344895,28.7193637 43.7344895,39.0732857 C43.7344895,49.4272077 52.1280929,57.8207199 62.4821274,57.8207199 C72.8361618,57.8207199 81.2297652,49.4272077 81.2297652,39.0732857 C81.2297652,34.101157 79.2545733,29.3326738 75.7387092,25.8168479 C72.2228451,22.3010219 67.4543101,20.3258515 62.4821274,20.3258515 Z M62.4821274,55.4760408 C53.4230375,55.4760408 46.0791941,48.1322772 46.0791941,39.0732857 C46.0791941,30.0142942 53.4230375,22.6705306 62.4821274,22.6705306 C71.5412173,22.6705306 78.8850606,30.0142942 78.8850606,39.0732857 C78.8767919,48.12885 71.53779,55.4677721 62.4821274,55.4760408 Z" id="Shape" fill="#DD7526"></path>
                <path d="M62.4871267,49.4368673 C59.9889303,49.4926519 57.7010931,48.0442952 56.6828581,45.7623702 C56.4316002,45.1659843 56.711387,44.4788355 57.3077794,44.2275803 C57.9041717,43.9763252 58.591328,44.2561089 58.842586,44.8524947 C59.5070281,46.2546196 60.9360527,47.1328035 62.4871267,47.0921882 C64.6318565,47.0921882 66.3766367,45.552399 66.3766367,43.6676569 C66.3766367,42.1078704 65.6967223,40.2431256 62.4721286,40.2431256 C57.8777075,40.2431256 56.2429135,37.2435361 56.2429135,34.4789145 C56.2429135,31.2993497 59.0375614,28.7097041 62.4721286,28.7097041 C64.9703251,28.6539195 67.2581623,30.1022762 68.2763973,32.3842012 C68.5276552,32.9805871 68.2478684,33.6677359 67.651476,33.9189911 C67.0550837,34.1702462 66.3679274,33.8904625 66.1166694,33.2940767 C65.4522272,31.8919518 64.0232027,31.0137679 62.4721286,31.0543832 C60.3323982,31.0543832 58.5876181,32.5891731 58.5876181,34.4789145 C58.5876181,36.038701 59.262533,37.9034458 62.4721286,37.9034458 C67.0765485,37.9034458 68.7163419,40.8780387 68.7163419,43.6676569 C68.7163419,46.8472217 65.921694,49.4368673 62.4871267,49.4368673 Z" id="Path" fill="#FFFFFF"></path>
                <path d="M60.9923151,29.974531 L60.9923151,27.2649018 C60.9843457,26.7754337 61.2697621,26.3286143 61.7172238,26.1300571 C62.1052865,25.9533884 62.556509,25.9858616 62.9152744,26.2162775 C63.2740399,26.4466933 63.4912524,26.8435201 63.4920001,27.2699011 L63.4920001,29.9695317 C63.4912524,30.3959126 63.2740399,30.7927395 62.9152744,31.0231553 C62.556509,31.2535712 62.1052865,31.2860444 61.7172238,31.1093757 C61.2697621,30.9108185 60.9843457,30.4639991 60.9923151,29.974531 Z" id="Path" fill="#FFFFFF"></path>
                <path d="M60.9923151,50.8816696 L60.9923151,48.1720404 C60.9843457,47.6825723 61.2697621,47.2357529 61.7172238,47.0371957 C62.1052865,46.860527 62.556509,46.8930002 62.9152744,47.1234161 C63.2740399,47.3538319 63.4912524,47.7506588 63.4920001,48.1770397 L63.4920001,50.8766703 C63.4912524,51.3030513 63.2740399,51.6998781 62.9152744,51.9302939 C62.556509,52.1607098 62.1052865,52.193183 61.7172238,52.0165143 C61.2697621,51.8179571 60.9843457,51.3711377 60.9923151,50.8816696 Z" id="Path" fill="#FFFFFF"></path>
                <path d="M64.1619157,79.5027524 L76.5553542,79.5027524 C85.1146893,79.5027524 92.0534015,72.5641157 92.0534015,64.0048735 L79.6549636,64.0048735 C71.0956285,64.0048735 64.1569164,70.9435102 64.1569164,79.5027524 L64.1619157,79.5027524 Z" id="Path" fill="#1C7065"></path>
                <path d="M64.056929,79.5027524 L76.5553542,79.5027524 C85.1837162,79.5027524 92.1783857,72.5081589 92.1783857,63.8798906 L92.1783857,63.8798906 C92.1783857,63.8798906 77.4802376,67.7443617 64.056929,79.5027524 Z" id="Path" fill="#8DC63F"></path>
                <path d="M60.8123378,73.5035735 L48.4138999,73.5035735 C39.8545648,73.5035735 32.9158527,66.5649368 32.9158527,58.0056946 L45.3142905,58.0056946 C53.8736257,58.0056946 60.8123378,64.9443313 60.8123378,73.5035735 L60.8123378,73.5035735 Z" id="Path" fill="#1C7065"></path>
                <path d="M60.9273233,73.5035735 L48.4288981,73.5035735 C39.800536,73.5035735 32.8058665,66.50898 32.8058665,57.8807117 L32.8058665,57.8807117 C32.8058665,57.8807117 47.4940158,61.7451828 60.9273233,73.5035735 Z" id="Path" fill="#8DC63F"></path>
                <path d="M35.8154873,53.0063788 L23.4170495,53.0063788 C14.8577143,53.0063788 7.91900222,46.067742 7.91900222,37.5084999 L20.31744,37.5084999 C24.4277777,37.5084999 28.3697667,39.1413074 31.2762144,42.0477235 C34.182662,44.9541396 35.8154873,48.8960857 35.8154873,53.0063788 Z" id="Path" fill="#1C7065"></path>
                <path d="M35.9254735,53.0063788 L23.4270482,53.0063788 C14.7986862,53.0063788 7.80401671,46.0117853 7.80401671,37.383517 L7.80401671,37.383517 C7.80401671,37.383517 22.4971654,41.2479881 35.9254735,53.0063788 Z" id="Path" fill="#8DC63F"></path>
                <path d="M35.8154873,79.5027524 L23.4170495,79.5027524 C14.8577143,79.5027524 7.91900222,72.5641157 7.91900222,64.0048735 L20.31744,64.0048735 C24.4277777,64.0048735 28.3697667,65.6376811 31.2762144,68.5440972 C34.182662,71.4505132 35.8154873,75.3924594 35.8154873,79.5027524 Z" id="Path" fill="#1C7065"></path>
                <path d="M35.9254735,79.5027524 L23.4270482,79.5027524 C14.7986862,79.5027524 7.80401671,72.5081589 7.80401671,63.8798906 L7.80401671,63.8798906 C7.80401671,63.8798906 22.4971654,67.7443617 35.9254735,79.5027524 Z" id="Path" fill="#8DC63F"></path>
                <path d="M49.9937009,100 C62.1717214,100.017684 73.933864,95.5711334 83.0545353,87.5016577 L16.9428652,87.5016577 C26.0614458,95.5680379 37.819293,100.014309 49.9937009,100 Z" id="Path" fill="#153359"></path>
            </g>
        </g>
    </g>
</svg>