<?xml version="1.0" encoding="UTF-8"?>
<svg width="76px" height="76px" viewBox="0 0 76 76" version="1.1" xmlns="http://www.w3.org/2000/svg" xmlns:xlink="http://www.w3.org/1999/xlink">
    <title>icon-payments</title>
    <g id="Design---2020" stroke="none" stroke-width="1" fill="none" fill-rule="evenodd">
        <g id="Review" transform="translate(-617.000000, -1572.000000)" fill-rule="nonzero">
            <g id="icon-payments" transform="translate(617.000000, 1572.000000)">
                <path d="M21.6891825,62.7971028 L53.8715111,62.7971028 L53.8715111,8.12083922 C53.9548182,6.63441082 53.2068186,5.22393317 51.9278269,4.45569953 C50.6488352,3.6874659 49.0486049,3.6874659 47.7696132,4.45569953 C46.4906215,5.22393317 45.7426219,6.63441082 45.825929,8.12083922 L45.825929,4.24131491 C45.9092361,2.75488652 45.1612364,1.34440886 43.8822447,0.576175227 C42.603253,-0.192058409 41.0030228,-0.192058409 39.7240311,0.576175227 C38.4450394,1.34440886 37.6970397,2.75488652 37.7803468,4.24131491 L37.7803468,4.24131491 C37.8636539,2.75488652 37.1156543,1.34440886 35.8366626,0.576175227 C34.5576709,-0.192058409 32.9574406,-0.192058409 31.6784489,0.576175227 C30.3994572,1.34440886 29.6514576,2.75488652 29.7347647,4.24131491 L29.7347647,7.08212787 C29.6154875,4.95389414 27.8498322,3.28907309 25.7119736,3.28907309 C23.5741149,3.28907309 21.8084597,4.95389414 21.6891825,7.08212787 L21.6891825,62.7971028 Z" id="Path" fill="#F3D3CF"></path>
                <rect id="Rectangle" fill="#1B7065" x="0" y="6.14353328" width="76" height="40.2594506"></rect>
                <path d="M65.2683732,41.6724672 L10.6939719,41.6724672 C10.6939792,38.4012405 8.03795533,35.7474507 4.75706028,35.7405494 L4.75706028,16.8059678 C8.03795533,16.7990665 10.6939792,14.1452767 10.6939719,10.87405 L65.2683732,10.87405 C65.2683659,14.1452767 67.9243898,16.7990665 71.2052849,16.8059678 L71.2052849,35.7405494 C67.9243898,35.7474507 65.2683659,38.4012405 65.2683732,41.6724672" id="Path" fill="#8DC63F"></path>
                <path d="M20.7854666,26.2670013 C20.7716197,28.8832026 18.6357189,30.9941661 16.0117591,30.9850041 C13.3877993,30.9757823 11.2668282,28.8499067 11.2714121,26.233673 C11.2760108,23.6174394 13.4044303,21.4989408 16.0284063,21.4989408 C18.6507642,21.4989408 20.7785474,23.6148422 20.7854666,26.2294575" id="Path" fill="#1B7065"></path>
                <path d="M18.4006606,26.2670013 C18.4006606,27.5732974 17.3385662,28.6322597 16.0284063,28.6322597 C14.7182464,28.6322597 13.6561519,27.5732974 13.6561519,26.2670013 C13.6561519,24.9607052 14.7182464,23.9017429 16.0284063,23.9017429 C16.6575672,23.9017429 17.2609594,24.1509391 17.7058434,24.5945111 C18.1507274,25.0380831 18.4006606,25.6396958 18.4006606,26.2670013" id="Path" fill="#FFFFFF"></path>
                <path d="M64.728654,26.2670013 C64.7148072,28.8832026 62.5789063,30.9941661 59.9549465,30.9850041 C57.3309867,30.9757823 55.2100157,28.8499067 55.2145995,26.233673 C55.2191982,23.6174394 57.3476177,21.4989408 59.9715937,21.4989408 C62.5939517,21.4989408 64.7217349,23.6148422 64.728654,26.2294575" id="Path" fill="#1B7065"></path>
                <path d="M62.3564329,26.2670013 C62.3614823,27.2298433 61.7836766,28.1006991 60.8929501,28.4726795 C60.0022237,28.84466 58.9744242,28.6443284 58.2897695,27.9652857 C57.6051148,27.2862429 57.3987699,26.2625459 57.767145,25.3724957 C58.1355201,24.4824455 59.0058904,23.9017429 59.9715937,23.9017429 C61.2837995,23.9017429 62.3494933,24.9586834 62.3564329,26.2670013" id="Path" fill="#FFFFFF"></path>
                <path d="M50.4700311,26.2670013 C50.4751012,31.3005863 47.4372103,35.8411123 42.7739986,37.7697207 C38.110787,39.6983291 32.7414653,38.6348532 29.1716538,35.0755693 C25.6018422,31.5162854 24.5352208,26.1627984 26.4695337,21.5133389 C28.4038465,16.8638794 32.9578024,13.8349475 38.0062758,13.8400026 C44.8869464,13.8469072 50.463106,19.4066223 50.4700311,26.2670013" id="Path" fill="#1B7065"></path>
                <path d="M48.0977704,26.2670013 C48.0977704,31.7962971 43.6021326,36.2786769 38.0564822,36.2786769 C32.5108319,36.2786769 28.0151941,31.7962971 28.0151941,26.2670013 C28.0151941,20.7377055 32.5108319,16.2553257 38.0564822,16.2553257 C43.6021326,16.2553257 48.0977704,20.7377055 48.0977704,26.2670013" id="Path" fill="#FFFFFF"></path>
                <path d="M63.4609414,33.4003202 C63.5062388,30.9722699 61.8421066,28.8434535 59.4695293,28.2943656 C57.9807475,27.9715372 56.4254825,28.3402236 55.2417398,29.2965925 C54.0579972,30.2529615 53.3738593,31.6935325 53.3819983,33.2126013 L53.3819983,40.6212412 C53.1783334,44.6267038 50.2725547,47.9827239 46.3279934,48.7682423 L46.3279934,62.7971028 L53.8589595,62.7971028 C53.8589595,62.7971028 53.6455822,58.4295093 56.0805945,56.3646012 L60.1096614,52.3349017 C62.2463316,50.2087748 63.4474672,47.3228451 63.4483898,44.3130466 L63.4609414,33.4003202 Z" id="Path" fill="#F3D3CF"></path>
                <path d="M21.6515277,76 L53.8966144,76 C54.4185881,76 54.8436687,75.5817948 54.8505367,75.0614054 L54.8505367,63.7982703 C54.8505367,63.2729872 54.4234512,62.8471611 53.8966144,62.8471611 L21.6515277,62.8471611 C21.1295991,62.854009 20.7101569,63.2778359 20.7101569,63.7982703 L20.7101569,75.0614054 C20.716917,75.5769592 21.1344489,75.9932599 21.6515277,76" id="Path" fill="#40BEEE"></path>
                <path d="M48.5998348,67.6276983 C49.4436828,67.6226677 50.2072707,68.1255893 50.5337259,68.9014539 C50.860181,69.6773186 50.6850313,70.5728999 50.0901354,71.1696363 C49.4952394,71.7663727 48.5980837,71.9464139 47.8179659,71.6256155 C47.0378482,71.304817 46.5288192,70.5465335 46.5288192,69.7051589 C46.5288192,68.5626996 47.4540171,67.6346185 48.5998348,67.6276983" id="Path" fill="#B4CBE9"></path>
                <path d="M2.58563171,53.6364196 C3.53103761,53.6364196 4.43772214,54.010873 5.10622506,54.6774045 C5.77472799,55.3439359 6.15028902,56.2479466 6.15028902,57.1905644 C6.14695242,56.2490992 6.51971757,55.3450534 7.18622859,54.6781597 C7.85273961,54.0112661 8.75813897,53.6364137 9.70239472,53.6364196 C8.75813897,53.6364254 7.85273961,53.2615731 7.18622859,52.5946794 C6.51971757,51.9277858 6.14695242,51.0237399 6.15028902,50.0822747 C6.15028902,52.0451747 4.55433758,53.6364196 2.58563171,53.6364196" id="Path" fill="#A6228B"></path>
                <path d="M10.6939719,66.5514811 C12.6626778,66.5514811 14.2586292,68.142726 14.2586292,70.105626 C14.2586171,68.1476029 15.8469325,66.5583756 17.8107349,66.5514811 C15.8489611,66.5514811 14.2586292,64.9658392 14.2586292,63.0098509 C14.2517144,64.9678618 12.6577865,66.5514933 10.6939719,66.5514811" id="Path" fill="#A6228B"></path>
                <path d="M65.2683732,53.6364196 C67.2370791,53.6364196 68.8330306,55.2276644 68.8330306,57.1905644 C68.8330306,55.2276644 70.428982,53.6364196 72.3976879,53.6364196 C71.452282,53.6364196 70.5455974,53.2619661 69.8770945,52.5954346 C69.2085916,51.9289032 68.8330306,51.0248925 68.8330306,50.0822747 C68.8330306,51.0248925 68.4574695,51.9289032 67.7889666,52.5954346 C67.1204637,53.2619661 66.2137791,53.6364196 65.2683732,53.6364196" id="Path" fill="#A6228B"></path>
                <path d="M58.7917424,68.5162725 C60.7604482,68.5162725 62.3563997,70.1075173 62.3563997,72.0704173 C62.3530631,71.1289521 62.7258282,70.2249063 63.3923392,69.5580126 C64.0588503,68.891119 64.9642496,68.5162666 65.9085054,68.5162725 C64.9642496,68.5162783 64.0588503,68.141426 63.3923392,67.4745323 C62.7258282,66.8076387 62.3530631,65.9035928 62.3563997,64.9621276 C62.3563997,66.9250276 60.7604482,68.5162725 58.7917424,68.5162725" id="Path" fill="#A6228B"></path>
                <path d="M38.0062758,33.2000867 C36.3092859,33.2356894 34.7582252,32.2475191 34.0776218,30.6971678 C33.8869901,30.2444567 34.1005329,29.72338 34.554583,29.5333105 C35.0086331,29.3432409 35.531251,29.556154 35.7218827,30.0088651 C36.1481905,30.8765275 37.0373063,31.4220621 38.0062758,31.4104997 C39.2664814,31.4825072 40.353561,30.5375916 40.4538398,29.2830186 C40.4538398,27.8688694 39.6254335,27.1430229 37.9435178,27.1430229 C36.8424085,27.2769847 35.7380773,26.920052 34.925207,26.1674698 C34.1123366,25.4148876 33.6736387,24.3432331 33.7261767,23.2384694 C33.8146429,21.0015217 35.6995562,19.2564067 37.9435178,19.3339159 C39.6440747,19.2966044 41.1996701,20.2845075 41.8847234,21.8368348 C42.0753551,22.2895459 41.8618123,22.8106226 41.4077622,23.0006921 C40.9537121,23.1907617 40.4310942,22.9778486 40.2404624,22.5251375 C39.8122109,21.6533426 38.9169944,21.1070663 37.9435178,21.1235029 C36.6833342,21.0448219 35.5957336,21.9950634 35.5085054,23.250984 C35.5085054,24.6651332 36.32436,25.3909797 37.9435178,25.3909797 C41.0688687,25.3909797 42.185962,27.4058294 42.185962,29.2955332 C42.0907907,31.5344353 40.2022608,33.2777102 37.9560694,33.2000867" id="Path" fill="#1B7065"></path>
                <path d="M37.9937242,21.1235029 C37.5015477,21.1235029 37.1025599,20.7256917 37.1025599,20.2349667 L37.1025599,18.5830403 C37.1025599,18.0923153 37.5015477,17.694504 37.9937242,17.694504 C38.4859007,17.694504 38.8848885,18.0923153 38.8848885,18.5830403 L38.8848885,20.2474813 C38.8848885,20.7382063 38.4859007,21.1360175 37.9937242,21.1360175" id="Path" fill="#1B7065"></path>
                <path d="M37.9937242,34.8520132 C37.5015477,34.8520132 37.1025599,34.4542019 37.1025599,33.9634769 L37.1025599,32.3115505 C37.1025599,31.8208255 37.5015477,31.4230143 37.9937242,31.4230143 C38.4859007,31.4230143 38.8848885,31.8208255 38.8848885,32.3115505 L38.8848885,34.0135353 C38.8848885,34.5042603 38.4859007,34.9020715 37.9937242,34.9020715" id="Path" fill="#1B7065"></path>
            </g>
        </g>
    </g>
</svg>