<?xml version="1.0" encoding="UTF-8"?>
<svg width="95px" height="95px" viewBox="0 0 95 95" version="1.1" xmlns="http://www.w3.org/2000/svg" xmlns:xlink="http://www.w3.org/1999/xlink">
    <title>icons_resources</title>
    <g id="Design---2020" stroke="none" stroke-width="1" fill="none" fill-rule="evenodd">
        <g id="Welcome---D" transform="translate(-776.000000, -1441.000000)" fill-rule="nonzero">
            <g id="icons_resources" transform="translate(776.000000, 1441.000000)">
                <polygon id="Path" fill="#2D5271" points="44.53 22.27 0 46.02 44.53 69.77 89.06 46.02"></polygon>
                <polygon id="Path" fill="#52BF9B" points="89.06 71.25 44.53 95 44.53 69.77 89.06 46.02"></polygon>
                <polygon id="Path" fill="#1C7065" points="44.53 95 44.53 69.77 0 46.02 0 71.25"></polygon>
                <polygon id="Path" fill="#40BEEE" points="95 43.045 92.03 46.015 32.655 2.97 35.625 0 95 0"></polygon>
                <polygon id="Path" fill="#52BF9B" points="92.03 46.015 66.795 46.015 44.53 57.895 44.53 46.015 32.655 46.015 32.655 2.97 92.03 2.97"></polygon>
                <path d="M44.77,27.385 C44.4496253,25.4716517 44.4496253,23.5183483 44.77,21.605 L50.835,20.64 C51.0153817,20.1072346 51.2325716,19.5876495 51.485,19.085 L47.88,14.12 C49.008469,12.540711 50.3884749,11.157327 51.965,10.025 L56.93,13.635 C57.4383763,13.3880842 57.9629132,13.1759308 58.5,13 L59.465,6.935 C60.4201996,6.77650808 61.3867415,6.69624162 62.355,6.695 L62.355,6.695 C63.3232669,6.69604094 64.2898252,6.77630875 65.245,6.935 L66.2,13 C66.7334795,13.1808298 67.2545872,13.3962878 67.76,13.645 L72.73,10.04 C74.3053564,11.1737006 75.6851545,12.5568764 76.815,14.135 L73.205,19.1 C73.4616209,19.6007129 73.6789418,20.1206114 73.855,20.655 L79.915,21.62 C80.2353747,23.5333483 80.2353747,25.4866517 79.915,27.4 L73.855,28.35 C73.6798607,28.8863459 73.4625144,29.4079771 73.205,29.91 L76.815,34.88 C75.6825685,36.454504 74.3031175,37.8356433 72.73,38.97 L67.76,35.36 C67.2563171,35.6111215 66.7349232,35.8250267 66.2,36 L65.235,42.065 C64.2795498,42.2203415 63.3129933,42.2972646 62.345,42.2950486 L62.345,42.2950486 C61.3770145,42.297064 60.4104743,42.2201422 59.455,42.065 L58.5,36 C57.965932,35.8187737 57.4447411,35.6016108 56.94,35.35 L51.975,38.96 C50.4009089,37.8267871 49.0212866,36.4454762 47.89,34.87 L51.5,29.91 C51.2466821,29.4060406 51.0294692,28.8847297 50.85,28.35 L44.77,27.385 Z" id="Path" fill="#153359"></path>
                <path d="M50.83,20.64 L50.83,20.64 C50.86,20.565 50.845,20.605 50.83,20.64 Z" id="Path" fill="#1D3283"></path>
                <path d="M66.2,36 L66.2,36 C66.24,36 66.28,36 66.2,36 Z" id="Path" fill="#1D3283"></path>
                <path d="M65.235,42.075 L66.2,36 C66.16,36 66.125,36 66.2,36 C58.0934551,35.143554 51.6888084,28.7368231 50.835,20.63 C50.805,20.71 50.835,20.67 50.835,20.63 L44.77,21.605 C44.4496253,23.5183483 44.4496253,25.4716517 44.77,27.385 L50.835,28.35 C51.0144692,28.8847297 51.2316821,29.4060406 51.485,29.91 L47.88,34.88 C49.0099247,36.4566315 50.3897519,37.8381475 51.965,38.97 L56.93,35.36 C57.4382458,35.6086195 57.9627854,35.8224445 58.5,36 L59.465,42.065 C60.4204743,42.2201422 61.3870145,42.297064 62.355,42.295 L62.355,42.295 C63.3193825,42.3000267 64.2825706,42.2264499 65.235,42.075 L65.235,42.075 Z" id="Path" fill="#2D5271"></path>
                <path d="M68.58,24.5 C68.58,21.0565046 65.7884954,18.265 62.345,18.265 C58.9015046,18.265 56.11,21.0565046 56.11,24.5 C56.11,27.9434954 58.9015046,30.735 62.345,30.735 C65.7884954,30.735 68.58,27.9434954 68.58,24.5 Z" id="Path" fill="#40BEEE"></path>
                <polygon id="Path" fill="#F2A11F" points="8.285 0 10.85 5.19 16.575 6.02 12.43 10.06 13.405 15.765 8.285 13.07 3.165 15.765 4.145 10.06 0 6.02 5.725 5.19"></polygon>
                <polygon id="Path" fill="#F2A11F" points="22.46 12.385 24.28 16.07 28.35 16.665 25.405 19.535 26.1 23.585 22.46 21.675 18.82 23.585 19.515 19.535 16.575 16.665 20.64 16.07"></polygon>
                <polygon id="Path" fill="#F2A11F" points="10.435 23.98 12.045 27.245 15.65 27.765 13.04 30.31 13.655 33.895 10.435 32.205 7.21 33.895 7.825 30.31 5.22 27.765 8.825 27.245"></polygon>
            </g>
        </g>
    </g>
</svg>