<?xml version="1.0" encoding="UTF-8"?>
<svg width="80px" height="80px" viewBox="0 0 80 80" version="1.1" xmlns="http://www.w3.org/2000/svg" xmlns:xlink="http://www.w3.org/1999/xlink">
    <title>icon-funded</title>
    <g id="Design---2020" stroke="none" stroke-width="1" fill="none" fill-rule="evenodd">
        <g id="Review" transform="translate(-616.000000, -1434.000000)" fill-rule="nonzero">
            <g id="icon-funded" transform="translate(616.000000, 1434.000000)">
                <path d="M25,49.375 L1.25,49.375 L1.25,51.875 C1.25,52.220178 1.52982203,52.5 1.875,52.5 L24.375,52.5 C24.720178,52.5 25,52.220178 25,51.875 L25,49.375 Z" id="Path" fill="#1B7065"></path>
                <path d="M24.375,46.25 L1.875,46.25 C1.53261443,46.2566501 1.25665013,46.5326144 1.25,46.875 L1.25,49.375 L25,49.375 L25,46.875 C25,46.529822 24.720178,46.25 24.375,46.25" id="Path" fill="#52BF9B"></path>
                <rect id="Rectangle" fill="#2D5271" x="15.3125" y="47.5" width="1.875" height="3.75"></rect>
                <rect id="Rectangle" fill="#2D5271" x="20.3125" y="47.5" width="1.875" height="3.75"></rect>
                <rect id="Rectangle" fill="#2D5271" x="9.0625" y="47.5" width="1.875" height="3.75"></rect>
                <rect id="Rectangle" fill="#2D5271" x="4.0625" y="47.5" width="1.875" height="3.75"></rect>
                <path d="M77.5,49.375 L53.75,49.375 L53.75,51.875 C53.75,52.220178 54.029822,52.5 54.375,52.5 L76.875,52.5 C77.220178,52.5 77.5,52.220178 77.5,51.875 L77.5,49.375 Z" id="Path" fill="#DE7526"></path>
                <path d="M76.875,46.25 L54.375,46.25 C54.0326144,46.2566501 53.7566501,46.5326144 53.75,46.875 L53.75,49.375 L77.5,49.375 L77.5,46.875 C77.5,46.529822 77.220178,46.25 76.875,46.25" id="Path" fill="#F2A11F"></path>
                <rect id="Rectangle" fill="#DC4D26" x="67.8125" y="47.5" width="1.875" height="3.75"></rect>
                <rect id="Rectangle" fill="#DC4D26" x="72.8125" y="47.5" width="1.875" height="3.75"></rect>
                <rect id="Rectangle" fill="#DC4D26" x="61.5625" y="47.5" width="1.875" height="3.75"></rect>
                <rect id="Rectangle" fill="#DC4D26" x="56.5625" y="47.5" width="1.875" height="3.75"></rect>
                <path d="M78.75,56.25 L55,56.25 L55,58.75 C55,59.095178 55.279822,59.375 55.625,59.375 L78.125,59.375 C78.470178,59.375 78.75,59.095178 78.75,58.75 L78.75,56.25 Z" id="Path" fill="#DE7526"></path>
                <path d="M78.125,53.125 L55.625,53.125 C55.2826144,53.1316501 55.0066501,53.4076144 55,53.75 L55,56.25 L78.75,56.25 L78.75,53.75 C78.75,53.404822 78.470178,53.125 78.125,53.125" id="Path" fill="#F2A11F"></path>
                <rect id="Rectangle" fill="#DC4D26" x="69.0625" y="54.375" width="1.875" height="3.75"></rect>
                <rect id="Rectangle" fill="#DC4D26" x="74.0625" y="54.375" width="1.875" height="3.75"></rect>
                <rect id="Rectangle" fill="#DC4D26" x="62.8125" y="54.375" width="1.875" height="3.75"></rect>
                <rect id="Rectangle" fill="#DC4D26" x="57.8125" y="54.375" width="1.875" height="3.75"></rect>
                <path d="M76.25,63.125 L52.5,63.125 L52.5,65.625 C52.5,65.970178 52.779822,66.25 53.125,66.25 L75.625,66.25 C75.970178,66.25 76.25,65.970178 76.25,65.625 L76.25,63.125 Z" id="Path" fill="#DE7526"></path>
                <path d="M75.625,60 L53.125,60 C52.7826144,60.0066501 52.5066501,60.2826144 52.5,60.625 L52.5,63.125 L76.25,63.125 L76.25,60.625 C76.25,60.279822 75.970178,60 75.625,60" id="Path" fill="#F2A11F"></path>
                <rect id="Rectangle" fill="#DC4D26" x="66.5625" y="61.25" width="1.875" height="3.75"></rect>
                <rect id="Rectangle" fill="#DC4D26" x="71.5625" y="61.25" width="1.875" height="3.75"></rect>
                <rect id="Rectangle" fill="#DC4D26" x="60.3125" y="61.25" width="1.875" height="3.75"></rect>
                <rect id="Rectangle" fill="#DC4D26" x="55.3125" y="61.25" width="1.875" height="3.75"></rect>
                <path d="M77.5,35.625 L53.75,35.625 L53.75,38.125 C53.75,38.470178 54.029822,38.75 54.375,38.75 L76.875,38.75 C77.220178,38.75 77.5,38.470178 77.5,38.125 L77.5,35.625 Z" id="Path" fill="#DE7526"></path>
                <path d="M76.875,32.5 L54.375,32.5 C54.0326144,32.5066501 53.7566501,32.7826144 53.75,33.125 L53.75,35.625 L77.5,35.625 L77.5,33.125 C77.5,32.779822 77.220178,32.5 76.875,32.5" id="Path" fill="#F2A11F"></path>
                <rect id="Rectangle" fill="#DC4D26" x="67.8125" y="33.75" width="1.875" height="3.75"></rect>
                <rect id="Rectangle" fill="#DC4D26" x="72.8125" y="33.75" width="1.875" height="3.75"></rect>
                <rect id="Rectangle" fill="#DC4D26" x="61.5625" y="33.75" width="1.875" height="3.75"></rect>
                <rect id="Rectangle" fill="#DC4D26" x="56.5625" y="33.75" width="1.875" height="3.75"></rect>
                <path d="M78.75,42.5 L55,42.5 L55,45 C55,45.345178 55.279822,45.625 55.625,45.625 L78.125,45.625 C78.470178,45.625 78.75,45.345178 78.75,45 L78.75,42.5 Z" id="Path" fill="#DE7526"></path>
                <path d="M78.125,39.375 L55.625,39.375 C55.2826144,39.3816501 55.0066501,39.6576144 55,40 L55,42.5 L78.75,42.5 L78.75,40 C78.75,39.654822 78.470178,39.375 78.125,39.375" id="Path" fill="#F2A11F"></path>
                <rect id="Rectangle" fill="#DC4D26" x="69.0625" y="40.625" width="1.875" height="3.75"></rect>
                <rect id="Rectangle" fill="#DC4D26" x="74.0625" y="40.625" width="1.875" height="3.75"></rect>
                <rect id="Rectangle" fill="#DC4D26" x="62.8125" y="40.625" width="1.875" height="3.75"></rect>
                <rect id="Rectangle" fill="#DC4D26" x="57.8125" y="40.625" width="1.875" height="3.75"></rect>
                <path d="M80,28.75 L56.25,28.75 L56.25,31.25 C56.25,31.595178 56.529822,31.875 56.875,31.875 L79.375,31.875 C79.720178,31.875 80,31.595178 80,31.25 L80,28.75 Z" id="Path" fill="#DE7526"></path>
                <path d="M79.375,25.625 L56.875,25.625 C56.529822,25.625 56.25,25.904822 56.25,26.25 L56.25,28.75 L80,28.75 L80,26.25 C80,25.904822 79.720178,25.625 79.375,25.625" id="Path" fill="#F2A11F"></path>
                <rect id="Rectangle" fill="#DC4D26" x="70.3125" y="26.875" width="1.875" height="3.75"></rect>
                <rect id="Rectangle" fill="#DC4D26" x="75.3125" y="26.875" width="1.875" height="3.75"></rect>
                <rect id="Rectangle" fill="#DC4D26" x="64.0625" y="26.875" width="1.875" height="3.75"></rect>
                <rect id="Rectangle" fill="#DC4D26" x="59.0625" y="26.875" width="1.875" height="3.75"></rect>
                <path d="M77.5,70 L53.75,70 L53.75,72.5 C53.75,72.845178 54.029822,73.125 54.375,73.125 L76.875,73.125 C77.220178,73.125 77.5,72.845178 77.5,72.5 L77.5,70 Z" id="Path" fill="#DE7526"></path>
                <path d="M76.875,66.875 L54.375,66.875 C54.0326144,66.8816501 53.7566501,67.1576144 53.75,67.5 L53.75,70 L77.5,70 L77.5,67.5 C77.5,67.154822 77.220178,66.875 76.875,66.875" id="Path" fill="#F2A11F"></path>
                <rect id="Rectangle" fill="#DC4D26" x="67.8125" y="68.125" width="1.875" height="3.75"></rect>
                <rect id="Rectangle" fill="#DC4D26" x="72.8125" y="68.125" width="1.875" height="3.75"></rect>
                <rect id="Rectangle" fill="#DC4D26" x="61.5625" y="68.125" width="1.875" height="3.75"></rect>
                <rect id="Rectangle" fill="#DC4D26" x="56.5625" y="68.125" width="1.875" height="3.75"></rect>
                <path d="M77.5,76.875 L53.75,76.875 L53.75,79.375 C53.75,79.720178 54.029822,80 54.375,80 L76.875,80 C77.220178,80 77.5,79.720178 77.5,79.375 L77.5,76.875 Z" id="Path" fill="#DE7526"></path>
                <path d="M76.875,73.75 L54.375,73.75 C54.0326144,73.7566501 53.7566501,74.0326144 53.75,74.375 L53.75,76.875 L77.5,76.875 L77.5,74.375 C77.5,74.029822 77.220178,73.75 76.875,73.75" id="Path" fill="#F2A11F"></path>
                <rect id="Rectangle" fill="#DC4D26" x="67.8125" y="75" width="1.875" height="3.75"></rect>
                <rect id="Rectangle" fill="#DC4D26" x="72.8125" y="75" width="1.875" height="3.75"></rect>
                <rect id="Rectangle" fill="#DC4D26" x="61.5625" y="75" width="1.875" height="3.75"></rect>
                <rect id="Rectangle" fill="#DC4D26" x="56.5625" y="75" width="1.875" height="3.75"></rect>
                <path d="M26.25,56.25 L2.5,56.25 L2.5,58.75 C2.5,59.095178 2.77982203,59.375 3.125,59.375 L25.625,59.375 C25.970178,59.375 26.25,59.095178 26.25,58.75 L26.25,56.25 Z" id="Path" fill="#1B7065"></path>
                <path d="M25.625,53.125 L3.125,53.125 C2.77982203,53.125 2.5,53.404822 2.5,53.75 L2.5,56.25 L26.25,56.25 L26.25,53.75 C26.25,53.404822 25.970178,53.125 25.625,53.125" id="Path" fill="#52BF9B"></path>
                <rect id="Rectangle" fill="#2D5271" x="16.5625" y="54.375" width="1.875" height="3.75"></rect>
                <rect id="Rectangle" fill="#2D5271" x="21.5625" y="54.375" width="1.875" height="3.75"></rect>
                <rect id="Rectangle" fill="#2D5271" x="10.3125" y="54.375" width="1.875" height="3.75"></rect>
                <rect id="Rectangle" fill="#2D5271" x="5.3125" y="54.375" width="1.875" height="3.75"></rect>
                <path d="M23.75,63.125 L0,63.125 L0,65.625 C0,65.970178 0.279822031,66.25 0.625,66.25 L23.125,66.25 C23.470178,66.25 23.75,65.970178 23.75,65.625 L23.75,63.125 Z" id="Path" fill="#1B7065"></path>
                <path d="M23.125,60 L0.625,60 C0.279822031,60 0,60.279822 0,60.625 L0,63.125 L23.75,63.125 L23.75,60.625 C23.75,60.279822 23.470178,60 23.125,60" id="Path" fill="#52BF9B"></path>
                <rect id="Rectangle" fill="#2D5271" x="14.0625" y="61.25" width="1.875" height="3.75"></rect>
                <rect id="Rectangle" fill="#2D5271" x="19.0625" y="61.25" width="1.875" height="3.75"></rect>
                <rect id="Rectangle" fill="#2D5271" x="7.8125" y="61.25" width="1.875" height="3.75"></rect>
                <rect id="Rectangle" fill="#2D5271" x="2.8125" y="61.25" width="1.875" height="3.75"></rect>
                <path d="M26.25,70 L2.5,70 L2.5,72.5 C2.5,72.845178 2.77982203,73.125 3.125,73.125 L25.625,73.125 C25.970178,73.125 26.25,72.845178 26.25,72.5 L26.25,70 Z" id="Path" fill="#1B7065"></path>
                <path d="M25.625,66.875 L3.125,66.875 C2.77982203,66.875 2.5,67.154822 2.5,67.5 L2.5,70 L26.25,70 L26.25,67.5 C26.25,67.154822 25.970178,66.875 25.625,66.875" id="Path" fill="#52BF9B"></path>
                <rect id="Rectangle" fill="#2D5271" x="16.5625" y="68.125" width="1.875" height="3.75"></rect>
                <rect id="Rectangle" fill="#2D5271" x="21.5625" y="68.125" width="1.875" height="3.75"></rect>
                <rect id="Rectangle" fill="#2D5271" x="10.3125" y="68.125" width="1.875" height="3.75"></rect>
                <rect id="Rectangle" fill="#2D5271" x="5.3125" y="68.125" width="1.875" height="3.75"></rect>
                <path d="M25,76.875 L1.25,76.875 L1.25,79.375 C1.25,79.720178 1.52982203,80 1.875,80 L24.375,80 C24.720178,80 25,79.720178 25,79.375 L25,76.875 Z" id="Path" fill="#1B7065"></path>
                <path d="M24.375,73.75 L1.875,73.75 C1.52982203,73.75 1.25,74.029822 1.25,74.375 L1.25,76.875 L25,76.875 L25,74.375 C25,74.029822 24.720178,73.75 24.375,73.75" id="Path" fill="#52BF9B"></path>
                <rect id="Rectangle" fill="#2D5271" x="15.3125" y="75" width="1.875" height="3.75"></rect>
                <rect id="Rectangle" fill="#2D5271" x="20.3125" y="75" width="1.875" height="3.75"></rect>
                <rect id="Rectangle" fill="#2D5271" x="9.0625" y="75" width="1.875" height="3.75"></rect>
                <rect id="Rectangle" fill="#2D5271" x="4.0625" y="75" width="1.875" height="3.75"></rect>
                <path d="M1.25,33.125 C1.25,26.9117966 6.28679656,21.875 12.5,21.875 C18.7132034,21.875 23.75,26.9117966 23.75,33.125 C23.75,39.3382034 18.7132034,44.375 12.5,44.375 C6.28679656,44.375 1.25,39.3382034 1.25,33.125" id="Path" fill="#40BEEE"></path>
                <path d="M12.5,20.625 C5.59644063,20.625 0,26.2214406 0,33.125 C0,40.0285594 5.59644063,45.625 12.5,45.625 C19.4035594,45.625 25,40.0285594 25,33.125 C25,26.2214406 19.4035594,20.625 12.5,20.625 M12.5,43.125 C6.9771525,43.125 2.5,38.6478475 2.5,33.125 C2.5,27.6021525 6.9771525,23.125 12.5,23.125 C18.0228475,23.125 22.5,27.6021525 22.5,33.125 C22.5,38.6478475 18.0228475,43.125 12.5,43.125" id="Shape" fill="#153359"></path>
                <path d="M12.5,40 C10.8215973,40.0270521 9.2921854,39.0403347 8.625,37.5 C8.46936145,37.1873287 8.50043868,36.8140612 8.7056403,36.5314325 C8.91084191,36.2488037 9.25614285,36.1036772 9.60163919,36.1548532 C9.94713553,36.2060292 10.2355396,36.445022 10.35,36.775 C10.7530658,37.5893937 11.5915721,38.0963974 12.5,38.075 C13.6882081,38.1465791 14.713219,37.2496946 14.8,36.0625 C14.8,34.7375 14.025,34.0625 12.4875,34.0625 C11.3994715,34.1874916 10.3111736,33.8305992 9.50845841,33.0855642 C8.70574319,32.3405291 8.26883793,31.2818138 8.3125,30.1875 C8.40054195,27.961907 10.2742693,26.22801 12.5,26.3125 C14.1838887,26.2769092 15.7212939,27.2655942 16.3875,28.8125 C16.5431386,29.1251713 16.5120613,29.4984388 16.3068597,29.7810675 C16.1016581,30.0636963 15.7563571,30.2088228 15.4108608,30.1576468 C15.0653645,30.1064708 14.7769604,29.867478 14.6625,29.5375 C14.2746118,28.6971992 13.4252792,28.16698 12.5,28.1875 C11.3139632,28.1087544 10.2867091,29.0020188 10.2,30.1875 C10.2,31.5125 10.975,32.1875 12.5,32.1875 C13.5900485,32.0585511 14.6818672,32.4136607 15.4875009,33.1591725 C16.2931345,33.9046842 16.7316889,34.9657408 16.6875,36.0625 C16.6581598,37.1412354 16.1995203,38.1636539 15.4133503,38.9028884 C14.6271803,39.6421229 13.5784986,40.0370362 12.5,40" id="Path" fill="#FFFFFF"></path>
                <path d="M12.5,28.1875 C11.9850474,28.1807677 11.5692323,27.7649526 11.5625,27.25 L11.5625,25.625 C11.5625,25.107233 11.982233,24.6875 12.5,24.6875 C13.017767,24.6875 13.4375,25.107233 13.4375,25.625 L13.4375,27.25 C13.4307677,27.7649526 13.0149526,28.1807677 12.5,28.1875" id="Path" fill="#FFFFFF"></path>
                <path d="M12.5,41.5625 C11.9850474,41.5557677 11.5692323,41.1399526 11.5625,40.625 L11.5625,39.0125 C11.5625,38.494733 11.982233,38.075 12.5,38.075 C13.017767,38.075 13.4375,38.494733 13.4375,39.0125 L13.4375,40.625 C13.4307677,41.1399526 13.0149526,41.5557677 12.5,41.5625" id="Path" fill="#FFFFFF"></path>
                <path d="M20.325,33.125 C20.325,33.642767 19.905267,34.0625 19.3875,34.0625 C18.869733,34.0625 18.45,33.642767 18.45,33.125 C18.45,32.607233 18.869733,32.1875 19.3875,32.1875 C19.9024526,32.1942323 20.3182677,32.6100474 20.325,33.125" id="Path" fill="#FFFFFF"></path>
                <path d="M6.5625,33.125 C6.5625,33.642767 6.14276695,34.0625 5.625,34.0625 C5.10723305,34.0625 4.6875,33.642767 4.6875,33.125 C4.6875,32.607233 5.10723305,32.1875 5.625,32.1875 C6.14276695,32.1875 6.5625,32.607233 6.5625,33.125" id="Path" fill="#FFFFFF"></path>
                <path d="M56.25,12.5 C56.25,6.28679656 61.2867966,1.25 67.5,1.25 C73.7132034,1.25 78.75,6.28679656 78.75,12.5 C78.75,18.7132034 73.7132034,23.75 67.5,23.75 C61.2867966,23.75 56.25,18.7132034 56.25,12.5" id="Path" fill="#F2A11F"></path>
                <path d="M67.5,0 C60.5964406,0 55,5.59644063 55,12.5 C55,19.4035594 60.5964406,25 67.5,25 C74.4035594,25 80,19.4035594 80,12.5 C80,9.18479388 78.6830395,6.00536997 76.3388348,3.66116524 C73.99463,1.3169605 70.8152061,0 67.5,0 M67.5,22.5 C61.9771525,22.5 57.5,18.0228475 57.5,12.5 C57.5,6.9771525 61.9771525,2.5 67.5,2.5 C73.0228475,2.5 77.5,6.9771525 77.5,12.5 C77.5,15.1521649 76.4464316,17.695704 74.5710678,19.5710678 C72.695704,21.4464316 70.1521649,22.5 67.5,22.5" id="Shape" fill="#DE7526"></path>
                <path d="M67.5,19.325 C65.8170824,19.3571578 64.2814267,18.3695979 63.6125,16.825 C63.4568614,16.5123287 63.4879387,16.1390612 63.6931403,15.8564325 C63.8983419,15.5738037 64.2436429,15.4286772 64.5891392,15.4798532 C64.9346355,15.5310292 65.2230396,15.770022 65.3375,16.1 C65.7129378,16.9576092 66.5638509,17.5084894 67.5,17.5 C68.6905839,17.5785632 69.7198258,16.6779765 69.8,15.4875 C69.8,14.1625 69.025,13.4875 67.4875,13.4875 C66.3994715,13.6124916 65.3111736,13.2555992 64.5084584,12.5105642 C63.7057432,11.7655291 63.2688379,10.7068138 63.3125,9.6125 C63.3417799,8.53483249 63.8008289,7.51363137 64.5873908,6.77637634 C65.3739527,6.03912132 66.4226939,5.64705035 67.5,5.6875 C69.1838887,5.65190922 70.7212939,6.64059425 71.3875,8.1875 C71.5495535,8.65468421 71.3208817,9.16740788 70.865016,9.35900359 C70.4091503,9.55059931 69.8828537,9.35518125 69.6625,8.9125 C69.2480327,8.10889364 68.4032207,7.62056301 67.5,7.6625 C66.3139632,7.58375439 65.2867091,8.4770188 65.2,9.6625 C65.2,10.9875 65.975,11.6625 67.5,11.6625 C68.5900485,11.5335511 69.6818672,11.8886607 70.4875009,12.6341725 C71.2931345,13.3796842 71.7316889,14.4407408 71.6875,15.5375 C71.5468288,17.7252767 69.6908726,19.4039476 67.5,19.325" id="Path" fill="#FFFFFF"></path>
                <path d="M67.5,7.5625 C66.9850474,7.55576773 66.5692323,7.13995258 66.5625,6.625 L66.5625,5 C66.5625,4.48223305 66.982233,4.0625 67.5,4.0625 C68.017767,4.0625 68.4375,4.48223305 68.4375,5 L68.4375,6.625 C68.4375,7.14276695 68.017767,7.5625 67.5,7.5625" id="Path" fill="#FFFFFF"></path>
                <path d="M67.5,20.9375 C66.9850474,20.9307677 66.5692323,20.5149526 66.5625,20 L66.5625,18.3875 C66.5625,17.869733 66.982233,17.45 67.5,17.45 C68.017767,17.45 68.4375,17.869733 68.4375,18.3875 L68.4375,20 C68.4375,20.517767 68.017767,20.9375 67.5,20.9375" id="Path" fill="#FFFFFF"></path>
                <path d="M75.325,12.5 C75.325,13.017767 74.905267,13.4375 74.3875,13.4375 C73.869733,13.4375 73.45,13.017767 73.45,12.5 C73.45,11.982233 73.869733,11.5625 74.3875,11.5625 C74.905267,11.5625 75.325,11.982233 75.325,12.5" id="Path" fill="#FFFFFF"></path>
                <path d="M62.2,12.5 C62.1999541,13.0161296 61.7827359,13.4351443 61.2666112,13.4374169 C60.7504866,13.439671 60.3296094,13.0243317 60.3250368,12.5082224 C60.3204642,11.992113 60.7339163,11.5693817 61.25,11.5625 C61.767767,11.5625 62.1875,11.982233 62.1875,12.5" id="Path" fill="#FFFFFF"></path>
                <polygon id="Path" fill="#40BEEE" points="22.5 23.75 31.25 23.75 31.25 57.5 40 57.5 40 0"></polygon>
                <polygon id="Path" fill="#153359" points="40 0 40 57.5 48.75 57.5 48.75 23.75 57.5 23.75"></polygon>
                <rect id="Rectangle" fill="#153359" x="40" y="60" width="8.75" height="5"></rect>
                <rect id="Rectangle" fill="#40BEEE" x="31.25" y="60" width="8.75" height="5"></rect>
                <rect id="Rectangle" fill="#153359" x="40" y="67.5" width="8.75" height="5"></rect>
                <rect id="Rectangle" fill="#40BEEE" x="31.25" y="67.5" width="8.75" height="5"></rect>
                <rect id="Rectangle" fill="#153359" x="40" y="75" width="8.75" height="5"></rect>
                <rect id="Rectangle" fill="#40BEEE" x="31.25" y="75" width="8.75" height="5"></rect>
                <polygon id="Path" fill="#A6228B" points="25 0 26.1875 2.5 25 5 27.5 3.8 30 5 28.8125 2.5 30 0 27.5 1.1875"></polygon>
                <polygon id="Path" fill="#A6228B" points="15 10.9375 16.2 13.4375 15 15.9375 17.5 14.75 20 15.9375 18.8125 13.4375 20 10.9375 17.5 12.1375"></polygon>
                <polygon id="Path" fill="#A6228B" points="0 6.975 1.1875 9.475 0 11.975 2.5 10.7875 5 11.975 3.8 9.475 5 6.975 2.5 8.175"></polygon>
            </g>
        </g>
    </g>
</svg>