<?xml version="1.0" encoding="UTF-8"?>
<svg width="95px" height="95px" viewBox="0 0 95 95" version="1.1" xmlns="http://www.w3.org/2000/svg" xmlns:xlink="http://www.w3.org/1999/xlink">
    <title>icons_investment</title>
    <g id="Design---2020" stroke="none" stroke-width="1" fill="none" fill-rule="evenodd">
        <g id="Welcome---D" transform="translate(-182.000000, -1207.000000)" fill-rule="nonzero">
            <g id="icons_investment" transform="translate(182.000000, 1207.000000)">
                <path d="M85.9959642,55.0398053 C85.0962809,55.0428831 84.1985492,54.9558125 83.3162512,54.779818 C82.6203696,54.5120776 82.2268926,53.7739275 82.3926297,53.0471341 C82.5583668,52.3203406 83.2329839,51.8256302 83.9761805,51.8858841 C84.0511725,51.8858841 87.8757629,52.7105803 90.1805161,50.8862524 C91.4103844,49.8866207 92.030318,48.2372284 92.030318,45.9530699 C92.1356388,45.2141297 92.7685597,44.6651455 93.515159,44.6651455 C94.2617583,44.6651455 94.8946792,45.2141297 95,45.9530699 C95,49.1918767 94.0001071,51.6359762 92.0003212,53.2103962 C90.1405204,54.6948493 87.7807731,55.0398053 85.9959642,55.0398053 Z" id="Path" fill="#40BEEE"></path>
                <path d="M85.2010493,51.0461935 C85.2010493,32.4730362 70.9375767,16.6338717 49.0849168,16.6338717 C45.0672863,16.6181195 41.0788944,17.3170904 37.3061781,18.6981112 L37.3061781,18.6981112 C35.3063923,10.4311569 19.5980744,8.90172042 19.5980744,8.90172042 C19.5980744,8.90172042 17.8482618,20.3425054 22.4277714,26.0953859 C16.2084374,31.1635187 11.8589032,38.0459831 10.5040483,45.8231178 C10.5040483,45.8231178 7.64935395,50.2964697 0.00517252389,51.0411953 L0.00517252389,66.2156048 C0.00517252389,66.2156048 13.0037806,66.8353764 18.033242,71.8235387 L18.033242,71.7535645 C19.9139441,73.9022611 22.0417733,75.8215044 24.3725631,77.4714579 L24.3375669,77.4714579 C24.3375669,77.4714579 27.0472767,86.3481875 26.0573827,95 L41.6857092,95 C41.6857092,95 39.5609367,87.7526701 42.275646,83.809123 C42.275646,83.809123 48.9849275,86.6530752 56.1041652,83.8391119 L56.1041652,83.8391119 C58.878868,87.6677014 57.3390329,94.9850055 57.3390329,94.9850055 L72.8373733,94.9850055 C71.682497,81.0551376 85.2010493,68.8146472 85.2010493,51.0461935 Z" id="Path" fill="#40BEEE"></path>
                <path d="M85.2010493,51.0461935 C85.2010493,32.4730362 70.9375767,16.6338717 49.0849168,16.6338717 C45.0672863,16.6181195 41.0788944,17.3170904 37.3061781,18.6981112 L37.3061781,18.6981112 C35.3063923,10.4311569 19.5980744,8.90172042 19.5980744,8.90172042 C19.2529697,11.5195311 19.1809237,14.1661099 19.3830974,16.798811 C22.7477371,16.798811 28.5871118,17.5835219 31.5717922,22.6366602 C32.6010837,24.4086506 34.649501,25.3228477 36.6562477,24.9058242 C38.9219962,24.374771 41.2346081,24.0684007 43.5605084,23.9911612 C63.3683873,23.9911612 76.2970028,38.3458726 76.2970028,55.1846688 C76.2970028,71.2887357 65.0482074,74.0327248 65.0482074,94.9900037 L72.7923781,94.9900037 C71.682497,81.0551376 85.2010493,68.8146472 85.2010493,51.0461935 Z" id="Path" fill="#153359"></path>
                <ellipse id="Oval" fill="#FFFFFF" cx="22.2627891" cy="40.0652391" rx="2.22476176" ry="2.22418057"></ellipse>
                <ellipse id="Oval" fill="#DD751B" cx="49.2848954" cy="53.1704109" rx="19.292934" ry="19.2878939"></ellipse>
                <ellipse id="Oval" fill="#F2A11F" cx="49.2848954" cy="53.1704109" rx="15.5833313" ry="15.5792603"></ellipse>
                <path d="M49.3048933,64.0114168 C46.7111742,64.0721189 44.3343547,62.5707397 43.2755389,60.20282 C43.1123919,59.834253 43.160983,59.4063434 43.4026181,59.0837173 C43.6442532,58.7610911 44.0412849,58.5940143 44.4409666,58.646765 C44.8406483,58.6995157 45.1807086,58.9638751 45.3303189,59.3381386 C46.0559385,60.8779983 47.6282059,61.8387957 49.3298906,61.7822381 C51.66964,61.7822381 53.5694366,60.1028568 53.5694366,58.0336192 C53.5694366,56.324249 52.8295158,54.2850003 49.3098927,54.2850003 C44.5454029,54.2850003 42.845585,51.1961383 42.845585,48.28721 C42.845585,44.9934235 45.7452744,42.2894197 49.3098927,42.2894197 C51.9039854,42.2273677 54.2814904,43.7291799 55.3392471,46.0980165 C55.5307707,46.6525715 55.2595078,47.2606198 54.7188354,47.4886976 C54.178163,47.7167754 53.5531992,47.4867923 53.2894666,46.962698 C52.5622779,45.4236219 50.9916943,44.4618908 49.2898949,44.5136003 C46.9551449,44.5136003 45.0503489,46.1979797 45.0503489,48.2622192 C45.0503489,49.9765876 45.7852702,52.0158363 49.2898949,52.0158363 C54.0743825,52.0158363 55.7891989,55.0997001 55.7891989,58.0136266 C55.7742005,61.3274057 52.8695115,64.0114168 49.3048933,64.0114168 Z" id="Path" fill="#FFFFFF"></path>
                <path d="M49.2848954,44.5585837 C48.671925,44.5585837 48.1750143,44.0618028 48.1750143,43.4489925 L48.1750143,40.7699795 C48.2142852,40.1846795 48.7006266,39.7299867 49.2873951,39.7299867 C49.8741637,39.7299867 50.3605051,40.1846795 50.399776,40.7699795 L50.399776,43.4489925 C50.3970236,44.0626104 49.8986798,44.5585837 49.2848954,44.5585837 L49.2848954,44.5585837 Z" id="Path" fill="#FFFFFF"></path>
                <path d="M49.2848954,66.6854317 C48.9896684,66.6854317 48.7066054,66.5678458 48.498318,66.3586748 C48.2900306,66.1495038 48.1736844,65.8659892 48.1750143,65.5708423 L48.1750143,62.8968275 C48.1471626,62.4817213 48.35288,62.0856608 48.7085396,61.8696498 C49.0641993,61.6536388 49.510591,61.6536388 49.8662506,61.8696498 C50.2219103,62.0856608 50.4276277,62.4817213 50.399776,62.8968275 L50.399776,65.5708423 C50.399776,65.8664498 50.2823157,66.14995 50.073235,66.358976 C49.8641544,66.5680021 49.5805801,66.6854317 49.2848954,66.6854317 L49.2848954,66.6854317 Z" id="Path" fill="#FFFFFF"></path>
                <ellipse id="Oval" fill="#FFFFFF" cx="60.4287021" cy="53.1704109" rx="1.484841" ry="1.4844531"></ellipse>
                <ellipse id="Oval" fill="#FFFFFF" cx="38.1610866" cy="53.1704109" rx="1.484841" ry="1.4844531"></ellipse>
                <ellipse id="Oval" fill="#F2A11F" cx="16.3284245" cy="89.0321987" rx="5.19444375" ry="5.19308676"></ellipse>
                <path d="M13.3587426,92.7408323 C13.1122745,92.73369 12.8666526,92.7086331 12.6238213,92.6658599 C14.2059138,94.2905236 16.6600593,94.6998415 18.6840142,93.6766172 C20.7079691,92.653393 21.8328086,90.4346948 21.461659,88.1978307 C21.0905095,85.9609665 19.3093615,84.2241897 17.0633458,83.9090861 C18.5292376,85.4013838 18.9565692,87.6272162 18.1474916,89.556051 C17.3384141,91.4848858 15.4508598,92.7402131 13.3587426,92.7408323 L13.3587426,92.7408323 Z" id="Path" fill="#FFFFFF"></path>
                <ellipse id="Oval" fill="#F2A11F" cx="86.090954" cy="80.1304782" rx="5.19444375" ry="5.19308676"></ellipse>
                <path d="M83.121272,83.8391119 C82.8750781,83.831136 82.6296247,83.8077656 82.3863507,83.7691377 C83.9684433,85.3938013 86.4225888,85.8031192 88.4465437,84.779895 C90.4704985,83.7566708 91.5953381,81.5379726 91.2241885,79.3011084 C90.8530389,77.0642443 89.071891,75.3274674 86.8258753,75.0123639 C88.2932897,76.5033837 88.7215458,78.7295494 87.9120183,80.6583645 C87.1024909,82.5871797 85.2135441,83.8413188 83.121272,83.8391119 L83.121272,83.8391119 Z" id="Path" fill="#FFFFFF"></path>
                <ellipse id="Oval" fill="#F2A11F" cx="89.060636" cy="26.7101594" rx="5.19444375" ry="5.19308676"></ellipse>
                <path d="M86.090954,30.4187931 C85.8444661,30.4119556 85.5988219,30.3868964 85.3560327,30.3438207 C86.9373196,31.9635595 89.3870227,32.3702108 91.4070545,31.3482916 C93.4270864,30.3263724 94.5502568,28.1122309 94.1814025,25.8791314 C93.8125482,23.6460319 92.0369773,21.9104426 89.7955573,21.592045 C91.2629717,23.0830649 91.6912278,25.3092306 90.8817003,27.2380457 C90.0721728,29.1668608 88.183226,30.421 86.090954,30.4187931 L86.090954,30.4187931 Z" id="Path" fill="#FFFFFF"></path>
                <ellipse id="Oval" fill="#F2A11F" cx="74.2122261" cy="10.3861735" rx="5.19444375" ry="5.19308676"></ellipse>
                <path d="M71.2475435,14.0948072 C71.0013344,14.0870697 70.755866,14.0636978 70.5126222,14.024833 C72.0954963,15.6418462 74.5446003,16.0455713 76.5629576,15.0222067 C78.5813149,13.9988421 79.7024864,11.7848859 79.332731,9.55278698 C78.9629757,7.32068807 77.1877434,5.58628105 74.9471474,5.26805914 C76.4190037,6.75670574 76.85076,8.98431213 76.0416096,10.9148342 C75.2324592,12.8453563 73.3412395,14.0998295 71.2475435,14.0948072 L71.2475435,14.0948072 Z" id="Path" fill="#FFFFFF"></path>
                <ellipse id="Oval" fill="#F2A11F" cx="50.4647691" cy="5.93781238" rx="5.19444375" ry="5.19308676"></ellipse>
                <path d="M47.5000865,9.64644605 C47.2535986,9.63960855 47.0079544,9.61454936 46.7651652,9.57147367 C48.3480393,11.1884869 50.7971433,11.592212 52.8155006,10.5688474 C54.8338579,9.54548285 55.9550294,7.33152661 55.585274,5.09942769 C55.2155187,2.86732878 53.4402864,1.13292176 51.1996904,0.814699847 C52.6700076,2.30463339 53.1008268,4.53189648 52.2921298,6.46242912 C51.4834329,8.39296175 49.5936219,9.64862452 47.5000865,9.64644605 Z" id="Path" fill="#FFFFFF"></path>
                <ellipse id="Oval" fill="#F2A11F" cx="7.42437804" cy="25.2307045" rx="5.19444375" ry="5.19308676"></ellipse>
                <path d="M4.45469605,28.9393381 C4.20820812,28.9325006 3.96256393,28.9074415 3.71977475,28.8643658 C5.30186732,30.4890294 7.75601278,30.8983473 9.77996767,29.8751231 C11.8039226,28.8518988 12.9287621,26.6332006 12.5576125,24.3963365 C12.186463,22.1594724 10.405315,20.4226955 8.15929934,20.1075919 C9.62519107,21.5998896 10.0525227,23.825722 9.24344514,25.7545568 C8.43436756,27.6833916 6.54681328,28.938719 4.45469605,28.9393381 L4.45469605,28.9393381 Z" id="Path" fill="#FFFFFF"></path>
                <ellipse id="Oval" fill="#F2A11F" cx="5.94453651" cy="76.5018151" rx="5.19444375" ry="5.19308676"></ellipse>
                <path d="M2.97485452,80.2104488 C2.72836659,80.2036113 2.4827224,80.1785521 2.23993321,80.1354764 C3.82202579,81.76014 6.27617125,82.1694579 8.30012614,81.1462337 C10.324081,80.1230095 11.4489205,77.9043113 11.077771,75.6674471 C10.7066214,73.430583 8.92547346,71.6938061 6.67945781,71.3787026 C8.14534954,72.8710003 8.57268118,75.0968326 7.76360361,77.0256674 C6.95452603,78.9545023 5.06697174,80.2098296 2.97485452,80.2104488 L2.97485452,80.2104488 Z" id="Path" fill="#FFFFFF"></path>
                <path d="M16.3284245,83.0943842 C13.9257221,83.0923643 11.7584806,84.5377832 10.8376045,86.7564308 C9.91672833,88.9750784 10.4236403,91.5298568 12.1218926,93.2290957 C13.8201449,94.9283347 16.375163,95.4372655 18.595165,94.5184986 C20.8151671,93.5997316 22.2627891,91.4342742 22.2627891,89.0321987 C22.2627891,85.7547863 19.6066921,83.097145 16.3284245,83.0943842 L16.3284245,83.0943842 Z M16.3284245,93.1856955 C14.0324863,93.1773903 12.1774526,91.3109165 12.183871,89.0155722 C12.1903228,86.7202279 14.0557928,84.8641793 16.3517413,84.8687594 C18.6476899,84.8733566 20.5057221,86.736847 20.5029806,89.0321987 C20.5016567,90.1368294 20.0607751,91.1955451 19.2776049,91.9747599 C18.4944347,92.7539747 17.4333376,93.1896523 16.3284245,93.1856955 L16.3284245,93.1856955 Z" id="Shape" fill="#DD751B"></path>
                <path d="M86.090954,74.1976619 C83.6877968,74.1956425 81.5202393,75.6416027 80.5996565,77.8608642 C79.6790738,80.0801257 80.1869028,82.6352963 81.8861921,84.3341417 C83.5854815,86.0329871 86.1413197,86.5406834 88.3611611,85.6203412 C90.5810026,84.6999989 92.0273406,82.5330076 92.0253207,80.1304782 C92.0253207,76.8538754 89.368413,74.1976619 86.090954,74.1976619 Z M86.090954,84.283948 C83.7964566,84.283948 81.9363989,82.4243763 81.9363989,80.1304782 C81.9363989,77.8365802 83.7964566,75.9770085 86.090954,75.9770085 C88.3854515,75.9770085 90.2455091,77.8365802 90.2455091,80.1304782 C90.2427544,82.4232345 88.3843094,84.281194 86.090954,84.283948 L86.090954,84.283948 Z" id="Shape" fill="#DD751B"></path>
                <path d="M89.060636,20.7773431 C86.6574788,20.7753237 84.4899213,22.2212838 83.5693385,24.4405454 C82.6487558,26.6598069 83.1565847,29.2149774 84.8558741,30.9138229 C86.5551635,32.6126683 89.1110017,33.1203646 91.3308431,32.2000224 C93.5506846,31.2796801 94.9970225,29.1126888 94.9950027,26.7101594 C94.9950027,23.4335566 92.338095,20.7773431 89.060636,20.7773431 L89.060636,20.7773431 Z M89.060636,30.8636292 C86.7661386,30.8636292 84.9060809,29.0040574 84.9060809,26.7101594 C84.9060809,24.4162614 86.7661386,22.5566896 89.060636,22.5566896 C91.3551334,22.5566896 93.2151911,24.4162614 93.2151911,26.7101594 C93.2124363,29.0029157 91.3539914,30.8608751 89.060636,30.8636292 Z" id="Shape" fill="#DD751B"></path>
                <path d="M74.2122261,4.45335718 C71.8095228,4.45335718 69.6434995,5.90060308 68.7244926,8.12002518 C67.8054856,10.3394473 68.3145493,12.8937979 70.0142323,14.5916066 C71.7139153,16.2894152 74.2693612,16.7961947 76.4885886,15.8755592 C78.7078159,14.9549236 80.1536125,12.7882482 80.1515922,10.3861735 C80.1515922,8.81182698 79.5256785,7.30203452 78.4116877,6.18927224 C77.297697,5.07650996 75.7869834,4.45203296 74.2122261,4.45335718 Z M74.2122261,14.5396433 C71.9183815,14.5368837 70.0608321,12.6760917 70.0626704,10.3828454 C70.0645114,8.08959914 71.9250439,6.23178831 74.21889,6.23270674 C76.5127361,6.23362585 78.3717806,8.0929265 78.3717806,10.3861735 C78.3690219,12.6808798 76.5075336,14.5396433 74.2122261,14.5396433 Z" id="Shape" fill="#DD751B"></path>
                <path d="M50.4647691,0 C47.1845489,0 44.5254051,2.65844916 44.5254051,5.93781238 C44.5254051,9.21717561 47.1845489,11.8756248 50.4647691,11.8756248 C53.7449892,11.8756248 56.404133,9.21717561 56.404133,5.93781238 C56.404133,2.65844916 53.7449892,0 50.4647691,0 Z M50.4647691,10.0912822 C48.7819316,10.0912822 47.2648917,9.07756111 46.6213657,7.52303443 C45.9778398,5.96850775 46.3346309,4.17948507 47.525292,2.99056571 C48.7159531,1.80164634 50.5058711,1.44710025 52.0600289,2.0923272 C53.6141867,2.73755415 54.6263463,4.25541575 54.6243267,5.93781238 C54.6215648,8.23251866 52.7600766,10.0912822 50.4647691,10.0912822 L50.4647691,10.0912822 Z" id="Shape" fill="#DD751B"></path>
                <path d="M7.42437804,31.1635526 C9.82888463,31.1716118 12.0010395,29.7295115 12.926352,27.5107413 C13.8516644,25.2919711 13.3475488,22.7343462 11.6494489,21.0323885 C9.95134904,19.3304307 7.39433969,18.8199761 5.17265526,19.7394291 C2.95097082,20.6588822 1.50300153,22.8268133 1.50500982,25.2307045 C1.50500982,28.5014605 4.15277778,31.1552523 7.42437804,31.1635526 Z M7.42437804,21.0772347 C9.71822264,21.0799943 11.575772,22.9407863 11.5739337,25.2340326 C11.5720927,27.5272789 9.71156017,29.3850897 7.41771409,29.3841713 C5.12386801,29.3832521 3.26482346,27.5239515 3.26482346,25.2307045 C3.26758225,22.9359982 5.12907048,21.0772347 7.42437804,21.0772347 Z" id="Shape" fill="#DD751B"></path>
                <path d="M5.94453651,70.5640006 C3.54183409,70.5619808 1.37459257,72.0073997 0.453716427,74.2260473 C-0.467159713,76.4446949 0.0397522784,78.9994732 1.73800454,80.6987122 C3.43625681,82.3979511 5.99127495,82.9068819 8.211277,81.988115 C10.4312791,81.0693481 11.878901,78.9038907 11.878901,76.5018151 C11.878901,73.2244028 9.22280408,70.5667615 5.94453651,70.5640006 Z M5.94453651,80.6552879 C4.26124553,80.6573063 2.74267138,79.6448698 2.09756943,78.0905039 C1.45246748,76.5361381 1.80802347,74.7462955 2.9982908,73.5563391 C4.18855812,72.3663827 5.97886841,72.0109196 7.53364044,72.655853 C9.08841248,73.3007865 10.1011136,74.8189639 10.0990946,76.5018151 C10.0963368,78.7945714 8.2378919,80.6525308 5.94453651,80.6552879 Z" id="Shape" fill="#DD751B"></path>
            </g>
        </g>
    </g>
</svg>