<?xml version="1.0" encoding="UTF-8"?>
<svg width="160px" height="41px" viewBox="0 0 160 41" version="1.1" xmlns="http://www.w3.org/2000/svg" xmlns:xlink="http://www.w3.org/1999/xlink">
    <!-- Generator: Sketch 54.1 (76490) - https://sketchapp.com -->
    <title>logo-white</title>
    <desc>Created with Sketch.</desc>
    <defs>
        <polygon id="path-1" points="0 0.0656 130.15073 0.0656 130.15073 40.959 0 40.959"></polygon>
    </defs>
    <g id="Wireframes-(v2)" stroke="none" stroke-width="1" fill="none" fill-rule="evenodd">
        <g id="Additional-Resources" transform="translate(-486.000000, -1419.000000)">
            <g id="COPERA_White_hrz" transform="translate(486.000000, 1419.000000)">
                <path d="M79.4932189,25.2956333 C78.4027468,26.45935 77.1550215,26.45935 75.7102146,26.45935 L72.2046352,26.45935 L72.2046352,19.4039333 L75.6724464,19.4039333 C76.8054936,19.4039333 78.0903004,19.4039333 79.0626609,20.14125 C79.8702146,20.7617167 80.351588,21.8044833 80.351588,22.9319833 C80.351588,23.8319333 80.0466953,24.6710667 79.4932189,25.2956333 Z M82.9479828,16.3555833 C80.8212876,14.90555 78.4858369,14.90555 76.0130472,14.90555 L66.3601717,14.90555 L66.3601717,40.0228333 L72.2046352,40.0228333 L72.2046352,30.9584167 L76.5232618,30.9584167 C79.0063519,30.9584167 81.352103,30.9584167 83.5096996,29.1742333 C85.264206,27.7030167 86.2695279,25.3455167 86.2695279,22.7064833 C86.2695279,20.07975 85.1213734,17.8835167 82.9479828,16.3555833 L82.9479828,16.3555833 Z" id="Fill-1" fill="#FFFFFE"></path>
                <polyline id="Fill-2" fill="#FFFFFE" points="93.9481545 29.7912833 103.778884 29.7912833 103.778884 25.1418833 93.9481545 25.1418833 93.9481545 19.70665 106.428155 19.70665 106.428155 14.90555 88.1030043 14.90555 88.1030043 40.0228333 106.428155 40.0228333 106.428155 35.2244667 93.9481545 35.2244667 93.9481545 29.7912833"></polyline>
                <path d="M136.065236,29.7304667 L136.116052,29.5931167 L139.227468,21.1061167 L142.390386,29.7304667 L136.065236,29.7304667 Z M142.550386,14.9902833 L136.185408,14.9902833 L128.487554,34.8923667 L132.295966,40.0153167 L132.370815,40.0153167 L134.516738,33.87215 L143.868155,33.87215 L144.201888,34.809 L146.0903,40.0132667 L152.466953,40.0132667 L142.550386,14.9902833 L142.550386,14.9902833 Z" id="Fill-3" fill="#FFFFFE"></path>
                <g id="Group-7">
                    <mask id="mask-2" fill="white">
                        <use xlink:href="#path-1"></use>
                    </mask>
                    <g id="Clip-5"></g>
                    <path d="M120.567897,26.3923833 L114.776996,26.3930667 L114.673991,26.3930667 L114.673991,19.4039333 L118.95691,19.4039333 C120.08927,19.4039333 121.374077,19.4039333 122.346438,20.14125 C123.153991,20.7617167 123.635365,21.8051667 123.635365,22.9319833 C123.635365,23.8319333 123.331159,24.6710667 122.776309,25.2956333 C122.178884,25.9325 121.497682,26.2700667 120.567897,26.3923833 Z M123.227468,30.7759667 L123.36206,30.7459 C124.704549,30.5012667 125.795021,30.0010667 126.794163,29.1742333 C128.547983,27.7023333 129.554678,25.3448333 129.554678,22.7064833 C129.554678,20.07975 128.406524,17.8835167 126.233133,16.3555833 C124.105064,14.90555 121.769614,14.90555 119.295451,14.90555 L108.830215,14.90555 L108.830215,40.0228333 L114.673991,40.0228333 L114.673991,30.8531833 L117.04721,30.8531833 L117.050644,30.8976 L123.414249,40.0153167 L130.15073,40.0153167 L123.227468,30.7759667 L123.227468,30.7759667 Z" id="Fill-4" fill="#FFFFFE" mask="url(#mask-2)"></path>
                    <path d="M40.383176,26.3254167 C41.8492704,25.0434833 45.0300429,22.6593333 44.5163948,19.3766 C43.6367382,13.77805 33.8032618,12.1127667 21.6954506,13.9277 C14.5483262,15.0012167 13.8348498,15.2636167 6.48309013,16.5441833 C9.14815451,14.80715 14.7701288,12.6526 24.5699571,11.18275 C36.6763948,9.36713333 47.191073,12.4366667 48.0260944,18.0386333 C48.7430043,22.8486167 44.3309871,25.3188667 40.383176,26.3254167 Z M36.6022318,20.7494167 L36.6022318,21.03915 C36.6022318,27.3804833 34.1672103,36.1264667 34.1452361,36.2187167 L34.1225751,36.2966167 L34.0442918,36.2979833 L33.8822318,36.3014 L33.7840343,36.3041333 L33.7744206,36.20915 C33.7606867,36.1141667 32.6386266,27.33265 32.7230901,21.0576 L32.7230901,21.0152333 C32.7574249,18.5224333 32.8048069,14.75385 34.7248069,14.7709333 C36.6111588,14.7839167 36.6042918,18.2292833 36.6022318,20.7494167 Z M30.2935622,20.8772 L30.2935622,21.2052 C30.2935622,28.2647167 27.6147639,38.8215333 27.5879828,38.9342833 L27.5715021,39.0101333 L27.4877253,39.01355 L27.3078112,39.0156 L27.2116738,39.0197 L27.2013734,38.9247167 C27.1876395,38.8133333 25.9254936,28.1724667 26.0175107,21.2243333 L26.0175107,21.1935833 C26.0532189,18.4096833 26.1067811,14.5912167 28.223176,14.6069333 C30.303176,14.6219667 30.296309,18.23885 30.2935622,20.8772 Z M21.1900429,5.28148333 C21.5773391,5.2849 21.9454077,5.44685 22.2523605,5.75366667 C22.7426609,6.23883333 23.0255794,7.02603333 23.0139056,7.86175 C22.9939914,9.27898333 22.1486695,10.4215167 21.1220601,10.4146833 C20.7361373,10.41195 20.3694421,10.2465833 20.0611159,9.93976667 C19.5721888,9.45801667 19.2872103,8.6674 19.3016309,7.83236667 C19.3208584,6.41991667 20.166867,5.27601667 21.1900429,5.28148333 Z M28.1860944,4.88856667 C28.5562232,4.8913 28.9084979,5.04915 29.2024034,5.34161667 C29.6707296,5.80218333 29.9406009,6.55385 29.9296137,7.35403333 C29.911073,8.70293333 29.1021459,9.7949 28.1236052,9.78738333 C27.7548498,9.78601667 27.4018884,9.62748333 27.1059227,9.3357 C26.6417167,8.87376667 26.3711588,8.1221 26.3821459,7.32465 C26.3993133,5.9737 27.208927,4.88105 28.1860944,4.88856667 Z M34.6918455,5.12158333 C35.0276395,5.12363333 35.3476395,5.26713333 35.616824,5.53363333 C36.0363948,5.95115 36.2836052,6.6338 36.2733047,7.35608333 C36.2581974,8.5813 35.5227468,9.57213333 34.632103,9.56666667 C34.2942489,9.56256667 33.9756223,9.42111667 33.7064378,9.15461667 C33.2861803,8.73368333 33.0396567,8.05376667 33.0499571,7.33011667 C33.0671245,6.10626667 33.8032618,5.11543333 34.6918455,5.12158333 Z M28.2327897,0.0656 C12.64,0.0656 0,9.22705 0,20.5321167 C0,29.75165 8.40927039,37.5464333 19.968412,40.10825 C19.5303004,35.7533667 18.7344206,27.57455 18.8106438,21.9541333 L18.8106438,21.3514333 C18.8490987,18.38645 18.9040343,14.9021333 21.2298712,14.9199 C23.5138197,14.9363 23.5090129,18.62425 23.5035193,21.5851333 L23.5035193,21.9363667 C23.5035193,27.8014167 21.9488412,36.1121167 21.1330472,40.3467333 C23.4025751,40.7731333 25.7812876,41 28.2327897,41 C43.8255794,41 56.464206,31.83445 56.464206,20.5321167 C56.464206,9.22705 43.8255794,0.0656 28.2327897,0.0656 L28.2327897,0.0656 Z" id="Fill-6" fill="#FFFFFE" mask="url(#mask-2)"></path>
                </g>
                <path d="M73.591073,8.38518333 C72.7917597,9.12728333 72.063176,9.58648333 70.9019742,9.58648333 C69.1529614,9.58648333 67.8338197,8.17471667 67.8338197,6.3017 L67.8338197,6.27436667 C67.8338197,4.40955 69.1529614,3.00325 70.9019742,3.00325 C71.8454936,3.00325 72.6537339,3.36063333 73.5230901,4.16423333 L73.6027468,4.23735 L74.8243777,2.83651667 L74.7522747,2.7675 C73.9625751,2.01651667 72.8885837,1.24845 70.9157082,1.24845 C68.0288412,1.24845 65.8513305,3.42076667 65.8513305,6.3017 L65.8513305,6.32903333 C65.8513305,9.19425 67.9993133,11.35495 70.8470386,11.35495 C72.8817167,11.35495 73.9996567,10.48165 74.8243777,9.62748333 L74.8951073,9.55368333 L73.6659227,8.31548333 L73.591073,8.38518333" id="Fill-8" fill="#FFFFFE"></path>
                <path d="M77.7634335,6.27436667 C77.7634335,4.40955 79.112103,3.00325 80.8995708,3.00325 C82.7035193,3.00325 84.0638627,4.42116667 84.0638627,6.3017 L84.0638627,6.32903333 C84.0638627,8.18633333 82.7158798,9.58648333 80.9277253,9.58648333 C79.1237768,9.58648333 77.7634335,8.17471667 77.7634335,6.3017 L77.7634335,6.27436667 Z M80.9277253,1.24845 C78.0415451,1.24845 75.7809442,3.46791667 75.7809442,6.3017 L75.7809442,6.32903333 C75.7809442,9.19425 77.9818026,11.35495 80.8995708,11.35495 C83.7857511,11.35495 86.0470386,9.13548333 86.0470386,6.3017 L86.0470386,6.27436667 C86.0470386,3.40915 83.8461803,1.24845 80.9277253,1.24845 L80.9277253,1.24845 Z" id="Fill-9" fill="#FFFFFE"></path>
                <polyline id="Fill-10" fill="#FFFFFE" points="89.5745923 1.41245 87.6751931 1.41245 87.6751931 11.19095 94.6293562 11.19095 94.6293562 9.44981667 89.5745923 9.44981667 89.5745923 1.41245"></polyline>
                <path d="M97.1145064,6.27436667 C97.1145064,4.40955 98.4624893,3.00325 100.250644,3.00325 C102.055279,3.00325 103.414936,4.42116667 103.414936,6.3017 L103.414936,6.32903333 C103.414936,8.18633333 102.066266,9.58648333 100.278798,9.58648333 C98.4741631,9.58648333 97.1145064,8.17471667 97.1145064,6.3017 L97.1145064,6.27436667 Z M100.278798,1.24845 C97.392618,1.24845 95.1320172,3.46791667 95.1320172,6.3017 L95.1320172,6.32903333 C95.1320172,9.19425 97.3335622,11.35495 100.250644,11.35495 C103.136824,11.35495 105.398112,9.13548333 105.398112,6.3017 L105.398112,6.27436667 C105.398112,3.40915 103.197253,1.24845 100.278798,1.24845 L100.278798,1.24845 Z" id="Fill-11" fill="#FFFFFE"></path>
                <path d="M108.788326,3.1529 L111.142318,3.1529 C112.359142,3.1529 113.02867,3.67906667 113.02867,4.63436667 L113.02867,4.66101667 C113.02867,5.56916667 112.293219,6.15615 111.155365,6.15615 L108.788326,6.15615 L108.788326,3.1529 Z M114.95691,4.56603333 L114.95691,4.5387 C114.95691,3.69341667 114.671245,2.95473333 114.128069,2.39986667 C113.464034,1.75343333 112.479313,1.41245 111.27897,1.41245 L106.888927,1.41245 L106.888927,11.19095 L108.788326,11.19095 L108.788326,7.8556 L110.744034,7.8556 L113.106266,11.19095 L115.3703,11.19095 L112.740258,7.52076667 C114.170644,7.0602 114.95691,6.01606667 114.95691,4.56603333 L114.95691,4.56603333 Z" id="Fill-12" fill="#FFFFFE"></path>
                <path d="M122.586781,7.18115 L119.596223,7.18115 L121.086352,3.7228 L122.586781,7.18115 Z M120.260944,1.34411667 L115.938197,11.19095 L117.899399,11.19095 L118.887554,8.8806 L123.295451,8.8806 L124.270558,11.19095 L126.288069,11.19095 L121.964635,1.34411667 L120.260944,1.34411667 L120.260944,1.34411667 Z" id="Fill-13" fill="#FFFFFE"></path>
                <path d="M129.017682,3.1529 L130.808584,3.1529 C132.712103,3.1529 134.041545,4.44781667 134.041545,6.3017 L134.041545,6.32903333 C134.041545,8.1959 132.742318,9.44981667 130.808584,9.44981667 L129.017682,9.44981667 L129.017682,3.1529 Z M130.808584,1.41245 L127.11897,1.41245 L127.11897,11.19095 L130.808584,11.19095 C133.830043,11.19095 136.024034,9.13411667 136.024034,6.3017 L136.024034,6.27436667 C136.024034,3.45766667 133.830043,1.41245 130.808584,1.41245 L130.808584,1.41245 Z" id="Fill-14" fill="#FFFFFE"></path>
                <path d="M138.957597,6.27436667 C138.957597,4.40955 140.306266,3.00325 142.093734,3.00325 C143.897682,3.00325 145.258712,4.42116667 145.258712,6.3017 L145.258712,6.32903333 C145.258712,8.18633333 143.91073,9.58648333 142.121202,9.58648333 C140.317253,9.58648333 138.957597,8.17471667 138.957597,6.3017 L138.957597,6.27436667 Z M142.121202,1.24845 C139.235708,1.24845 136.975107,3.46791667 136.975107,6.3017 L136.975107,6.32903333 C136.975107,9.19425 139.175966,11.35495 142.093734,11.35495 C144.980601,11.35495 147.241202,9.13548333 147.241202,6.3017 L147.241202,6.27436667 C147.241202,3.40915 145.039657,1.24845 142.121202,1.24845 L142.121202,1.24845 Z" id="Fill-15" fill="#FFFFFE"></path>
                <path d="M156.971674,37.0195833 L156.416824,37.0195833 L156.416824,36.1497 L156.971674,36.1497 C157.303348,36.1497 157.51485,36.3061833 157.51485,36.5843 C157.51485,36.84465 157.321888,37.0195833 156.971674,37.0195833 Z M158.299742,36.5316833 C158.299742,35.81965 157.758627,35.4889167 157.024549,35.4889167 L155.650472,35.4889167 L155.650472,38.6356667 L156.416824,38.6356667 L156.416824,37.6462 L156.79794,37.6462 L157.480515,38.6356667 L158.40412,38.6356667 L157.601373,37.5054333 C158.019571,37.3660333 158.299742,37.0359833 158.299742,36.5316833 L158.299742,36.5316833 Z" id="Fill-16" fill="#FFFFFE"></path>
                <path d="M156.899571,39.6319667 C155.509013,39.6319667 154.420601,38.5406833 154.420601,37.1343833 C154.420601,35.7554167 155.533047,34.6340667 156.899571,34.6340667 C158.288755,34.6340667 159.377167,35.7239833 159.377167,37.1343833 C159.377167,38.5113 158.265408,39.6319667 156.899571,39.6319667 Z M156.899571,34.1700833 C155.267296,34.1700833 153.939914,35.4991667 153.939914,37.1487333 C153.939914,38.7737 155.267296,40.0952667 156.899571,40.0952667 C158.532532,40.0952667 159.859914,38.7668667 159.859914,37.1159333 C159.859914,35.4909667 158.532532,34.1700833 156.899571,34.1700833 L156.899571,34.1700833 Z" id="Fill-17" fill="#FFFFFE"></path>
            </g>
        </g>
    </g>
</svg>