<?xml version="1.0" encoding="UTF-8"?>
<svg width="16px" height="16px" viewBox="0 0 16 16" version="1.1" xmlns="http://www.w3.org/2000/svg" xmlns:xlink="http://www.w3.org/1999/xlink">
    <title>times</title>
    <g id="Design---2020" stroke="none" stroke-width="1" fill="none" fill-rule="evenodd">
        <g id="Investments-Copy-3" transform="translate(-1091.000000, -35.000000)" fill="#FFFFFF" fill-rule="nonzero">
            <g id="Menu---Closed" transform="translate(1064.000000, 0.000000)">
                <g id="Group" transform="translate(27.500000, 31.000000)">
                    <path d="M1.95063376,19.3898659 L7.74998856,13.5909753 L13.5488727,19.3898659 C13.6951279,19.5360753 13.9327982,19.5360753 14.0790076,19.3898659 L15.1398266,18.3290469 C15.2860359,18.1828375 15.2860359,17.9451672 15.1398266,17.7989121 L9.34093597,12.0000279 L15.1398266,6.20113086 C15.2860359,6.05487572 15.2860359,5.81720539 15.1398266,5.67099602 L14.0790076,4.61017702 C13.9327982,4.46396765 13.6951279,4.46396765 13.5488727,4.61017702 L7.74998856,10.4090676 L1.95109153,4.60971925 C1.80483638,4.46346411 1.56716605,4.46346411 1.42095668,4.60971925 L0.359679914,5.67049248 C0.21342477,5.81674763 0.21342477,6.05441796 0.359679914,6.2006731 L6.15902827,12.0000279 L0.359679914,17.7989121 C0.21342477,17.9451672 0.21342477,18.1828375 0.359679914,18.3290469 L1.42045314,19.3898659 C1.56670829,19.5360753 1.80437862,19.5360753 1.95063376,19.3898659 Z" id="times"></path>
                </g>
            </g>
        </g>
    </g>
</svg>