<?xml version="1.0" encoding="UTF-8"?>
<svg width="100px" height="100px" viewBox="0 0 100 100" version="1.1" xmlns="http://www.w3.org/2000/svg" xmlns:xlink="http://www.w3.org/1999/xlink">
    <title>icon-assets-under-management</title>
    <g id="Design---2020" stroke="none" stroke-width="1" fill="none" fill-rule="evenodd">
        <g id="Investments" transform="translate(-63.000000, -2166.000000)" fill-rule="nonzero">
            <g id="Investmentl-section-icons_assets_management" transform="translate(63.000000, 2166.000000)">
                <ellipse id="Oval" fill="#40BEEE" cx="49.9937009" cy="50.0067961" rx="49.9937009" ry="49.9931646"></ellipse>
                <path d="M46.8690946,10.9471366 C61.5650841,10.9482694 75.5162214,17.4153322 85.0143337,28.629398 C94.512446,39.8434639 98.5953721,54.668545 96.1778818,69.1641768 C103.551102,51.4048885 100.084991,30.9907563 87.2632599,16.6602904 C74.4415283,2.32982444 54.53692,-3.3767968 36.0698375,1.98321323 C17.6027549,7.34322326 3.84662177,22.8197641 0.689913072,41.7879198 C8.43321977,23.117941 26.656861,10.9472755 46.8690946,10.9471366 Z" id="Path" fill="#153359"></path>
                <rect id="Rectangle" fill="#FFFFFF" x="60.9923151" y="51.506591" width="2.99962205" height="40.4944633"></rect>
                <rect id="Rectangle" fill="#FFFFFF" x="35.9954646" y="31.0093935" width="2.99962205" height="60.9916608"></rect>
                <ellipse id="Oval" fill="#F2A11F" cx="37.4902763" cy="18.7610682" rx="18.7476378" ry="18.7474367"></ellipse>
                <ellipse id="Oval" fill="#FFFFFF" cx="48.4188993" cy="18.7610682" rx="1.56480284" ry="1.56478605"></ellipse>
                <ellipse id="Oval" fill="#FFFFFF" cx="26.5466552" cy="18.7610682" rx="1.56480284" ry="1.56478605"></ellipse>
                <path d="M37.4952757,0.013631493 C27.1412412,0.013631493 18.7476378,8.40714482 18.7476378,18.7610682 C18.7476378,29.1149916 27.1412412,37.5085049 37.4952757,37.5085049 C47.8493101,37.5085049 56.2429135,29.1149916 56.2429135,18.7610682 C56.2429135,13.7889389 54.2677216,9.02045497 50.7518575,5.50462858 C47.2359934,1.98880219 42.4674584,0.013631493 37.4952757,0.013631493 Z M37.4952757,35.1638263 C30.8604539,35.1658477 24.877815,31.1707265 22.3373773,25.0415965 C19.7969396,18.9124665 21.1990707,11.8565284 25.8898833,7.16433599 C30.5806959,2.47214362 37.636282,1.06787679 43.7662519,3.60641877 C49.8962217,6.14496074 53.8932096,12.1263173 53.8932096,18.7610682 C53.8821971,27.8135444 46.5478451,35.1500537 37.4952757,35.1638263 L37.4952757,35.1638263 Z" id="Shape" fill="#DD7526"></path>
                <path d="M37.4952757,29.1246512 C34.9985047,29.1797484 32.7124762,27.731289 31.6960064,25.4501536 C31.534364,25.0643595 31.5908213,24.6216369 31.8441112,24.288755 C32.0974011,23.9558731 32.5090429,23.7834046 32.9239751,23.8363168 C33.3389074,23.889229 33.6940919,24.1594833 33.8557342,24.5452774 C34.5199067,25.9446597 35.9468014,26.8207793 37.4952757,26.7799718 C39.6350061,26.7799718 41.3797862,25.2451817 41.3797862,23.35544 C41.3797862,21.7956533 40.6998719,19.9359076 37.4752782,19.9359076 C32.8858564,19.9359076 31.2510624,16.9363177 31.2510624,14.1666964 C31.2560618,11.0121277 34.0457103,8.40248451 37.4952757,8.40248451 C39.9930326,8.3431376 42.2819093,9.79018108 43.2995443,12.0719828 C43.4620797,12.4577769 43.4064477,12.900976 43.1536043,13.2346313 C42.9007609,13.5682866 42.4891191,13.7417079 42.0737404,13.6895691 C41.6583616,13.6374303 41.3023518,13.3676525 41.1398165,12.9818584 C40.4773835,11.5779326 39.0470486,10.6989433 37.4952757,10.7421646 C35.3555453,10.7421646 33.6107651,12.2819541 33.6107651,14.1666964 C33.6107651,15.7314824 34.2856801,17.5912282 37.4952757,17.5912282 C42.1046949,17.5912282 43.7444883,20.590818 43.7444883,23.35544 C43.7294902,26.5350053 40.9348423,29.1246512 37.4952757,29.1246512 Z" id="Path" fill="#FFFFFF"></path>
                <path d="M35.9954646,9.66231226 L35.9954646,6.95268274 C35.9892532,6.46513995 36.271657,6.01996663 36.7153739,5.8178379 C37.1048567,5.6413707 37.5572621,5.67450119 37.9168809,5.9058265 C38.2764996,6.13715182 38.4942361,6.5350911 38.4951497,6.96268137 L38.4951497,9.65731294 C38.4925478,10.0840148 38.2741281,10.4803976 37.9147922,10.7105316 C37.5554562,10.9406657 37.1040507,10.9732675 36.7153739,10.7971571 C36.2707668,10.5960519 35.9879479,10.1502242 35.9954646,9.66231226 Z" id="Path" fill="#FFFFFF"></path>
                <path d="M35.9954646,30.5694537 L35.9954646,27.8598242 C35.9879479,27.3719122 36.2707668,26.9260845 36.7153739,26.7249793 C37.1048567,26.5485121 37.5572621,26.5816426 37.9168809,26.8129679 C38.2764996,27.0442933 38.4942361,27.4422325 38.4951497,27.8698228 L38.4951497,30.5644544 C38.4925478,30.9911562 38.2741281,31.387539 37.9147922,31.617673 C37.5554562,31.8478071 37.1040507,31.8804089 36.7153739,31.7042985 C36.2698681,31.5042296 35.9866276,31.0577372 35.9954646,30.5694537 L35.9954646,30.5694537 Z" id="Path" fill="#FFFFFF"></path>
                <ellipse id="Oval" fill="#F2A11F" cx="62.4821274" cy="39.073291" rx="18.7476378" ry="18.7474367"></ellipse>
                <ellipse id="Oval" fill="#FFFFFF" cx="73.4107504" cy="39.073291" rx="1.56480284" ry="1.56478605"></ellipse>
                <ellipse id="Oval" fill="#FFFFFF" cx="51.5385063" cy="39.073291" rx="1.56480284" ry="1.56478605"></ellipse>
                <path d="M62.4921261,20.3258543 C52.1380916,20.3258543 43.7444883,28.7193676 43.7444883,39.073291 C43.7444883,49.4272144 52.1380916,57.8207277 62.4921261,57.8207277 C72.8461606,57.8207277 81.239764,49.4272144 81.239764,39.073291 C81.239764,34.1011616 79.2645721,29.3326777 75.748708,25.8168514 C72.2328439,22.301025 67.4643088,20.3258543 62.4921261,20.3258543 Z M62.4921261,55.4760483 C53.4330362,55.4760483 46.0891929,48.1322837 46.0891929,39.073291 C46.0891929,30.0142983 53.4330362,22.6705337 62.4921261,22.6705337 C71.551216,22.6705337 78.8950594,30.0142983 78.8950594,39.073291 C78.8867906,48.1288565 71.5477888,55.4677796 62.4921261,55.4760483 Z" id="Shape" fill="#DD7526"></path>
                <path d="M62.4921261,49.436874 C59.9939297,49.4926586 57.7060925,48.0443017 56.6878574,45.7623764 C56.4365996,45.1659904 56.7163864,44.4788415 57.3127787,44.2275863 C57.9091711,43.9763311 58.5963274,44.2561149 58.8475853,44.8525008 C59.5120275,46.2546259 60.9410521,47.1328099 62.4921261,47.0921946 C64.6368559,47.0921946 66.381636,45.5524051 66.381636,43.6676628 C66.381636,42.1078761 65.7017217,40.243131 62.477128,40.243131 C57.8827069,40.243131 56.2479129,37.2435412 56.2479129,34.4789192 C56.2479129,31.2993539 59.0425608,28.709708 62.477128,28.709708 C64.9756991,28.6525746 67.2642206,30.1013647 68.2813967,32.3842056 C68.5326546,32.9805916 68.2528678,33.6677405 67.6564754,33.9189957 C67.060083,34.1702509 66.3729267,33.8904672 66.1216688,33.2940812 C65.4614441,31.8952297 64.0385219,31.0171824 62.4921261,31.0543874 C60.3523957,31.0543874 58.6076156,32.5891775 58.6076156,34.4789192 C58.6076156,36.0387059 59.2825305,37.9034509 62.4921261,37.9034509 C67.096546,37.9034509 68.7363394,40.8780442 68.7363394,43.6676628 C68.7163419,46.8472281 65.921694,49.436874 62.4921261,49.436874 Z" id="Path" fill="#FFFFFF"></path>
                <path d="M60.9923151,29.974535 L60.9923151,27.2649055 C60.9847984,26.7769936 61.2676172,26.3311659 61.7122244,26.1300607 C62.1009011,25.9539503 62.5523066,25.9865521 62.9116426,26.2166862 C63.2709786,26.4468202 63.4893983,26.843203 63.4920001,27.2699048 L63.4920001,29.9695357 C63.4893983,30.3962376 63.2709786,30.7926203 62.9116426,31.0227544 C62.5523066,31.2528884 62.1009011,31.2854903 61.7122244,31.1093799 C61.2676172,30.9082747 60.9847984,30.462447 60.9923151,29.974535 Z" id="Path" fill="#FFFFFF"></path>
                <path d="M60.9923151,50.8816765 L60.9923151,48.172047 C60.9847984,47.684135 61.2676172,47.2383073 61.7122244,47.0372021 C62.1009011,46.8610917 62.5523066,46.8936936 62.9116426,47.1238276 C63.2709786,47.3539617 63.4893983,47.7503444 63.4920001,48.1770463 L63.4920001,50.8766772 C63.4893983,51.303379 63.2709786,51.6997618 62.9116426,51.9298958 C62.5523066,52.1600299 62.1009011,52.1926317 61.7122244,52.0165213 C61.2676172,51.8154161 60.9847984,51.3695884 60.9923151,50.8816765 L60.9923151,50.8816765 Z" id="Path" fill="#FFFFFF"></path>
                <path d="M64.1619157,79.5027632 L76.5603535,79.5027632 C85.1196887,79.5027632 92.0584008,72.5641255 92.0584008,64.0048822 L79.659963,64.0048822 C71.1006278,64.0048822 64.1619157,70.9435199 64.1619157,79.5027632 Z" id="Path" fill="#1C7065"></path>
                <path d="M64.0519296,79.5027632 L76.5503548,79.5027632 C85.1787169,79.5027632 92.1733863,72.5081688 92.1733863,63.8798993 L92.1733863,63.8798993 C92.1733863,63.8798993 77.4902364,67.7443709 64.0519296,79.5027632 Z" id="Path" fill="#8DC63F"></path>
                <path d="M60.8123378,73.5035835 L48.4138999,73.5035835 C39.8545648,73.5035835 32.9158527,66.5649458 32.9158527,58.0057024 L45.3142905,58.0057024 C53.8736257,58.0057024 60.8123378,64.9443401 60.8123378,73.5035835 Z" id="Path" fill="#1C7065"></path>
                <path d="M60.9273233,73.5035835 L48.4288981,73.5035835 C39.800536,73.5035835 32.8058665,66.508989 32.8058665,57.8807195 L32.8058665,57.8807195 C32.8058665,57.8807195 47.4940158,61.7451911 60.9273233,73.5035835 Z" id="Path" fill="#8DC63F"></path>
                <path d="M35.8154873,53.006386 L23.4170495,53.006386 C14.8577143,53.006386 7.91900222,46.0677483 7.91900222,37.5085049 L20.31744,37.5085049 C24.4277777,37.5085049 28.3697667,39.1413127 31.2762144,42.0477292 C34.182662,44.9541457 35.8154873,48.8960924 35.8154873,53.006386 L35.8154873,53.006386 Z" id="Path" fill="#1C7065"></path>
                <path d="M35.9254735,53.006386 L23.4270482,53.006386 C14.7986862,53.006386 7.80401671,46.0117915 7.80401671,37.383522 L7.80401671,37.383522 C7.80401671,37.383522 22.4971654,41.2479937 35.9254735,53.006386 Z" id="Path" fill="#8DC63F"></path>
                <path d="M35.8154873,79.5027632 L23.4170495,79.5027632 C14.8577143,79.5027632 7.91900222,72.5641255 7.91900222,64.0048822 L20.31744,64.0048822 C24.4277777,64.0048822 28.3697667,65.63769 31.2762144,68.5441064 C34.182662,71.4505229 35.8154873,75.3924696 35.8154873,79.5027632 L35.8154873,79.5027632 Z" id="Path" fill="#1C7065"></path>
                <path d="M35.9254735,79.5027632 L23.4270482,79.5027632 C14.7986862,79.5027632 7.80401671,72.5081688 7.80401671,63.8798993 L7.80401671,63.8798993 C7.80401671,63.8798993 22.4971654,67.7443709 35.9254735,79.5027632 Z" id="Path" fill="#8DC63F"></path>
                <path d="M49.9937009,100 C62.1682779,100.015251 73.9264435,95.5688587 83.0445366,87.5016695 L16.9428652,87.5016695 C26.0614458,95.5680509 37.819293,100.014323 49.9937009,100 Z" id="Path" fill="#153359"></path>
            </g>
        </g>
    </g>
</svg>