<?xml version="1.0" encoding="UTF-8"?>
<svg width="74px" height="74px" viewBox="0 0 74 74" version="1.1" xmlns="http://www.w3.org/2000/svg" xmlns:xlink="http://www.w3.org/1999/xlink">
    <title>icon-judicial</title>
    <g id="Design---2020" stroke="none" stroke-width="1" fill="none" fill-rule="evenodd">
        <g id="Funding" transform="translate(-229.000000, -2081.000000)">
            <g id="Group-5" transform="translate(229.000000, 2081.000000)">
                <circle id="Oval" fill="#4AB7DD" cx="37" cy="37" r="37"></circle>
                <g id="Funding-icons_Judicial" transform="translate(13.000000, 18.000000)" fill="#FFFFFF" fill-rule="nonzero">
                    <path d="M33.3057286,12.9163861 C30.7151759,14.4772486 28.0908543,15.9758682 25.4592965,17.4649119 L23.481407,18.5709218 L21.4962814,19.662568 C20.1768844,20.39512 18.8430151,21.0989446 17.5163819,21.8171328 C14.8598995,23.2535094 12.1873367,24.6595624 9.49869347,26.035292 C6.80683417,27.4046376 4.10291457,28.7524376 1.35316583,30.0116611 L0,27.4620927 C2.60261307,25.9203819 5.25105528,24.4840053 7.91155779,23.0476287 C10.5720603,21.6112522 13.2542714,20.2323307 15.9533668,18.8725609 C17.2992965,18.190282 18.6452261,17.5056092 20.000804,16.8376941 L22.0317588,15.8322305 L24.0699497,14.8387367 C26.7883417,13.5220582 29.5163819,12.2221374 32.2709548,10.9844596 L33.3057286,12.9163861 Z" id="Path"></path>
                    <polygon id="Rectangle" transform="translate(32.089633, 12.240730) rotate(-27.510000) translate(-32.089633, -12.240730) " points="28.1992296 5.62281351 35.9391803 5.64664494 35.9800363 18.858647 28.2400856 18.8348156"></polygon>
                    <path d="M21.8737239,2.60135552 L33.4041552,2.63685789 C33.5968309,2.63745114 33.7528788,2.79349697 33.7534746,2.98617268 L33.7615178,5.58716429 C33.7621162,5.78068394 33.6057226,5.93804774 33.412203,5.93864616 C33.4114822,5.93864839 33.4107614,5.9386484 33.4100405,5.93864618 L21.8796093,5.90314381 C21.6869336,5.90255055 21.5308857,5.74650473 21.5302899,5.55382902 L21.5222467,2.95283741 C21.5216483,2.75931776 21.6780418,2.60195396 21.8715615,2.60135553 C21.8722823,2.6013533 21.8730031,2.6013533 21.8737239,2.60135552 Z" id="Rectangle" transform="translate(27.641882, 4.270001) rotate(-27.510000) translate(-27.641882, -4.270001) "></path>
                    <path d="M30.4422935,18.8123266 L41.9727247,18.847829 C42.1654004,18.8484223 42.3214483,19.0044681 42.3220442,19.1971438 L42.3300873,21.7981354 C42.3306857,21.9916551 42.1742922,22.1490189 41.9807725,22.1496173 C41.9800517,22.1496195 41.9793309,22.1496195 41.9786101,22.1496173 L30.4481789,22.1141149 C30.2555031,22.1135217 30.0994552,21.9574759 30.0988594,21.7648001 L30.0908163,19.1638085 C30.0902178,18.9702889 30.2466114,18.8129251 30.440131,18.8123267 C30.4408518,18.8123244 30.4415727,18.8123244 30.4422935,18.8123266 Z" id="Rectangle" transform="translate(36.210452, 20.480972) rotate(-27.510000) translate(-36.210452, -20.480972) "></path>
                    <rect id="Rectangle" x="22.1137688" y="29.0061975" width="23.4910553" height="2.85360143" rx="0.2784"></rect>
                    <rect id="Rectangle" x="20.1961809" y="32.5731993" width="27.8038191" height="1.42680071" rx="0.1608"></rect>
                    <polygon id="Rectangle" transform="translate(32.098476, 12.269463) rotate(-27.540000) translate(-32.098476, -12.269463) " points="27.546127 7.69480626 36.6225987 7.7227734 36.6508255 16.8441198 27.5743538 16.8161527"></polygon>
                </g>
            </g>
        </g>
    </g>
</svg>