<?xml version="1.0" encoding="UTF-8"?>
<svg width="74px" height="74px" viewBox="0 0 74 74" version="1.1" xmlns="http://www.w3.org/2000/svg" xmlns:xlink="http://www.w3.org/1999/xlink">
    <title>icon-state</title>
    <g id="Design---2020" stroke="none" stroke-width="1" fill="none" fill-rule="evenodd">
        <g id="Funding" transform="translate(-229.000000, -1736.000000)">
            <g id="Group-9" transform="translate(229.000000, 1736.000000)">
                <circle id="Oval" fill="#153359" cx="37" cy="37" r="37"></circle>
                <g id="Funding-icons_State" transform="translate(16.000000, 17.000000)" fill="#FFFFFF" fill-rule="nonzero">
                    <path d="M40.9329402,14.5962984 L2.06705976,14.5962984 C1.69911744,14.6005601 1.37139639,14.3644609 1.25914451,14.014187 C1.15018092,13.6676344 1.28545726,13.290959 1.59004597,13.0927958 L21.0208375,0.141772123 C21.3115109,-0.0472573744 21.6863404,-0.0472573744 21.9770138,0.141772123 L41.409954,13.0927958 C41.7154976,13.2912203 41.8509037,13.6691359 41.7408555,14.0163348 C41.627841,14.3657583 41.3003028,14.6008552 40.9329402,14.5962984 Z M4.80451729,12.8780193 L38.1954827,12.8780193 L21.5,1.75474373 L4.80451729,12.8780193 Z" id="Shape"></path>
                    <path d="M6.94248451,30.940724 C6.47607061,30.940724 6.09466053,30.5691585 6.0830002,30.1030955 L6.0830002,14.2096337 C6.0830002,13.7351625 6.46780443,13.3505276 6.94248451,13.3505276 C7.41716459,13.3505276 7.80196882,13.7351625 7.80196882,14.2096337 L7.80196882,30.1030955 C7.79030849,30.5691585 7.4088984,30.940724 6.94248451,30.940724 Z" id="Path"></path>
                    <path d="M35.95008,30.940724 C35.4836661,30.940724 35.102256,30.5691585 35.0905956,30.1030955 L35.0905956,14.2096337 C35.0905956,13.7351625 35.4753999,13.3505276 35.95008,13.3505276 C36.42476,13.3505276 36.8095643,13.7351625 36.8095643,14.2096337 L36.8095643,30.1030955 C36.7979039,30.5691585 36.4164938,30.940724 35.95008,30.940724 Z" id="Path"></path>
                    <path d="M14.2481011,30.940724 C13.7816872,30.940724 13.4002772,30.5691585 13.3886168,30.1030955 L13.3886168,14.2096337 C13.3886168,13.7351625 13.7734211,13.3505276 14.2481011,13.3505276 C14.7227812,13.3505276 15.1075854,13.7351625 15.1075854,14.2096337 L15.1075854,30.1030955 C15.0959251,30.5691585 14.714515,30.940724 14.2481011,30.940724 Z" id="Path"></path>
                    <path d="M21.5537178,30.940724 C21.0873039,30.940724 20.7058938,30.5691585 20.6942335,30.1030955 L20.6942335,14.2096337 C20.6942335,13.7351625 21.0790377,13.3505276 21.5537178,13.3505276 C22.0283978,13.3505276 22.4132021,13.7351625 22.4132021,14.2096337 L22.4132021,30.1030955 C22.4015418,30.5691585 22.0201317,30.940724 21.5537178,30.940724 Z" id="Path"></path>
                    <path d="M28.8593344,30.940724 C28.3929205,30.940724 28.0115104,30.5691585 27.9998501,30.1030955 L27.9998501,14.2096337 C27.9998501,13.7351625 28.3846543,13.3505276 28.8593344,13.3505276 C29.3340145,13.3505276 29.7188187,13.7351625 29.7188187,14.2096337 L29.7188187,30.1030955 C29.7071584,30.5691585 29.3257483,30.940724 28.8593344,30.940724 Z" id="Path"></path>
                    <path d="M38.7519988,31.1340228 L4.2480012,31.1340228 C3.77332112,31.1340228 3.38851689,30.7493879 3.38851689,30.2749167 C3.38851689,29.8004456 3.77332112,29.4158107 4.2480012,29.4158107 L38.7519988,29.4158107 C39.2266789,29.4158107 39.6114831,29.8004456 39.6114831,30.2749167 C39.6114831,30.7493879 39.2266789,31.1340228 38.7519988,31.1340228 Z" id="Path"></path>
                    <path d="M42.1405157,35 L0.859484309,35 C0.384804233,35 0,34.6153651 0,34.140894 C0,33.6664228 0.384804233,33.2817879 0.859484309,33.2817879 L42.1405157,33.2817879 C42.6151958,33.2817879 43,33.6664228 43,34.140894 C43,34.6153651 42.6151958,35 42.1405157,35 Z" id="Path"></path>
                    <polygon id="Path" points="21.5322307 0.5434042 41.1735958 13.7371253 1.82210674 13.7371253"></polygon>
                </g>
            </g>
        </g>
    </g>
</svg>