<?xml version="1.0" encoding="UTF-8"?>
<svg viewBox="0 0 23 29" version="1.1" xmlns="http://www.w3.org/2000/svg" xmlns:xlink="http://www.w3.org/1999/xlink">
    <g fill="#053F55">
        <g transform="translate(0, 0.528303)">
            <path d="M21.5648697,25.735397 L15.1896879,24.2710636 L15.1896879,10.2940333 L15.8044152,9.67442727 L15.8462333,9.63260909 L15.8845667,9.58591212 C16.3745364,8.99976061 16.7662333,8.32857879 16.9774152,7.5946697 C17.004597,7.50057879 17.0185364,7.40718485 17.0408394,7.31309394 L21.5648697,8.35297273 L21.5648697,25.735397 Z M8.46602121,26.3166697 L8.46602121,10.9965788 L10.4900212,13.0359121 L10.9848697,13.5349424 C11.2573848,13.8095485 11.7013545,13.8095485 11.9738697,13.5349424 L12.4687182,13.0359121 L14.4927182,10.9965788 L14.4927182,24.3073061 L8.46602121,26.3166697 Z M1.3938697,7.50545758 L6.43365758,8.66312424 C6.61696061,8.98930606 6.83302121,9.29736667 7.07277879,9.58451818 L7.11111212,9.63121515 L7.15362727,9.67303333 L7.76905152,10.2940333 L7.76905152,26.3529121 L1.3938697,24.8878818 L1.3938697,7.50545758 Z M7.13341515,5.9087 C7.13341515,3.50833636 9.07935455,1.56239697 11.4790212,1.56239697 C13.7755364,1.56239697 15.6510818,3.34454848 15.8099909,5.60063939 C15.8169606,5.70309394 15.8253242,5.80415455 15.8253242,5.9087 C15.8253242,6.11639697 15.7995364,6.31712424 15.7709606,6.51645758 C15.7437788,6.67954848 15.7110212,6.84124545 15.6699,6.99876061 C15.5061121,7.62812424 15.2196576,8.20800303 14.8147182,8.69239697 L11.9738697,11.5555485 C11.7013545,11.8308515 11.2573848,11.8308515 10.9848697,11.5555485 L8.46602121,9.01718485 L8.14262727,8.6917 C8.09035455,8.62827576 8.05062727,8.55579091 8.00183939,8.48957879 C7.90844545,8.36482121 7.81365758,8.24215455 7.73420303,8.10833636 C7.61362727,7.90203333 7.50977879,7.68597273 7.42335455,7.46015455 C7.23865758,6.97785152 7.13341515,6.45582121 7.13341515,5.9087 Z M22.4179606,7.11794242 L21.8771121,6.99388182 L17.2095061,5.92194242 C17.2157788,2.75142727 14.6481424,0.168457576 11.4790212,0.168457576 C7.92447576,0.168457576 5.12405152,3.41842727 5.87050606,7.10400303 L1.70611212,6.14706364 L0.853021212,5.95051818 C0.416718182,5.85085152 -6.96969697e-05,6.18191212 -6.96969697e-05,6.63006364 L-6.96969697e-05,7.50545758 L-6.96969697e-05,24.8878818 L-6.96969697e-05,25.4433667 C-6.96969697e-05,25.7681545 0.224354545,26.0497303 0.540778788,26.1229121 L1.08162727,26.2469727 L7.80529394,27.7907606 L8.18723333,27.8785788 L8.55802121,27.7545182 L14.9109,25.6371242 L21.2526273,27.0937909 L22.1057182,27.2896394 C22.5420212,27.390003 22.9588091,27.0582455 22.9588091,26.6107909 L22.9588091,25.735397 L22.9588091,8.35297273 L22.9588091,7.79818485 C22.9588091,7.4727 22.7343848,7.19112424 22.4179606,7.11794242 Z"/>
        </g>
        <path d="M11.4792303,4.73730303 C12.3894727,4.73730303 13.1275636,5.47539394 13.1275636,6.38563636 C13.1275636,7.29587879 12.3894727,8.03327273 11.4792303,8.03327273 C10.5689879,8.03327273 9.83089697,7.29587879 9.83089697,6.38563636 C9.83089697,5.47539394 10.5689879,4.73730303 11.4792303,4.73730303 M11.4792303,8.73024242 C12.7721091,8.73024242 13.8245333,7.67921212 13.8245333,6.38563636 C13.8245333,5.09275758 12.7721091,4.04033333 11.4792303,4.04033333 C10.1863515,4.04033333 9.13392727,5.09275758 9.13392727,6.38563636 C9.13392727,7.67921212 10.1863515,8.73024242 11.4792303,8.73024242"/>
    </g>
</svg>
