<svg xmlns="http://www.w3.org/2000/svg" viewBox="0 0 64 80" x="0px" y="0px">
 <g fill="#053F55" transform="translate(0,13)" stroke-width="0.75" stroke="#053F55">
  <path d="M50,45H46V35a2.00229,2.00229,0,0,0-2-2H20a2.00229,2.00229,0,0,0-2,2V45H14a2.00229,2.00229,0,0,0-2,2v2a2.00229,2.00229,0,0,0,2,2h3v7h2V51H45v7h2V51h3a2.00229,2.00229,0,0,0,2-2V47A2.00229,2.00229,0,0,0,50,45ZM20,35H44V45H20ZM14,49V47H50l.001,2Z"/>
  <path d="M15,30a7.00957,7.00957,0,0,0,6.93848-6.07324,6.00067,6.00067,0,0,0-.00977-11.855A6.01038,6.01038,0,0,0,16,7H2V9H16a4.00427,4.00427,0,0,1,4,4v1h1a4,4,0,0,1,0,8H20v1a5.00588,5.00588,0,0,1-5,5H10V23.67725l4.37109-1.74854-.74218-1.85742L10,21.52277V16H8V28H2v2H8V58h2V30Z"/>
  <path d="M43,9h1V8a4.00427,4.00427,0,0,1,4-4H62V2H48a6.01038,6.01038,0,0,0-5.92871,5.07178,6.00067,6.00067,0,0,0-.00977,11.855A7.00957,7.00957,0,0,0,49,25h5V58h2V25h6V23H56V10H54v7.05676l-5.419-3.87072L47.419,14.814,54,19.51465V23H49a5.00588,5.00588,0,0,1-5-5V17H43a4,4,0,0,1,0-8Z"/>
  </g>
</svg>