<svg xmlns:dc="http://purl.org/dc/elements/1.1/" xmlns:cc="http://creativecommons.org/ns#" xmlns:rdf="http://www.w3.org/1999/02/22-rdf-syntax-ns#" xmlns:svg="http://www.w3.org/2000/svg" xmlns="http://www.w3.org/2000/svg" xmlns:sodipodi="http://sodipodi.sourceforge.net/DTD/sodipodi-0.dtd" xmlns:inkscape="http://www.inkscape.org/namespaces/inkscape" version="1.1" x="0px" y="0px" viewBox="0 0 100 125">
  <g transform="translate(0,-930.36218)" stroke-width="0.5" stroke="#053F55">
    <path d="m 48.781207,966.77032 -31,23.9994 c -0.486,0.3735 -0.7836,0.9807 -0.7812,1.5937 l 0,43.99888 c 10e-5,1.0471 0.9528,1.9998 2,1.9999 l 21,0 c 1.0472,-10e-5 1.9999,-0.9528 2,-1.9999 l 0,-14.0001 c 0,-4.4665 3.5334,-7.9998 8,-7.9998 4.4666,0 8,3.5333 8,7.9998 l 0,14.0001 c 1e-4,1.0471 0.9528,1.9998 2,1.9999 l 21,0 c 1.0472,-10e-5 1.9999,-0.9528 2,-1.9999 l 0,-43.99888 c 0,-0.613 -0.2952,-1.2202 -0.7812,-1.5937 l -31,-23.9994 c -0.747,-0.5851 -1.7897,-0.5017 -2.4376,0 z m 1.2188,4.0937 29,22.46806 0,41.03022 -17,0 0,-12.0001 c 0,-6.6132 -5.3866,-11.9997 -12,-11.9997 -6.6134,0 -12,5.3865 -12,11.9997 l 0,12.0001 -17,0 0,-41.03022 z" fill="#053F55" fill-opacity="1" marker="none" visibility="visible" display="inline" overflow="visible"/>
  </g>
</svg>