<?xml version="1.0" encoding="utf-8"?>
<svg version="1.1" viewBox="0 0 26 27.6" xmlns="http://www.w3.org/2000/svg" xmlns:xlink="http://www.w3.org/1999/xlink">
	<g>
		<path fill="#FFFFFF" d="M4.7,1.4h16.5h1.4C22.5,0.6,22,0,21.4,0H4.5C3.9,0,3.5,0.6,3.4,1.4H4.7z M19,5.8c-2.1,0-3.8,1.7-3.8,3.8
			s1.7,3.8,3.8,3.8c2.1,0,3.8-1.7,3.8-3.8S21.1,5.8,19,5.8z M19,7.4c1.2,0,2.2,1,2.2,2.2s-1,2.2-2.2,2.2c-1.2,0-2.2-1-2.2-2.2
			S17.8,7.4,19,7.4z M7,5.8c-2.1,0-3.8,1.7-3.8,3.8s1.7,3.8,3.8,3.8s3.8-1.7,3.8-3.8S9.1,5.8,7,5.8z M7,7.4c1.2,0,2.2,1,2.2,2.2
			s-1,2.2-2.2,2.2c-1.2,0-2.2-1-2.2-2.2S5.7,7.4,7,7.4z M24.4,2.7H1.6C0.7,2.7,0,3.4,0,4.3v12.1C0,17.3,0.7,18,1.6,18h7.5
			c0.7,0,1.2-0.4,1.5-1c0.4-1,1.3-1.6,2.4-1.6c1.1,0,2,0.7,2.4,1.6c0.3,0.6,0.8,1,1.4,1h6.9c1.5,0,2.2-0.7,2.2-1.6V4.3
			C26,3.4,25.2,2.7,24.4,2.7z M24.4,4.3v12c-0.1,0-0.3,0.1-0.6,0.1h-6.8c0,0,0,0,0-0.1c-0.7-1.6-2.2-2.6-3.9-2.6
			c-1.7,0-3.2,1-3.9,2.6c0,0,0,0.1,0,0.1H1.6V4.3H24.4z"/>
	</g>
	<g>
		<path id="VR" fill="#FFFFFF" d="M10.7,23.9l0.7-2c0-0.1,0.1-0.1,0.1-0.1H13l-2.1,5.9H9.2c-0.1,0-0.2-0.1-0.2-0.2l-2.1-5.7h1.6
			c0.1,0,0.1,0,0.1,0.1l0.7,1.9c0.4,1.1,0.6,1.9,0.7,2.5h0C10.1,25.8,10.3,24.9,10.7,23.9z M15.3,25.8v1.9h-1.6v-5.9h2.6
			c1,0,1.6,0.2,2,0.6c0.3,0.3,0.5,0.8,0.5,1.4c0,0.8-0.4,1.5-1,1.8l1.3,2.1h-1.6c-0.1,0-0.2,0-0.3-0.2L16.4,26
			c-0.1-0.2-0.1-0.2-0.3-0.2H15.3z M15.3,24.5h1.5c0.2,0,0.2,0,0.3-0.2c0.1-0.2,0.1-0.4,0.1-0.6c0-0.2-0.1-0.4-0.2-0.5
			c-0.1-0.1-0.4-0.2-0.8-0.2h-1V24.5z"/>
	</g>
</svg>
