<?xml version="1.0" encoding="UTF-8"?>
<svg viewBox="0 0 26 18" version="1.1" xmlns="http://www.w3.org/2000/svg" xmlns:xlink="http://www.w3.org/1999/xlink">
  <g fill="#053F55">
    <path d="M4.74704848,1.35696364 L21.2058364,1.35696364 L22.579897,1.35696364 C22.5003212,0.591145455 22.0181394,-0.000551515152 21.4280182,-0.000551515152 L4.52486667,-0.000551515152 C3.93553333,-0.000551515152 3.45256364,0.591145455 3.37298788,1.35696364 L4.74704848,1.35696364 Z M18.9950485,5.78326667 C16.8929879,5.78326667 15.1817152,7.49375152 15.1817152,9.5966 C15.1817152,11.6994485 16.8929879,13.4099333 18.9950485,13.4099333 C21.097897,13.4099333 22.8083818,11.6994485 22.8083818,9.5966 C22.8083818,7.49375152 21.097897,5.78326667 18.9950485,5.78326667 Z M18.9950485,7.35902424 C20.2312303,7.35902424 21.2326242,8.36120606 21.2326242,9.5966 C21.2326242,10.8319939 20.2312303,11.8341758 18.9950485,11.8341758 C17.7596545,11.8341758 16.7574727,10.8319939 16.7574727,9.5966 C16.7574727,8.36120606 17.7596545,7.35902424 18.9950485,7.35902424 Z M6.95783636,5.78326667 C4.85498788,5.78326667 3.14450303,7.49375152 3.14450303,9.5966 C3.14450303,11.6994485 4.85498788,13.4099333 6.95783636,13.4099333 C9.06068485,13.4099333 10.7711697,11.6994485 10.7711697,9.5966 C10.7711697,7.49375152 9.06068485,5.78326667 6.95783636,5.78326667 Z M6.95783636,7.35902424 C8.19401818,7.35902424 9.19541212,8.36120606 9.19541212,9.5966 C9.19541212,10.8319939 8.19401818,11.8341758 6.95783636,11.8341758 C5.72244242,11.8341758 4.72026061,10.8319939 4.72026061,9.5966 C4.72026061,8.36120606 5.72244242,7.35902424 6.95783636,7.35902424 Z M24.3778364,2.71369091 L1.57583636,2.71369091 C0.705230303,2.71369091 7.87878788e-05,3.41884242 7.87878788e-05,4.28944848 L7.87878788e-05,16.3959939 C7.87878788e-05,17.2658121 0.705230303,17.9717515 1.57583636,17.9717515 L9.08353333,17.9717515 C9.73747273,17.9717515 10.2787455,17.5423576 10.5340182,16.9404182 C10.9366242,15.9886606 11.880503,15.3205394 12.9764424,15.3205394 C14.0731697,15.3205394 15.0162606,15.9886606 15.4188667,16.9404182 C15.6741394,17.5423576 16.2146242,17.9717515 16.8685636,17.9717515 L23.736503,17.9717515 C25.2492303,17.9717515 25.9535939,17.2658121 25.9535939,16.3959939 L25.9535939,4.28944848 C25.9535939,3.41884242 25.2476545,2.71369091 24.3778364,2.71369091 Z M24.3778364,4.28944848 L24.3778364,16.3014485 C24.2872303,16.3392667 24.0918364,16.3959939 23.736503,16.3959939 L16.9111091,16.3959939 C16.8992909,16.3810242 16.8835333,16.3589636 16.8701394,16.3258727 C16.2051697,14.7579939 14.6774727,13.7447818 12.9764424,13.7447818 C11.2762,13.7447818 9.74771515,14.7579939 9.08274545,16.3258727 C9.06935152,16.3589636 9.05359394,16.3818121 9.04177576,16.3959939 L1.57583636,16.3959939 L1.57583636,4.28944848 L24.3778364,4.28944848 Z"/>
  </g>
</svg>
