<?xml version="1.0" encoding="UTF-8"?>
<svg width="74px" height="74px" viewBox="0 0 74 74" version="1.1" xmlns="http://www.w3.org/2000/svg" xmlns:xlink="http://www.w3.org/1999/xlink">
    <title>icon-school</title>
    <g id="Design---2020" stroke="none" stroke-width="1" fill="none" fill-rule="evenodd">
        <g id="Funding" transform="translate(-229.000000, -1851.000000)">
            <g id="Group-8" transform="translate(229.000000, 1851.000000)">
                <circle id="Oval" fill="#672555" cx="37" cy="37" r="37"></circle>
                <g id="Funding-icons_School" transform="translate(13.000000, 21.000000)" fill="#FFFFFF" fill-rule="nonzero">
                    <path d="M23.7835619,22.0423026 C23.6539643,22.0423026 0,10.9779126 0,10.9779126 C0,10.9779126 23.9371591,-0.115606883 24.1987543,0.00091148381 L47.615123,10.8152724 C47.615123,10.8152724 23.9323592,22.0423026 23.7835619,22.0423026 Z M3.5615344,10.9779126 L23.7835619,19.8939952 L44.0103894,10.9779126 L23.7835619,2.0618301 L3.5615344,10.9779126 Z" id="Shape"></path>
                    <path d="M23.9011598,31.5628242 C17.7243474,31.5365703 11.6967988,29.6401945 6.59507852,26.118018 C6.31355334,25.9256881 6.14456151,25.6047417 6.14388683,25.2611225 L6.08868785,13.3228448 C6.08868785,12.7572452 6.6286779,13.3519744 7.19266752,13.2888603 C7.40808771,13.2420016 7.63286141,13.297497 7.80270933,13.4394762 C7.97255725,13.5814554 8.0687767,13.7942845 8.06385147,14.0171001 L8.06385147,24.6979504 C17.810072,31.0821859 29.7570519,31.0821859 39.5032724,24.6979504 L39.5032724,13.9709782 C39.489525,13.7415022 39.586286,13.5194566 39.7630248,13.3749029 C39.9397636,13.2303492 40.1746817,13.1811163 40.393656,13.2427384 C41.0728435,13.3908138 41.6632326,12.631017 41.6632326,13.2961427 L41.6632326,25.258695 C41.6632326,25.6018588 41.4950537,25.9227115 41.2144409,26.1155905 C36.11185,29.6378241 30.0835231,31.5341818 23.9059597,31.5603967 L23.9011598,31.5628242 Z" id="Path"></path>
                    <path d="M45.983153,27.3924376 C45.4379252,27.3765713 45.008382,26.9171225 45.0231707,26.3656195 L45.0231707,11.2862008 C45.0134421,10.809628 45.3329952,10.3904571 45.7911566,10.2788024 C46.0821606,10.2258643 46.381232,10.3087616 46.6048995,10.5043574 C46.828567,10.6999533 46.9528773,10.9873008 46.9431353,11.2862008 L46.9431353,26.3656195 C46.957924,26.9171225 46.5283808,27.3765713 45.983153,27.3924376 L45.983153,27.3924376 Z" id="Path"></path>
                    <path d="M47.5623239,33.0945552 C47.2479297,33.1431045 46.9263357,32.7255804 46.8423372,32.1648357 L45.7767568,25.0426505 C45.6927584,24.4819059 45.8799549,23.9867028 46.1943491,23.940581 C46.5087433,23.8944591 46.8303374,24.3071283 46.9143359,24.867873 L47.9799162,31.9827758 C48.0639147,32.5459479 47.8767181,33.0387235 47.5623239,33.0872728 L47.5623239,33.0945552 Z" id="Path"></path>
                    <path d="M45.551161,34 C45.2535665,34 45.0159708,33.5606287 45.0231707,33.0290136 L45.0999693,26.2782307 C45.0999693,25.7441882 45.3543646,25.3072443 45.6519591,25.3072443 C45.9495536,25.3072443 46.1871493,25.7441882 46.2231486,26.8438303 L46.14635,33.5970406 C46.0959509,33.5630561 45.8487555,33.9902901 45.551161,33.9878627 L45.551161,34 Z" id="Path"></path>
                    <path d="M43.7151948,32.8493811 C43.3336018,32.7425726 43.1416054,32.2158125 43.2904026,31.6672052 L45.1431685,24.722225 C45.2895658,24.1736177 45.7167579,23.8143527 46.1031508,23.9187338 C46.4895437,24.0231148 46.6767402,24.5523024 46.5303429,25.1009097 L44.6679772,32.0458899 C44.5215799,32.5944972 44.0919879,32.9537622 43.7079949,32.8493811 L43.7151948,32.8493811 Z" id="Path"></path>
                    <polygon id="Path" points="0.916783114 10.8759591 23.6635641 0.695166754 44.9991711 11.1454078 23.6635641 21.0543239"></polygon>
                </g>
            </g>
        </g>
    </g>
</svg>