<?xml version="1.0" encoding="UTF-8"?>
<svg width="80px" height="80px" viewBox="0 0 80 80" version="1.1" xmlns="http://www.w3.org/2000/svg" xmlns:xlink="http://www.w3.org/1999/xlink">
    <title>icon-30-year</title>
    <g id="Design---2020" stroke="none" stroke-width="1" fill="none" fill-rule="evenodd">
        <g id="Review" transform="translate(-616.000000, -1703.000000)" fill-rule="nonzero">
            <g id="icon-30-year" transform="translate(616.000000, 1703.000000)">
                <path d="M79.375,40 C79.375,61.746212 61.746212,79.375 40,79.375 C18.253788,79.375 0.625,61.746212 0.625,40 C0.625,18.253788 18.253788,0.625 40,0.625 C50.4428993,0.625 60.4580846,4.77342559 67.8423295,12.1576705 C75.2265744,19.5419154 79.375,29.5571007 79.375,40" id="Path" fill="#52BF9B"></path>
                <path d="M47.6125,7.0875 C55.2385444,7.07836577 62.7016614,9.29384286 69.0875,13.4625 C58.7997353,2.17800458 42.915125,-2.14078452 28.3298411,2.38109918 C13.7445571,6.90298288 3.08888409,19.4500708 0.988894097,34.5751487 C-1.11109589,49.7002266 5.72330568,64.6756645 18.525,73 C8.01270601,61.4771048 5.29315065,44.8351534 11.5905056,30.5652985 C17.8878605,16.2954436 32.01489,7.08797025 47.6125,7.0875" id="Path" fill="#1B7065"></path>
                <path d="M40,5 L21.25,25 L31.8,25 L31.8,77.9 C34.4961038,78.4692068 37.2444682,78.7540982 40,78.7500436 L40,78.7500436 L40,5 Z" id="Path" fill="#DE7526"></path>
                <path d="M40,5 L40,78.7500436 C42.7555318,78.7540982 45.5038962,78.4692068 48.2,77.9 L48.2,25 L58.75,25 L40,5 Z" id="Path" fill="#F2A11F"></path>
                <path d="M6.8,50.25 L16.6375,50.25 L16.6375,72.5 C19.0238009,74.2206967 21.5936978,75.671242 24.3,76.825 L24.3,31.5 L6.8,50.25 Z" id="Path" fill="#153359"></path>
                <path d="M24.3,31.5 L24.3,76.7875 C26.7625366,77.8434427 29.3255874,78.647537 31.95,79.1875 L31.95,50.25 L41.8,50.25 L24.3,31.5 Z" id="Path" fill="#40BEEE"></path>
                <path d="M54.025,46.8375 L40.275,61.8375 L48.0125,61.8375 L48.0125,77.95 C50.0592359,77.5464192 52.0699628,76.9778977 54.025,76.25 L54.025,46.8375 Z" id="Path" fill="#42133A"></path>
                <path d="M54.025,46.8375 L54.025,76.25 C56.0952552,75.4593951 58.094189,74.4933832 60,73.3625 L60,61.8375 L67.7375,61.8375 L54.025,46.8375 Z" id="Path" fill="#A6228B"></path>
                <path d="M40,0 C17.90861,0 0,17.90861 0,40 C0,62.09139 17.90861,80 40,80 C62.09139,80 80,62.09139 80,40 C80,29.3913404 75.7857264,19.2171839 68.2842712,11.7157288 C60.7828161,4.21427361 50.6086596,0 40,0 M40,77.5 C19.2893219,77.5 2.5,60.7106781 2.5,40 C2.5,19.2893219 19.2893219,2.5 40,2.5 C60.7106781,2.5 77.5,19.2893219 77.5,40 C77.5,60.7106781 60.7106781,77.5 40,77.5" id="Shape" fill="#8DC63F"></path>
                <path d="M9.6875,26.7 C11.7585678,26.7 13.4375,28.3789322 13.4375,30.45 C13.4375,28.3789322 15.1164322,26.7 17.1875,26.7 C15.1164322,26.7 13.4375,25.0210678 13.4375,22.95 C13.4375,25.0210678 11.7585678,26.7 9.6875,26.7" id="Path" fill="#FFFFFF"></path>
                <path d="M57.9375,18.375 C60.0085678,18.375 61.6875,20.0539322 61.6875,22.125 C61.6875,20.0539322 63.3664322,18.375 65.4375,18.375 C63.3664322,18.375 61.6875,16.6960678 61.6875,14.625 C61.6875,16.6960678 60.0085678,18.375 57.9375,18.375" id="Path" fill="#FFFFFF"></path>
                <path d="M52.3125,39.3125 C54.3835678,39.3125 56.0625,40.9914322 56.0625,43.0625 C56.0625,40.9914322 57.7414322,39.3125 59.8125,39.3125 C57.7414322,39.3125 56.0625,37.6335678 56.0625,35.5625 C56.0625,37.6335678 54.3835678,39.3125 52.3125,39.3125" id="Path" fill="#FFFFFF"></path>
                <path d="M64.6875,51.675 C66.7585678,51.675 68.4375,53.3539322 68.4375,55.425 C68.4375,53.3539322 70.1164322,51.675 72.1875,51.675 C70.1164322,51.675 68.4375,49.9960678 68.4375,47.925 C68.4375,49.9960678 66.7585678,51.675 64.6875,51.675" id="Path" fill="#FFFFFF"></path>
            </g>
        </g>
    </g>
</svg>