<?xml version="1.0" encoding="UTF-8"?>
<svg width="74px" height="74px" viewBox="0 0 74 74" version="1.1" xmlns="http://www.w3.org/2000/svg" xmlns:xlink="http://www.w3.org/1999/xlink">
    <title>icon-dps</title>
    <g id="Design---2020" stroke="none" stroke-width="1" fill="none" fill-rule="evenodd">
        <g id="Funding" transform="translate(-229.000000, -2196.000000)">
            <g id="Group-4" transform="translate(229.000000, 2196.000000)">
                <circle id="Oval" fill="#E7992E" cx="37" cy="37" r="37"></circle>
                <g id="Funding-icons_DPS" transform="translate(19.000000, 15.000000)" fill="#FFFFFF" fill-rule="nonzero">
                    <path d="M21.9533268,41.9874045 C20.6078194,41.9874914 19.2717911,41.7639803 18.0006407,41.3261393 C16.7280402,41.7640201 15.3906154,41.9875256 14.0437248,41.9874045 C7.82390151,41.9874045 3.29385676,37.1255308 0.944239715,27.9223986 C-0.570004934,22.0004013 -0.261234377,17.6255547 1.85786218,14.9217148 C4.2540063,11.8735971 9.054754,11.3382871 14.4053671,13.4648321 C16.0063213,14.0946084 16.9601262,14.4577795 17.916046,14.4577795 C18.7725671,14.4577795 19.7686694,14.1890749 21.5916846,13.4648321 C26.952872,11.3340886 31.7430453,11.8735971 34.1434192,14.9343103 C36.258286,17.6402495 36.5712863,22.0129968 35.0570417,27.9349941 C32.7074246,37.1339278 28.175265,42 21.9448673,42 L21.9533268,41.9874045 Z" id="Path"></path>
                    <path d="M13.9189477,14.0967077 C13.7525433,14.0964732 13.5888843,14.054597 13.4431027,13.9749509 C10.579573,12.3858152 8.79039565,9.29151389 8.79039565,5.89911844 C8.79464638,4.93104002 8.94652281,3.96917904 9.24086228,3.04623143 C9.37161358,2.60922312 9.79697356,2.32627408 10.2538835,2.37237069 C12.8939357,2.58380394 15.4044455,3.59671925 17.4444307,5.27354057 C17.8130576,5.62735525 17.8417228,6.20443819 17.5099484,6.59253185 C17.178174,6.9806255 16.5998847,7.04646631 16.1881998,6.7430188 C14.6733431,5.49691653 12.8458556,4.68279478 10.9010327,4.38765512 C10.799843,4.88308228 10.7488323,5.38731419 10.7487623,5.89282068 C10.7487623,8.58616435 12.1466893,11.0338952 14.3969076,12.2808525 C14.7847193,12.4949614 14.977413,12.9424362 14.8653369,13.3686427 C14.7532607,13.7948492 14.3648228,14.0917563 13.9210626,14.0904099 L13.9189477,14.0967077 Z" id="Path"></path>
                    <path d="M26.9655612,1.93362648 C27.2569609,2.86423084 27.4059572,3.83298736 27.4075683,4.80750604 C27.4075683,9.86670966 23.5267877,13.9644547 18.7366143,13.9644547 C18.0999432,13.9623919 17.4658438,13.8841551 16.8480383,13.7314374 C18.4050775,11.6844572 19.812252,9.52929482 21.0587381,7.28252723 C19.594763,8.19562213 18.3022812,9.35495712 17.2392886,10.7085108 C16.6739606,11.4238086 16.1736002,12.1874249 15.7440778,12.9904005 C15.7440778,12.870743 15.7271588,12.746887 15.7271588,12.6209317 C15.7271588,7.04950997 20.6526837,2.46893641 26.9655612,1.93362648 M26.9655612,0.00231223813 C26.9106185,-0.000770746043 26.8555442,-0.000770746043 26.8006016,0.00231223813 C19.377419,0.632088622 13.7814814,6.05236403 13.7814814,12.6125347 C13.7814814,12.7594825 13.7814814,12.9064303 13.8005152,13.0533782 C13.849214,13.894295 14.4330034,14.6106199 15.2513138,14.8335461 C15.521433,15.219839 15.9246537,15.4946334 16.3848824,15.6060718 C17.15435,15.7953804 17.9438702,15.8926371 18.7366143,15.8957689 C24.5884509,15.8957689 29.3490161,10.9226347 29.3490161,4.80750604 C29.3466446,3.64016938 29.1684353,2.47974626 28.8202994,1.36472848 C28.5698898,0.556033806 27.8178838,0.00364040625 26.9655612,0.00231223813 L26.9655612,0.00231223813 Z" id="Shape"></path>
                </g>
            </g>
        </g>
    </g>
</svg>