<?xml version="1.0" encoding="UTF-8"?>
<svg width="15px" height="12px" viewBox="0 0 15 12" version="1.1" xmlns="http://www.w3.org/2000/svg" xmlns:xlink="http://www.w3.org/1999/xlink">
    <title>bars</title>
    <g id="Design---2020" stroke="none" stroke-width="1" fill="none" fill-rule="evenodd">
        <g id="Investments-Copy" transform="translate(-1092.000000, -31.000000)" fill="#FFFFFF" fill-rule="nonzero">
            <g id="Menu---Closed" transform="translate(1064.000000, 0.000000)">
                <g id="Group" transform="translate(28.000000, 29.000000)">
                    <path d="M13.7916342,3.87502414 C13.998726,3.87502414 14.1666333,3.70711683 14.1666333,3.50002503 L14.1666333,2.50002742 C14.1666333,2.29293563 13.998726,2.12502831 13.7916342,2.12502831 L0.541665773,2.12502831 C0.334573981,2.12502831 0.166666667,2.29293563 0.166666667,2.50002742 L0.166666667,3.50002503 C0.166666667,3.70711683 0.334573981,3.87502414 0.541665773,3.87502414 L13.7916342,3.87502414 Z M13.7916342,8.87501222 C13.998726,8.87501222 14.1666333,8.7071049 14.1666333,8.50001311 L14.1666333,7.5000155 C14.1666333,7.29292371 13.998726,7.12501639 13.7916342,7.12501639 L0.541665773,7.12501639 C0.334573981,7.12501639 0.166666667,7.29292371 0.166666667,7.5000155 L0.166666667,8.50001311 C0.166666667,8.7071049 0.334573981,8.87501222 0.541665773,8.87501222 L13.7916342,8.87501222 Z M13.7916342,13.8750003 C13.998726,13.8750003 14.1666333,13.707093 14.1666333,13.5000012 L14.1666333,12.5000036 C14.1666333,12.2929118 13.998726,12.1250045 13.7916342,12.1250045 L0.541665773,12.1250045 C0.334573981,12.1250045 0.166666667,12.2929118 0.166666667,12.5000036 L0.166666667,13.5000012 C0.166666667,13.707093 0.334573981,13.8750003 0.541665773,13.8750003 L13.7916342,13.8750003 Z" id="bars"></path>
                </g>
            </g>
        </g>
    </g>
</svg>