<?xml version="1.0" encoding="UTF-8"?>
<svg width="80px" height="80px" viewBox="0 0 80 80" version="1.1" xmlns="http://www.w3.org/2000/svg" xmlns:xlink="http://www.w3.org/1999/xlink">
    <title>icon-employers</title>
    <g id="Design---2020" stroke="none" stroke-width="1" fill="none" fill-rule="evenodd">
        <g id="Review" transform="translate(-616.000000, -1291.000000)" fill-rule="nonzero">
            <g id="icon-employers" transform="translate(616.000000, 1291.000000)">
                <rect id="Rectangle" fill="#F2A11F" x="36.253979" y="1.25" width="42.4961347" height="55"></rect>
                <rect id="Rectangle" fill="#153359" x="56.25216" y="57.5" width="2.49977263" height="15"></rect>
                <polygon id="Path" fill="#153359" points="72.5006821 80 70.0009095 80 65.0013642 57.5 67.5011369 57.5"></polygon>
                <polygon id="Path" fill="#153359" points="45.0031832 80 42.5034106 80 47.5029558 57.5 50.0027284 57.5"></polygon>
                <rect id="Rectangle" fill="#40BEEE" x="35.0040927" y="0" width="44.9959073" height="2.5"></rect>
                <rect id="Rectangle" fill="#40BEEE" x="35.0040927" y="55" width="44.9959073" height="2.5"></rect>
                <path d="M65.0013642,9.6875 L50.0027284,9.6875 C49.4850086,9.6875 49.0653137,9.26776695 49.0653137,8.75 C49.0653137,8.23223305 49.4850086,7.8125 50.0027284,7.8125 L65.0013642,7.8125 C65.5190841,7.8125 65.938779,8.23223305 65.938779,8.75 C65.938779,9.26776695 65.5190841,9.6875 65.0013642,9.6875" id="Path" fill="#3592AF"></path>
                <path d="M70.0009095,43.75 L59.3768758,43.75 C58.8591559,43.75 58.4394611,43.330267 58.4394611,42.8125 C58.4394611,42.294733 58.8591559,41.875 59.3768758,41.875 L70.0009095,41.875 C70.5186293,41.875 70.9383242,42.294733 70.9383242,42.8125 C70.9383242,43.330267 70.5186293,43.75 70.0009095,43.75" id="Path" fill="#3592AF"></path>
                <path d="M54.3773305,43.75 L45.0031832,43.75 C44.4854633,43.75 44.0657684,43.330267 44.0657684,42.8125 C44.0657684,42.294733 44.4854633,41.875 45.0031832,41.875 L54.3773305,41.875 C54.8950504,41.875 55.3147453,42.294733 55.3147453,42.8125 C55.3147453,43.330267 54.8950504,43.75 54.3773305,43.75" id="Path" fill="#3592AF"></path>
                <path d="M62.5015916,50 L45.0031832,50 C44.4854633,50 44.0657684,49.580267 44.0657684,49.0625 C44.0657684,48.544733 44.4854633,48.125 45.0031832,48.125 L62.5015916,48.125 C63.0193115,48.125 63.4390063,48.544733 63.4390063,49.0625 C63.4390063,49.580267 63.0193115,50 62.5015916,50" id="Path" fill="#3592AF"></path>
                <path d="M44.0032741,10.4625 L41.2535242,7.5625 C41.1884685,7.50789675 41.0936004,7.50789675 41.0285447,7.5625 L26.6923487,18.6125 C25.5250723,19.5131672 24.0920282,20.00115 22.6177193,20 L12.0061845,20 L6.71916536,20.7125 C4.56471457,21.0050854 2.87407629,22.7061247 2.59454052,24.8625 L0.0947678888,43.9625 C0.0840392813,44.0242041 0.0995124135,44.0875881 0.137465462,44.137406 C0.17541851,44.1872239 0.232416593,44.218967 0.294749699,44.225 L4.04440864,44.85 C4.17039375,44.86647 4.28869121,44.7858053 4.31938363,44.6625 L7.44409942,29.8375 C7.47002142,29.723748 7.57116916,29.6430512 7.68782725,29.6430512 C7.80448534,29.6430512 7.90563309,29.723748 7.93155508,29.8375 L7.93155508,44.6625 L26.56736,44.6625 L26.56736,32.1625 C26.5684016,30.0072617 27.4064185,27.9366787 28.9046474,26.3875 L44.0032741,10.6875 C44.0635881,10.6246281 44.0635881,10.5253719 44.0032741,10.4625" id="Path" fill="#40BEEE"></path>
                <path d="M42.4159185,8.75 L26.6798498,24.125 C24.4741972,26.2832154 23.2307375,29.2389537 23.2301636,32.325 L23.2301636,44.6625 L26.5548612,44.6625 L26.5548612,32.1625 C26.5559027,30.0072617 27.3939196,27.9366787 28.8921486,26.3875 L44.0032741,10.6875 C44.0635881,10.6246281 44.0635881,10.5253719 44.0032741,10.4625 L42.4159185,8.75 Z" id="Path" fill="#3592AF"></path>
                <path d="M17.2057115,23.25 C17.2057115,23.25 22.3802409,22.1125 22.4177375,20 C21.308846,19.4530924 20.5152057,18.4240349 20.267933,17.2125 C20.267933,17.025 20.2054387,15.875 20.1929398,15.7125 L14.2309821,15.7125 C14.2309821,15.9125 14.1684878,17.0875 14.1309912,17.3 C13.8876621,18.4845464 13.1002686,19.4850902 12.0061845,20 C12.0061845,22.1 17.2057115,23.25 17.2057115,23.25" id="Path" fill="#E5C1BD"></path>
                <path d="M17.2057115,5.125 C14.2809776,5.125 11.9061936,8.1 11.9061936,11.775 C11.9061936,15.45 14.2809776,18.425 17.2057115,18.425 C20.1304455,18.425 22.5052295,15.45 22.5052295,11.775 C22.5052295,8.1 20.1429444,5.125 17.2057115,5.125" id="Path" fill="#F3D3CF"></path>
                <path d="M11.9811867,10.825 C11.1216044,9.36917189 10.9478197,7.60829855 11.5062299,6.0125 C12.3561526,2.75 14.8434264,3.35 14.8434264,3.35 C15.5881724,2.73416742 16.5418995,2.42966348 17.5056843,2.5 C19.8554705,2.5 21.8802864,3.0625 22.8052022,5.3125 C23.7301181,7.5625 22.5052295,10.825 22.5052295,10.825 C22.0043172,9.12123639 20.7520794,7.73996609 19.1055387,7.075 C19.1055387,7.075 18.1056297,8.2 15.0559071,8.2 C14.2942537,8.11254889 13.5305186,8.3456063 12.9474269,8.84341281 C12.3643351,9.34121931 12.014343,10.0589911 11.9811867,10.825" id="Path" fill="#3592AF"></path>
                <path d="M22.8177011,10.1375 C22.2552523,10 21.5053205,10.75 21.2553432,11.625 C21.0053659,12.5 21.367833,13.3 21.9427807,13.425 C22.5177284,13.55 23.192667,12.95 23.3801499,12.0875 C23.5676329,11.225 23.3801499,10.25 22.7677056,10.1375" id="Path" fill="#F3D3CF"></path>
                <path d="M11.6062208,10.1375 C12.1686697,10.0125 12.9186015,10.75 13.1185833,11.625 C13.3185651,12.5 13.0060935,13.3 12.4311458,13.425 C11.8561981,13.55 11.1812595,12.95 10.9937766,12.0875 C10.8062936,11.225 10.9937766,10.25 11.6062208,10.1375" id="Path" fill="#F3D3CF"></path>
                <path d="M43.8657866,10.3 L46.5155456,7.5 C46.7682156,7.25097989 46.9104769,6.91102422 46.9104769,6.55625 C46.9104769,6.20147578 46.7682156,5.86152011 46.5155456,5.6125 L46.2530695,5.3875 C45.7759511,4.92330493 45.0301147,4.88068183 44.5032287,5.2875 L41.3785129,7.7 L43.8657866,10.3 Z" id="Path" fill="#E5C1BD"></path>
                <path d="M0.469733783,44.25 L3.8569257,44.8125 L2.93200982,48.75 C2.7693432,49.3459778 2.19573921,49.7337269 1.5821326,49.6625 L1.01968376,49.575 C0.37832411,49.4547628 -0.0626231708,48.8613353 0.00727584678,48.2125 L0.469733783,44.25 Z" id="Path" fill="#E5C1BD"></path>
                <path d="M11.7687061,76.35 L5.10681201,76.35 C3.43630259,76.35 2.08208713,77.7043386 2.08208713,79.375 C2.07872661,79.5362845 2.1404483,79.6921279 2.25332618,79.8073679 C2.36620407,79.9226079 2.52072771,79.9875 2.68203256,79.9875 L11.681214,79.9875 C11.8597062,79.9869472 12.0286835,79.9069387 12.1422375,79.7692118 C12.2557915,79.6314849 12.3021289,79.4503431 12.2686606,79.275 L11.7687061,76.35 Z" id="Path" fill="#40BEEE"></path>
                <path d="M22.6552159,76.35 L29.3171099,76.35 C30.9876194,76.35 32.3418348,77.7043386 32.3418348,79.375 C32.3451953,79.5362845 32.2834736,79.6921279 32.1705958,79.8073679 C32.0577179,79.9226079 31.9031942,79.9875 31.7418894,79.9875 L22.7427079,79.9875 C22.5642158,79.9869472 22.3952384,79.9069387 22.2816844,79.7692118 C22.1681305,79.6314849 22.1217931,79.4503431 22.1552613,79.275 L22.6552159,76.35 Z" id="Path" fill="#40BEEE"></path>
                <path d="M28.1422168,76.35 L26.56736,44.6625 L7.89405849,44.6625 L6.25670742,76.35 L11.7812049,76.35 L16.7807502,51.1875 C16.816654,50.9773539 16.9987886,50.8236864 17.211961,50.8236864 C17.4251333,50.8236864 17.607268,50.9773539 17.6431717,51.1875 L22.642717,76.35 L28.1422168,76.35 Z" id="Path" fill="#8CABD9"></path>
                <polygon id="Path" fill="#7897CE" points="26.56736 44.6625 23.2301636 44.6625 24.7925215 76.35 28.1297179 76.35"></polygon>
                <polygon id="Path" fill="#153359" points="57.5020463 32.375 50.6401705 35.9875 51.9400522 28.3375 46.390557 22.925 54.064859 21.8125 57.5020463 14.85 60.9392337 21.8125 68.6135357 22.925 63.0640404 28.3375 64.3639222 35.9875"></polygon>
                <path d="M71.2507958,22.05 L61.7141632,20.6625 L57.5020463,12.025 L53.239934,20.6625 L43.7532969,22.05 L50.6026739,28.75 L48.9778217,38.25 L57.5020463,33.75 L66.026271,38.2375 L64.4014188,28.75 L71.2507958,22.05 Z M58.6644406,31.575 L57.5020463,30.9625 L56.3396521,31.575 L52.2900204,33.75 L53.0649499,29.25 L53.2899295,28 L52.3525147,27.0875 L49.0778126,23.75 L53.602401,23.0875 L54.8522873,22.9 L55.427235,21.725 L57.5020463,17.675 L59.5268622,21.775 L60.1018099,22.95 L61.3516962,23.1375 L65.8762846,23.8 L62.6015825,26.9875 L61.6641678,27.9 L61.8891473,29.15 L62.6640768,33.65 L58.6644406,31.575 Z" id="Shape" fill="#FFFFFF"></path>
            </g>
        </g>
    </g>
</svg>