<?xml version="1.0" encoding="UTF-8"?>
<svg width="90px" height="83px" viewBox="0 0 90 83" version="1.1" xmlns="http://www.w3.org/2000/svg" xmlns:xlink="http://www.w3.org/1999/xlink">
    <title>icon-net-rate</title>
    <g id="Design---2020" stroke="none" stroke-width="1" fill="none" fill-rule="evenodd">
        <g id="Review" transform="translate(-610.000000, -1148.000000)" fill-rule="nonzero">
            <g id="icon-net-rate" transform="translate(610.000000, 1148.000000)">
                <path d="M83.2793017,61.9052761 L75.0623441,65.7268968 L61.6583541,71.8763451 L37.1571072,70.6315175 L40.7107232,64.2580002 L62.1072319,63.0131726 C70.5486284,61.270414 76.6708229,57.0006554 79.8129676,56.9882071 C82.7057357,56.9882071 83.8653367,59.4778623 83.2793017,61.8679313" id="Path" fill="#E5C1BD"></path>
                <path d="M77.5311721,19.9172415 L69.8254364,3.39837932 L51.9950125,10.5436897 L59.2518703,13.2947587 C42.6184539,40.1581381 10.1995012,49.6437243 10.1995012,49.6437243 C10.1995012,49.6437243 47.605985,46.6934829 70.5112219,17.3653449 L77.5311721,19.9172415 Z" id="Path" fill="#153359"></path>
                <path d="M69.8254364,3.39837932 L51.9950125,10.5436897 L59.2518703,13.2947587 C42.6184539,40.1581381 10.1995012,49.6437243 10.1995012,49.6437243 C10.1995012,49.6437243 61.5710723,38.0917243 69.8254364,3.39837932" id="Path" fill="#40BEEE"></path>
                <path d="M85.0124688,3.39837932 L85.0124688,3.39837932 C82.2579314,3.39837932 80.0249377,5.62769251 80.0249377,8.37768969 L80.0249377,60.772483 L90,60.772483 L90,8.37768969 C90,5.62769251 87.7670062,3.39837932 85.0124688,3.39837932" id="Path" fill="#8DC63F"></path>
                <path d="M85.0124688,17.0914828 L85.0124688,17.0914828 C82.2579314,17.0914828 80.0249377,19.320796 80.0249377,22.0707932 L80.0249377,60.772483 L90,60.772483 L90,22.0707932 C90,19.320796 87.7670062,17.0914828 85.0124688,17.0914828" id="Path" fill="#1B7065"></path>
                <path d="M72.5436409,22.0707932 L72.5436409,22.0707932 C69.7891035,22.0707932 67.5561097,24.3001064 67.5561097,27.0501035 L67.5561097,65.6397589 C67.5561097,68.389756 69.7891035,70.6190692 72.5436409,70.6190692 L72.5436409,70.6190692 C75.2981783,70.6190692 77.5311721,68.389756 77.5311721,65.6397589 L77.5311721,27.0501035 C77.5311721,24.3001064 75.2981783,22.0707932 72.5436409,22.0707932" id="Path" fill="#8DC63F"></path>
                <path d="M72.5436409,32.0294139 L72.5436409,32.0294139 C69.7891035,32.0294139 67.5561097,34.2587271 67.5561097,37.0087243 L67.5561097,65.6397589 C67.5561097,68.389756 69.7891035,70.6190692 72.5436409,70.6190692 L72.5436409,70.6190692 C75.2981783,70.6190692 77.5311721,68.389756 77.5311721,65.6397589 L77.5311721,37.0087243 C77.5311721,34.2587271 75.2981783,32.0294139 72.5436409,32.0294139" id="Path" fill="#1B7065"></path>
                <path d="M60.074813,33.2742415 L60.074813,33.2742415 C57.3202756,33.2742415 55.0872818,35.5035547 55.0872818,38.2535519 L55.0872818,68.129414 C55.0872818,70.8794112 57.3202756,73.1087244 60.074813,73.1087244 C62.8293504,73.1087244 65.0623441,70.8794112 65.0623441,68.129414 L65.0623441,38.2535519 C65.0623441,35.5035547 62.8293504,33.2742415 60.074813,33.2742415" id="Path" fill="#8DC63F"></path>
                <path d="M60.074813,40.743207 L60.074813,40.743207 C57.3202756,40.743207 55.0872818,42.9725202 55.0872818,45.7225174 L55.0872818,68.129414 C55.0872818,70.8794112 57.3202756,73.1087244 60.074813,73.1087244 C62.8293504,73.1087244 65.0623441,70.8794112 65.0623441,68.129414 L65.0623441,45.7225174 C65.0623441,42.9725202 62.8293504,40.743207 60.074813,40.743207" id="Path" fill="#1B7065"></path>
                <path d="M47.605985,40.743207 L47.605985,40.743207 C44.8514476,40.743207 42.6184539,42.9725202 42.6184539,45.7225174 L42.6184539,68.129414 C42.6184539,70.8794112 44.8514476,73.1087244 47.605985,73.1087244 L47.605985,73.1087244 C50.3605224,73.1087244 52.5935162,70.8794112 52.5935162,68.129414 L52.5935162,45.7225174 C52.5935162,42.9725202 50.3605224,40.743207 47.605985,40.743207" id="Path" fill="#8DC63F"></path>
                <path d="M47.605985,45.7225174 L47.605985,45.7225174 C44.8514476,45.7225174 42.6184539,47.9518306 42.6184539,50.7018278 L42.6184539,68.129414 C42.6184539,70.8794112 44.8514476,73.1087244 47.605985,73.1087244 L47.605985,73.1087244 C50.3605224,73.1087244 52.5935162,70.8794112 52.5935162,68.129414 L52.5935162,50.7018278 C52.5935162,47.9518306 50.3605224,45.7225174 47.605985,45.7225174" id="Path" fill="#1B7065"></path>
                <path d="M35.1371571,45.7225174 L35.1371571,45.7225174 C32.3826197,45.7225174 30.1496259,47.9518306 30.1496259,50.7018278 L30.1496259,68.129414 C30.1496259,70.8794112 32.3826197,73.1087244 35.1371571,73.1087244 L35.1371571,73.1087244 C37.8916945,73.1087244 40.1246883,70.8794112 40.1246883,68.129414 L40.1246883,50.7018278 C40.1246883,47.9518306 37.8916945,45.7225174 35.1371571,45.7225174" id="Path" fill="#8DC63F"></path>
                <path d="M35.1371571,49.4570002 L35.1371571,49.4570002 C32.3826197,49.4570002 30.1496259,51.6863134 30.1496259,54.4363105 L30.1496259,68.129414 C30.1496259,70.8794112 32.3826197,73.1087244 35.1371571,73.1087244 L35.1371571,73.1087244 C37.8916945,73.1087244 40.1246883,70.8794112 40.1246883,68.129414 L40.1246883,54.4363105 C40.1246883,51.6863134 37.8916945,49.4570002 35.1371571,49.4570002" id="Path" fill="#1B7065"></path>
                <path d="M10.1995012,19.581138 C10.1995012,10.6436472 17.456731,3.39837932 26.4089776,3.39837932 C35.3612241,3.39837932 42.6184539,10.6436472 42.6184539,19.581138 C42.6184539,28.5186288 35.3612241,35.7638967 26.4089776,35.7638967 C17.456731,35.7638967 10.1995012,28.5186288 10.1995012,19.581138" id="Path" fill="#DE7526"></path>
                <path d="M13.3167082,19.581138 C13.3167082,12.3623954 19.1783169,6.5104483 26.4089776,6.5104483 C33.6396382,6.5104483 39.5012469,12.3623954 39.5012469,19.581138 C39.5012469,26.7998806 33.6396382,32.6518277 26.4089776,32.6518277 C19.1783169,32.6518277 13.3167082,26.7998806 13.3167082,19.581138" id="Path" fill="#F2A11F"></path>
                <path d="M26.4214464,28.9920346 C24.1360273,29.0490406 22.0405862,27.728044 21.1097257,25.6434484 C20.8687037,25.072824 21.1366629,24.4151766 21.7082294,24.1745518 C22.2797959,23.9339271 22.9385291,24.2014446 23.1795511,24.7720691 C23.774393,26.0126003 25.0443125,26.7879249 26.4214464,26.7513449 C27.288396,26.8164 28.1455599,26.5337702 28.8031696,25.9660273 C29.4607793,25.3982844 29.8645848,24.5922647 29.925187,23.7264139 C29.925187,22.3446553 29.3266833,20.7014828 26.4588529,20.7014828 C22.2568579,20.7014828 20.7605985,17.9753104 20.7605985,15.4358621 C20.8822507,12.4111111 23.4284972,10.0526232 26.4588529,10.1577931 C28.7427519,10.1080106 30.8327953,11.4336143 31.7581047,13.5188276 C31.9956836,14.0860146 31.7277243,14.7380887 31.159601,14.9752759 C30.5914777,15.2124632 29.938327,14.9449456 29.7007481,14.3777587 C29.0839884,13.1396641 27.792456,12.3826279 26.4089776,12.4482759 C24.6174339,12.3416761 23.0752347,13.6979085 22.9551122,15.4856552 C22.9551122,17.4649311 24.201995,18.5105863 26.4089776,18.5105863 C30.6109726,18.5105863 32.1197007,21.2243104 32.1197007,23.776207 C31.998098,26.7991182 29.4497045,29.1540277 26.4214464,29.0418277" id="Path" fill="#FFFFFF"></path>
                <path d="M26.4089776,12.4482759 C25.7892066,12.4482759 25.286783,11.9466804 25.286783,11.3279311 L25.286783,9.00010348 C25.286783,8.38135412 25.7892066,7.87975865 26.4089776,7.87975865 C27.0287485,7.87975865 27.5311721,8.38135412 27.5311721,9.00010348 L27.5311721,11.278138 C27.5311721,11.8968873 27.0287485,12.3984828 26.4089776,12.3984828" id="Path" fill="#FFFFFF"></path>
                <path d="M26.4089776,31.2825174 C25.7892066,31.2825174 25.286783,30.7809219 25.286783,30.1621725 L25.286783,27.8716898 C25.286783,27.2529404 25.7892066,26.7513449 26.4089776,26.7513449 C27.0287485,26.7513449 27.5311721,27.2529404 27.5311721,27.8716898 L27.5311721,30.1621725 C27.5311721,30.7809219 27.0287485,31.2825174 26.4089776,31.2825174" id="Path" fill="#FFFFFF"></path>
                <path d="M36.3840399,19.581138 C36.3840399,20.2686373 35.8257915,20.8259656 35.1371571,20.8259656 C34.4485228,20.8259656 33.8902743,20.2686373 33.8902743,19.581138 C33.8902743,18.8936387 34.4485228,18.3363104 35.1371571,18.3363104 C35.8257915,18.3363104 36.3840399,18.8936387 36.3840399,19.581138" id="Path" fill="#FFFFFF"></path>
                <path d="M18.9276808,19.581138 C18.9276808,20.2686373 18.3694324,20.8259656 17.680798,20.8259656 C16.9921637,20.8259656 16.4339152,20.2686373 16.4339152,19.581138 C16.4339152,18.8936387 16.9921637,18.3363104 17.680798,18.3363104 C18.3694324,18.3363104 18.9276808,18.8936387 18.9276808,19.581138" id="Path" fill="#FFFFFF"></path>
                <path d="M65.0997506,65.8389313 C63.6658354,66.411552 61.3591022,64.4322761 57.2568579,64.9302071 C57.2568579,64.9302071 38.3790524,60.996552 23.117207,60.7226899 C23.117207,60.7226899 23.117207,73.046483 23.117207,73.046483 C27.8553616,74.8639313 52.2069825,91.0342417 88.0174564,63.5484485 L88.1296758,63.4737589 C88.40399,63.299483 90.798005,61.718552 89.713217,59.7392761 C87.6558603,56.0047933 75.6982544,61.5940692 65.0997506,65.8140347" id="Path" fill="#E5C1BD"></path>
                <path d="M70.0872818,68.0173796 C68.7157107,68.7269313 67.2942643,69.4613796 65.8354115,70.1958278 L65.8354115,70.1958278 C62.2699712,71.8894357 58.3620058,72.7412969 54.4139651,72.685483 C50.8761148,72.639242 47.3593859,72.1328978 43.9526185,71.1792416 C43.4502439,71.0865877 43.0423484,70.7205025 42.8967661,70.2316168 C42.7511838,69.7427311 42.8925089,69.2136355 43.2625912,68.8620338 C43.6326735,68.510432 44.1689927,68.3957223 44.6508728,68.5651037 C52.680798,70.6813106 59.0274314,70.4198968 64.6009975,67.7186209 L64.6009975,67.7186209 C67.0947631,66.4737934 67.0947631,65.9883106 67.244389,65.0671382 C67.504472,63.887189 67.2407798,62.6526013 66.521197,61.6812071 C65.7656819,61.0165082 64.7845306,60.6647664 63.7780549,60.6977933 C50.7605985,60.9218623 48.3915212,59.5276554 45.6483791,57.9218278 C43.1546135,56.4653795 37.1321696,54.6977243 21.8703242,54.4363105 C21.8703242,54.4363105 21.8703242,76.7187244 21.8703242,76.7187244 C26.6209476,78.5361727 50.798005,94.4824141 86.7705736,67.2206899 C86.7705736,67.2206899 89.5511222,65.3907933 88.4663342,63.4862071 C86.4089776,59.7517244 80.1496259,62.7891037 70.0872818,68.0049313" id="Path" fill="#F3D3CF"></path>
                <path d="M21.4214464,53.3782071 L11.446384,53.3782071 C10.7577497,53.3782071 10.1995012,53.9355354 10.1995012,54.6230347 L10.1995012,77.0299313 C10.1995012,77.7174306 10.7577497,78.2747589 11.446384,78.2747589 L21.4214464,78.2747589 C22.1100807,78.2747589 22.6683292,77.7174306 22.6683292,77.0299313 L22.6683292,54.6230347 C22.6683292,53.9355354 22.1100807,53.3782071 21.4214464,53.3782071" id="Path" fill="#40BEEE"></path>
                <path d="M18.3042394,72.6730348 C18.3042394,71.6417858 17.4668667,70.8057934 16.4339152,70.8057934 C15.4009637,70.8057934 14.563591,71.6417858 14.563591,72.6730348 C14.563591,73.7042837 15.4009637,74.5402761 16.4339152,74.5402761 C17.4668667,74.5402761 18.3042394,73.7042837 18.3042394,72.6730348" id="Path" fill="#FFFFFF"></path>
                <polygon id="Path" fill="#A6228B" points="41.80798 0 43.0049875 2.48965518 41.80798 4.97931036 44.3017456 3.78427588 46.7955112 4.97931036 45.6109726 2.48965518 46.7955112 0 44.3017456 1.18258621"></polygon>
                <polygon id="Path" fill="#A6228B" points="45.5985037 11.2034483 46.7830424 13.6931035 45.5985037 16.1827587 48.0922693 14.9877242 50.5860349 16.1827587 49.3890274 13.6931035 50.5860349 11.2034483 48.0922693 12.3984828"></polygon>
                <polygon id="Path" fill="#A6228B" points="10.3990025 37.855207 11.5835411 40.3448622 10.3990025 42.8345174 12.8927681 41.6519312 15.3865337 42.8345174 14.1895262 40.3448622 15.3865337 37.855207 12.8927681 39.0502415"></polygon>
                <polygon id="Path" fill="#A6228B" points="0 6.01251726 1.18453865 8.50217245 0 10.9918276 2.49376559 9.80924142 4.98753117 10.9918276 3.79052369 8.50217245 4.98753117 6.01251726 2.49376559 7.20755175"></polygon>
            </g>
        </g>
    </g>
</svg>